<?xml version="1.0" encoding="UTF-8"?>

<!DOCTYPE svg PUBLIC '-//W3C//DTD SVG 20001102//EN' 'http://www.w3.org/TR/2000/CR-SVG-20001102/DTD/svg-20001102.dtd'>
<svg style="fill-opacity:1; color-rendering:auto; color-interpolation:sRGB; text-rendering:auto; stroke:black; stroke-linecap:square; stroke-miterlimit:10; shape-rendering:auto; stroke-opacity:1; fill:black; stroke-dasharray:none; font-weight:normal; stroke-width:1; font-family:&apos;sansserif&apos;; font-style:normal; stroke-linejoin:miter; font-size:12; stroke-dashoffset:0; image-rendering:auto;" width="183" height="212">
  <!--Generated by the Batik Graphics2D SVG Generator-->
  <defs id="genericDefs" />
  <g>
    <defs id="defs1">
      <clipPath clipPathUnits="userSpaceOnUse" id="clipPath1">
        <path d="M0 0 L183 0 L183 212 L0 212 L0 0 Z" />
      </clipPath>
      <clipPath clipPathUnits="userSpaceOnUse" id="clipPath2">
        <path d="M26 10 L26 199 L170 199 L170 10 Z" />
      </clipPath>
      <clipPath clipPathUnits="userSpaceOnUse" id="clipPath3">
        <path d="M27 11 L27 66 L170 66 L170 11 Z" />
      </clipPath>
      <clipPath clipPathUnits="userSpaceOnUse" id="clipPath4">
        <path d="M26 78 L26 97 L170 97 L170 78 Z" />
      </clipPath>
      <clipPath clipPathUnits="userSpaceOnUse" id="clipPath5">
        <path d="M28 80 L28 96 L169 96 L169 80 Z" />
      </clipPath>
      <clipPath clipPathUnits="userSpaceOnUse" id="clipPath6">
        <path d="M26 109 L26 158 L170 158 L170 109 Z" />
      </clipPath>
      <clipPath clipPathUnits="userSpaceOnUse" id="clipPath7">
        <path d="M28 111 L28 157 L169 157 L169 111 Z" />
      </clipPath>
      <clipPath clipPathUnits="userSpaceOnUse" id="clipPath8">
        <path d="M26 170 L26 189 L170 189 L170 170 Z" />
      </clipPath>
      <clipPath clipPathUnits="userSpaceOnUse" id="clipPath9">
        <path d="M28 172 L28 188 L169 188 L169 172 Z" />
      </clipPath>
    </defs>
    <g style="fill:navy; stroke:navy;">
      <polygon style="clip-path:url(#clipPath1); stroke:none;" points=" 21 13 172 13 172 201 21 201 21 27 13 27 13 19 21 19 21 13" />
      <polygon style="fill:white; clip-path:url(#clipPath1); stroke:none;" points=" 18 10 169 10 169 198 18 198 18 24 10 24 10 16 18 16 18 10" />
      <polygon style="fill:none; clip-path:url(#clipPath1); stroke:black;" points=" 18 10 169 10 169 198 18 198 18 24 10 24 10 16 18 16 18 10" />
      <line x1="18" x2="26" y1="24" style="clip-path:url(#clipPath1); fill:none; stroke:black;" y2="24" />
      <line x1="26" x2="26" y1="24" style="clip-path:url(#clipPath1); fill:none; stroke:black;" y2="16" />
      <line x1="26" x2="18" y1="16" style="clip-path:url(#clipPath1); fill:none; stroke:black;" y2="16" />
    </g>
    <g style="font-family:sans-serif;">
      <text x="130" y="23" style="clip-path:url(#clipPath3); stroke:none;">JLabel
      </text>
      <text x="77" y="41" style="font-style:italic; clip-path:url(#clipPath3); stroke:none;">ChangeListener
      </text>
      <text x="31" y="62" style="clip-path:url(#clipPath3); font-weight:bold; stroke:none;">SliderControlledLabel
      </text>
    </g>
    <g>
      <line x1="26" x2="169" y1="71" style="clip-path:url(#clipPath2); fill:none;" y2="71" />
    </g>
    <g style="font-family:sans-serif;">
      <text x="32" y="92" style="clip-path:url(#clipPath5); stroke:none;">-JSlider $slider
      </text>
    </g>
    <g>
      <line x1="26" x2="169" y1="102" style="clip-path:url(#clipPath2); fill:none;" y2="102" />
    </g>
    <g style="font-family:sans-serif;">
      <text x="32" y="123" style="clip-path:url(#clipPath7); stroke:none;">+SliderControlledLabel
      </text>
      <text x="32" y="138" style="clip-path:url(#clipPath7); stroke:none;">+void stateChanged
      </text>
      <text x="32" y="153" style="clip-path:url(#clipPath7); stroke:none;">+void terminate
      </text>
    </g>
    <g>
      <line x1="26" x2="169" y1="163" style="clip-path:url(#clipPath2); fill:none;" y2="163" />
    </g>
    <g style="font-family:sans-serif;">
      <text x="32" y="184" style="clip-path:url(#clipPath9); stroke:none;"> JSlider slider
      </text>
    </g>
  </g>
</svg>
