<?xml version="1.0" encoding="UTF-8"?>

<!DOCTYPE svg PUBLIC '-//W3C//DTD SVG 20001102//EN' 'http://www.w3.org/TR/2000/CR-SVG-20001102/DTD/svg-20001102.dtd'>
<svg style="fill-opacity:1; color-interpolation:sRGB; color-rendering:auto; text-rendering:auto; stroke:black; stroke-linecap:square; stroke-miterlimit:10; stroke-opacity:1; shape-rendering:auto; fill:black; stroke-dasharray:none; font-weight:normal; stroke-width:1; font-family:&apos;Lucida Sans&apos;; font-style:normal; stroke-linejoin:miter; font-size:12; image-rendering:auto; stroke-dashoffset:0;" width="246" height="904">
  <!--Generated by the Batik Graphics2D SVG Generator-->
  <defs id="genericDefs" />
  <g>
    <defs id="defs1">
      <clipPath clipPathUnits="userSpaceOnUse" id="clipPath1">
        <path d="M0 0 L246 0 L246 904 L0 904 L0 0 Z" />
      </clipPath>
      <clipPath clipPathUnits="userSpaceOnUse" id="clipPath2">
        <path d="M36 676 L36 891 L182 891 L182 676 Z" />
      </clipPath>
      <clipPath clipPathUnits="userSpaceOnUse" id="clipPath3">
        <path d="M37 677 L37 722 L182 722 L182 677 Z" />
      </clipPath>
      <clipPath clipPathUnits="userSpaceOnUse" id="clipPath4">
        <path d="M36 747 L36 795 L182 795 L182 747 Z" />
      </clipPath>
      <clipPath clipPathUnits="userSpaceOnUse" id="clipPath5">
        <path d="M38 749 L38 794 L181 794 L181 749 Z" />
      </clipPath>
      <clipPath clipPathUnits="userSpaceOnUse" id="clipPath6">
        <path d="M36 807 L36 877 L182 877 L182 807 Z" />
      </clipPath>
      <clipPath clipPathUnits="userSpaceOnUse" id="clipPath7">
        <path d="M38 809 L38 876 L181 876 L181 809 Z" />
      </clipPath>
      <clipPath clipPathUnits="userSpaceOnUse" id="clipPath8">
        <path d="M36 876 L36 891 L182 891 L182 876 Z" />
      </clipPath>
      <clipPath clipPathUnits="userSpaceOnUse" id="clipPath9">
        <path d="M36 20 L36 323 L182 323 L182 20 Z" />
      </clipPath>
      <clipPath clipPathUnits="userSpaceOnUse" id="clipPath10">
        <path d="M37 21 L37 88 L182 88 L182 21 Z" />
      </clipPath>
      <clipPath clipPathUnits="userSpaceOnUse" id="clipPath11">
        <path d="M36 113 L36 271 L182 271 L182 113 Z" />
      </clipPath>
      <clipPath clipPathUnits="userSpaceOnUse" id="clipPath12">
        <path d="M38 115 L38 270 L181 270 L181 115 Z" />
      </clipPath>
      <clipPath clipPathUnits="userSpaceOnUse" id="clipPath13">
        <path d="M36 283 L36 309 L182 309 L182 283 Z" />
      </clipPath>
      <clipPath clipPathUnits="userSpaceOnUse" id="clipPath14">
        <path d="M38 285 L38 308 L181 308 L181 285 Z" />
      </clipPath>
      <clipPath clipPathUnits="userSpaceOnUse" id="clipPath15">
        <path d="M36 308 L36 323 L182 323 L182 308 Z" />
      </clipPath>
      <clipPath clipPathUnits="userSpaceOnUse" id="clipPath16">
        <path d="M87 395 L87 604 L233 604 L233 395 Z" />
      </clipPath>
      <clipPath clipPathUnits="userSpaceOnUse" id="clipPath17">
        <path d="M88 396 L88 419 L233 419 L233 396 Z" />
      </clipPath>
      <clipPath clipPathUnits="userSpaceOnUse" id="clipPath18">
        <path d="M87 454 L87 590 L233 590 L233 454 Z" />
      </clipPath>
      <clipPath clipPathUnits="userSpaceOnUse" id="clipPath19">
        <path d="M89 456 L89 589 L232 589 L232 456 Z" />
      </clipPath>
      <clipPath clipPathUnits="userSpaceOnUse" id="clipPath20">
        <path d="M87 589 L87 604 L233 604 L233 589 Z" />
      </clipPath>
    </defs>
    <g style="fill:blue; stroke:blue;">
      <line x1="77" x2="77" y1="676" style="clip-path:url(#clipPath1); fill:none;" y2="325" />
      <line x1="67" x2="67" y1="676" style="clip-path:url(#clipPath1); fill:none;" y2="325" />
      <line x1="135" x2="135" y1="395" style="clip-path:url(#clipPath1); fill:none; stroke:teal;" y2="395" />
      <line x1="135" x2="135" y1="395" style="clip-path:url(#clipPath1); fill:none; stroke:teal;" y2="385" />
      <line x1="135" x2="135" y1="380" style="clip-path:url(#clipPath1); fill:none; stroke:teal;" y2="370" />
      <line x1="135" x2="135" y1="365" style="clip-path:url(#clipPath1); fill:none; stroke:teal;" y2="355" />
      <line x1="135" x2="135" y1="350" style="clip-path:url(#clipPath1); fill:none; stroke:teal;" y2="340" />
      <line x1="135" x2="135" y1="335" style="clip-path:url(#clipPath1); fill:none; stroke:teal;" y2="325" />
      <line x1="135" x2="135" y1="676" style="clip-path:url(#clipPath1); fill:none; stroke:rgb(0,64,64);" y2="606" />
      <line x1="77" x2="72" y1="325" style="clip-path:url(#clipPath1); fill:none;" y2="337" />
      <line x1="77" x2="82" y1="325" style="clip-path:url(#clipPath1); fill:none;" y2="337" />
      <line x1="67" x2="62" y1="325" style="clip-path:url(#clipPath1); fill:none;" y2="337" />
      <line x1="67" x2="72" y1="325" style="clip-path:url(#clipPath1); fill:none;" y2="337" />
      <polygon style="fill:white; clip-path:url(#clipPath1); stroke:none;" points=" 135 325 141 343 129 343" />
      <polygon style="fill:none; clip-path:url(#clipPath1); stroke:teal;" points=" 135 325 141 343 129 343" />
      <line x1="129" x2="135" y1="343" style="clip-path:url(#clipPath1); fill:none; stroke:teal;" y2="325" />
      <polygon style="fill:white; clip-path:url(#clipPath1); stroke:none;" points=" 135 606 141 624 129 624" />
      <polygon style="fill:none; clip-path:url(#clipPath1); stroke:rgb(0,64,64);" points=" 135 606 141 624 129 624" />
      <line x1="129" x2="135" y1="624" style="clip-path:url(#clipPath1); fill:none; stroke:rgb(0,64,64);" y2="606" />
      <polygon style="fill:navy; clip-path:url(#clipPath1); stroke:none;" points=" 31 679 184 679 184 893 31 893 31 693 23 693 23 685 31 685 31 679" />
      <polygon style="fill:white; clip-path:url(#clipPath1); stroke:none;" points=" 28 676 181 676 181 890 28 890 28 690 20 690 20 682 28 682 28 676" />
      <polygon style="fill:none; clip-path:url(#clipPath1); stroke:black;" points=" 28 676 181 676 181 890 28 890 28 690 20 690 20 682 28 682 28 676" />
      <line x1="28" x2="36" y1="690" style="clip-path:url(#clipPath1); fill:none; stroke:black;" y2="690" />
      <line x1="36" x2="36" y1="690" style="clip-path:url(#clipPath1); fill:none; stroke:black;" y2="682" />
      <line x1="36" x2="28" y1="682" style="clip-path:url(#clipPath1); fill:none; stroke:black;" y2="682" />
    </g>
    <g style="font-family:sans-serif;">
      <text x="67" y="694" style="clip-path:url(#clipPath3); stroke:none;">AbstractPredicate
      </text>
      <text x="54" y="716" style="clip-path:url(#clipPath3); font-style:italic; stroke:none; font-weight:bold;">BinaryPredicate
      </text>
    </g>
    <g>
      <line x1="36" x2="181" y1="727" style="clip-path:url(#clipPath2); fill:none;" y2="727" />
      <line x1="36" x2="181" y1="740" style="clip-path:url(#clipPath2); fill:none;" y2="740" />
    </g>
    <g style="font-family:sans-serif;">
      <text x="42" y="766" style="clip-path:url(#clipPath5); stroke:none;">+BinaryPredicate
      </text>
      <text x="42" y="788" style="clip-path:url(#clipPath5); stroke:none;">+nbSubPredicates:int
      </text>
    </g>
    <g>
      <line x1="36" x2="181" y1="800" style="clip-path:url(#clipPath2); fill:none;" y2="800" />
    </g>
    <g style="font-family:sans-serif;">
      <text x="42" y="826" style="clip-path:url(#clipPath7); stroke:none;"> first:Predicate
      </text>
      <text x="42" y="848" style="clip-path:url(#clipPath7); stroke:none;"> second:Predicate
      </text>
      <text x="42" y="870" style="clip-path:url(#clipPath7); stroke:none;"> subPredicates:List
      </text>
    </g>
    <g>
      <polygon style="fill:none; clip-path:url(#clipPath8);" points=" 174 881 175 881 175 879 176 878 176 878 177 879 177 881 178 881 178 884 174 884 174 881" />
      <line x1="174" x2="178" y1="881" style="clip-path:url(#clipPath8); fill:none;" y2="881" />
    </g>
    <g style="fill:navy; stroke:navy;">
      <polygon style="clip-path:url(#clipPath1); stroke:none;" points=" 31 23 184 23 184 325 31 325 31 37 23 37 23 29 31 29 31 23" />
      <polygon style="fill:white; clip-path:url(#clipPath1); stroke:none;" points=" 28 20 181 20 181 322 28 322 28 34 20 34 20 26 28 26 28 20" />
      <polygon style="fill:none; clip-path:url(#clipPath1); stroke:black;" points=" 28 20 181 20 181 322 28 322 28 34 20 34 20 26 28 26 28 20" />
      <line x1="28" x2="36" y1="34" style="clip-path:url(#clipPath1); fill:none; stroke:black;" y2="34" />
      <line x1="36" x2="36" y1="34" style="clip-path:url(#clipPath1); fill:none; stroke:black;" y2="26" />
      <line x1="36" x2="28" y1="26" style="clip-path:url(#clipPath1); fill:none; stroke:black;" y2="26" />
    </g>
    <g style="font-family:sans-serif;">
      <text x="58" y="38" style="clip-path:url(#clipPath10); stroke:none;">CollectionOperator
      </text>
      <text x="81" y="60" style="clip-path:url(#clipPath10); stroke:none;">interface
      </text>
      <text x="76" y="82" style="clip-path:url(#clipPath10); font-style:italic; stroke:none; font-weight:bold;">Predicate
      </text>
    </g>
    <g>
      <line x1="36" x2="181" y1="93" style="clip-path:url(#clipPath9); fill:none;" y2="93" />
      <line x1="36" x2="181" y1="106" style="clip-path:url(#clipPath9); fill:none;" y2="106" />
    </g>
    <g style="font-family:sans-serif; font-style:italic;">
      <text x="42" y="132" style="clip-path:url(#clipPath12); stroke:none;">+eval:boolean
      </text>
      <text x="42" y="154" style="clip-path:url(#clipPath12); stroke:none;">+exists:boolean
      </text>
      <text x="42" y="176" style="clip-path:url(#clipPath12); stroke:none;">+forall:boolean
      </text>
      <text x="42" y="198" style="clip-path:url(#clipPath12); stroke:none;">+count:int
      </text>
      <text x="42" y="220" style="clip-path:url(#clipPath12); stroke:none;">+filter:void
      </text>
      <text x="42" y="242" style="clip-path:url(#clipPath12); stroke:none;">+equals:boolean
      </text>
      <text x="42" y="264" style="clip-path:url(#clipPath12); stroke:none;">+nbSubPredicates:int
      </text>
    </g>
    <g>
      <line x1="36" x2="181" y1="276" style="clip-path:url(#clipPath9); fill:none;" y2="276" />
    </g>
    <g style="font-family:sans-serif;">
      <text x="42" y="302" style="clip-path:url(#clipPath14); stroke:none;"> subPredicates:List
      </text>
    </g>
    <g>
      <polygon style="fill:none; clip-path:url(#clipPath15);" points=" 174 313 175 313 175 311 176 310 176 310 177 311 177 313 178 313 178 316 174 316 174 313" />
      <line x1="174" x2="178" y1="313" style="clip-path:url(#clipPath15); fill:none;" y2="313" />
    </g>
    <g style="fill:navy; stroke:navy;">
      <rect x="90" y="398" width="145" style="clip-path:url(#clipPath1); stroke:none;" height="208" />
      <rect x="87" y="395" width="145" style="clip-path:url(#clipPath1); fill:white; stroke:none;" height="208" />
      <rect x="87" y="395" width="145" style="clip-path:url(#clipPath1); fill:none; stroke:black;" height="208" />
    </g>
    <g style="font-style:italic; font-weight:bold; font-family:sans-serif;">
      <text x="97" y="413" style="clip-path:url(#clipPath17); stroke:none;">AbstractPredicate
      </text>
    </g>
    <g>
      <line x1="87" x2="232" y1="424" style="clip-path:url(#clipPath16); fill:none;" y2="424" />
      <line x1="87" x2="232" y1="447" style="clip-path:url(#clipPath16); fill:none;" y2="447" />
    </g>
    <g style="font-family:sans-serif;">
      <text x="93" y="473" style="clip-path:url(#clipPath19); stroke:none;">+exists:boolean
      </text>
      <text x="93" y="495" style="clip-path:url(#clipPath19); stroke:none;">+forall:boolean
      </text>
      <text x="93" y="517" style="clip-path:url(#clipPath19); stroke:none;">+count:int
      </text>
      <text x="93" y="539" style="clip-path:url(#clipPath19); stroke:none;">+filter:void
      </text>
      <text x="93" y="561" style="clip-path:url(#clipPath19); stroke:none;">+equals:boolean
      </text>
      <text x="93" y="583" style="clip-path:url(#clipPath19); stroke:none;">+nbSubPredicates:int
      </text>
    </g>
    <g>
      <polygon style="fill:none; clip-path:url(#clipPath20);" points=" 225 594 226 594 226 592 227 591 227 591 228 592 228 594 229 594 229 597 225 597 225 594" />
      <line x1="225" x2="229" y1="594" style="clip-path:url(#clipPath20); fill:none;" y2="594" />
    </g>
  </g>
</svg>
