<?xml version="1.0" encoding="UTF-8"?>

<!DOCTYPE svg PUBLIC '-//W3C//DTD SVG 20001102//EN' 'http://www.w3.org/TR/2000/CR-SVG-20001102/DTD/svg-20001102.dtd'>
<svg style="fill-opacity:1; color-interpolation:sRGB; color-rendering:auto; text-rendering:auto; stroke:black; stroke-linecap:square; stroke-miterlimit:10; stroke-opacity:1; shape-rendering:auto; fill:black; stroke-dasharray:none; font-weight:normal; stroke-width:1; font-family:&apos;Lucida Sans&apos;; font-style:normal; stroke-linejoin:miter; font-size:12; image-rendering:auto; stroke-dashoffset:0;" width="185" height="326">
  <!--Generated by the Batik Graphics2D SVG Generator-->
  <defs id="genericDefs" />
  <g>
    <defs id="defs1">
      <clipPath clipPathUnits="userSpaceOnUse" id="clipPath1">
        <path d="M0 0 L185 0 L185 326 L0 326 L0 0 Z" />
      </clipPath>
      <clipPath clipPathUnits="userSpaceOnUse" id="clipPath2">
        <path d="M26 10 L26 313 L172 313 L172 10 Z" />
      </clipPath>
      <clipPath clipPathUnits="userSpaceOnUse" id="clipPath3">
        <path d="M27 11 L27 78 L172 78 L172 11 Z" />
      </clipPath>
      <clipPath clipPathUnits="userSpaceOnUse" id="clipPath4">
        <path d="M26 103 L26 261 L172 261 L172 103 Z" />
      </clipPath>
      <clipPath clipPathUnits="userSpaceOnUse" id="clipPath5">
        <path d="M28 105 L28 260 L171 260 L171 105 Z" />
      </clipPath>
      <clipPath clipPathUnits="userSpaceOnUse" id="clipPath6">
        <path d="M26 273 L26 299 L172 299 L172 273 Z" />
      </clipPath>
      <clipPath clipPathUnits="userSpaceOnUse" id="clipPath7">
        <path d="M28 275 L28 298 L171 298 L171 275 Z" />
      </clipPath>
      <clipPath clipPathUnits="userSpaceOnUse" id="clipPath8">
        <path d="M26 298 L26 313 L172 313 L172 298 Z" />
      </clipPath>
    </defs>
    <g style="fill:navy; stroke:navy;">
      <polygon style="clip-path:url(#clipPath1); stroke:none;" points=" 21 13 174 13 174 315 21 315 21 27 13 27 13 19 21 19 21 13" />
      <polygon style="fill:white; clip-path:url(#clipPath1); stroke:none;" points=" 18 10 171 10 171 312 18 312 18 24 10 24 10 16 18 16 18 10" />
      <polygon style="fill:none; clip-path:url(#clipPath1); stroke:black;" points=" 18 10 171 10 171 312 18 312 18 24 10 24 10 16 18 16 18 10" />
      <line x1="18" x2="26" y1="24" style="clip-path:url(#clipPath1); fill:none; stroke:black;" y2="24" />
      <line x1="26" x2="26" y1="24" style="clip-path:url(#clipPath1); fill:none; stroke:black;" y2="16" />
      <line x1="26" x2="18" y1="16" style="clip-path:url(#clipPath1); fill:none; stroke:black;" y2="16" />
    </g>
    <g style="font-family:sans-serif;">
      <text x="48" y="28" style="clip-path:url(#clipPath3); stroke:none;">CollectionOperator
      </text>
      <text x="71" y="50" style="clip-path:url(#clipPath3); stroke:none;">interface
      </text>
      <text x="66" y="72" style="clip-path:url(#clipPath3); font-style:italic; stroke:none; font-weight:bold;">Predicate
      </text>
    </g>
    <g>
      <line x1="26" x2="171" y1="83" style="clip-path:url(#clipPath2); fill:none;" y2="83" />
      <line x1="26" x2="171" y1="96" style="clip-path:url(#clipPath2); fill:none;" y2="96" />
    </g>
    <g style="font-family:sans-serif; font-style:italic;">
      <text x="32" y="122" style="clip-path:url(#clipPath5); stroke:none;">+eval:boolean
      </text>
      <text x="32" y="144" style="clip-path:url(#clipPath5); stroke:none;">+exists:boolean
      </text>
      <text x="32" y="166" style="clip-path:url(#clipPath5); stroke:none;">+forall:boolean
      </text>
      <text x="32" y="188" style="clip-path:url(#clipPath5); stroke:none;">+count:int
      </text>
      <text x="32" y="210" style="clip-path:url(#clipPath5); stroke:none;">+filter:void
      </text>
      <text x="32" y="232" style="clip-path:url(#clipPath5); stroke:none;">+equals:boolean
      </text>
      <text x="32" y="254" style="clip-path:url(#clipPath5); stroke:none;">+nbSubPredicates:int
      </text>
    </g>
    <g>
      <line x1="26" x2="171" y1="266" style="clip-path:url(#clipPath2); fill:none;" y2="266" />
    </g>
    <g style="font-family:sans-serif;">
      <text x="32" y="292" style="clip-path:url(#clipPath7); stroke:none;"> subPredicates:List
      </text>
    </g>
    <g>
      <polygon style="fill:none; clip-path:url(#clipPath8);" points=" 164 303 165 303 165 301 166 300 166 300 167 301 167 303 168 303 168 306 164 306 164 303" />
      <line x1="164" x2="168" y1="303" style="clip-path:url(#clipPath8); fill:none;" y2="303" />
    </g>
  </g>
</svg>
