<?xml version="1.0" encoding="UTF-8"?>

<!DOCTYPE svg PUBLIC '-//W3C//DTD SVG 20001102//EN' 'http://www.w3.org/TR/2000/CR-SVG-20001102/DTD/svg-20001102.dtd'>
<svg style="fill-opacity:1; color-interpolation:sRGB; color-rendering:auto; text-rendering:auto; stroke:black; stroke-linecap:square; stroke-miterlimit:10; stroke-opacity:1; shape-rendering:auto; fill:black; stroke-dasharray:none; font-weight:normal; stroke-width:1; font-family:&apos;Lucida Sans&apos;; font-style:normal; stroke-linejoin:miter; font-size:12; image-rendering:auto; stroke-dashoffset:0;" width="225" height="1065">
  <!--Generated by the Batik Graphics2D SVG Generator-->
  <defs id="genericDefs" />
  <g>
    <defs id="defs1">
      <clipPath clipPathUnits="userSpaceOnUse" id="clipPath1">
        <path d="M0 0 L225 0 L225 1065 L0 1065 L0 0 Z" />
      </clipPath>
      <clipPath clipPathUnits="userSpaceOnUse" id="clipPath2">
        <path d="M43 395 L43 604 L189 604 L189 395 Z" />
      </clipPath>
      <clipPath clipPathUnits="userSpaceOnUse" id="clipPath3">
        <path d="M44 396 L44 419 L189 419 L189 396 Z" />
      </clipPath>
      <clipPath clipPathUnits="userSpaceOnUse" id="clipPath4">
        <path d="M43 454 L43 590 L189 590 L189 454 Z" />
      </clipPath>
      <clipPath clipPathUnits="userSpaceOnUse" id="clipPath5">
        <path d="M45 456 L45 589 L188 589 L188 456 Z" />
      </clipPath>
      <clipPath clipPathUnits="userSpaceOnUse" id="clipPath6">
        <path d="M43 589 L43 604 L189 604 L189 589 Z" />
      </clipPath>
      <clipPath clipPathUnits="userSpaceOnUse" id="clipPath7">
        <path d="M59 676 L59 853 L173 853 L173 676 Z" />
      </clipPath>
      <clipPath clipPathUnits="userSpaceOnUse" id="clipPath8">
        <path d="M60 677 L60 700 L173 700 L173 677 Z" />
      </clipPath>
      <clipPath clipPathUnits="userSpaceOnUse" id="clipPath9">
        <path d="M59 725 L59 839 L173 839 L173 725 Z" />
      </clipPath>
      <clipPath clipPathUnits="userSpaceOnUse" id="clipPath10">
        <path d="M61 727 L61 838 L172 838 L172 727 Z" />
      </clipPath>
      <clipPath clipPathUnits="userSpaceOnUse" id="clipPath11">
        <path d="M59 838 L59 853 L173 853 L173 838 Z" />
      </clipPath>
      <clipPath clipPathUnits="userSpaceOnUse" id="clipPath12">
        <path d="M51 20 L51 323 L197 323 L197 20 Z" />
      </clipPath>
      <clipPath clipPathUnits="userSpaceOnUse" id="clipPath13">
        <path d="M52 21 L52 88 L197 88 L197 21 Z" />
      </clipPath>
      <clipPath clipPathUnits="userSpaceOnUse" id="clipPath14">
        <path d="M51 113 L51 271 L197 271 L197 113 Z" />
      </clipPath>
      <clipPath clipPathUnits="userSpaceOnUse" id="clipPath15">
        <path d="M53 115 L53 270 L196 270 L196 115 Z" />
      </clipPath>
      <clipPath clipPathUnits="userSpaceOnUse" id="clipPath16">
        <path d="M51 283 L51 309 L197 309 L197 283 Z" />
      </clipPath>
      <clipPath clipPathUnits="userSpaceOnUse" id="clipPath17">
        <path d="M53 285 L53 308 L196 308 L196 285 Z" />
      </clipPath>
      <clipPath clipPathUnits="userSpaceOnUse" id="clipPath18">
        <path d="M51 308 L51 323 L197 323 L197 308 Z" />
      </clipPath>
      <clipPath clipPathUnits="userSpaceOnUse" id="clipPath19">
        <path d="M36 925 L36 1052 L212 1052 L212 925 Z" />
      </clipPath>
      <clipPath clipPathUnits="userSpaceOnUse" id="clipPath20">
        <path d="M37 926 L37 949 L212 949 L212 926 Z" />
      </clipPath>
      <clipPath clipPathUnits="userSpaceOnUse" id="clipPath21">
        <path d="M36 974 L36 1000 L212 1000 L212 974 Z" />
      </clipPath>
      <clipPath clipPathUnits="userSpaceOnUse" id="clipPath22">
        <path d="M38 976 L38 999 L211 999 L211 976 Z" />
      </clipPath>
      <clipPath clipPathUnits="userSpaceOnUse" id="clipPath23">
        <path d="M36 1012 L36 1038 L212 1038 L212 1012 Z" />
      </clipPath>
      <clipPath clipPathUnits="userSpaceOnUse" id="clipPath24">
        <path d="M38 1014 L38 1037 L211 1037 L211 1014 Z" />
      </clipPath>
      <clipPath clipPathUnits="userSpaceOnUse" id="clipPath25">
        <path d="M36 1037 L36 1052 L212 1052 L212 1037 Z" />
      </clipPath>
    </defs>
    <g style="fill:rgb(0,64,64); stroke:rgb(0,64,64);">
      <line x1="117" x2="117" y1="676" style="clip-path:url(#clipPath1); fill:none;" y2="606" />
      <line x1="117" x2="117" y1="395" style="clip-path:url(#clipPath1); fill:none; stroke:teal;" y2="395" />
      <line x1="117" x2="117" y1="395" style="clip-path:url(#clipPath1); fill:none; stroke:teal;" y2="385" />
      <line x1="117" x2="117" y1="380" style="clip-path:url(#clipPath1); fill:none; stroke:teal;" y2="370" />
      <line x1="117" x2="117" y1="365" style="clip-path:url(#clipPath1); fill:none; stroke:teal;" y2="355" />
      <line x1="117" x2="117" y1="350" style="clip-path:url(#clipPath1); fill:none; stroke:teal;" y2="340" />
      <line x1="117" x2="117" y1="335" style="clip-path:url(#clipPath1); fill:none; stroke:teal;" y2="325" />
      <line x1="117" x2="117" y1="925" style="clip-path:url(#clipPath1); fill:none;" y2="855" />
      <polygon style="fill:white; clip-path:url(#clipPath1); stroke:none;" points=" 117 606 123 624 111 624" />
      <polygon style="fill:none; clip-path:url(#clipPath1);" points=" 117 606 123 624 111 624" />
      <line x1="111" x2="117" y1="624" style="clip-path:url(#clipPath1); fill:none;" y2="606" />
      <polygon style="fill:white; clip-path:url(#clipPath1); stroke:none;" points=" 117 325 123 343 111 343" />
      <polygon style="fill:none; clip-path:url(#clipPath1); stroke:teal;" points=" 117 325 123 343 111 343" />
      <line x1="111" x2="117" y1="343" style="clip-path:url(#clipPath1); fill:none; stroke:teal;" y2="325" />
      <polygon style="fill:white; clip-path:url(#clipPath1); stroke:none;" points=" 117 855 123 873 111 873" />
      <polygon style="fill:none; clip-path:url(#clipPath1);" points=" 117 855 123 873 111 873" />
      <line x1="111" x2="117" y1="873" style="clip-path:url(#clipPath1); fill:none;" y2="855" />
      <rect x="46" y="398" width="145" style="clip-path:url(#clipPath1); fill:navy; stroke:none;" height="208" />
      <rect x="43" y="395" width="145" style="clip-path:url(#clipPath1); fill:white; stroke:none;" height="208" />
      <rect x="43" y="395" width="145" style="clip-path:url(#clipPath1); fill:none; stroke:black;" height="208" />
    </g>
    <g style="font-style:italic; font-weight:bold; font-family:sans-serif;">
      <text x="53" y="413" style="clip-path:url(#clipPath3); stroke:none;">AbstractPredicate
      </text>
    </g>
    <g>
      <line x1="43" x2="188" y1="424" style="clip-path:url(#clipPath2); fill:none;" y2="424" />
      <line x1="43" x2="188" y1="447" style="clip-path:url(#clipPath2); fill:none;" y2="447" />
    </g>
    <g style="font-family:sans-serif;">
      <text x="49" y="473" style="clip-path:url(#clipPath5); stroke:none;">+exists:boolean
      </text>
      <text x="49" y="495" style="clip-path:url(#clipPath5); stroke:none;">+forall:boolean
      </text>
      <text x="49" y="517" style="clip-path:url(#clipPath5); stroke:none;">+count:int
      </text>
      <text x="49" y="539" style="clip-path:url(#clipPath5); stroke:none;">+filter:void
      </text>
      <text x="49" y="561" style="clip-path:url(#clipPath5); stroke:none;">+equals:boolean
      </text>
      <text x="49" y="583" style="clip-path:url(#clipPath5); stroke:none;">+nbSubPredicates:int
      </text>
    </g>
    <g>
      <polygon style="fill:none; clip-path:url(#clipPath6);" points=" 181 594 182 594 182 592 183 591 183 591 184 592 184 594 185 594 185 597 181 597 181 594" />
      <line x1="181" x2="185" y1="594" style="clip-path:url(#clipPath6); fill:none;" y2="594" />
    </g>
    <g style="fill:navy; stroke:navy;">
      <rect x="62" y="679" width="113" style="clip-path:url(#clipPath1); stroke:none;" height="176" />
      <rect x="59" y="676" width="113" style="clip-path:url(#clipPath1); fill:white; stroke:none;" height="176" />
      <rect x="59" y="676" width="113" style="clip-path:url(#clipPath1); fill:none; stroke:black;" height="176" />
    </g>
    <g style="font-style:italic; font-weight:bold; font-family:sans-serif;">
      <text x="65" y="694" style="clip-path:url(#clipPath8); stroke:none;">TotalPredicate
      </text>
    </g>
    <g>
      <line x1="59" x2="172" y1="705" style="clip-path:url(#clipPath7); fill:none;" y2="705" />
      <line x1="59" x2="172" y1="718" style="clip-path:url(#clipPath7); fill:none;" y2="718" />
    </g>
    <g style="font-family:sans-serif; font-style:italic;">
      <text x="65" y="744" style="clip-path:url(#clipPath10); stroke:none;">+eval:boolean
      </text>
      <text x="65" y="766" style="font-style:normal; clip-path:url(#clipPath10); stroke:none;">+exists:boolean
      </text>
      <text x="65" y="788" style="font-style:normal; clip-path:url(#clipPath10); stroke:none;">+forall:boolean
      </text>
      <text x="65" y="810" style="font-style:normal; clip-path:url(#clipPath10); stroke:none;">+count:int
      </text>
      <text x="65" y="832" style="font-style:normal; clip-path:url(#clipPath10); stroke:none;">+filter:void
      </text>
    </g>
    <g>
      <polygon style="fill:none; clip-path:url(#clipPath11);" points=" 165 843 166 843 166 841 167 840 167 840 168 841 168 843 169 843 169 846 165 846 165 843" />
      <line x1="165" x2="169" y1="843" style="clip-path:url(#clipPath11); fill:none;" y2="843" />
    </g>
    <g style="fill:navy; stroke:navy;">
      <polygon style="clip-path:url(#clipPath1); stroke:none;" points=" 46 23 199 23 199 325 46 325 46 37 38 37 38 29 46 29 46 23" />
      <polygon style="fill:white; clip-path:url(#clipPath1); stroke:none;" points=" 43 20 196 20 196 322 43 322 43 34 35 34 35 26 43 26 43 20" />
      <polygon style="fill:none; clip-path:url(#clipPath1); stroke:black;" points=" 43 20 196 20 196 322 43 322 43 34 35 34 35 26 43 26 43 20" />
      <line x1="43" x2="51" y1="34" style="clip-path:url(#clipPath1); fill:none; stroke:black;" y2="34" />
      <line x1="51" x2="51" y1="34" style="clip-path:url(#clipPath1); fill:none; stroke:black;" y2="26" />
      <line x1="51" x2="43" y1="26" style="clip-path:url(#clipPath1); fill:none; stroke:black;" y2="26" />
    </g>
    <g style="font-family:sans-serif;">
      <text x="73" y="38" style="clip-path:url(#clipPath13); stroke:none;">CollectionOperator
      </text>
      <text x="96" y="60" style="clip-path:url(#clipPath13); stroke:none;">interface
      </text>
      <text x="91" y="82" style="clip-path:url(#clipPath13); font-style:italic; stroke:none; font-weight:bold;">Predicate
      </text>
    </g>
    <g>
      <line x1="51" x2="196" y1="93" style="clip-path:url(#clipPath12); fill:none;" y2="93" />
      <line x1="51" x2="196" y1="106" style="clip-path:url(#clipPath12); fill:none;" y2="106" />
    </g>
    <g style="font-family:sans-serif; font-style:italic;">
      <text x="57" y="132" style="clip-path:url(#clipPath15); stroke:none;">+eval:boolean
      </text>
      <text x="57" y="154" style="clip-path:url(#clipPath15); stroke:none;">+exists:boolean
      </text>
      <text x="57" y="176" style="clip-path:url(#clipPath15); stroke:none;">+forall:boolean
      </text>
      <text x="57" y="198" style="clip-path:url(#clipPath15); stroke:none;">+count:int
      </text>
      <text x="57" y="220" style="clip-path:url(#clipPath15); stroke:none;">+filter:void
      </text>
      <text x="57" y="242" style="clip-path:url(#clipPath15); stroke:none;">+equals:boolean
      </text>
      <text x="57" y="264" style="clip-path:url(#clipPath15); stroke:none;">+nbSubPredicates:int
      </text>
    </g>
    <g>
      <line x1="51" x2="196" y1="276" style="clip-path:url(#clipPath12); fill:none;" y2="276" />
    </g>
    <g style="font-family:sans-serif;">
      <text x="57" y="302" style="clip-path:url(#clipPath17); stroke:none;"> subPredicates:List
      </text>
    </g>
    <g>
      <polygon style="fill:none; clip-path:url(#clipPath18);" points=" 189 313 190 313 190 311 191 310 191 310 192 311 192 313 193 313 193 316 189 316 189 313" />
      <line x1="189" x2="193" y1="313" style="clip-path:url(#clipPath18); fill:none;" y2="313" />
    </g>
    <g style="fill:navy; stroke:navy;">
      <polygon style="clip-path:url(#clipPath1); stroke:none;" points=" 31 928 214 928 214 1054 31 1054 31 942 23 942 23 934 31 934 31 928" />
      <polygon style="fill:white; clip-path:url(#clipPath1); stroke:none;" points=" 28 925 211 925 211 1051 28 1051 28 939 20 939 20 931 28 931 28 925" />
      <polygon style="fill:none; clip-path:url(#clipPath1); stroke:black;" points=" 28 925 211 925 211 1051 28 1051 28 939 20 939 20 931 28 931 28 925" />
      <line x1="28" x2="36" y1="939" style="clip-path:url(#clipPath1); fill:none; stroke:black;" y2="939" />
      <line x1="36" x2="36" y1="939" style="clip-path:url(#clipPath1); fill:none; stroke:black;" y2="931" />
      <line x1="36" x2="28" y1="931" style="clip-path:url(#clipPath1); fill:none; stroke:black;" y2="931" />
    </g>
    <g style="font-style:italic; font-weight:bold; font-family:sans-serif;">
      <text x="41" y="943" style="clip-path:url(#clipPath20); stroke:none;">PrimitiveTotalPredicate
      </text>
    </g>
    <g>
      <line x1="36" x2="211" y1="954" style="clip-path:url(#clipPath19); fill:none;" y2="954" />
      <line x1="36" x2="211" y1="967" style="clip-path:url(#clipPath19); fill:none;" y2="967" />
    </g>
    <g style="font-family:sans-serif;">
      <text x="42" y="993" style="clip-path:url(#clipPath22); stroke:none;">+nbSubPredicates:int
      </text>
    </g>
    <g>
      <line x1="36" x2="211" y1="1005" style="clip-path:url(#clipPath19); fill:none;" y2="1005" />
    </g>
    <g style="font-family:sans-serif;">
      <text x="42" y="1031" style="clip-path:url(#clipPath24); stroke:none;"> subPredicates:List
      </text>
    </g>
    <g>
      <polygon style="fill:none; clip-path:url(#clipPath25);" points=" 204 1042 205 1042 205 1040 206 1039 206 1039 207 1040 207 1042 208 1042 208 1045 204 1045 204 1042" />
      <line x1="204" x2="208" y1="1042" style="clip-path:url(#clipPath25); fill:none;" y2="1042" />
    </g>
  </g>
</svg>
