<?xml version="1.0" encoding="UTF-8"?>

<!DOCTYPE svg PUBLIC '-//W3C//DTD SVG 20001102//EN' 'http://www.w3.org/TR/2000/CR-SVG-20001102/DTD/svg-20001102.dtd'>
<svg style="fill-opacity:1; color-interpolation:sRGB; color-rendering:auto; text-rendering:auto; stroke:black; stroke-linecap:square; stroke-miterlimit:10; stroke-opacity:1; shape-rendering:auto; fill:black; stroke-dasharray:none; font-weight:normal; stroke-width:1; font-family:&apos;Lucida Sans&apos;; font-style:normal; stroke-linejoin:miter; font-size:12; image-rendering:auto; stroke-dashoffset:0;" width="192" height="342">
  <!--Generated by the Batik Graphics2D SVG Generator-->
  <defs id="genericDefs" />
  <g>
    <defs id="defs1">
      <clipPath clipPathUnits="userSpaceOnUse" id="clipPath1">
        <path d="M0 0 L192 0 L192 342 L0 342 L0 0 Z" />
      </clipPath>
      <clipPath clipPathUnits="userSpaceOnUse" id="clipPath2">
        <path d="M20 190 L20 329 L179 329 L179 190 Z" />
      </clipPath>
      <clipPath clipPathUnits="userSpaceOnUse" id="clipPath3">
        <path d="M21 191 L21 214 L179 214 L179 191 Z" />
      </clipPath>
      <clipPath clipPathUnits="userSpaceOnUse" id="clipPath4">
        <path d="M20 249 L20 319 L179 319 L179 249 Z" />
      </clipPath>
      <clipPath clipPathUnits="userSpaceOnUse" id="clipPath5">
        <path d="M22 251 L22 318 L178 318 L178 251 Z" />
      </clipPath>
      <clipPath clipPathUnits="userSpaceOnUse" id="clipPath6">
        <path d="M27 20 L27 128 L172 128 L172 20 Z" />
      </clipPath>
      <clipPath clipPathUnits="userSpaceOnUse" id="clipPath7">
        <path d="M28 21 L28 66 L172 66 L172 21 Z" />
      </clipPath>
    </defs>
    <g style="fill:teal; stroke:teal;">
      <line x1="100" x2="100" y1="190" style="clip-path:url(#clipPath1); fill:none;" y2="190" />
      <line x1="100" x2="100" y1="185" style="clip-path:url(#clipPath1); fill:none;" y2="175" />
      <line x1="100" x2="100" y1="170" style="clip-path:url(#clipPath1); fill:none;" y2="160" />
      <line x1="100" x2="100" y1="155" style="clip-path:url(#clipPath1); fill:none;" y2="145" />
      <line x1="100" x2="100" y1="140" style="clip-path:url(#clipPath1); fill:none;" y2="130" />
      <polygon style="fill:white; clip-path:url(#clipPath1); stroke:none;" points=" 100 130 106 148 94 148" />
      <polygon style="fill:none; clip-path:url(#clipPath1);" points=" 100 130 106 148 94 148" />
      <line x1="94" x2="100" y1="148" style="clip-path:url(#clipPath1); fill:none;" y2="130" />
      <rect x="23" y="193" width="158" style="clip-path:url(#clipPath1); fill:navy; stroke:none;" height="138" />
      <rect x="20" y="190" width="158" style="clip-path:url(#clipPath1); fill:white; stroke:none;" height="138" />
      <rect x="20" y="190" width="158" style="clip-path:url(#clipPath1); fill:none; stroke:black;" height="138" />
    </g>
    <g style="font-style:italic; font-weight:bold; font-family:sans-serif;">
      <text x="29" y="208" style="clip-path:url(#clipPath3); stroke:none;">IntegerAccumulator
      </text>
    </g>
    <g>
      <line x1="20" x2="178" y1="219" style="clip-path:url(#clipPath2); fill:none;" y2="219" />
      <line x1="20" x2="178" y1="242" style="clip-path:url(#clipPath2); fill:none;" y2="242" />
    </g>
    <g style="font-family:sans-serif; font-style:italic;">
      <text x="26" y="268" style="clip-path:url(#clipPath5); stroke:none;">+int initialAccumulator
      </text>
      <text x="26" y="290" style="clip-path:url(#clipPath5); stroke:none;">+int accumulate
      </text>
      <text x="26" y="312" style="font-style:normal; clip-path:url(#clipPath5); stroke:none;">+int in
      </text>
    </g>
    <g style="fill:navy; stroke:navy;">
      <rect x="30" y="23" width="144" style="clip-path:url(#clipPath1); stroke:none;" height="107" />
      <rect x="27" y="20" width="144" style="clip-path:url(#clipPath1); fill:white; stroke:none;" height="107" />
      <rect x="27" y="20" width="144" style="clip-path:url(#clipPath1); fill:none; stroke:black;" height="107" />
    </g>
    <g style="font-family:sans-serif;">
      <text x="72" y="38" style="clip-path:url(#clipPath7); stroke:none;">interface
      </text>
      <text x="32" y="60" style="clip-path:url(#clipPath7); font-style:italic; stroke:none; font-weight:bold;">CollectionOperator
      </text>
    </g>
    <g>
      <line x1="27" x2="171" y1="71" style="clip-path:url(#clipPath6); fill:none;" y2="71" />
      <line x1="27" x2="171" y1="94" style="clip-path:url(#clipPath6); fill:none;" y2="94" />
    </g>
  </g>
</svg>
