<?xml version="1.0" encoding="UTF-8"?>

<!DOCTYPE svg PUBLIC '-//W3C//DTD SVG 20001102//EN' 'http://www.w3.org/TR/2000/CR-SVG-20001102/DTD/svg-20001102.dtd'>
<svg style="fill-opacity:1; color-interpolation:sRGB; color-rendering:auto; text-rendering:auto; stroke:black; stroke-linecap:square; stroke-miterlimit:10; stroke-opacity:1; shape-rendering:auto; fill:black; stroke-dasharray:none; font-weight:normal; stroke-width:1; font-family:&apos;Lucida Sans&apos;; font-style:normal; stroke-linejoin:miter; font-size:12; image-rendering:auto; stroke-dashoffset:0;" width="135" height="342">
  <!--Generated by the Batik Graphics2D SVG Generator-->
  <defs id="genericDefs" />
  <g>
    <defs id="defs1">
      <clipPath clipPathUnits="userSpaceOnUse" id="clipPath1">
        <path d="M0 0 L135 0 L135 342 L0 342 L0 0 Z" />
      </clipPath>
      <clipPath clipPathUnits="userSpaceOnUse" id="clipPath2">
        <path d="M20 190 L20 329 L122 329 L122 190 Z" />
      </clipPath>
      <clipPath clipPathUnits="userSpaceOnUse" id="clipPath3">
        <path d="M21 191 L21 236 L122 236 L122 191 Z" />
      </clipPath>
      <clipPath clipPathUnits="userSpaceOnUse" id="clipPath4">
        <path d="M20 271 L20 319 L122 319 L122 271 Z" />
      </clipPath>
      <clipPath clipPathUnits="userSpaceOnUse" id="clipPath5">
        <path d="M22 273 L22 318 L121 318 L121 273 Z" />
      </clipPath>
      <clipPath clipPathUnits="userSpaceOnUse" id="clipPath6">
        <path d="M20 318 L20 329 L122 329 L122 318 Z" />
      </clipPath>
      <clipPath clipPathUnits="userSpaceOnUse" id="clipPath7">
        <path d="M20 20 L20 128 L122 128 L122 20 Z" />
      </clipPath>
      <clipPath clipPathUnits="userSpaceOnUse" id="clipPath8">
        <path d="M21 21 L21 66 L122 66 L122 21 Z" />
      </clipPath>
      <clipPath clipPathUnits="userSpaceOnUse" id="clipPath9">
        <path d="M20 117 L20 128 L122 128 L122 117 Z" />
      </clipPath>
    </defs>
    <g style="fill:teal; stroke:teal;">
      <line x1="72" x2="72" y1="190" style="clip-path:url(#clipPath1); fill:none;" y2="190" />
      <line x1="72" x2="72" y1="185" style="clip-path:url(#clipPath1); fill:none;" y2="175" />
      <line x1="72" x2="72" y1="170" style="clip-path:url(#clipPath1); fill:none;" y2="160" />
      <line x1="72" x2="72" y1="155" style="clip-path:url(#clipPath1); fill:none;" y2="145" />
      <line x1="72" x2="72" y1="140" style="clip-path:url(#clipPath1); fill:none;" y2="130" />
      <polygon style="fill:white; clip-path:url(#clipPath1); stroke:none;" points=" 72 130 78 148 66 148" />
      <polygon style="fill:none; clip-path:url(#clipPath1);" points=" 72 130 78 148 66 148" />
      <line x1="66" x2="72" y1="148" style="clip-path:url(#clipPath1); fill:none;" y2="130" />
      <rect x="23" y="193" width="101" style="clip-path:url(#clipPath1); fill:navy; stroke:none;" height="138" />
      <rect x="20" y="190" width="101" style="clip-path:url(#clipPath1); fill:white; stroke:none;" height="138" />
      <rect x="20" y="190" width="101" style="clip-path:url(#clipPath1); fill:none; stroke:black;" height="138" />
    </g>
    <g style="font-family:sans-serif; font-style:italic;">
      <text x="36" y="208" style="clip-path:url(#clipPath3); stroke:none;">MapOperator
      </text>
      <text x="32" y="230" style="font-weight:bold; clip-path:url(#clipPath3); stroke:none;">MapVisitor
      </text>
    </g>
    <g>
      <line x1="20" x2="121" y1="241" style="clip-path:url(#clipPath2); fill:none;" y2="241" />
      <line x1="20" x2="121" y1="264" style="clip-path:url(#clipPath2); fill:none;" y2="264" />
    </g>
    <g style="font-family:sans-serif; font-style:italic;">
      <text x="26" y="290" style="clip-path:url(#clipPath5); stroke:none;">+void visit
      </text>
      <text x="26" y="312" style="font-style:normal; clip-path:url(#clipPath5); stroke:none;">+Map applyTo
      </text>
    </g>
    <g>
      <polygon style="fill:none; clip-path:url(#clipPath6);" points=" 114 323 115 323 115 321 116 320 116 320 117 321 117 323 118 323 118 326 114 326 114 323" />
      <line x1="114" x2="118" y1="323" style="clip-path:url(#clipPath6); fill:none;" y2="323" />
    </g>
    <g style="fill:navy; stroke:navy;">
      <rect x="23" y="23" width="101" style="clip-path:url(#clipPath1); stroke:none;" height="107" />
      <rect x="20" y="20" width="101" style="clip-path:url(#clipPath1); fill:white; stroke:none;" height="107" />
      <rect x="20" y="20" width="101" style="clip-path:url(#clipPath1); fill:none; stroke:black;" height="107" />
    </g>
    <g style="font-family:sans-serif;">
      <text x="43" y="38" style="clip-path:url(#clipPath8); stroke:none;">interface
      </text>
      <text x="25" y="60" style="clip-path:url(#clipPath8); font-style:italic; stroke:none; font-weight:bold;">MapOperator
      </text>
    </g>
    <g>
      <line x1="20" x2="121" y1="71" style="clip-path:url(#clipPath7); fill:none;" y2="71" />
      <line x1="20" x2="121" y1="94" style="clip-path:url(#clipPath7); fill:none;" y2="94" />
    </g>
    <g>
      <polygon style="fill:none; clip-path:url(#clipPath9);" points=" 114 122 115 122 115 120 116 119 116 119 117 120 117 122 118 122 118 125 114 125 114 122" />
      <line x1="114" x2="118" y1="122" style="clip-path:url(#clipPath9); fill:none;" y2="122" />
    </g>
  </g>
</svg>
