<?xml version="1.0" encoding="UTF-8"?>

<!DOCTYPE svg PUBLIC '-//W3C//DTD SVG 20001102//EN' 'http://www.w3.org/TR/2000/CR-SVG-20001102/DTD/svg-20001102.dtd'>
<svg style="fill-opacity:1; color-rendering:auto; color-interpolation:sRGB; text-rendering:auto; stroke:black; stroke-linecap:square; stroke-miterlimit:10; shape-rendering:auto; stroke-opacity:1; fill:black; stroke-dasharray:none; font-weight:normal; stroke-width:1; font-family:&apos;sansserif&apos;; font-style:normal; stroke-linejoin:miter; font-size:12; stroke-dashoffset:0; image-rendering:auto;" width="115" height="179">
  <!--Generated by the Batik Graphics2D SVG Generator-->
  <defs id="genericDefs" />
  <g>
    <defs id="defs1">
      <clipPath clipPathUnits="userSpaceOnUse" id="clipPath1">
        <path d="M0 0 L115 0 L115 179 L0 179 L0 0 Z" />
      </clipPath>
      <clipPath clipPathUnits="userSpaceOnUse" id="clipPath2">
        <path d="M10 10 L10 166 L102 166 L102 10 Z" />
      </clipPath>
      <clipPath clipPathUnits="userSpaceOnUse" id="clipPath3">
        <path d="M11 11 L11 42 L102 42 L102 11 Z" />
      </clipPath>
      <clipPath clipPathUnits="userSpaceOnUse" id="clipPath4">
        <path d="M10 77 L10 156 L102 156 L102 77 Z" />
      </clipPath>
      <clipPath clipPathUnits="userSpaceOnUse" id="clipPath5">
        <path d="M12 79 L12 155 L101 155 L101 79 Z" />
      </clipPath>
    </defs>
    <g style="fill:navy; stroke:navy;">
      <rect x="13" y="13" width="91" style="clip-path:url(#clipPath1); stroke:none;" height="155" />
      <rect x="10" y="10" width="91" style="clip-path:url(#clipPath1); fill:white; stroke:none;" height="155" />
      <rect x="10" y="10" width="91" style="clip-path:url(#clipPath1); fill:none; stroke:black;" height="155" />
    </g>
    <g style="font-family:sans-serif;">
      <text x="36" y="23" style="clip-path:url(#clipPath3); stroke:none;">java.io.File
      </text>
      <text x="45" y="38" style="clip-path:url(#clipPath3); font-weight:bold; stroke:none;">File
      </text>
    </g>
    <g>
      <line x1="10" x2="101" y1="47" style="clip-path:url(#clipPath2); fill:none;" y2="47" />
      <line x1="10" x2="101" y1="70" style="clip-path:url(#clipPath2); fill:none;" y2="70" />
    </g>
    <g style="font-family:sans-serif;">
      <text x="16" y="91" style="clip-path:url(#clipPath5); stroke:none;">+File
      </text>
      <text x="16" y="106" style="clip-path:url(#clipPath5); stroke:none;">+File
      </text>
      <text x="16" y="121" style="clip-path:url(#clipPath5); stroke:none;">+File
      </text>
      <text x="16" y="136" style="clip-path:url(#clipPath5); stroke:none;">+void copy
      </text>
      <line x1="16" x2="81" y1="138" style="clip-path:url(#clipPath5); fill:none;" y2="138" />
      <text x="16" y="151" style="clip-path:url(#clipPath5); stroke:none;">+void copyTo
      </text>
    </g>
  </g>
</svg>
