<?xml version="1.0" encoding="UTF-8"?>

<!DOCTYPE svg PUBLIC '-//W3C//DTD SVG 20001102//EN' 'http://www.w3.org/TR/2000/CR-SVG-20001102/DTD/svg-20001102.dtd'>
<svg style="fill-opacity:1; color-interpolation:sRGB; color-rendering:auto; text-rendering:auto; stroke:black; stroke-linecap:square; stroke-miterlimit:10; stroke-opacity:1; shape-rendering:auto; fill:black; stroke-dasharray:none; font-weight:normal; stroke-width:1; font-family:&apos;Lucida Sans&apos;; font-style:normal; stroke-linejoin:miter; font-size:12; image-rendering:auto; stroke-dashoffset:0;" width="195" height="617">
  <!--Generated by the Batik Graphics2D SVG Generator-->
  <defs id="genericDefs" />
  <g>
    <defs id="defs1">
      <clipPath clipPathUnits="userSpaceOnUse" id="clipPath1">
        <path d="M0 0 L195 0 L195 617 L0 617 L0 0 Z" />
      </clipPath>
      <clipPath clipPathUnits="userSpaceOnUse" id="clipPath2">
        <path d="M28 395 L28 604 L174 604 L174 395 Z" />
      </clipPath>
      <clipPath clipPathUnits="userSpaceOnUse" id="clipPath3">
        <path d="M29 396 L29 419 L174 419 L174 396 Z" />
      </clipPath>
      <clipPath clipPathUnits="userSpaceOnUse" id="clipPath4">
        <path d="M28 454 L28 590 L174 590 L174 454 Z" />
      </clipPath>
      <clipPath clipPathUnits="userSpaceOnUse" id="clipPath5">
        <path d="M30 456 L30 589 L173 589 L173 456 Z" />
      </clipPath>
      <clipPath clipPathUnits="userSpaceOnUse" id="clipPath6">
        <path d="M28 589 L28 604 L174 604 L174 589 Z" />
      </clipPath>
      <clipPath clipPathUnits="userSpaceOnUse" id="clipPath7">
        <path d="M36 20 L36 323 L182 323 L182 20 Z" />
      </clipPath>
      <clipPath clipPathUnits="userSpaceOnUse" id="clipPath8">
        <path d="M37 21 L37 88 L182 88 L182 21 Z" />
      </clipPath>
      <clipPath clipPathUnits="userSpaceOnUse" id="clipPath9">
        <path d="M36 113 L36 271 L182 271 L182 113 Z" />
      </clipPath>
      <clipPath clipPathUnits="userSpaceOnUse" id="clipPath10">
        <path d="M38 115 L38 270 L181 270 L181 115 Z" />
      </clipPath>
      <clipPath clipPathUnits="userSpaceOnUse" id="clipPath11">
        <path d="M36 283 L36 309 L182 309 L182 283 Z" />
      </clipPath>
      <clipPath clipPathUnits="userSpaceOnUse" id="clipPath12">
        <path d="M38 285 L38 308 L181 308 L181 285 Z" />
      </clipPath>
      <clipPath clipPathUnits="userSpaceOnUse" id="clipPath13">
        <path d="M36 308 L36 323 L182 323 L182 308 Z" />
      </clipPath>
    </defs>
    <g style="fill:teal; stroke:teal;">
      <line x1="102" x2="102" y1="395" style="clip-path:url(#clipPath1); fill:none;" y2="395" />
      <line x1="102" x2="102" y1="395" style="clip-path:url(#clipPath1); fill:none;" y2="385" />
      <line x1="102" x2="102" y1="380" style="clip-path:url(#clipPath1); fill:none;" y2="370" />
      <line x1="102" x2="102" y1="365" style="clip-path:url(#clipPath1); fill:none;" y2="355" />
      <line x1="102" x2="102" y1="350" style="clip-path:url(#clipPath1); fill:none;" y2="340" />
      <line x1="102" x2="102" y1="335" style="clip-path:url(#clipPath1); fill:none;" y2="325" />
      <polygon style="fill:white; clip-path:url(#clipPath1); stroke:none;" points=" 102 325 108 343 96 343" />
      <polygon style="fill:none; clip-path:url(#clipPath1);" points=" 102 325 108 343 96 343" />
      <line x1="96" x2="102" y1="343" style="clip-path:url(#clipPath1); fill:none;" y2="325" />
      <rect x="31" y="398" width="145" style="clip-path:url(#clipPath1); fill:navy; stroke:none;" height="208" />
      <rect x="28" y="395" width="145" style="clip-path:url(#clipPath1); fill:white; stroke:none;" height="208" />
      <rect x="28" y="395" width="145" style="clip-path:url(#clipPath1); fill:none; stroke:black;" height="208" />
    </g>
    <g style="font-style:italic; font-weight:bold; font-family:sans-serif;">
      <text x="38" y="413" style="clip-path:url(#clipPath3); stroke:none;">AbstractPredicate
      </text>
    </g>
    <g>
      <line x1="28" x2="173" y1="424" style="clip-path:url(#clipPath2); fill:none;" y2="424" />
      <line x1="28" x2="173" y1="447" style="clip-path:url(#clipPath2); fill:none;" y2="447" />
    </g>
    <g style="font-family:sans-serif;">
      <text x="34" y="473" style="clip-path:url(#clipPath5); stroke:none;">+exists:boolean
      </text>
      <text x="34" y="495" style="clip-path:url(#clipPath5); stroke:none;">+forall:boolean
      </text>
      <text x="34" y="517" style="clip-path:url(#clipPath5); stroke:none;">+count:int
      </text>
      <text x="34" y="539" style="clip-path:url(#clipPath5); stroke:none;">+filter:void
      </text>
      <text x="34" y="561" style="clip-path:url(#clipPath5); stroke:none;">+equals:boolean
      </text>
      <text x="34" y="583" style="clip-path:url(#clipPath5); stroke:none;">+nbSubPredicates:int
      </text>
    </g>
    <g>
      <polygon style="fill:none; clip-path:url(#clipPath6);" points=" 166 594 167 594 167 592 168 591 168 591 169 592 169 594 170 594 170 597 166 597 166 594" />
      <line x1="166" x2="170" y1="594" style="clip-path:url(#clipPath6); fill:none;" y2="594" />
    </g>
    <g style="fill:navy; stroke:navy;">
      <polygon style="clip-path:url(#clipPath1); stroke:none;" points=" 31 23 184 23 184 325 31 325 31 37 23 37 23 29 31 29 31 23" />
      <polygon style="fill:white; clip-path:url(#clipPath1); stroke:none;" points=" 28 20 181 20 181 322 28 322 28 34 20 34 20 26 28 26 28 20" />
      <polygon style="fill:none; clip-path:url(#clipPath1); stroke:black;" points=" 28 20 181 20 181 322 28 322 28 34 20 34 20 26 28 26 28 20" />
      <line x1="28" x2="36" y1="34" style="clip-path:url(#clipPath1); fill:none; stroke:black;" y2="34" />
      <line x1="36" x2="36" y1="34" style="clip-path:url(#clipPath1); fill:none; stroke:black;" y2="26" />
      <line x1="36" x2="28" y1="26" style="clip-path:url(#clipPath1); fill:none; stroke:black;" y2="26" />
    </g>
    <g style="font-family:sans-serif;">
      <text x="58" y="38" style="clip-path:url(#clipPath8); stroke:none;">CollectionOperator
      </text>
      <text x="81" y="60" style="clip-path:url(#clipPath8); stroke:none;">interface
      </text>
      <text x="76" y="82" style="clip-path:url(#clipPath8); font-style:italic; stroke:none; font-weight:bold;">Predicate
      </text>
    </g>
    <g>
      <line x1="36" x2="181" y1="93" style="clip-path:url(#clipPath7); fill:none;" y2="93" />
      <line x1="36" x2="181" y1="106" style="clip-path:url(#clipPath7); fill:none;" y2="106" />
    </g>
    <g style="font-family:sans-serif; font-style:italic;">
      <text x="42" y="132" style="clip-path:url(#clipPath10); stroke:none;">+eval:boolean
      </text>
      <text x="42" y="154" style="clip-path:url(#clipPath10); stroke:none;">+exists:boolean
      </text>
      <text x="42" y="176" style="clip-path:url(#clipPath10); stroke:none;">+forall:boolean
      </text>
      <text x="42" y="198" style="clip-path:url(#clipPath10); stroke:none;">+count:int
      </text>
      <text x="42" y="220" style="clip-path:url(#clipPath10); stroke:none;">+filter:void
      </text>
      <text x="42" y="242" style="clip-path:url(#clipPath10); stroke:none;">+equals:boolean
      </text>
      <text x="42" y="264" style="clip-path:url(#clipPath10); stroke:none;">+nbSubPredicates:int
      </text>
    </g>
    <g>
      <line x1="36" x2="181" y1="276" style="clip-path:url(#clipPath7); fill:none;" y2="276" />
    </g>
    <g style="font-family:sans-serif;">
      <text x="42" y="302" style="clip-path:url(#clipPath12); stroke:none;"> subPredicates:List
      </text>
    </g>
    <g>
      <polygon style="fill:none; clip-path:url(#clipPath13);" points=" 174 313 175 313 175 311 176 310 176 310 177 311 177 313 178 313 178 316 174 316 174 313" />
      <line x1="174" x2="178" y1="313" style="clip-path:url(#clipPath13); fill:none;" y2="313" />
    </g>
  </g>
</svg>
