<?xml version="1.0" encoding="UTF-8"?>

<!DOCTYPE svg PUBLIC '-//W3C//DTD SVG 20001102//EN' 'http://www.w3.org/TR/2000/CR-SVG-20001102/DTD/svg-20001102.dtd'>
<svg style="fill-opacity:1; color-interpolation:sRGB; color-rendering:auto; text-rendering:auto; stroke:black; stroke-linecap:square; stroke-miterlimit:10; stroke-opacity:1; shape-rendering:auto; fill:black; stroke-dasharray:none; font-weight:normal; stroke-width:1; font-family:&apos;Lucida Sans&apos;; font-style:normal; stroke-linejoin:miter; font-size:12; image-rendering:auto; stroke-dashoffset:0;" width="229" height="904">
  <!--Generated by the Batik Graphics2D SVG Generator-->
  <defs id="genericDefs" />
  <g>
    <defs id="defs1">
      <clipPath clipPathUnits="userSpaceOnUse" id="clipPath1">
        <path d="M0 0 L229 0 L229 904 L0 904 L0 0 Z" />
      </clipPath>
      <clipPath clipPathUnits="userSpaceOnUse" id="clipPath2">
        <path d="M70 676 L70 891 L216 891 L216 676 Z" />
      </clipPath>
      <clipPath clipPathUnits="userSpaceOnUse" id="clipPath3">
        <path d="M71 677 L71 722 L216 722 L216 677 Z" />
      </clipPath>
      <clipPath clipPathUnits="userSpaceOnUse" id="clipPath4">
        <path d="M70 747 L70 817 L216 817 L216 747 Z" />
      </clipPath>
      <clipPath clipPathUnits="userSpaceOnUse" id="clipPath5">
        <path d="M72 749 L72 816 L215 816 L215 749 Z" />
      </clipPath>
      <clipPath clipPathUnits="userSpaceOnUse" id="clipPath6">
        <path d="M70 829 L70 877 L216 877 L216 829 Z" />
      </clipPath>
      <clipPath clipPathUnits="userSpaceOnUse" id="clipPath7">
        <path d="M72 831 L72 876 L215 876 L215 831 Z" />
      </clipPath>
      <clipPath clipPathUnits="userSpaceOnUse" id="clipPath8">
        <path d="M70 876 L70 891 L216 891 L216 876 Z" />
      </clipPath>
      <clipPath clipPathUnits="userSpaceOnUse" id="clipPath9">
        <path d="M20 395 L20 604 L166 604 L166 395 Z" />
      </clipPath>
      <clipPath clipPathUnits="userSpaceOnUse" id="clipPath10">
        <path d="M21 396 L21 419 L166 419 L166 396 Z" />
      </clipPath>
      <clipPath clipPathUnits="userSpaceOnUse" id="clipPath11">
        <path d="M20 454 L20 590 L166 590 L166 454 Z" />
      </clipPath>
      <clipPath clipPathUnits="userSpaceOnUse" id="clipPath12">
        <path d="M22 456 L22 589 L165 589 L165 456 Z" />
      </clipPath>
      <clipPath clipPathUnits="userSpaceOnUse" id="clipPath13">
        <path d="M20 589 L20 604 L166 604 L166 589 Z" />
      </clipPath>
      <clipPath clipPathUnits="userSpaceOnUse" id="clipPath14">
        <path d="M70 20 L70 323 L216 323 L216 20 Z" />
      </clipPath>
      <clipPath clipPathUnits="userSpaceOnUse" id="clipPath15">
        <path d="M71 21 L71 88 L216 88 L216 21 Z" />
      </clipPath>
      <clipPath clipPathUnits="userSpaceOnUse" id="clipPath16">
        <path d="M70 113 L70 271 L216 271 L216 113 Z" />
      </clipPath>
      <clipPath clipPathUnits="userSpaceOnUse" id="clipPath17">
        <path d="M72 115 L72 270 L215 270 L215 115 Z" />
      </clipPath>
      <clipPath clipPathUnits="userSpaceOnUse" id="clipPath18">
        <path d="M70 283 L70 309 L216 309 L216 283 Z" />
      </clipPath>
      <clipPath clipPathUnits="userSpaceOnUse" id="clipPath19">
        <path d="M72 285 L72 308 L215 308 L215 285 Z" />
      </clipPath>
      <clipPath clipPathUnits="userSpaceOnUse" id="clipPath20">
        <path d="M70 308 L70 323 L216 323 L216 308 Z" />
      </clipPath>
    </defs>
    <g style="fill:rgb(0,64,64); stroke:rgb(0,64,64);">
      <line x1="92" x2="92" y1="676" style="clip-path:url(#clipPath1); fill:none;" y2="606" />
      <line x1="111" x2="111" y1="395" style="clip-path:url(#clipPath1); fill:none; stroke:teal;" y2="395" />
      <line x1="111" x2="111" y1="395" style="clip-path:url(#clipPath1); fill:none; stroke:teal;" y2="385" />
      <line x1="111" x2="111" y1="380" style="clip-path:url(#clipPath1); fill:none; stroke:teal;" y2="370" />
      <line x1="111" x2="111" y1="365" style="clip-path:url(#clipPath1); fill:none; stroke:teal;" y2="355" />
      <line x1="111" x2="111" y1="350" style="clip-path:url(#clipPath1); fill:none; stroke:teal;" y2="340" />
      <line x1="111" x2="111" y1="335" style="clip-path:url(#clipPath1); fill:none; stroke:teal;" y2="325" />
      <line x1="178" x2="178" y1="676" style="clip-path:url(#clipPath1); fill:none; stroke:blue;" y2="325" />
      <polygon style="fill:white; clip-path:url(#clipPath1); stroke:none;" points=" 92 606 98 624 86 624" />
      <polygon style="fill:none; clip-path:url(#clipPath1);" points=" 92 606 98 624 86 624" />
      <line x1="86" x2="92" y1="624" style="clip-path:url(#clipPath1); fill:none;" y2="606" />
      <polygon style="fill:white; clip-path:url(#clipPath1); stroke:none;" points=" 111 325 117 343 105 343" />
      <polygon style="fill:none; clip-path:url(#clipPath1); stroke:teal;" points=" 111 325 117 343 105 343" />
      <line x1="105" x2="111" y1="343" style="clip-path:url(#clipPath1); fill:none; stroke:teal;" y2="325" />
      <line x1="178" x2="173" y1="325" style="clip-path:url(#clipPath1); fill:none; stroke:blue;" y2="337" />
      <line x1="178" x2="183" y1="325" style="clip-path:url(#clipPath1); fill:none; stroke:blue;" y2="337" />
      <polygon style="fill:navy; clip-path:url(#clipPath1); stroke:none;" points=" 65 679 218 679 218 893 65 893 65 693 57 693 57 685 65 685 65 679" />
      <polygon style="fill:white; clip-path:url(#clipPath1); stroke:none;" points=" 62 676 215 676 215 890 62 890 62 690 54 690 54 682 62 682 62 676" />
      <polygon style="fill:none; clip-path:url(#clipPath1); stroke:black;" points=" 62 676 215 676 215 890 62 890 62 690 54 690 54 682 62 682 62 676" />
      <line x1="62" x2="70" y1="690" style="clip-path:url(#clipPath1); fill:none; stroke:black;" y2="690" />
      <line x1="70" x2="70" y1="690" style="clip-path:url(#clipPath1); fill:none; stroke:black;" y2="682" />
      <line x1="70" x2="62" y1="682" style="clip-path:url(#clipPath1); fill:none; stroke:black;" y2="682" />
    </g>
    <g style="font-family:sans-serif;">
      <text x="101" y="694" style="clip-path:url(#clipPath3); stroke:none;">AbstractPredicate
      </text>
      <text x="130" y="716" style="font-weight:bold; clip-path:url(#clipPath3); stroke:none;">Not
      </text>
    </g>
    <g>
      <line x1="70" x2="215" y1="727" style="clip-path:url(#clipPath2); fill:none;" y2="727" />
      <line x1="70" x2="215" y1="740" style="clip-path:url(#clipPath2); fill:none;" y2="740" />
    </g>
    <g style="font-family:sans-serif;">
      <text x="76" y="766" style="clip-path:url(#clipPath5); stroke:none;">+Not
      </text>
      <text x="76" y="788" style="clip-path:url(#clipPath5); stroke:none;">+eval:boolean
      </text>
      <text x="76" y="810" style="clip-path:url(#clipPath5); stroke:none;">+nbSubPredicates:int
      </text>
    </g>
    <g>
      <line x1="70" x2="215" y1="822" style="clip-path:url(#clipPath2); fill:none;" y2="822" />
    </g>
    <g style="font-family:sans-serif;">
      <text x="76" y="848" style="clip-path:url(#clipPath7); stroke:none;"> predicate:Predicate
      </text>
      <text x="76" y="870" style="clip-path:url(#clipPath7); stroke:none;"> subPredicates:List
      </text>
    </g>
    <g>
      <polygon style="fill:none; clip-path:url(#clipPath8);" points=" 208 881 209 881 209 879 210 878 210 878 211 879 211 881 212 881 212 884 208 884 208 881" />
      <line x1="208" x2="212" y1="881" style="clip-path:url(#clipPath8); fill:none;" y2="881" />
    </g>
    <g style="fill:navy; stroke:navy;">
      <rect x="23" y="398" width="145" style="clip-path:url(#clipPath1); stroke:none;" height="208" />
      <rect x="20" y="395" width="145" style="clip-path:url(#clipPath1); fill:white; stroke:none;" height="208" />
      <rect x="20" y="395" width="145" style="clip-path:url(#clipPath1); fill:none; stroke:black;" height="208" />
    </g>
    <g style="font-style:italic; font-weight:bold; font-family:sans-serif;">
      <text x="30" y="413" style="clip-path:url(#clipPath10); stroke:none;">AbstractPredicate
      </text>
    </g>
    <g>
      <line x1="20" x2="165" y1="424" style="clip-path:url(#clipPath9); fill:none;" y2="424" />
      <line x1="20" x2="165" y1="447" style="clip-path:url(#clipPath9); fill:none;" y2="447" />
    </g>
    <g style="font-family:sans-serif;">
      <text x="26" y="473" style="clip-path:url(#clipPath12); stroke:none;">+exists:boolean
      </text>
      <text x="26" y="495" style="clip-path:url(#clipPath12); stroke:none;">+forall:boolean
      </text>
      <text x="26" y="517" style="clip-path:url(#clipPath12); stroke:none;">+count:int
      </text>
      <text x="26" y="539" style="clip-path:url(#clipPath12); stroke:none;">+filter:void
      </text>
      <text x="26" y="561" style="clip-path:url(#clipPath12); stroke:none;">+equals:boolean
      </text>
      <text x="26" y="583" style="clip-path:url(#clipPath12); stroke:none;">+nbSubPredicates:int
      </text>
    </g>
    <g>
      <polygon style="fill:none; clip-path:url(#clipPath13);" points=" 158 594 159 594 159 592 160 591 160 591 161 592 161 594 162 594 162 597 158 597 158 594" />
      <line x1="158" x2="162" y1="594" style="clip-path:url(#clipPath13); fill:none;" y2="594" />
    </g>
    <g style="fill:navy; stroke:navy;">
      <polygon style="clip-path:url(#clipPath1); stroke:none;" points=" 65 23 218 23 218 325 65 325 65 37 57 37 57 29 65 29 65 23" />
      <polygon style="fill:white; clip-path:url(#clipPath1); stroke:none;" points=" 62 20 215 20 215 322 62 322 62 34 54 34 54 26 62 26 62 20" />
      <polygon style="fill:none; clip-path:url(#clipPath1); stroke:black;" points=" 62 20 215 20 215 322 62 322 62 34 54 34 54 26 62 26 62 20" />
      <line x1="62" x2="70" y1="34" style="clip-path:url(#clipPath1); fill:none; stroke:black;" y2="34" />
      <line x1="70" x2="70" y1="34" style="clip-path:url(#clipPath1); fill:none; stroke:black;" y2="26" />
      <line x1="70" x2="62" y1="26" style="clip-path:url(#clipPath1); fill:none; stroke:black;" y2="26" />
    </g>
    <g style="font-family:sans-serif;">
      <text x="92" y="38" style="clip-path:url(#clipPath15); stroke:none;">CollectionOperator
      </text>
      <text x="115" y="60" style="clip-path:url(#clipPath15); stroke:none;">interface
      </text>
      <text x="110" y="82" style="clip-path:url(#clipPath15); font-style:italic; stroke:none; font-weight:bold;">Predicate
      </text>
    </g>
    <g>
      <line x1="70" x2="215" y1="93" style="clip-path:url(#clipPath14); fill:none;" y2="93" />
      <line x1="70" x2="215" y1="106" style="clip-path:url(#clipPath14); fill:none;" y2="106" />
    </g>
    <g style="font-family:sans-serif; font-style:italic;">
      <text x="76" y="132" style="clip-path:url(#clipPath17); stroke:none;">+eval:boolean
      </text>
      <text x="76" y="154" style="clip-path:url(#clipPath17); stroke:none;">+exists:boolean
      </text>
      <text x="76" y="176" style="clip-path:url(#clipPath17); stroke:none;">+forall:boolean
      </text>
      <text x="76" y="198" style="clip-path:url(#clipPath17); stroke:none;">+count:int
      </text>
      <text x="76" y="220" style="clip-path:url(#clipPath17); stroke:none;">+filter:void
      </text>
      <text x="76" y="242" style="clip-path:url(#clipPath17); stroke:none;">+equals:boolean
      </text>
      <text x="76" y="264" style="clip-path:url(#clipPath17); stroke:none;">+nbSubPredicates:int
      </text>
    </g>
    <g>
      <line x1="70" x2="215" y1="276" style="clip-path:url(#clipPath14); fill:none;" y2="276" />
    </g>
    <g style="font-family:sans-serif;">
      <text x="76" y="302" style="clip-path:url(#clipPath19); stroke:none;"> subPredicates:List
      </text>
    </g>
    <g>
      <polygon style="fill:none; clip-path:url(#clipPath20);" points=" 208 313 209 313 209 311 210 310 210 310 211 311 211 313 212 313 212 316 208 316 208 313" />
      <line x1="208" x2="212" y1="313" style="clip-path:url(#clipPath20); fill:none;" y2="313" />
    </g>
  </g>
</svg>
