<?xml version="1.0" encoding="UTF-8"?>

<!DOCTYPE svg PUBLIC '-//W3C//DTD SVG 20001102//EN' 'http://www.w3.org/TR/2000/CR-SVG-20001102/DTD/svg-20001102.dtd'>
<svg style="fill-opacity:1; color-interpolation:sRGB; color-rendering:auto; text-rendering:auto; stroke:black; stroke-linecap:square; stroke-miterlimit:10; stroke-opacity:1; shape-rendering:auto; fill:black; stroke-dasharray:none; font-weight:normal; stroke-width:1; font-family:&apos;Lucida Sans&apos;; font-style:normal; stroke-linejoin:miter; font-size:12; image-rendering:auto; stroke-dashoffset:0;" width="205" height="348">
  <!--Generated by the Batik Graphics2D SVG Generator-->
  <defs id="genericDefs" />
  <g>
    <defs id="defs1">
      <clipPath clipPathUnits="userSpaceOnUse" id="clipPath1">
        <path d="M0 0 L205 0 L205 348 L0 348 L0 0 Z" />
      </clipPath>
      <clipPath clipPathUnits="userSpaceOnUse" id="clipPath2">
        <path d="M26 10 L26 335 L192 335 L192 10 Z" />
      </clipPath>
      <clipPath clipPathUnits="userSpaceOnUse" id="clipPath3">
        <path d="M27 11 L27 34 L192 34 L192 11 Z" />
      </clipPath>
      <clipPath clipPathUnits="userSpaceOnUse" id="clipPath4">
        <path d="M26 59 L26 239 L192 239 L192 59 Z" />
      </clipPath>
      <clipPath clipPathUnits="userSpaceOnUse" id="clipPath5">
        <path d="M28 61 L28 238 L191 238 L191 61 Z" />
      </clipPath>
      <clipPath clipPathUnits="userSpaceOnUse" id="clipPath6">
        <path d="M26 251 L26 321 L192 321 L192 251 Z" />
      </clipPath>
      <clipPath clipPathUnits="userSpaceOnUse" id="clipPath7">
        <path d="M28 253 L28 320 L191 320 L191 253 Z" />
      </clipPath>
      <clipPath clipPathUnits="userSpaceOnUse" id="clipPath8">
        <path d="M26 320 L26 335 L192 335 L192 320 Z" />
      </clipPath>
    </defs>
    <g style="fill:navy; stroke:navy;">
      <polygon style="clip-path:url(#clipPath1); stroke:none;" points=" 21 13 194 13 194 337 21 337 21 27 13 27 13 19 21 19 21 13" />
      <polygon style="fill:white; clip-path:url(#clipPath1); stroke:none;" points=" 18 10 191 10 191 334 18 334 18 24 10 24 10 16 18 16 18 10" />
      <polygon style="fill:none; clip-path:url(#clipPath1); stroke:black;" points=" 18 10 191 10 191 334 18 334 18 24 10 24 10 16 18 16 18 10" />
      <line x1="18" x2="26" y1="24" style="clip-path:url(#clipPath1); fill:none; stroke:black;" y2="24" />
      <line x1="26" x2="26" y1="24" style="clip-path:url(#clipPath1); fill:none; stroke:black;" y2="16" />
      <line x1="26" x2="18" y1="16" style="clip-path:url(#clipPath1); fill:none; stroke:black;" y2="16" />
    </g>
    <g style="font-style:italic; font-weight:bold; font-family:sans-serif;">
      <text x="79" y="28" style="clip-path:url(#clipPath3); stroke:none;">Relation
      </text>
    </g>
    <g>
      <line x1="26" x2="191" y1="39" style="clip-path:url(#clipPath2); fill:none;" y2="39" />
      <line x1="26" x2="191" y1="52" style="clip-path:url(#clipPath2); fill:none;" y2="52" />
    </g>
    <g style="font-family:sans-serif;">
      <text x="32" y="78" style="clip-path:url(#clipPath5); stroke:none;">+Relation
      </text>
      <text x="32" y="100" style="clip-path:url(#clipPath5); stroke:none;">+contains:boolean
      </text>
      <text x="32" y="122" style="clip-path:url(#clipPath5); stroke:none;">+equals:boolean
      </text>
      <text x="32" y="144" style="font-style:italic; clip-path:url(#clipPath5); stroke:none;">#register:void
      </text>
      <text x="32" y="166" style="font-style:italic; clip-path:url(#clipPath5); stroke:none;">#unregister:void
      </text>
      <text x="32" y="188" style="font-style:italic; clip-path:url(#clipPath5); stroke:none;">#isValidElement:boolean
      </text>
      <text x="32" y="210" style="font-style:italic; clip-path:url(#clipPath5); stroke:none;">+registered:boolean
      </text>
      <text x="32" y="232" style="font-style:italic; clip-path:url(#clipPath5); stroke:none;">+unregistered:boolean
      </text>
    </g>
    <g>
      <line x1="26" x2="191" y1="244" style="clip-path:url(#clipPath2); fill:none;" y2="244" />
    </g>
    <g style="font-family:sans-serif;">
      <text x="32" y="270" style="clip-path:url(#clipPath7); stroke:none;"> otherEnds:List
      </text>
      <text x="32" y="292" style="clip-path:url(#clipPath7); stroke:none;"> otherRelations:List
      </text>
      <text x="32" y="314" style="clip-path:url(#clipPath7); stroke:none;"> object:Object
      </text>
    </g>
    <g>
      <polygon style="fill:none; clip-path:url(#clipPath8);" points=" 184 325 185 325 185 323 186 322 186 322 187 323 187 325 188 325 188 328 184 328 184 325" />
      <line x1="184" x2="188" y1="325" style="clip-path:url(#clipPath8); fill:none;" y2="325" />
    </g>
  </g>
</svg>
