<?xml version="1.0" encoding="UTF-8"?>

<!DOCTYPE svg PUBLIC '-//W3C//DTD SVG 20001102//EN' 'http://www.w3.org/TR/2000/CR-SVG-20001102/DTD/svg-20001102.dtd'>
<svg style="fill-opacity:1; color-interpolation:sRGB; color-rendering:auto; text-rendering:auto; stroke:black; stroke-linecap:square; stroke-miterlimit:10; stroke-opacity:1; shape-rendering:auto; fill:black; stroke-dasharray:none; font-weight:normal; stroke-width:1; font-family:&apos;Lucida Sans&apos;; font-style:normal; stroke-linejoin:miter; font-size:12; image-rendering:auto; stroke-dashoffset:0;" width="218" height="204">
  <!--Generated by the Batik Graphics2D SVG Generator-->
  <defs id="genericDefs" />
  <g>
    <defs id="defs1">
      <clipPath clipPathUnits="userSpaceOnUse" id="clipPath1">
        <path d="M0 0 L218 0 L218 204 L0 204 L0 0 Z" />
      </clipPath>
      <clipPath clipPathUnits="userSpaceOnUse" id="clipPath2">
        <path d="M26 10 L26 191 L205 191 L205 10 Z" />
      </clipPath>
      <clipPath clipPathUnits="userSpaceOnUse" id="clipPath3">
        <path d="M27 11 L27 34 L205 34 L205 11 Z" />
      </clipPath>
      <clipPath clipPathUnits="userSpaceOnUse" id="clipPath4">
        <path d="M26 69 L26 117 L205 117 L205 69 Z" />
      </clipPath>
      <clipPath clipPathUnits="userSpaceOnUse" id="clipPath5">
        <path d="M28 71 L28 116 L204 116 L204 71 Z" />
      </clipPath>
      <clipPath clipPathUnits="userSpaceOnUse" id="clipPath6">
        <path d="M26 129 L26 177 L205 177 L205 129 Z" />
      </clipPath>
      <clipPath clipPathUnits="userSpaceOnUse" id="clipPath7">
        <path d="M28 131 L28 176 L204 176 L204 131 Z" />
      </clipPath>
      <clipPath clipPathUnits="userSpaceOnUse" id="clipPath8">
        <path d="M26 176 L26 191 L205 191 L205 176 Z" />
      </clipPath>
    </defs>
    <g style="fill:navy; stroke:navy;">
      <polygon style="clip-path:url(#clipPath1); stroke:none;" points=" 21 13 207 13 207 193 21 193 21 27 13 27 13 19 21 19 21 13" />
      <polygon style="fill:white; clip-path:url(#clipPath1); stroke:none;" points=" 18 10 204 10 204 190 18 190 18 24 10 24 10 16 18 16 18 10" />
      <polygon style="fill:none; clip-path:url(#clipPath1); stroke:black;" points=" 18 10 204 10 204 190 18 190 18 24 10 24 10 16 18 16 18 10" />
      <line x1="18" x2="26" y1="24" style="clip-path:url(#clipPath1); fill:none; stroke:black;" y2="24" />
      <line x1="26" x2="26" y1="24" style="clip-path:url(#clipPath1); fill:none; stroke:black;" y2="16" />
      <line x1="26" x2="18" y1="16" style="clip-path:url(#clipPath1); fill:none; stroke:black;" y2="16" />
    </g>
    <g style="font-weight:bold; font-family:sans-serif;">
      <text x="31" y="28" style="clip-path:url(#clipPath3); stroke:none;">FileSetPredicateSupport
      </text>
    </g>
    <g>
      <line x1="26" x2="204" y1="39" style="clip-path:url(#clipPath2); fill:none;" y2="39" />
      <line x1="26" x2="204" y1="62" style="clip-path:url(#clipPath2); fill:none;" y2="62" />
    </g>
    <g style="font-family:sans-serif;">
      <text x="32" y="88" style="clip-path:url(#clipPath5); stroke:none;">+FileSetPredicateSupport
      </text>
      <text x="32" y="110" style="clip-path:url(#clipPath5); stroke:none;">+nbSubPredicates:int
      </text>
    </g>
    <g>
      <line x1="26" x2="204" y1="122" style="clip-path:url(#clipPath2); fill:none;" y2="122" />
    </g>
    <g style="font-family:sans-serif;">
      <text x="32" y="148" style="clip-path:url(#clipPath7); stroke:none;"> predicate:Predicate
      </text>
      <text x="32" y="170" style="clip-path:url(#clipPath7); stroke:none;"> subPredicates:List
      </text>
    </g>
    <g>
      <polygon style="fill:none; clip-path:url(#clipPath8);" points=" 197 181 198 181 198 179 199 178 199 178 200 179 200 181 201 181 201 184 197 184 197 181" />
      <line x1="197" x2="201" y1="181" style="clip-path:url(#clipPath8); fill:none;" y2="181" />
    </g>
  </g>
</svg>
