<?xml version="1.0" encoding="UTF-8"?>

<!DOCTYPE svg PUBLIC '-//W3C//DTD SVG 20001102//EN' 'http://www.w3.org/TR/2000/CR-SVG-20001102/DTD/svg-20001102.dtd'>
<svg style="fill-opacity:1; color-interpolation:sRGB; color-rendering:auto; text-rendering:auto; stroke:black; stroke-linecap:square; stroke-miterlimit:10; stroke-opacity:1; shape-rendering:auto; fill:black; stroke-dasharray:none; font-weight:normal; stroke-width:1; font-family:&apos;Lucida Sans&apos;; font-style:normal; stroke-linejoin:miter; font-size:12; image-rendering:auto; stroke-dashoffset:0;" width="187" height="374">
  <!--Generated by the Batik Graphics2D SVG Generator-->
  <defs id="genericDefs" />
  <g>
    <defs id="defs1">
      <clipPath clipPathUnits="userSpaceOnUse" id="clipPath1">
        <path d="M0 0 L187 0 L187 374 L0 374 L0 0 Z" />
      </clipPath>
      <clipPath clipPathUnits="userSpaceOnUse" id="clipPath2">
        <path d="M26 10 L26 361 L174 361 L174 10 Z" />
      </clipPath>
      <clipPath clipPathUnits="userSpaceOnUse" id="clipPath3">
        <path d="M27 11 L27 34 L174 34 L174 11 Z" />
      </clipPath>
      <clipPath clipPathUnits="userSpaceOnUse" id="clipPath4">
        <path d="M26 69 L26 271 L174 271 L174 69 Z" />
      </clipPath>
      <clipPath clipPathUnits="userSpaceOnUse" id="clipPath5">
        <path d="M28 71 L28 270 L173 270 L173 71 Z" />
      </clipPath>
      <clipPath clipPathUnits="userSpaceOnUse" id="clipPath6">
        <path d="M26 283 L26 309 L174 309 L174 283 Z" />
      </clipPath>
      <clipPath clipPathUnits="userSpaceOnUse" id="clipPath7">
        <path d="M28 285 L28 308 L173 308 L173 285 Z" />
      </clipPath>
      <clipPath clipPathUnits="userSpaceOnUse" id="clipPath8">
        <path d="M26 321 L26 347 L174 347 L174 321 Z" />
      </clipPath>
      <clipPath clipPathUnits="userSpaceOnUse" id="clipPath9">
        <path d="M28 323 L28 346 L173 346 L173 323 Z" />
      </clipPath>
      <clipPath clipPathUnits="userSpaceOnUse" id="clipPath10">
        <path d="M26 346 L26 361 L174 361 L174 346 Z" />
      </clipPath>
    </defs>
    <g style="fill:navy; stroke:navy;">
      <polygon style="clip-path:url(#clipPath1); stroke:none;" points=" 21 13 176 13 176 363 21 363 21 27 13 27 13 19 21 19 21 13" />
      <polygon style="fill:white; clip-path:url(#clipPath1); stroke:none;" points=" 18 10 173 10 173 360 18 360 18 24 10 24 10 16 18 16 18 10" />
      <polygon style="fill:none; clip-path:url(#clipPath1); stroke:black;" points=" 18 10 173 10 173 360 18 360 18 24 10 24 10 16 18 16 18 10" />
      <line x1="18" x2="26" y1="24" style="clip-path:url(#clipPath1); fill:none; stroke:black;" y2="24" />
      <line x1="26" x2="26" y1="24" style="clip-path:url(#clipPath1); fill:none; stroke:black;" y2="16" />
      <line x1="26" x2="18" y1="16" style="clip-path:url(#clipPath1); fill:none; stroke:black;" y2="16" />
    </g>
    <g style="font-weight:bold; font-family:sans-serif;">
      <text x="76" y="28" style="clip-path:url(#clipPath3); stroke:none;">FileSet
      </text>
    </g>
    <g>
      <line x1="26" x2="173" y1="39" style="clip-path:url(#clipPath2); fill:none;" y2="39" />
      <line x1="26" x2="173" y1="62" style="clip-path:url(#clipPath2); fill:none;" y2="62" />
    </g>
    <g style="font-family:sans-serif;">
      <text x="32" y="88" style="clip-path:url(#clipPath5); stroke:none;">+FileSet
      </text>
      <text x="32" y="110" style="clip-path:url(#clipPath5); stroke:none;">+include:void
      </text>
      <text x="32" y="132" style="clip-path:url(#clipPath5); stroke:none;">+exclude:void
      </text>
      <text x="32" y="154" style="clip-path:url(#clipPath5); stroke:none;">+removeInclude:void
      </text>
      <text x="32" y="176" style="clip-path:url(#clipPath5); stroke:none;">+removeExclude:void
      </text>
      <text x="32" y="198" style="clip-path:url(#clipPath5); stroke:none;">+contains:boolean
      </text>
      <text x="32" y="220" style="clip-path:url(#clipPath5); stroke:none;">+includePredicate:Or
      </text>
      <text x="32" y="242" style="clip-path:url(#clipPath5); stroke:none;">+excludePredicate:Or
      </text>
      <text x="32" y="264" style="clip-path:url(#clipPath5); stroke:none;">+main:void
      </text>
      <line x1="32" x2="104" y1="266" style="clip-path:url(#clipPath5); fill:none;" y2="266" />
    </g>
    <g>
      <line x1="26" x2="173" y1="276" style="clip-path:url(#clipPath2); fill:none;" y2="276" />
    </g>
    <g style="font-family:sans-serif; font-style:italic;">
      <text x="32" y="302" style="clip-path:url(#clipPath7); stroke:none;">+FileVisitor
      </text>
    </g>
    <g>
      <line x1="26" x2="173" y1="314" style="clip-path:url(#clipPath2); fill:none;" y2="314" />
    </g>
    <g style="font-family:sans-serif;">
      <text x="32" y="340" style="clip-path:url(#clipPath9); stroke:none;"> files:Set
      </text>
    </g>
    <g>
      <polygon style="fill:none; clip-path:url(#clipPath10);" points=" 166 351 167 351 167 349 168 348 168 348 169 349 169 351 170 351 170 354 166 354 166 351" />
      <line x1="166" x2="170" y1="351" style="clip-path:url(#clipPath10); fill:none;" y2="351" />
    </g>
  </g>
</svg>
