<?xml version="1.0" encoding="UTF-8"?>

<!DOCTYPE svg PUBLIC '-//W3C//DTD SVG 20001102//EN' 'http://www.w3.org/TR/2000/CR-SVG-20001102/DTD/svg-20001102.dtd'>
<svg style="fill-opacity:1; color-interpolation:sRGB; color-rendering:auto; text-rendering:auto; stroke:black; stroke-linecap:square; stroke-miterlimit:10; stroke-opacity:1; shape-rendering:auto; fill:black; stroke-dasharray:none; font-weight:normal; stroke-width:1; font-family:&apos;Lucida Sans&apos;; font-style:normal; stroke-linejoin:miter; font-size:12; image-rendering:auto; stroke-dashoffset:0;" width="231" height="561">
  <!--Generated by the Batik Graphics2D SVG Generator-->
  <defs id="genericDefs" />
  <g>
    <defs id="defs1">
      <clipPath clipPathUnits="userSpaceOnUse" id="clipPath1">
        <path d="M0 0 L231 0 L231 561 L0 561 L0 0 Z" />
      </clipPath>
      <clipPath clipPathUnits="userSpaceOnUse" id="clipPath2">
        <path d="M36 20 L36 333 L218 333 L218 20 Z" />
      </clipPath>
      <clipPath clipPathUnits="userSpaceOnUse" id="clipPath3">
        <path d="M37 21 L37 88 L218 88 L218 21 Z" />
      </clipPath>
      <clipPath clipPathUnits="userSpaceOnUse" id="clipPath4">
        <path d="M36 123 L36 281 L218 281 L218 123 Z" />
      </clipPath>
      <clipPath clipPathUnits="userSpaceOnUse" id="clipPath5">
        <path d="M38 125 L38 280 L217 280 L217 125 Z" />
      </clipPath>
      <clipPath clipPathUnits="userSpaceOnUse" id="clipPath6">
        <path d="M36 293 L36 319 L218 319 L218 293 Z" />
      </clipPath>
      <clipPath clipPathUnits="userSpaceOnUse" id="clipPath7">
        <path d="M38 295 L38 318 L217 318 L217 295 Z" />
      </clipPath>
      <clipPath clipPathUnits="userSpaceOnUse" id="clipPath8">
        <path d="M36 318 L36 333 L218 333 L218 318 Z" />
      </clipPath>
      <clipPath clipPathUnits="userSpaceOnUse" id="clipPath9">
        <path d="M35 405 L35 548 L202 548 L202 405 Z" />
      </clipPath>
      <clipPath clipPathUnits="userSpaceOnUse" id="clipPath10">
        <path d="M36 406 L36 451 L202 451 L202 406 Z" />
      </clipPath>
      <clipPath clipPathUnits="userSpaceOnUse" id="clipPath11">
        <path d="M35 486 L35 534 L202 534 L202 486 Z" />
      </clipPath>
      <clipPath clipPathUnits="userSpaceOnUse" id="clipPath12">
        <path d="M37 488 L37 533 L201 533 L201 488 Z" />
      </clipPath>
      <clipPath clipPathUnits="userSpaceOnUse" id="clipPath13">
        <path d="M35 533 L35 548 L202 548 L202 533 Z" />
      </clipPath>
    </defs>
    <g style="fill:rgb(0,64,64); stroke:rgb(0,64,64);">
      <line x1="119" x2="119" y1="405" style="clip-path:url(#clipPath1); fill:none;" y2="335" />
      <polygon style="fill:white; clip-path:url(#clipPath1); stroke:none;" points=" 119 335 125 353 113 353" />
      <polygon style="fill:none; clip-path:url(#clipPath1);" points=" 119 335 125 353 113 353" />
      <line x1="113" x2="119" y1="353" style="clip-path:url(#clipPath1); fill:none;" y2="335" />
      <polygon style="fill:navy; clip-path:url(#clipPath1); stroke:none;" points=" 31 23 220 23 220 335 31 335 31 37 23 37 23 29 31 29 31 23" />
      <polygon style="fill:white; clip-path:url(#clipPath1); stroke:none;" points=" 28 20 217 20 217 332 28 332 28 34 20 34 20 26 28 26 28 20" />
      <polygon style="fill:none; clip-path:url(#clipPath1); stroke:black;" points=" 28 20 217 20 217 332 28 332 28 34 20 34 20 26 28 26 28 20" />
      <line x1="28" x2="36" y1="34" style="clip-path:url(#clipPath1); fill:none; stroke:black;" y2="34" />
      <line x1="36" x2="36" y1="34" style="clip-path:url(#clipPath1); fill:none; stroke:black;" y2="26" />
      <line x1="36" x2="28" y1="26" style="clip-path:url(#clipPath1); fill:none; stroke:black;" y2="26" />
    </g>
    <g style="font-family:sans-serif;">
      <text x="94" y="38" style="clip-path:url(#clipPath3); stroke:none;">CollectionOperator
      </text>
      <text x="99" y="60" style="clip-path:url(#clipPath3); stroke:none;">interface
      </text>
      <text x="41" y="82" style="clip-path:url(#clipPath3); font-style:italic; stroke:none; font-weight:bold;">...predicate.Predicate
      </text>
    </g>
    <g>
      <line x1="36" x2="217" y1="93" style="clip-path:url(#clipPath2); fill:none;" y2="93" />
      <line x1="36" x2="217" y1="116" style="clip-path:url(#clipPath2); fill:none;" y2="116" />
    </g>
    <g style="font-family:sans-serif; font-style:italic;">
      <text x="42" y="142" style="clip-path:url(#clipPath5); stroke:none;">+eval:boolean
      </text>
      <text x="42" y="164" style="clip-path:url(#clipPath5); stroke:none;">+exists:boolean
      </text>
      <text x="42" y="186" style="clip-path:url(#clipPath5); stroke:none;">+forall:boolean
      </text>
      <text x="42" y="208" style="clip-path:url(#clipPath5); stroke:none;">+count:int
      </text>
      <text x="42" y="230" style="clip-path:url(#clipPath5); stroke:none;">+filter:void
      </text>
      <text x="42" y="252" style="clip-path:url(#clipPath5); stroke:none;">+equals:boolean
      </text>
      <text x="42" y="274" style="clip-path:url(#clipPath5); stroke:none;">+nbSubPredicates:int
      </text>
    </g>
    <g>
      <line x1="36" x2="217" y1="286" style="clip-path:url(#clipPath2); fill:none;" y2="286" />
    </g>
    <g style="font-family:sans-serif;">
      <text x="42" y="312" style="clip-path:url(#clipPath7); stroke:none;"> subPredicates:List
      </text>
    </g>
    <g>
      <polygon style="fill:none; clip-path:url(#clipPath8);" points=" 210 323 211 323 211 321 212 320 212 320 213 321 213 323 214 323 214 326 210 326 210 323" />
      <line x1="210" x2="214" y1="323" style="clip-path:url(#clipPath8); fill:none;" y2="323" />
    </g>
    <g style="fill:navy; stroke:navy;">
      <rect x="38" y="408" width="166" style="clip-path:url(#clipPath1); stroke:none;" height="142" />
      <rect x="35" y="405" width="166" style="clip-path:url(#clipPath1); fill:white; stroke:none;" height="142" />
      <rect x="35" y="405" width="166" style="clip-path:url(#clipPath1); fill:none; stroke:black;" height="142" />
    </g>
    <g style="font-family:sans-serif;">
      <text x="91" y="423" style="clip-path:url(#clipPath10); stroke:none;">interface
      </text>
      <text x="62" y="445" style="clip-path:url(#clipPath10); font-style:italic; stroke:none; font-weight:bold;">FileSetPredicate
      </text>
    </g>
    <g>
      <line x1="35" x2="201" y1="456" style="clip-path:url(#clipPath9); fill:none;" y2="456" />
      <line x1="35" x2="201" y1="479" style="clip-path:url(#clipPath9); fill:none;" y2="479" />
    </g>
    <g style="font-family:sans-serif; font-style:italic;">
      <text x="41" y="505" style="clip-path:url(#clipPath12); stroke:none;">+suggestDirectories:List
      </text>
      <text x="41" y="527" style="clip-path:url(#clipPath12); stroke:none;">+enterDirectory:boolean
      </text>
    </g>
    <g>
      <polygon style="fill:none; clip-path:url(#clipPath13);" points=" 194 538 195 538 195 536 196 535 196 535 197 536 197 538 198 538 198 541 194 541 194 538" />
      <line x1="194" x2="198" y1="538" style="clip-path:url(#clipPath13); fill:none;" y2="538" />
    </g>
  </g>
</svg>
