<?xml version="1.0" encoding="UTF-8"?>

<!DOCTYPE svg PUBLIC '-//W3C//DTD SVG 20001102//EN' 'http://www.w3.org/TR/2000/CR-SVG-20001102/DTD/svg-20001102.dtd'>
<svg style="fill-opacity:1; color-interpolation:sRGB; color-rendering:auto; text-rendering:auto; stroke:black; stroke-linecap:square; stroke-miterlimit:10; stroke-opacity:1; shape-rendering:auto; fill:black; stroke-dasharray:none; font-weight:normal; stroke-width:1; font-family:&apos;Lucida Sans&apos;; font-style:normal; stroke-linejoin:miter; font-size:12; image-rendering:auto; stroke-dashoffset:0;" width="198" height="226">
  <!--Generated by the Batik Graphics2D SVG Generator-->
  <defs id="genericDefs" />
  <g>
    <defs id="defs1">
      <clipPath clipPathUnits="userSpaceOnUse" id="clipPath1">
        <path d="M0 0 L198 0 L198 226 L0 226 L0 0 Z" />
      </clipPath>
      <clipPath clipPathUnits="userSpaceOnUse" id="clipPath2">
        <path d="M26 10 L26 213 L185 213 L185 10 Z" />
      </clipPath>
      <clipPath clipPathUnits="userSpaceOnUse" id="clipPath3">
        <path d="M27 11 L27 34 L185 34 L185 11 Z" />
      </clipPath>
      <clipPath clipPathUnits="userSpaceOnUse" id="clipPath4">
        <path d="M26 69 L26 117 L185 117 L185 69 Z" />
      </clipPath>
      <clipPath clipPathUnits="userSpaceOnUse" id="clipPath5">
        <path d="M28 71 L28 116 L184 116 L184 71 Z" />
      </clipPath>
      <clipPath clipPathUnits="userSpaceOnUse" id="clipPath6">
        <path d="M26 129 L26 199 L185 199 L185 129 Z" />
      </clipPath>
      <clipPath clipPathUnits="userSpaceOnUse" id="clipPath7">
        <path d="M28 131 L28 198 L184 198 L184 131 Z" />
      </clipPath>
      <clipPath clipPathUnits="userSpaceOnUse" id="clipPath8">
        <path d="M26 198 L26 213 L185 213 L185 198 Z" />
      </clipPath>
    </defs>
    <g style="fill:navy; stroke:navy;">
      <polygon style="clip-path:url(#clipPath1); stroke:none;" points=" 21 13 187 13 187 215 21 215 21 27 13 27 13 19 21 19 21 13" />
      <polygon style="fill:white; clip-path:url(#clipPath1); stroke:none;" points=" 18 10 184 10 184 212 18 212 18 24 10 24 10 16 18 16 18 10" />
      <polygon style="fill:none; clip-path:url(#clipPath1); stroke:black;" points=" 18 10 184 10 184 212 18 212 18 24 10 24 10 16 18 16 18 10" />
      <line x1="18" x2="26" y1="24" style="clip-path:url(#clipPath1); fill:none; stroke:black;" y2="24" />
      <line x1="26" x2="26" y1="24" style="clip-path:url(#clipPath1); fill:none; stroke:black;" y2="16" />
      <line x1="26" x2="18" y1="16" style="clip-path:url(#clipPath1); fill:none; stroke:black;" y2="16" />
    </g>
    <g style="font-weight:bold; font-family:sans-serif;">
      <text x="47" y="28" style="clip-path:url(#clipPath3); stroke:none;">FileNamePattern
      </text>
    </g>
    <g>
      <line x1="26" x2="184" y1="39" style="clip-path:url(#clipPath2); fill:none;" y2="39" />
      <line x1="26" x2="184" y1="62" style="clip-path:url(#clipPath2); fill:none;" y2="62" />
    </g>
    <g style="font-family:sans-serif;">
      <text x="32" y="88" style="clip-path:url(#clipPath5); stroke:none;">+FileNamePattern
      </text>
      <text x="32" y="110" style="clip-path:url(#clipPath5); stroke:none;">-patternToRegex:String
      </text>
    </g>
    <g>
      <line x1="26" x2="184" y1="122" style="clip-path:url(#clipPath2); fill:none;" y2="122" />
    </g>
    <g style="font-family:sans-serif;">
      <text x="32" y="148" style="clip-path:url(#clipPath7); stroke:none;"> pattern:String
      </text>
      <text x="32" y="170" style="clip-path:url(#clipPath7); stroke:none;"> regexPattern:String
      </text>
      <text x="32" y="192" style="clip-path:url(#clipPath7); stroke:none;"> regexSeparator:String
      </text>
    </g>
    <g>
      <polygon style="fill:none; clip-path:url(#clipPath8);" points=" 177 203 178 203 178 201 179 200 179 200 180 201 180 203 181 203 181 206 177 206 177 203" />
      <line x1="177" x2="181" y1="203" style="clip-path:url(#clipPath8); fill:none;" y2="203" />
    </g>
  </g>
</svg>
