<?xml version="1.0" encoding="UTF-8"?>

<!DOCTYPE svg PUBLIC '-//W3C//DTD SVG 20001102//EN' 'http://www.w3.org/TR/2000/CR-SVG-20001102/DTD/svg-20001102.dtd'>
<svg style="fill-opacity:1; color-interpolation:sRGB; color-rendering:auto; text-rendering:auto; stroke:black; stroke-linecap:square; stroke-miterlimit:10; stroke-opacity:1; shape-rendering:auto; fill:black; stroke-dasharray:none; font-weight:normal; stroke-width:1; font-family:&apos;Lucida Sans&apos;; font-style:normal; stroke-linejoin:miter; font-size:12; image-rendering:auto; stroke-dashoffset:0;" width="354" height="1183">
  <!--Generated by the Batik Graphics2D SVG Generator-->
  <defs id="genericDefs" />
  <g>
    <defs id="defs1">
      <clipPath clipPathUnits="userSpaceOnUse" id="clipPath1">
        <path d="M0 0 L354 0 L354 1183 L0 1183 L0 0 Z" />
      </clipPath>
      <clipPath clipPathUnits="userSpaceOnUse" id="clipPath2">
        <path d="M98 901 L98 1170 L265 1170 L265 901 Z" />
      </clipPath>
      <clipPath clipPathUnits="userSpaceOnUse" id="clipPath3">
        <path d="M99 902 L99 925 L265 925 L265 902 Z" />
      </clipPath>
      <clipPath clipPathUnits="userSpaceOnUse" id="clipPath4">
        <path d="M98 960 L98 1096 L265 1096 L265 960 Z" />
      </clipPath>
      <clipPath clipPathUnits="userSpaceOnUse" id="clipPath5">
        <path d="M100 962 L100 1095 L264 1095 L264 962 Z" />
      </clipPath>
      <clipPath clipPathUnits="userSpaceOnUse" id="clipPath6">
        <path d="M98 1108 L98 1156 L265 1156 L265 1108 Z" />
      </clipPath>
      <clipPath clipPathUnits="userSpaceOnUse" id="clipPath7">
        <path d="M100 1110 L100 1155 L264 1155 L264 1110 Z" />
      </clipPath>
      <clipPath clipPathUnits="userSpaceOnUse" id="clipPath8">
        <path d="M98 1155 L98 1170 L265 1170 L265 1155 Z" />
      </clipPath>
      <clipPath clipPathUnits="userSpaceOnUse" id="clipPath9">
        <path d="M174 686 L174 829 L341 829 L341 686 Z" />
      </clipPath>
      <clipPath clipPathUnits="userSpaceOnUse" id="clipPath10">
        <path d="M175 687 L175 732 L341 732 L341 687 Z" />
      </clipPath>
      <clipPath clipPathUnits="userSpaceOnUse" id="clipPath11">
        <path d="M174 767 L174 815 L341 815 L341 767 Z" />
      </clipPath>
      <clipPath clipPathUnits="userSpaceOnUse" id="clipPath12">
        <path d="M176 769 L176 814 L340 814 L340 769 Z" />
      </clipPath>
      <clipPath clipPathUnits="userSpaceOnUse" id="clipPath13">
        <path d="M174 814 L174 829 L341 829 L341 814 Z" />
      </clipPath>
      <clipPath clipPathUnits="userSpaceOnUse" id="clipPath14">
        <path d="M91 20 L91 333 L273 333 L273 20 Z" />
      </clipPath>
      <clipPath clipPathUnits="userSpaceOnUse" id="clipPath15">
        <path d="M92 21 L92 88 L273 88 L273 21 Z" />
      </clipPath>
      <clipPath clipPathUnits="userSpaceOnUse" id="clipPath16">
        <path d="M91 123 L91 281 L273 281 L273 123 Z" />
      </clipPath>
      <clipPath clipPathUnits="userSpaceOnUse" id="clipPath17">
        <path d="M93 125 L93 280 L272 280 L272 125 Z" />
      </clipPath>
      <clipPath clipPathUnits="userSpaceOnUse" id="clipPath18">
        <path d="M91 293 L91 319 L273 319 L273 293 Z" />
      </clipPath>
      <clipPath clipPathUnits="userSpaceOnUse" id="clipPath19">
        <path d="M93 295 L93 318 L272 318 L272 295 Z" />
      </clipPath>
      <clipPath clipPathUnits="userSpaceOnUse" id="clipPath20">
        <path d="M91 318 L91 333 L273 333 L273 318 Z" />
      </clipPath>
      <clipPath clipPathUnits="userSpaceOnUse" id="clipPath21">
        <path d="M20 405 L20 614 L218 614 L218 405 Z" />
      </clipPath>
      <clipPath clipPathUnits="userSpaceOnUse" id="clipPath22">
        <path d="M21 406 L21 429 L218 429 L218 406 Z" />
      </clipPath>
      <clipPath clipPathUnits="userSpaceOnUse" id="clipPath23">
        <path d="M20 464 L20 600 L218 600 L218 464 Z" />
      </clipPath>
      <clipPath clipPathUnits="userSpaceOnUse" id="clipPath24">
        <path d="M22 466 L22 599 L217 599 L217 466 Z" />
      </clipPath>
      <clipPath clipPathUnits="userSpaceOnUse" id="clipPath25">
        <path d="M20 599 L20 614 L218 614 L218 599 Z" />
      </clipPath>
      <clipPath clipPathUnits="userSpaceOnUse" id="clipPath26">
        <path d="M29 686 L29 807 L152 807 L152 686 Z" />
      </clipPath>
      <clipPath clipPathUnits="userSpaceOnUse" id="clipPath27">
        <path d="M30 687 L30 710 L152 710 L152 687 Z" />
      </clipPath>
      <clipPath clipPathUnits="userSpaceOnUse" id="clipPath28">
        <path d="M29 745 L29 793 L152 793 L152 745 Z" />
      </clipPath>
      <clipPath clipPathUnits="userSpaceOnUse" id="clipPath29">
        <path d="M31 747 L31 792 L151 792 L151 747 Z" />
      </clipPath>
      <clipPath clipPathUnits="userSpaceOnUse" id="clipPath30">
        <path d="M29 792 L29 807 L152 807 L152 792 Z" />
      </clipPath>
    </defs>
    <g style="fill:rgb(0,64,64); stroke:rgb(0,64,64);">
      <line x1="91" x2="91" y1="686" style="clip-path:url(#clipPath1); fill:none;" y2="616" />
      <line x1="120" x2="120" y1="405" style="clip-path:url(#clipPath1); fill:none; stroke:teal;" y2="400" />
      <line x1="120" x2="120" y1="395" style="clip-path:url(#clipPath1); fill:none; stroke:teal;" y2="385" />
      <line x1="120" x2="120" y1="380" style="clip-path:url(#clipPath1); fill:none; stroke:teal;" y2="370" />
      <line x1="120" x2="120" y1="370" style="clip-path:url(#clipPath1); fill:none; stroke:teal;" y2="370" />
      <line x1="125" x2="135" y1="370" style="clip-path:url(#clipPath1); fill:none; stroke:teal;" y2="370" />
      <line x1="140" x2="150" y1="370" style="clip-path:url(#clipPath1); fill:none; stroke:teal;" y2="370" />
      <line x1="155" x2="165" y1="370" style="clip-path:url(#clipPath1); fill:none; stroke:teal;" y2="370" />
      <line x1="170" x2="175" y1="370" style="clip-path:url(#clipPath1); fill:none; stroke:teal;" y2="370" />
      <line x1="175" x2="175" y1="370" style="clip-path:url(#clipPath1); fill:none; stroke:teal;" y2="370" />
      <line x1="175" x2="175" y1="365" style="clip-path:url(#clipPath1); fill:none; stroke:teal;" y2="355" />
      <line x1="175" x2="175" y1="350" style="clip-path:url(#clipPath1); fill:none; stroke:teal;" y2="340" />
      <line x1="175" x2="175" y1="335" style="clip-path:url(#clipPath1); fill:none; stroke:teal;" y2="335" />
      <line x1="230" x2="230" y1="686" style="clip-path:url(#clipPath1); fill:none;" y2="370" />
      <line x1="230" x2="175" y1="370" style="clip-path:url(#clipPath1); fill:none;" y2="370" />
      <line x1="175" x2="175" y1="370" style="clip-path:url(#clipPath1); fill:none;" y2="335" />
      <line x1="220" x2="220" y1="901" style="clip-path:url(#clipPath1); fill:none; stroke:teal;" y2="895" />
      <line x1="220" x2="220" y1="890" style="clip-path:url(#clipPath1); fill:none; stroke:teal;" y2="880" />
      <line x1="220" x2="220" y1="875" style="clip-path:url(#clipPath1); fill:none; stroke:teal;" y2="865" />
      <line x1="220" x2="220" y1="860" style="clip-path:url(#clipPath1); fill:none; stroke:teal;" y2="850" />
      <line x1="220" x2="220" y1="845" style="clip-path:url(#clipPath1); fill:none; stroke:teal;" y2="835" />
      <line x1="106" x2="106" y1="901" style="clip-path:url(#clipPath1); fill:none;" y2="809" />
      <polygon style="fill:white; clip-path:url(#clipPath1); stroke:none;" points=" 91 616 97 634 85 634" />
      <polygon style="fill:none; clip-path:url(#clipPath1);" points=" 91 616 97 634 85 634" />
      <line x1="85" x2="91" y1="634" style="clip-path:url(#clipPath1); fill:none;" y2="616" />
      <polygon style="fill:white; clip-path:url(#clipPath1); stroke:none;" points=" 175 335 181 353 169 353" />
      <polygon style="fill:none; clip-path:url(#clipPath1); stroke:teal;" points=" 175 335 181 353 169 353" />
      <line x1="169" x2="175" y1="353" style="clip-path:url(#clipPath1); fill:none; stroke:teal;" y2="335" />
      <polygon style="fill:white; clip-path:url(#clipPath1); stroke:none;" points=" 175 335 181 353 169 353" />
      <polygon style="fill:none; clip-path:url(#clipPath1);" points=" 175 335 181 353 169 353" />
      <line x1="169" x2="175" y1="353" style="clip-path:url(#clipPath1); fill:none;" y2="335" />
      <polygon style="fill:white; clip-path:url(#clipPath1); stroke:none;" points=" 220 831 226 849 214 849" />
      <polygon style="fill:none; clip-path:url(#clipPath1); stroke:teal;" points=" 220 831 226 849 214 849" />
      <line x1="214" x2="220" y1="849" style="clip-path:url(#clipPath1); fill:none; stroke:teal;" y2="831" />
      <polygon style="fill:white; clip-path:url(#clipPath1); stroke:none;" points=" 106 809 112 827 100 827" />
      <polygon style="fill:none; clip-path:url(#clipPath1);" points=" 106 809 112 827 100 827" />
      <line x1="100" x2="106" y1="827" style="clip-path:url(#clipPath1); fill:none;" y2="809" />
      <polygon style="fill:navy; clip-path:url(#clipPath1); stroke:none;" points=" 93 904 267 904 267 1172 93 1172 93 918 85 918 85 910 93 910 93 904" />
      <polygon style="fill:white; clip-path:url(#clipPath1); stroke:none;" points=" 90 901 264 901 264 1169 90 1169 90 915 82 915 82 907 90 907 90 901" />
      <polygon style="fill:none; clip-path:url(#clipPath1); stroke:black;" points=" 90 901 264 901 264 1169 90 1169 90 915 82 915 82 907 90 907 90 901" />
      <line x1="90" x2="98" y1="915" style="clip-path:url(#clipPath1); fill:none; stroke:black;" y2="915" />
      <line x1="98" x2="98" y1="915" style="clip-path:url(#clipPath1); fill:none; stroke:black;" y2="907" />
      <line x1="98" x2="90" y1="907" style="clip-path:url(#clipPath1); fill:none; stroke:black;" y2="907" />
    </g>
    <g style="font-weight:bold; font-family:sans-serif;">
      <text x="147" y="919" style="clip-path:url(#clipPath3); stroke:none;">LocalDisk
      </text>
    </g>
    <g>
      <line x1="98" x2="264" y1="930" style="clip-path:url(#clipPath2); fill:none;" y2="930" />
      <line x1="98" x2="264" y1="953" style="clip-path:url(#clipPath2); fill:none;" y2="953" />
    </g>
    <g style="font-family:sans-serif;">
      <text x="104" y="979" style="clip-path:url(#clipPath5); stroke:none;">+LocalDisk
      </text>
      <text x="104" y="1001" style="clip-path:url(#clipPath5); stroke:none;">+LocalDisk
      </text>
      <text x="104" y="1023" style="clip-path:url(#clipPath5); stroke:none;">+evalFile:boolean
      </text>
      <text x="104" y="1045" style="clip-path:url(#clipPath5); stroke:none;">+suggestDirectories:List
      </text>
      <text x="104" y="1067" style="clip-path:url(#clipPath5); stroke:none;">+enterDirectory:boolean
      </text>
      <text x="104" y="1089" style="clip-path:url(#clipPath5); stroke:none;">+nbSubPredicates:int
      </text>
    </g>
    <g>
      <line x1="98" x2="264" y1="1101" style="clip-path:url(#clipPath2); fill:none;" y2="1101" />
    </g>
    <g style="font-family:sans-serif;">
      <text x="104" y="1127" style="clip-path:url(#clipPath7); stroke:none;"> subPredicates:List
      </text>
      <text x="104" y="1149" style="clip-path:url(#clipPath7); stroke:none;"> predicate:Predicate
      </text>
    </g>
    <g>
      <polygon style="fill:none; clip-path:url(#clipPath8);" points=" 257 1160 258 1160 258 1158 259 1157 259 1157 260 1158 260 1160 261 1160 261 1163 257 1163 257 1160" />
      <line x1="257" x2="261" y1="1160" style="clip-path:url(#clipPath8); fill:none;" y2="1160" />
    </g>
    <g style="fill:navy; stroke:navy;">
      <rect x="177" y="689" width="166" style="clip-path:url(#clipPath1); stroke:none;" height="142" />
      <rect x="174" y="686" width="166" style="clip-path:url(#clipPath1); fill:white; stroke:none;" height="142" />
      <rect x="174" y="686" width="166" style="clip-path:url(#clipPath1); fill:none; stroke:black;" height="142" />
    </g>
    <g style="font-family:sans-serif;">
      <text x="230" y="704" style="clip-path:url(#clipPath10); stroke:none;">interface
      </text>
      <text x="201" y="726" style="clip-path:url(#clipPath10); font-style:italic; stroke:none; font-weight:bold;">FileSetPredicate
      </text>
    </g>
    <g>
      <line x1="174" x2="340" y1="737" style="clip-path:url(#clipPath9); fill:none;" y2="737" />
      <line x1="174" x2="340" y1="760" style="clip-path:url(#clipPath9); fill:none;" y2="760" />
    </g>
    <g style="font-family:sans-serif; font-style:italic;">
      <text x="180" y="786" style="clip-path:url(#clipPath12); stroke:none;">+suggestDirectories:List
      </text>
      <text x="180" y="808" style="clip-path:url(#clipPath12); stroke:none;">+enterDirectory:boolean
      </text>
    </g>
    <g>
      <polygon style="fill:none; clip-path:url(#clipPath13);" points=" 333 819 334 819 334 817 335 816 335 816 336 817 336 819 337 819 337 822 333 822 333 819" />
      <line x1="333" x2="337" y1="819" style="clip-path:url(#clipPath13); fill:none;" y2="819" />
    </g>
    <g style="fill:navy; stroke:navy;">
      <polygon style="clip-path:url(#clipPath1); stroke:none;" points=" 86 23 275 23 275 335 86 335 86 37 78 37 78 29 86 29 86 23" />
      <polygon style="fill:white; clip-path:url(#clipPath1); stroke:none;" points=" 83 20 272 20 272 332 83 332 83 34 75 34 75 26 83 26 83 20" />
      <polygon style="fill:none; clip-path:url(#clipPath1); stroke:black;" points=" 83 20 272 20 272 332 83 332 83 34 75 34 75 26 83 26 83 20" />
      <line x1="83" x2="91" y1="34" style="clip-path:url(#clipPath1); fill:none; stroke:black;" y2="34" />
      <line x1="91" x2="91" y1="34" style="clip-path:url(#clipPath1); fill:none; stroke:black;" y2="26" />
      <line x1="91" x2="83" y1="26" style="clip-path:url(#clipPath1); fill:none; stroke:black;" y2="26" />
    </g>
    <g style="font-family:sans-serif;">
      <text x="149" y="38" style="clip-path:url(#clipPath15); stroke:none;">CollectionOperator
      </text>
      <text x="154" y="60" style="clip-path:url(#clipPath15); stroke:none;">interface
      </text>
      <text x="96" y="82" style="clip-path:url(#clipPath15); font-style:italic; stroke:none; font-weight:bold;">...predicate.Predicate
      </text>
    </g>
    <g>
      <line x1="91" x2="272" y1="93" style="clip-path:url(#clipPath14); fill:none;" y2="93" />
      <line x1="91" x2="272" y1="116" style="clip-path:url(#clipPath14); fill:none;" y2="116" />
    </g>
    <g style="font-family:sans-serif; font-style:italic;">
      <text x="97" y="142" style="clip-path:url(#clipPath17); stroke:none;">+eval:boolean
      </text>
      <text x="97" y="164" style="clip-path:url(#clipPath17); stroke:none;">+exists:boolean
      </text>
      <text x="97" y="186" style="clip-path:url(#clipPath17); stroke:none;">+forall:boolean
      </text>
      <text x="97" y="208" style="clip-path:url(#clipPath17); stroke:none;">+count:int
      </text>
      <text x="97" y="230" style="clip-path:url(#clipPath17); stroke:none;">+filter:void
      </text>
      <text x="97" y="252" style="clip-path:url(#clipPath17); stroke:none;">+equals:boolean
      </text>
      <text x="97" y="274" style="clip-path:url(#clipPath17); stroke:none;">+nbSubPredicates:int
      </text>
    </g>
    <g>
      <line x1="91" x2="272" y1="286" style="clip-path:url(#clipPath14); fill:none;" y2="286" />
    </g>
    <g style="font-family:sans-serif;">
      <text x="97" y="312" style="clip-path:url(#clipPath19); stroke:none;"> subPredicates:List
      </text>
    </g>
    <g>
      <polygon style="fill:none; clip-path:url(#clipPath20);" points=" 265 323 266 323 266 321 267 320 267 320 268 321 268 323 269 323 269 326 265 326 265 323" />
      <line x1="265" x2="269" y1="323" style="clip-path:url(#clipPath20); fill:none;" y2="323" />
    </g>
    <g style="fill:navy; stroke:navy;">
      <rect x="23" y="408" width="197" style="clip-path:url(#clipPath1); stroke:none;" height="208" />
      <rect x="20" y="405" width="197" style="clip-path:url(#clipPath1); fill:white; stroke:none;" height="208" />
      <rect x="20" y="405" width="197" style="clip-path:url(#clipPath1); fill:none; stroke:black;" height="208" />
    </g>
    <g style="font-style:italic; font-weight:bold; font-family:sans-serif;">
      <text x="25" y="423" style="clip-path:url(#clipPath22); stroke:none;">...AbstractPredicate
      </text>
    </g>
    <g>
      <line x1="20" x2="217" y1="434" style="clip-path:url(#clipPath21); fill:none;" y2="434" />
      <line x1="20" x2="217" y1="457" style="clip-path:url(#clipPath21); fill:none;" y2="457" />
    </g>
    <g style="font-family:sans-serif;">
      <text x="26" y="483" style="clip-path:url(#clipPath24); stroke:none;">+exists:boolean
      </text>
      <text x="26" y="505" style="clip-path:url(#clipPath24); stroke:none;">+forall:boolean
      </text>
      <text x="26" y="527" style="clip-path:url(#clipPath24); stroke:none;">+count:int
      </text>
      <text x="26" y="549" style="clip-path:url(#clipPath24); stroke:none;">+filter:void
      </text>
      <text x="26" y="571" style="clip-path:url(#clipPath24); stroke:none;">+equals:boolean
      </text>
      <text x="26" y="593" style="clip-path:url(#clipPath24); stroke:none;">+nbSubPredicates:int
      </text>
    </g>
    <g>
      <polygon style="fill:none; clip-path:url(#clipPath25);" points=" 210 604 211 604 211 602 212 601 212 601 213 602 213 604 214 604 214 607 210 607 210 604" />
      <line x1="210" x2="214" y1="604" style="clip-path:url(#clipPath25); fill:none;" y2="604" />
    </g>
    <g style="fill:navy; stroke:navy;">
      <rect x="32" y="689" width="122" style="clip-path:url(#clipPath1); stroke:none;" height="120" />
      <rect x="29" y="686" width="122" style="clip-path:url(#clipPath1); fill:white; stroke:none;" height="120" />
      <rect x="29" y="686" width="122" style="clip-path:url(#clipPath1); fill:none; stroke:black;" height="120" />
    </g>
    <g style="font-style:italic; font-weight:bold; font-family:sans-serif;">
      <text x="45" y="704" style="clip-path:url(#clipPath27); stroke:none;">FilePredicate
      </text>
    </g>
    <g>
      <line x1="29" x2="151" y1="715" style="clip-path:url(#clipPath26); fill:none;" y2="715" />
      <line x1="29" x2="151" y1="738" style="clip-path:url(#clipPath26); fill:none;" y2="738" />
    </g>
    <g style="font-family:sans-serif;">
      <text x="35" y="764" style="clip-path:url(#clipPath29); stroke:none;">+eval:boolean
      </text>
      <text x="35" y="786" style="font-style:italic; clip-path:url(#clipPath29); stroke:none;">+evalFile:boolean
      </text>
    </g>
    <g>
      <polygon style="fill:none; clip-path:url(#clipPath30);" points=" 144 797 145 797 145 795 146 794 146 794 147 795 147 797 148 797 148 800 144 800 144 797" />
      <line x1="144" x2="148" y1="797" style="clip-path:url(#clipPath30); fill:none;" y2="797" />
    </g>
  </g>
</svg>
