<?xml version="1.0" encoding="UTF-8"?>

<!DOCTYPE svg PUBLIC '-//W3C//DTD SVG 20001102//EN' 'http://www.w3.org/TR/2000/CR-SVG-20001102/DTD/svg-20001102.dtd'>
<svg style="fill-opacity:1; color-interpolation:sRGB; color-rendering:auto; text-rendering:auto; stroke:black; stroke-linecap:square; stroke-miterlimit:10; stroke-opacity:1; shape-rendering:auto; fill:black; stroke-dasharray:none; font-weight:normal; stroke-width:1; font-family:&apos;Lucida Sans&apos;; font-style:normal; stroke-linejoin:miter; font-size:12; image-rendering:auto; stroke-dashoffset:0;" width="366" height="1530">
  <!--Generated by the Batik Graphics2D SVG Generator-->
  <defs id="genericDefs" />
  <g>
    <defs id="defs1">
      <clipPath clipPathUnits="userSpaceOnUse" id="clipPath1">
        <path d="M0 0 L366 0 L366 1530 L0 1530 L0 0 Z" />
      </clipPath>
      <clipPath clipPathUnits="userSpaceOnUse" id="clipPath2">
        <path d="M186 879 L186 1022 L353 1022 L353 879 Z" />
      </clipPath>
      <clipPath clipPathUnits="userSpaceOnUse" id="clipPath3">
        <path d="M187 880 L187 925 L353 925 L353 880 Z" />
      </clipPath>
      <clipPath clipPathUnits="userSpaceOnUse" id="clipPath4">
        <path d="M186 960 L186 1008 L353 1008 L353 960 Z" />
      </clipPath>
      <clipPath clipPathUnits="userSpaceOnUse" id="clipPath5">
        <path d="M188 962 L188 1007 L352 1007 L352 962 Z" />
      </clipPath>
      <clipPath clipPathUnits="userSpaceOnUse" id="clipPath6">
        <path d="M186 1007 L186 1022 L353 1022 L353 1007 Z" />
      </clipPath>
      <clipPath clipPathUnits="userSpaceOnUse" id="clipPath7">
        <path d="M47 686 L47 807 L170 807 L170 686 Z" />
      </clipPath>
      <clipPath clipPathUnits="userSpaceOnUse" id="clipPath8">
        <path d="M48 687 L48 710 L170 710 L170 687 Z" />
      </clipPath>
      <clipPath clipPathUnits="userSpaceOnUse" id="clipPath9">
        <path d="M47 745 L47 793 L170 793 L170 745 Z" />
      </clipPath>
      <clipPath clipPathUnits="userSpaceOnUse" id="clipPath10">
        <path d="M49 747 L49 792 L169 792 L169 747 Z" />
      </clipPath>
      <clipPath clipPathUnits="userSpaceOnUse" id="clipPath11">
        <path d="M47 792 L47 807 L170 807 L170 792 Z" />
      </clipPath>
      <clipPath clipPathUnits="userSpaceOnUse" id="clipPath12">
        <path d="M27 405 L27 614 L225 614 L225 405 Z" />
      </clipPath>
      <clipPath clipPathUnits="userSpaceOnUse" id="clipPath13">
        <path d="M28 406 L28 429 L225 429 L225 406 Z" />
      </clipPath>
      <clipPath clipPathUnits="userSpaceOnUse" id="clipPath14">
        <path d="M27 464 L27 600 L225 600 L225 464 Z" />
      </clipPath>
      <clipPath clipPathUnits="userSpaceOnUse" id="clipPath15">
        <path d="M29 466 L29 599 L224 599 L224 466 Z" />
      </clipPath>
      <clipPath clipPathUnits="userSpaceOnUse" id="clipPath16">
        <path d="M27 599 L27 614 L225 614 L225 599 Z" />
      </clipPath>
      <clipPath clipPathUnits="userSpaceOnUse" id="clipPath17">
        <path d="M98 20 L98 333 L280 333 L280 20 Z" />
      </clipPath>
      <clipPath clipPathUnits="userSpaceOnUse" id="clipPath18">
        <path d="M99 21 L99 88 L280 88 L280 21 Z" />
      </clipPath>
      <clipPath clipPathUnits="userSpaceOnUse" id="clipPath19">
        <path d="M98 123 L98 281 L280 281 L280 123 Z" />
      </clipPath>
      <clipPath clipPathUnits="userSpaceOnUse" id="clipPath20">
        <path d="M100 125 L100 280 L279 280 L279 125 Z" />
      </clipPath>
      <clipPath clipPathUnits="userSpaceOnUse" id="clipPath21">
        <path d="M98 293 L98 319 L280 319 L280 293 Z" />
      </clipPath>
      <clipPath clipPathUnits="userSpaceOnUse" id="clipPath22">
        <path d="M100 295 L100 318 L279 318 L279 295 Z" />
      </clipPath>
      <clipPath clipPathUnits="userSpaceOnUse" id="clipPath23">
        <path d="M98 318 L98 333 L280 333 L280 318 Z" />
      </clipPath>
      <clipPath clipPathUnits="userSpaceOnUse" id="clipPath24">
        <path d="M97 1094 L97 1517 L279 1517 L279 1094 Z" />
      </clipPath>
      <clipPath clipPathUnits="userSpaceOnUse" id="clipPath25">
        <path d="M98 1095 L98 1118 L279 1118 L279 1095 Z" />
      </clipPath>
      <clipPath clipPathUnits="userSpaceOnUse" id="clipPath26">
        <path d="M97 1153 L97 1355 L279 1355 L279 1153 Z" />
      </clipPath>
      <clipPath clipPathUnits="userSpaceOnUse" id="clipPath27">
        <path d="M99 1155 L99 1354 L278 1354 L278 1155 Z" />
      </clipPath>
      <clipPath clipPathUnits="userSpaceOnUse" id="clipPath28">
        <path d="M97 1367 L97 1503 L279 1503 L279 1367 Z" />
      </clipPath>
      <clipPath clipPathUnits="userSpaceOnUse" id="clipPath29">
        <path d="M99 1369 L99 1502 L278 1502 L278 1369 Z" />
      </clipPath>
      <clipPath clipPathUnits="userSpaceOnUse" id="clipPath30">
        <path d="M97 1502 L97 1517 L279 1517 L279 1502 Z" />
      </clipPath>
      <clipPath clipPathUnits="userSpaceOnUse" id="clipPath31">
        <path d="M36 879 L36 1016 L164 1016 L164 879 Z" />
      </clipPath>
      <clipPath clipPathUnits="userSpaceOnUse" id="clipPath32">
        <path d="M37 880 L37 903 L164 903 L164 880 Z" />
      </clipPath>
      <clipPath clipPathUnits="userSpaceOnUse" id="clipPath33">
        <path d="M36 938 L36 964 L164 964 L164 938 Z" />
      </clipPath>
      <clipPath clipPathUnits="userSpaceOnUse" id="clipPath34">
        <path d="M38 940 L38 963 L163 963 L163 940 Z" />
      </clipPath>
      <clipPath clipPathUnits="userSpaceOnUse" id="clipPath35">
        <path d="M36 976 L36 1002 L164 1002 L164 976 Z" />
      </clipPath>
      <clipPath clipPathUnits="userSpaceOnUse" id="clipPath36">
        <path d="M38 978 L38 1001 L163 1001 L163 978 Z" />
      </clipPath>
      <clipPath clipPathUnits="userSpaceOnUse" id="clipPath37">
        <path d="M36 1001 L36 1016 L164 1016 L164 1001 Z" />
      </clipPath>
    </defs>
    <g style="fill:teal; stroke:teal;">
      <line x1="127" x2="127" y1="405" style="clip-path:url(#clipPath1); fill:none;" y2="400" />
      <line x1="127" x2="127" y1="395" style="clip-path:url(#clipPath1); fill:none;" y2="385" />
      <line x1="127" x2="127" y1="380" style="clip-path:url(#clipPath1); fill:none;" y2="370" />
      <line x1="127" x2="135" y1="370" style="clip-path:url(#clipPath1); fill:none;" y2="370" />
      <line x1="140" x2="150" y1="370" style="clip-path:url(#clipPath1); fill:none;" y2="370" />
      <line x1="155" x2="165" y1="370" style="clip-path:url(#clipPath1); fill:none;" y2="370" />
      <line x1="170" x2="180" y1="370" style="clip-path:url(#clipPath1); fill:none;" y2="370" />
      <line x1="182" x2="182" y1="370" style="clip-path:url(#clipPath1); fill:none;" y2="370" />
      <line x1="182" x2="182" y1="365" style="clip-path:url(#clipPath1); fill:none;" y2="355" />
      <line x1="182" x2="182" y1="350" style="clip-path:url(#clipPath1); fill:none;" y2="340" />
      <line x1="182" x2="182" y1="335" style="clip-path:url(#clipPath1); fill:none;" y2="335" />
      <line x1="109" x2="109" y1="686" style="clip-path:url(#clipPath1); fill:none; stroke:rgb(0,64,64);" y2="616" />
      <line x1="254" x2="254" y1="879" style="clip-path:url(#clipPath1); fill:none; stroke:rgb(0,64,64);" y2="370" />
      <line x1="254" x2="182" y1="370" style="clip-path:url(#clipPath1); fill:none; stroke:rgb(0,64,64);" y2="370" />
      <line x1="182" x2="182" y1="370" style="clip-path:url(#clipPath1); fill:none; stroke:rgb(0,64,64);" y2="335" />
      <line x1="106" x2="106" y1="879" style="clip-path:url(#clipPath1); fill:none; stroke:rgb(0,64,64);" y2="809" />
      <line x1="233" x2="233" y1="1094" style="clip-path:url(#clipPath1); fill:none;" y2="1090" />
      <line x1="233" x2="233" y1="1085" style="clip-path:url(#clipPath1); fill:none;" y2="1075" />
      <line x1="233" x2="233" y1="1070" style="clip-path:url(#clipPath1); fill:none;" y2="1060" />
      <line x1="233" x2="233" y1="1055" style="clip-path:url(#clipPath1); fill:none;" y2="1045" />
      <line x1="233" x2="233" y1="1040" style="clip-path:url(#clipPath1); fill:none;" y2="1030" />
      <line x1="233" x2="233" y1="1025" style="clip-path:url(#clipPath1); fill:none;" y2="1024" />
      <line x1="123" x2="123" y1="1094" style="clip-path:url(#clipPath1); fill:none; stroke:rgb(0,64,64);" y2="1018" />
      <polygon style="fill:white; clip-path:url(#clipPath1); stroke:none;" points=" 182 335 188 353 176 353" />
      <polygon style="fill:none; clip-path:url(#clipPath1);" points=" 182 335 188 353 176 353" />
      <line x1="176" x2="182" y1="353" style="clip-path:url(#clipPath1); fill:none;" y2="335" />
      <polygon style="fill:white; clip-path:url(#clipPath1); stroke:none;" points=" 109 616 115 634 103 634" />
      <polygon style="fill:none; clip-path:url(#clipPath1); stroke:rgb(0,64,64);" points=" 109 616 115 634 103 634" />
      <line x1="103" x2="109" y1="634" style="clip-path:url(#clipPath1); fill:none; stroke:rgb(0,64,64);" y2="616" />
      <polygon style="fill:white; clip-path:url(#clipPath1); stroke:none;" points=" 182 335 188 353 176 353" />
      <polygon style="fill:none; clip-path:url(#clipPath1); stroke:rgb(0,64,64);" points=" 182 335 188 353 176 353" />
      <line x1="176" x2="182" y1="353" style="clip-path:url(#clipPath1); fill:none; stroke:rgb(0,64,64);" y2="335" />
      <polygon style="fill:white; clip-path:url(#clipPath1); stroke:none;" points=" 106 809 112 827 100 827" />
      <polygon style="fill:none; clip-path:url(#clipPath1); stroke:rgb(0,64,64);" points=" 106 809 112 827 100 827" />
      <line x1="100" x2="106" y1="827" style="clip-path:url(#clipPath1); fill:none; stroke:rgb(0,64,64);" y2="809" />
      <polygon style="fill:white; clip-path:url(#clipPath1); stroke:none;" points=" 233 1024 239 1042 227 1042" />
      <polygon style="fill:none; clip-path:url(#clipPath1);" points=" 233 1024 239 1042 227 1042" />
      <line x1="227" x2="233" y1="1042" style="clip-path:url(#clipPath1); fill:none;" y2="1024" />
      <polygon style="fill:white; clip-path:url(#clipPath1); stroke:none;" points=" 123 1018 129 1036 117 1036" />
      <polygon style="fill:none; clip-path:url(#clipPath1); stroke:rgb(0,64,64);" points=" 123 1018 129 1036 117 1036" />
      <line x1="117" x2="123" y1="1036" style="clip-path:url(#clipPath1); fill:none; stroke:rgb(0,64,64);" y2="1018" />
      <rect x="189" y="882" width="166" style="clip-path:url(#clipPath1); fill:navy; stroke:none;" height="142" />
      <rect x="186" y="879" width="166" style="clip-path:url(#clipPath1); fill:white; stroke:none;" height="142" />
      <rect x="186" y="879" width="166" style="clip-path:url(#clipPath1); fill:none; stroke:black;" height="142" />
    </g>
    <g style="font-family:sans-serif;">
      <text x="242" y="897" style="clip-path:url(#clipPath3); stroke:none;">interface
      </text>
      <text x="213" y="919" style="clip-path:url(#clipPath3); font-style:italic; stroke:none; font-weight:bold;">FileSetPredicate
      </text>
    </g>
    <g>
      <line x1="186" x2="352" y1="930" style="clip-path:url(#clipPath2); fill:none;" y2="930" />
      <line x1="186" x2="352" y1="953" style="clip-path:url(#clipPath2); fill:none;" y2="953" />
    </g>
    <g style="font-family:sans-serif; font-style:italic;">
      <text x="192" y="979" style="clip-path:url(#clipPath5); stroke:none;">+suggestDirectories:List
      </text>
      <text x="192" y="1001" style="clip-path:url(#clipPath5); stroke:none;">+enterDirectory:boolean
      </text>
    </g>
    <g>
      <polygon style="fill:none; clip-path:url(#clipPath6);" points=" 345 1012 346 1012 346 1010 347 1009 347 1009 348 1010 348 1012 349 1012 349 1015 345 1015 345 1012" />
      <line x1="345" x2="349" y1="1012" style="clip-path:url(#clipPath6); fill:none;" y2="1012" />
    </g>
    <g style="fill:navy; stroke:navy;">
      <rect x="50" y="689" width="122" style="clip-path:url(#clipPath1); stroke:none;" height="120" />
      <rect x="47" y="686" width="122" style="clip-path:url(#clipPath1); fill:white; stroke:none;" height="120" />
      <rect x="47" y="686" width="122" style="clip-path:url(#clipPath1); fill:none; stroke:black;" height="120" />
    </g>
    <g style="font-style:italic; font-weight:bold; font-family:sans-serif;">
      <text x="63" y="704" style="clip-path:url(#clipPath8); stroke:none;">FilePredicate
      </text>
    </g>
    <g>
      <line x1="47" x2="169" y1="715" style="clip-path:url(#clipPath7); fill:none;" y2="715" />
      <line x1="47" x2="169" y1="738" style="clip-path:url(#clipPath7); fill:none;" y2="738" />
    </g>
    <g style="font-family:sans-serif;">
      <text x="53" y="764" style="clip-path:url(#clipPath10); stroke:none;">+eval:boolean
      </text>
      <text x="53" y="786" style="font-style:italic; clip-path:url(#clipPath10); stroke:none;">+evalFile:boolean
      </text>
    </g>
    <g>
      <polygon style="fill:none; clip-path:url(#clipPath11);" points=" 162 797 163 797 163 795 164 794 164 794 165 795 165 797 166 797 166 800 162 800 162 797" />
      <line x1="162" x2="166" y1="797" style="clip-path:url(#clipPath11); fill:none;" y2="797" />
    </g>
    <g style="fill:navy; stroke:navy;">
      <rect x="30" y="408" width="197" style="clip-path:url(#clipPath1); stroke:none;" height="208" />
      <rect x="27" y="405" width="197" style="clip-path:url(#clipPath1); fill:white; stroke:none;" height="208" />
      <rect x="27" y="405" width="197" style="clip-path:url(#clipPath1); fill:none; stroke:black;" height="208" />
    </g>
    <g style="font-style:italic; font-weight:bold; font-family:sans-serif;">
      <text x="32" y="423" style="clip-path:url(#clipPath13); stroke:none;">...AbstractPredicate
      </text>
    </g>
    <g>
      <line x1="27" x2="224" y1="434" style="clip-path:url(#clipPath12); fill:none;" y2="434" />
      <line x1="27" x2="224" y1="457" style="clip-path:url(#clipPath12); fill:none;" y2="457" />
    </g>
    <g style="font-family:sans-serif;">
      <text x="33" y="483" style="clip-path:url(#clipPath15); stroke:none;">+exists:boolean
      </text>
      <text x="33" y="505" style="clip-path:url(#clipPath15); stroke:none;">+forall:boolean
      </text>
      <text x="33" y="527" style="clip-path:url(#clipPath15); stroke:none;">+count:int
      </text>
      <text x="33" y="549" style="clip-path:url(#clipPath15); stroke:none;">+filter:void
      </text>
      <text x="33" y="571" style="clip-path:url(#clipPath15); stroke:none;">+equals:boolean
      </text>
      <text x="33" y="593" style="clip-path:url(#clipPath15); stroke:none;">+nbSubPredicates:int
      </text>
    </g>
    <g>
      <polygon style="fill:none; clip-path:url(#clipPath16);" points=" 217 604 218 604 218 602 219 601 219 601 220 602 220 604 221 604 221 607 217 607 217 604" />
      <line x1="217" x2="221" y1="604" style="clip-path:url(#clipPath16); fill:none;" y2="604" />
    </g>
    <g style="fill:navy; stroke:navy;">
      <polygon style="clip-path:url(#clipPath1); stroke:none;" points=" 93 23 282 23 282 335 93 335 93 37 85 37 85 29 93 29 93 23" />
      <polygon style="fill:white; clip-path:url(#clipPath1); stroke:none;" points=" 90 20 279 20 279 332 90 332 90 34 82 34 82 26 90 26 90 20" />
      <polygon style="fill:none; clip-path:url(#clipPath1); stroke:black;" points=" 90 20 279 20 279 332 90 332 90 34 82 34 82 26 90 26 90 20" />
      <line x1="90" x2="98" y1="34" style="clip-path:url(#clipPath1); fill:none; stroke:black;" y2="34" />
      <line x1="98" x2="98" y1="34" style="clip-path:url(#clipPath1); fill:none; stroke:black;" y2="26" />
      <line x1="98" x2="90" y1="26" style="clip-path:url(#clipPath1); fill:none; stroke:black;" y2="26" />
    </g>
    <g style="font-family:sans-serif;">
      <text x="156" y="38" style="clip-path:url(#clipPath18); stroke:none;">CollectionOperator
      </text>
      <text x="161" y="60" style="clip-path:url(#clipPath18); stroke:none;">interface
      </text>
      <text x="103" y="82" style="clip-path:url(#clipPath18); font-style:italic; stroke:none; font-weight:bold;">...predicate.Predicate
      </text>
    </g>
    <g>
      <line x1="98" x2="279" y1="93" style="clip-path:url(#clipPath17); fill:none;" y2="93" />
      <line x1="98" x2="279" y1="116" style="clip-path:url(#clipPath17); fill:none;" y2="116" />
    </g>
    <g style="font-family:sans-serif; font-style:italic;">
      <text x="104" y="142" style="clip-path:url(#clipPath20); stroke:none;">+eval:boolean
      </text>
      <text x="104" y="164" style="clip-path:url(#clipPath20); stroke:none;">+exists:boolean
      </text>
      <text x="104" y="186" style="clip-path:url(#clipPath20); stroke:none;">+forall:boolean
      </text>
      <text x="104" y="208" style="clip-path:url(#clipPath20); stroke:none;">+count:int
      </text>
      <text x="104" y="230" style="clip-path:url(#clipPath20); stroke:none;">+filter:void
      </text>
      <text x="104" y="252" style="clip-path:url(#clipPath20); stroke:none;">+equals:boolean
      </text>
      <text x="104" y="274" style="clip-path:url(#clipPath20); stroke:none;">+nbSubPredicates:int
      </text>
    </g>
    <g>
      <line x1="98" x2="279" y1="286" style="clip-path:url(#clipPath17); fill:none;" y2="286" />
    </g>
    <g style="font-family:sans-serif;">
      <text x="104" y="312" style="clip-path:url(#clipPath22); stroke:none;"> subPredicates:List
      </text>
    </g>
    <g>
      <polygon style="fill:none; clip-path:url(#clipPath23);" points=" 272 323 273 323 273 321 274 320 274 320 275 321 275 323 276 323 276 326 272 326 272 323" />
      <line x1="272" x2="276" y1="323" style="clip-path:url(#clipPath23); fill:none;" y2="323" />
    </g>
    <g style="fill:navy; stroke:navy;">
      <polygon style="clip-path:url(#clipPath1); stroke:none;" points=" 92 1097 281 1097 281 1519 92 1519 92 1111 84 1111 84 1103 92 1103 92 1097" />
      <polygon style="fill:white; clip-path:url(#clipPath1); stroke:none;" points=" 89 1094 278 1094 278 1516 89 1516 89 1108 81 1108 81 1100 89 1100 89 1094" />
      <polygon style="fill:none; clip-path:url(#clipPath1); stroke:black;" points=" 89 1094 278 1094 278 1516 89 1516 89 1108 81 1108 81 1100 89 1100 89 1094" />
      <line x1="89" x2="97" y1="1108" style="clip-path:url(#clipPath1); fill:none; stroke:black;" y2="1108" />
      <line x1="97" x2="97" y1="1108" style="clip-path:url(#clipPath1); fill:none; stroke:black;" y2="1100" />
      <line x1="97" x2="89" y1="1100" style="clip-path:url(#clipPath1); fill:none; stroke:black;" y2="1100" />
    </g>
    <g style="font-weight:bold; font-family:sans-serif;">
      <text x="130" y="1112" style="clip-path:url(#clipPath25); stroke:none;">PatternPredicate
      </text>
    </g>
    <g>
      <line x1="97" x2="278" y1="1123" style="clip-path:url(#clipPath24); fill:none;" y2="1123" />
      <line x1="97" x2="278" y1="1146" style="clip-path:url(#clipPath24); fill:none;" y2="1146" />
    </g>
    <g style="font-family:sans-serif;">
      <text x="103" y="1172" style="clip-path:url(#clipPath27); stroke:none;">+PatternPredicate
      </text>
      <text x="103" y="1194" style="clip-path:url(#clipPath27); stroke:none;">+PatternPredicate
      </text>
      <text x="103" y="1216" style="clip-path:url(#clipPath27); stroke:none;">+evalFile:boolean
      </text>
      <text x="103" y="1238" style="clip-path:url(#clipPath27); stroke:none;">+nbSubPredicates:int
      </text>
      <text x="103" y="1260" style="clip-path:url(#clipPath27); stroke:none;">+suggestDirectories:List
      </text>
      <text x="103" y="1282" style="clip-path:url(#clipPath27); stroke:none;">+enterDirectory:boolean
      </text>
      <text x="103" y="1304" style="clip-path:url(#clipPath27); stroke:none;">-patternToEnter:String
      </text>
      <text x="103" y="1326" style="clip-path:url(#clipPath27); stroke:none;">-getLongestDeterministicDirName:String
      </text>
      <text x="103" y="1348" style="clip-path:url(#clipPath27); stroke:none;">-stripDotDot:String
      </text>
    </g>
    <g>
      <line x1="97" x2="278" y1="1360" style="clip-path:url(#clipPath24); fill:none;" y2="1360" />
    </g>
    <g style="font-family:sans-serif;">
      <text x="103" y="1386" style="clip-path:url(#clipPath29); stroke:none;"> pattern:FileNamePattern
      </text>
      <text x="103" y="1408" style="clip-path:url(#clipPath29); stroke:none;"> fullRegexPattern:String
      </text>
      <text x="103" y="1430" style="clip-path:url(#clipPath29); stroke:none;"> subPredicates:List
      </text>
      <text x="103" y="1452" style="clip-path:url(#clipPath29); stroke:none;"> predicate:Predicate
      </text>
      <text x="103" y="1474" style="clip-path:url(#clipPath29); stroke:none;"> deterministicPathName:String
      </text>
      <text x="103" y="1496" style="clip-path:url(#clipPath29); stroke:none;"> regexSeparator:String
      </text>
    </g>
    <g>
      <polygon style="fill:none; clip-path:url(#clipPath30);" points=" 271 1507 272 1507 272 1505 273 1504 273 1504 274 1505 274 1507 275 1507 275 1510 271 1510 271 1507" />
      <line x1="271" x2="275" y1="1507" style="clip-path:url(#clipPath30); fill:none;" y2="1507" />
    </g>
    <g style="fill:navy; stroke:navy;">
      <polygon style="clip-path:url(#clipPath1); stroke:none;" points=" 31 882 166 882 166 1018 31 1018 31 896 23 896 23 888 31 888 31 882" />
      <polygon style="fill:white; clip-path:url(#clipPath1); stroke:none;" points=" 28 879 163 879 163 1015 28 1015 28 893 20 893 20 885 28 885 28 879" />
      <polygon style="fill:none; clip-path:url(#clipPath1); stroke:black;" points=" 28 879 163 879 163 1015 28 1015 28 893 20 893 20 885 28 885 28 879" />
      <line x1="28" x2="36" y1="893" style="clip-path:url(#clipPath1); fill:none; stroke:black;" y2="893" />
      <line x1="36" x2="36" y1="893" style="clip-path:url(#clipPath1); fill:none; stroke:black;" y2="885" />
      <line x1="36" x2="28" y1="885" style="clip-path:url(#clipPath1); fill:none; stroke:black;" y2="885" />
    </g>
    <g style="font-style:italic; font-weight:bold; font-family:sans-serif;">
      <text x="41" y="897" style="clip-path:url(#clipPath32); stroke:none;">BaseDirPredicate
      </text>
    </g>
    <g>
      <line x1="36" x2="163" y1="908" style="clip-path:url(#clipPath31); fill:none;" y2="908" />
      <line x1="36" x2="163" y1="931" style="clip-path:url(#clipPath31); fill:none;" y2="931" />
    </g>
    <g style="font-family:sans-serif;">
      <text x="42" y="957" style="clip-path:url(#clipPath34); stroke:none;">+BaseDirPredicate
      </text>
    </g>
    <g>
      <line x1="36" x2="163" y1="969" style="clip-path:url(#clipPath31); fill:none;" y2="969" />
    </g>
    <g style="font-family:sans-serif;">
      <text x="42" y="995" style="clip-path:url(#clipPath36); stroke:none;"> baseDir:File
      </text>
    </g>
    <g>
      <polygon style="fill:none; clip-path:url(#clipPath37);" points=" 156 1006 157 1006 157 1004 158 1003 158 1003 159 1004 159 1006 160 1006 160 1009 156 1009 156 1006" />
      <line x1="156" x2="160" y1="1006" style="clip-path:url(#clipPath37); fill:none;" y2="1006" />
    </g>
  </g>
</svg>
