<?xml version="1.0" encoding="UTF-8"?>

<!DOCTYPE svg PUBLIC '-//W3C//DTD SVG 20001102//EN' 'http://www.w3.org/TR/2000/CR-SVG-20001102/DTD/svg-20001102.dtd'>
<svg style="fill-opacity:1; color-rendering:auto; color-interpolation:sRGB; text-rendering:auto; stroke:black; stroke-linecap:square; stroke-miterlimit:10; shape-rendering:auto; stroke-opacity:1; fill:black; stroke-dasharray:none; font-weight:normal; stroke-width:1; font-family:&apos;sansserif&apos;; font-style:normal; stroke-linejoin:miter; font-size:12; stroke-dashoffset:0; image-rendering:auto;" width="221" height="287">
  <!--Generated by the Batik Graphics2D SVG Generator-->
  <defs id="genericDefs" />
  <g>
    <defs id="defs1">
      <clipPath clipPathUnits="userSpaceOnUse" id="clipPath1">
        <path d="M0 0 L221 0 L221 287 L0 287 L0 0 Z" />
      </clipPath>
      <clipPath clipPathUnits="userSpaceOnUse" id="clipPath2">
        <path d="M26 10 L26 274 L208 274 L208 10 Z" />
      </clipPath>
      <clipPath clipPathUnits="userSpaceOnUse" id="clipPath3">
        <path d="M27 11 L27 51 L208 51 L208 11 Z" />
      </clipPath>
      <clipPath clipPathUnits="userSpaceOnUse" id="clipPath4">
        <path d="M26 63 L26 127 L208 127 L208 63 Z" />
      </clipPath>
      <clipPath clipPathUnits="userSpaceOnUse" id="clipPath5">
        <path d="M28 65 L28 126 L207 126 L207 65 Z" />
      </clipPath>
      <clipPath clipPathUnits="userSpaceOnUse" id="clipPath6">
        <path d="M26 139 L26 203 L208 203 L208 139 Z" />
      </clipPath>
      <clipPath clipPathUnits="userSpaceOnUse" id="clipPath7">
        <path d="M28 141 L28 202 L207 202 L207 141 Z" />
      </clipPath>
      <clipPath clipPathUnits="userSpaceOnUse" id="clipPath8">
        <path d="M26 215 L26 264 L208 264 L208 215 Z" />
      </clipPath>
      <clipPath clipPathUnits="userSpaceOnUse" id="clipPath9">
        <path d="M28 217 L28 263 L207 263 L207 217 Z" />
      </clipPath>
    </defs>
    <g style="fill:navy; stroke:navy;">
      <polygon style="clip-path:url(#clipPath1); stroke:none;" points=" 21 13 210 13 210 276 21 276 21 27 13 27 13 19 21 19 21 13" />
      <polygon style="fill:white; clip-path:url(#clipPath1); stroke:none;" points=" 18 10 207 10 207 273 18 273 18 24 10 24 10 16 18 16 18 10" />
      <polygon style="fill:none; clip-path:url(#clipPath1); stroke:black;" points=" 18 10 207 10 207 273 18 273 18 24 10 24 10 16 18 16 18 10" />
      <line x1="18" x2="26" y1="24" style="clip-path:url(#clipPath1); fill:none; stroke:black;" y2="24" />
      <line x1="26" x2="26" y1="24" style="clip-path:url(#clipPath1); fill:none; stroke:black;" y2="16" />
      <line x1="26" x2="18" y1="16" style="clip-path:url(#clipPath1); fill:none; stroke:black;" y2="16" />
    </g>
    <g style="font-family:sans-serif;">
      <text x="150" y="23" style="clip-path:url(#clipPath3); stroke:none;">TestCase
      </text>
      <text x="90" y="40" style="clip-path:url(#clipPath3); font-style:italic; stroke:none; font-weight:bold;">JutilTest
      </text>
    </g>
    <g>
      <line x1="26" x2="207" y1="56" style="clip-path:url(#clipPath2); fill:none;" y2="56" />
    </g>
    <g style="font-family:sans-serif;">
      <text x="32" y="77" style="clip-path:url(#clipPath5); stroke:none;">+String CVS_REVISION
      </text>
      <line x1="32" x2="159" y1="79" style="clip-path:url(#clipPath5); fill:none;" y2="79" />
      <text x="32" y="92" style="clip-path:url(#clipPath5); stroke:none;">-Revision $testedRevision
      </text>
      <text x="32" y="107" style="clip-path:url(#clipPath5); stroke:none;">-Revision $testedClassRevision
      </text>
      <text x="32" y="122" style="clip-path:url(#clipPath5); stroke:none;">-Class $testedClass
      </text>
    </g>
    <g>
      <line x1="26" x2="207" y1="132" style="clip-path:url(#clipPath2); fill:none;" y2="132" />
    </g>
    <g style="font-family:sans-serif;">
      <text x="32" y="153" style="clip-path:url(#clipPath7); stroke:none;">+JutilTest
      </text>
      <text x="32" y="168" style="clip-path:url(#clipPath7); stroke:none;">+JutilTest
      </text>
      <text x="32" y="183" style="clip-path:url(#clipPath7); stroke:none;">+void runTest
      </text>
      <text x="32" y="198" style="clip-path:url(#clipPath7); stroke:none;">-void checkRevision
      </text>
    </g>
    <g>
      <line x1="26" x2="207" y1="208" style="clip-path:url(#clipPath2); fill:none;" y2="208" />
    </g>
    <g style="font-family:sans-serif;">
      <text x="32" y="229" style="clip-path:url(#clipPath9); stroke:none;"> Revision testedRevision
      </text>
      <text x="32" y="244" style="clip-path:url(#clipPath9); stroke:none;"> Revision testedClassRevision
      </text>
      <text x="32" y="259" style="clip-path:url(#clipPath9); stroke:none;"> Class testedClass
      </text>
    </g>
  </g>
</svg>
