<?xml version="1.0" encoding="UTF-8"?>

<!DOCTYPE svg PUBLIC '-//W3C//DTD SVG 20001102//EN' 'http://www.w3.org/TR/2000/CR-SVG-20001102/DTD/svg-20001102.dtd'>
<svg style="fill-opacity:1; color-rendering:auto; color-interpolation:sRGB; text-rendering:auto; stroke:black; stroke-linecap:square; stroke-miterlimit:10; shape-rendering:auto; stroke-opacity:1; fill:black; stroke-dasharray:none; font-weight:normal; stroke-width:1; font-family:&apos;sansserif&apos;; font-style:normal; stroke-linejoin:miter; font-size:12; stroke-dashoffset:0; image-rendering:auto;" width="178" height="245">
  <!--Generated by the Batik Graphics2D SVG Generator-->
  <defs id="genericDefs" />
  <g>
    <defs id="defs1">
      <clipPath clipPathUnits="userSpaceOnUse" id="clipPath1">
        <path d="M0 0 L178 0 L178 245 L0 245 L0 0 Z" />
      </clipPath>
      <clipPath clipPathUnits="userSpaceOnUse" id="clipPath2">
        <path d="M26 10 L26 232 L165 232 L165 10 Z" />
      </clipPath>
      <clipPath clipPathUnits="userSpaceOnUse" id="clipPath3">
        <path d="M27 11 L27 51 L165 51 L165 11 Z" />
      </clipPath>
      <clipPath clipPathUnits="userSpaceOnUse" id="clipPath4">
        <path d="M26 63 L26 82 L165 82 L165 63 Z" />
      </clipPath>
      <clipPath clipPathUnits="userSpaceOnUse" id="clipPath5">
        <path d="M28 65 L28 81 L164 81 L164 65 Z" />
      </clipPath>
      <clipPath clipPathUnits="userSpaceOnUse" id="clipPath6">
        <path d="M26 94 L26 146 L165 146 L165 94 Z" />
      </clipPath>
      <clipPath clipPathUnits="userSpaceOnUse" id="clipPath7">
        <path d="M28 96 L28 145 L164 145 L164 96 Z" />
      </clipPath>
      <clipPath clipPathUnits="userSpaceOnUse" id="clipPath8">
        <path d="M26 158 L26 222 L165 222 L165 158 Z" />
      </clipPath>
      <clipPath clipPathUnits="userSpaceOnUse" id="clipPath9">
        <path d="M28 160 L28 221 L164 221 L164 160 Z" />
      </clipPath>
    </defs>
    <g style="fill:navy; stroke:navy;">
      <polygon style="clip-path:url(#clipPath1); stroke:none;" points=" 21 13 167 13 167 234 21 234 21 27 13 27 13 19 21 19 21 13" />
      <polygon style="fill:white; clip-path:url(#clipPath1); stroke:none;" points=" 18 10 164 10 164 231 18 231 18 24 10 24 10 16 18 16 18 10" />
      <polygon style="fill:none; clip-path:url(#clipPath1); stroke:black;" points=" 18 10 164 10 164 231 18 231 18 24 10 24 10 16 18 16 18 10" />
      <line x1="18" x2="26" y1="24" style="clip-path:url(#clipPath1); fill:none; stroke:black;" y2="24" />
      <line x1="26" x2="26" y1="24" style="clip-path:url(#clipPath1); fill:none; stroke:black;" y2="16" />
      <line x1="26" x2="18" y1="16" style="clip-path:url(#clipPath1); fill:none; stroke:black;" y2="16" />
    </g>
    <g style="font-family:sans-serif;">
      <text x="70" y="23" style="clip-path:url(#clipPath3); stroke:none;">interface
      </text>
      <text x="69" y="40" style="clip-path:url(#clipPath3); font-style:italic; stroke:none; font-weight:bold;">Revision
      </text>
    </g>
    <g>
      <line x1="26" x2="164" y1="56" style="clip-path:url(#clipPath2); fill:none;" y2="56" />
    </g>
    <g style="font-family:sans-serif;">
      <text x="32" y="77" style="clip-path:url(#clipPath5); stroke:none;">+String CVS_REVISION
      </text>
      <line x1="32" x2="159" y1="79" style="clip-path:url(#clipPath5); fill:none;" y2="79" />
    </g>
    <g>
      <line x1="26" x2="164" y1="87" style="clip-path:url(#clipPath2); fill:none;" y2="87" />
    </g>
    <g style="font-family:sans-serif; font-style:italic;">
      <text x="32" y="111" style="clip-path:url(#clipPath7); stroke:none;">+int length
      </text>
      <text x="32" y="135" style="clip-path:url(#clipPath7); stroke:none;">+boolean equals
      </text>
    </g>
    <g>
      <line x1="26" x2="164" y1="151" style="clip-path:url(#clipPath2); fill:none;" y2="151" />
    </g>
    <g style="font-family:sans-serif;">
      <text x="32" y="172" style="clip-path:url(#clipPath9); stroke:none;"> int major
      </text>
      <text x="32" y="187" style="clip-path:url(#clipPath9); stroke:none;"> int minor
      </text>
      <text x="32" y="202" style="clip-path:url(#clipPath9); stroke:none;"> int micro
      </text>
      <text x="32" y="217" style="clip-path:url(#clipPath9); stroke:none;"> int[] number
      </text>
    </g>
  </g>
</svg>
