<?xml version="1.0" encoding="UTF-8"?>

<!DOCTYPE svg PUBLIC '-//W3C//DTD SVG 20001102//EN' 'http://www.w3.org/TR/2000/CR-SVG-20001102/DTD/svg-20001102.dtd'>
<svg style="fill-opacity:1; color-interpolation:sRGB; color-rendering:auto; text-rendering:auto; stroke:black; stroke-linecap:square; stroke-miterlimit:10; stroke-opacity:1; shape-rendering:auto; fill:black; stroke-dasharray:none; font-weight:normal; stroke-width:1; font-family:&apos;Lucida Sans&apos;; font-style:normal; stroke-linejoin:miter; font-size:12; image-rendering:auto; stroke-dashoffset:0;" width="229" height="1131">
  <!--Generated by the Batik Graphics2D SVG Generator-->
  <defs id="genericDefs" />
  <g>
    <defs id="defs1">
      <clipPath clipPathUnits="userSpaceOnUse" id="clipPath1">
        <path d="M0 0 L229 0 L229 1131 L0 1131 L0 0 Z" />
      </clipPath>
      <clipPath clipPathUnits="userSpaceOnUse" id="clipPath2">
        <path d="M70 925 L70 1118 L216 1118 L216 925 Z" />
      </clipPath>
      <clipPath clipPathUnits="userSpaceOnUse" id="clipPath3">
        <path d="M71 926 L71 949 L216 949 L216 926 Z" />
      </clipPath>
      <clipPath clipPathUnits="userSpaceOnUse" id="clipPath4">
        <path d="M70 974 L70 1044 L216 1044 L216 974 Z" />
      </clipPath>
      <clipPath clipPathUnits="userSpaceOnUse" id="clipPath5">
        <path d="M72 976 L72 1043 L215 1043 L215 976 Z" />
      </clipPath>
      <clipPath clipPathUnits="userSpaceOnUse" id="clipPath6">
        <path d="M70 1056 L70 1104 L216 1104 L216 1056 Z" />
      </clipPath>
      <clipPath clipPathUnits="userSpaceOnUse" id="clipPath7">
        <path d="M72 1058 L72 1103 L215 1103 L215 1058 Z" />
      </clipPath>
      <clipPath clipPathUnits="userSpaceOnUse" id="clipPath8">
        <path d="M70 1103 L70 1118 L216 1118 L216 1103 Z" />
      </clipPath>
      <clipPath clipPathUnits="userSpaceOnUse" id="clipPath9">
        <path d="M20 395 L20 604 L166 604 L166 395 Z" />
      </clipPath>
      <clipPath clipPathUnits="userSpaceOnUse" id="clipPath10">
        <path d="M21 396 L21 419 L166 419 L166 396 Z" />
      </clipPath>
      <clipPath clipPathUnits="userSpaceOnUse" id="clipPath11">
        <path d="M20 454 L20 590 L166 590 L166 454 Z" />
      </clipPath>
      <clipPath clipPathUnits="userSpaceOnUse" id="clipPath12">
        <path d="M22 456 L22 589 L165 589 L165 456 Z" />
      </clipPath>
      <clipPath clipPathUnits="userSpaceOnUse" id="clipPath13">
        <path d="M20 589 L20 604 L166 604 L166 589 Z" />
      </clipPath>
      <clipPath clipPathUnits="userSpaceOnUse" id="clipPath14">
        <path d="M44 676 L44 853 L158 853 L158 676 Z" />
      </clipPath>
      <clipPath clipPathUnits="userSpaceOnUse" id="clipPath15">
        <path d="M45 677 L45 700 L158 700 L158 677 Z" />
      </clipPath>
      <clipPath clipPathUnits="userSpaceOnUse" id="clipPath16">
        <path d="M44 725 L44 839 L158 839 L158 725 Z" />
      </clipPath>
      <clipPath clipPathUnits="userSpaceOnUse" id="clipPath17">
        <path d="M46 727 L46 838 L157 838 L157 727 Z" />
      </clipPath>
      <clipPath clipPathUnits="userSpaceOnUse" id="clipPath18">
        <path d="M44 838 L44 853 L158 853 L158 838 Z" />
      </clipPath>
      <clipPath clipPathUnits="userSpaceOnUse" id="clipPath19">
        <path d="M70 20 L70 323 L216 323 L216 20 Z" />
      </clipPath>
      <clipPath clipPathUnits="userSpaceOnUse" id="clipPath20">
        <path d="M71 21 L71 88 L216 88 L216 21 Z" />
      </clipPath>
      <clipPath clipPathUnits="userSpaceOnUse" id="clipPath21">
        <path d="M70 113 L70 271 L216 271 L216 113 Z" />
      </clipPath>
      <clipPath clipPathUnits="userSpaceOnUse" id="clipPath22">
        <path d="M72 115 L72 270 L215 270 L215 115 Z" />
      </clipPath>
      <clipPath clipPathUnits="userSpaceOnUse" id="clipPath23">
        <path d="M70 283 L70 309 L216 309 L216 283 Z" />
      </clipPath>
      <clipPath clipPathUnits="userSpaceOnUse" id="clipPath24">
        <path d="M72 285 L72 308 L215 308 L215 285 Z" />
      </clipPath>
      <clipPath clipPathUnits="userSpaceOnUse" id="clipPath25">
        <path d="M70 308 L70 323 L216 323 L216 308 Z" />
      </clipPath>
    </defs>
    <g style="fill:rgb(0,64,64); stroke:rgb(0,64,64);">
      <line x1="102" x2="102" y1="676" style="clip-path:url(#clipPath1); fill:none;" y2="606" />
      <line x1="89" x2="89" y1="925" style="clip-path:url(#clipPath1); fill:none;" y2="855" />
      <line x1="111" x2="111" y1="395" style="clip-path:url(#clipPath1); fill:none; stroke:teal;" y2="395" />
      <line x1="111" x2="111" y1="395" style="clip-path:url(#clipPath1); fill:none; stroke:teal;" y2="385" />
      <line x1="111" x2="111" y1="380" style="clip-path:url(#clipPath1); fill:none; stroke:teal;" y2="370" />
      <line x1="111" x2="111" y1="365" style="clip-path:url(#clipPath1); fill:none; stroke:teal;" y2="355" />
      <line x1="111" x2="111" y1="350" style="clip-path:url(#clipPath1); fill:none; stroke:teal;" y2="340" />
      <line x1="111" x2="111" y1="335" style="clip-path:url(#clipPath1); fill:none; stroke:teal;" y2="325" />
      <line x1="170" x2="170" y1="925" style="clip-path:url(#clipPath1); fill:none; stroke:blue;" y2="685" />
      <line x1="170" x2="178" y1="685" style="clip-path:url(#clipPath1); fill:none; stroke:blue;" y2="685" />
      <line x1="178" x2="178" y1="685" style="clip-path:url(#clipPath1); fill:none; stroke:blue;" y2="325" />
      <polygon style="fill:white; clip-path:url(#clipPath1); stroke:none;" points=" 102 606 108 624 96 624" />
      <polygon style="fill:none; clip-path:url(#clipPath1);" points=" 102 606 108 624 96 624" />
      <line x1="96" x2="102" y1="624" style="clip-path:url(#clipPath1); fill:none;" y2="606" />
      <polygon style="fill:white; clip-path:url(#clipPath1); stroke:none;" points=" 89 855 95 873 83 873" />
      <polygon style="fill:none; clip-path:url(#clipPath1);" points=" 89 855 95 873 83 873" />
      <line x1="83" x2="89" y1="873" style="clip-path:url(#clipPath1); fill:none;" y2="855" />
      <polygon style="fill:white; clip-path:url(#clipPath1); stroke:none;" points=" 111 325 117 343 105 343" />
      <polygon style="fill:none; clip-path:url(#clipPath1); stroke:teal;" points=" 111 325 117 343 105 343" />
      <line x1="105" x2="111" y1="343" style="clip-path:url(#clipPath1); fill:none; stroke:teal;" y2="325" />
      <line x1="178" x2="173" y1="325" style="clip-path:url(#clipPath1); fill:none; stroke:blue;" y2="337" />
      <line x1="178" x2="183" y1="325" style="clip-path:url(#clipPath1); fill:none; stroke:blue;" y2="337" />
      <polygon style="fill:navy; clip-path:url(#clipPath1); stroke:none;" points=" 65 928 218 928 218 1120 65 1120 65 942 57 942 57 934 65 934 65 928" />
      <polygon style="fill:white; clip-path:url(#clipPath1); stroke:none;" points=" 62 925 215 925 215 1117 62 1117 62 939 54 939 54 931 62 931 62 925" />
      <polygon style="fill:none; clip-path:url(#clipPath1); stroke:black;" points=" 62 925 215 925 215 1117 62 1117 62 939 54 939 54 931 62 931 62 925" />
      <line x1="62" x2="70" y1="939" style="clip-path:url(#clipPath1); fill:none; stroke:black;" y2="939" />
      <line x1="70" x2="70" y1="939" style="clip-path:url(#clipPath1); fill:none; stroke:black;" y2="931" />
      <line x1="70" x2="62" y1="931" style="clip-path:url(#clipPath1); fill:none; stroke:black;" y2="931" />
    </g>
    <g style="font-weight:bold; font-family:sans-serif;">
      <text x="77" y="943" style="clip-path:url(#clipPath3); stroke:none;">NegationAsFailure
      </text>
    </g>
    <g>
      <line x1="70" x2="215" y1="954" style="clip-path:url(#clipPath2); fill:none;" y2="954" />
      <line x1="70" x2="215" y1="967" style="clip-path:url(#clipPath2); fill:none;" y2="967" />
    </g>
    <g style="font-family:sans-serif;">
      <text x="76" y="993" style="clip-path:url(#clipPath5); stroke:none;">+NegationAsFailure
      </text>
      <text x="76" y="1015" style="clip-path:url(#clipPath5); stroke:none;">+eval:boolean
      </text>
      <text x="76" y="1037" style="clip-path:url(#clipPath5); stroke:none;">+nbSubPredicates:int
      </text>
    </g>
    <g>
      <line x1="70" x2="215" y1="1049" style="clip-path:url(#clipPath2); fill:none;" y2="1049" />
    </g>
    <g style="font-family:sans-serif;">
      <text x="76" y="1075" style="clip-path:url(#clipPath7); stroke:none;"> predicate:Predicate
      </text>
      <text x="76" y="1097" style="clip-path:url(#clipPath7); stroke:none;"> subPredicates:List
      </text>
    </g>
    <g>
      <polygon style="fill:none; clip-path:url(#clipPath8);" points=" 208 1108 209 1108 209 1106 210 1105 210 1105 211 1106 211 1108 212 1108 212 1111 208 1111 208 1108" />
      <line x1="208" x2="212" y1="1108" style="clip-path:url(#clipPath8); fill:none;" y2="1108" />
    </g>
    <g style="fill:navy; stroke:navy;">
      <rect x="23" y="398" width="145" style="clip-path:url(#clipPath1); stroke:none;" height="208" />
      <rect x="20" y="395" width="145" style="clip-path:url(#clipPath1); fill:white; stroke:none;" height="208" />
      <rect x="20" y="395" width="145" style="clip-path:url(#clipPath1); fill:none; stroke:black;" height="208" />
    </g>
    <g style="font-style:italic; font-weight:bold; font-family:sans-serif;">
      <text x="30" y="413" style="clip-path:url(#clipPath10); stroke:none;">AbstractPredicate
      </text>
    </g>
    <g>
      <line x1="20" x2="165" y1="424" style="clip-path:url(#clipPath9); fill:none;" y2="424" />
      <line x1="20" x2="165" y1="447" style="clip-path:url(#clipPath9); fill:none;" y2="447" />
    </g>
    <g style="font-family:sans-serif;">
      <text x="26" y="473" style="clip-path:url(#clipPath12); stroke:none;">+exists:boolean
      </text>
      <text x="26" y="495" style="clip-path:url(#clipPath12); stroke:none;">+forall:boolean
      </text>
      <text x="26" y="517" style="clip-path:url(#clipPath12); stroke:none;">+count:int
      </text>
      <text x="26" y="539" style="clip-path:url(#clipPath12); stroke:none;">+filter:void
      </text>
      <text x="26" y="561" style="clip-path:url(#clipPath12); stroke:none;">+equals:boolean
      </text>
      <text x="26" y="583" style="clip-path:url(#clipPath12); stroke:none;">+nbSubPredicates:int
      </text>
    </g>
    <g>
      <polygon style="fill:none; clip-path:url(#clipPath13);" points=" 158 594 159 594 159 592 160 591 160 591 161 592 161 594 162 594 162 597 158 597 158 594" />
      <line x1="158" x2="162" y1="594" style="clip-path:url(#clipPath13); fill:none;" y2="594" />
    </g>
    <g style="fill:navy; stroke:navy;">
      <rect x="47" y="679" width="113" style="clip-path:url(#clipPath1); stroke:none;" height="176" />
      <rect x="44" y="676" width="113" style="clip-path:url(#clipPath1); fill:white; stroke:none;" height="176" />
      <rect x="44" y="676" width="113" style="clip-path:url(#clipPath1); fill:none; stroke:black;" height="176" />
    </g>
    <g style="font-style:italic; font-weight:bold; font-family:sans-serif;">
      <text x="50" y="694" style="clip-path:url(#clipPath15); stroke:none;">TotalPredicate
      </text>
    </g>
    <g>
      <line x1="44" x2="157" y1="705" style="clip-path:url(#clipPath14); fill:none;" y2="705" />
      <line x1="44" x2="157" y1="718" style="clip-path:url(#clipPath14); fill:none;" y2="718" />
    </g>
    <g style="font-family:sans-serif; font-style:italic;">
      <text x="50" y="744" style="clip-path:url(#clipPath17); stroke:none;">+eval:boolean
      </text>
      <text x="50" y="766" style="font-style:normal; clip-path:url(#clipPath17); stroke:none;">+exists:boolean
      </text>
      <text x="50" y="788" style="font-style:normal; clip-path:url(#clipPath17); stroke:none;">+forall:boolean
      </text>
      <text x="50" y="810" style="font-style:normal; clip-path:url(#clipPath17); stroke:none;">+count:int
      </text>
      <text x="50" y="832" style="font-style:normal; clip-path:url(#clipPath17); stroke:none;">+filter:void
      </text>
    </g>
    <g>
      <polygon style="fill:none; clip-path:url(#clipPath18);" points=" 150 843 151 843 151 841 152 840 152 840 153 841 153 843 154 843 154 846 150 846 150 843" />
      <line x1="150" x2="154" y1="843" style="clip-path:url(#clipPath18); fill:none;" y2="843" />
    </g>
    <g style="fill:navy; stroke:navy;">
      <polygon style="clip-path:url(#clipPath1); stroke:none;" points=" 65 23 218 23 218 325 65 325 65 37 57 37 57 29 65 29 65 23" />
      <polygon style="fill:white; clip-path:url(#clipPath1); stroke:none;" points=" 62 20 215 20 215 322 62 322 62 34 54 34 54 26 62 26 62 20" />
      <polygon style="fill:none; clip-path:url(#clipPath1); stroke:black;" points=" 62 20 215 20 215 322 62 322 62 34 54 34 54 26 62 26 62 20" />
      <line x1="62" x2="70" y1="34" style="clip-path:url(#clipPath1); fill:none; stroke:black;" y2="34" />
      <line x1="70" x2="70" y1="34" style="clip-path:url(#clipPath1); fill:none; stroke:black;" y2="26" />
      <line x1="70" x2="62" y1="26" style="clip-path:url(#clipPath1); fill:none; stroke:black;" y2="26" />
    </g>
    <g style="font-family:sans-serif;">
      <text x="92" y="38" style="clip-path:url(#clipPath20); stroke:none;">CollectionOperator
      </text>
      <text x="115" y="60" style="clip-path:url(#clipPath20); stroke:none;">interface
      </text>
      <text x="110" y="82" style="clip-path:url(#clipPath20); font-style:italic; stroke:none; font-weight:bold;">Predicate
      </text>
    </g>
    <g>
      <line x1="70" x2="215" y1="93" style="clip-path:url(#clipPath19); fill:none;" y2="93" />
      <line x1="70" x2="215" y1="106" style="clip-path:url(#clipPath19); fill:none;" y2="106" />
    </g>
    <g style="font-family:sans-serif; font-style:italic;">
      <text x="76" y="132" style="clip-path:url(#clipPath22); stroke:none;">+eval:boolean
      </text>
      <text x="76" y="154" style="clip-path:url(#clipPath22); stroke:none;">+exists:boolean
      </text>
      <text x="76" y="176" style="clip-path:url(#clipPath22); stroke:none;">+forall:boolean
      </text>
      <text x="76" y="198" style="clip-path:url(#clipPath22); stroke:none;">+count:int
      </text>
      <text x="76" y="220" style="clip-path:url(#clipPath22); stroke:none;">+filter:void
      </text>
      <text x="76" y="242" style="clip-path:url(#clipPath22); stroke:none;">+equals:boolean
      </text>
      <text x="76" y="264" style="clip-path:url(#clipPath22); stroke:none;">+nbSubPredicates:int
      </text>
    </g>
    <g>
      <line x1="70" x2="215" y1="276" style="clip-path:url(#clipPath19); fill:none;" y2="276" />
    </g>
    <g style="font-family:sans-serif;">
      <text x="76" y="302" style="clip-path:url(#clipPath24); stroke:none;"> subPredicates:List
      </text>
    </g>
    <g>
      <polygon style="fill:none; clip-path:url(#clipPath25);" points=" 208 313 209 313 209 311 210 310 210 310 211 311 211 313 212 313 212 316 208 316 208 313" />
      <line x1="208" x2="212" y1="313" style="clip-path:url(#clipPath25); fill:none;" y2="313" />
    </g>
  </g>
</svg>
