<?xml version="1.0" encoding="UTF-8"?>

<!DOCTYPE svg PUBLIC '-//W3C//DTD SVG 20001102//EN' 'http://www.w3.org/TR/2000/CR-SVG-20001102/DTD/svg-20001102.dtd'>
<svg style="fill-opacity:1; color-interpolation:sRGB; color-rendering:auto; text-rendering:auto; stroke:black; stroke-linecap:square; stroke-miterlimit:10; stroke-opacity:1; shape-rendering:auto; fill:black; stroke-dasharray:none; font-weight:normal; stroke-width:1; font-family:&apos;Lucida Sans&apos;; font-style:normal; stroke-linejoin:miter; font-size:12; image-rendering:auto; stroke-dashoffset:0;" width="485" height="644">
  <!--Generated by the Batik Graphics2D SVG Generator-->
  <defs id="genericDefs" />
  <g>
    <defs id="defs1">
      <clipPath clipPathUnits="userSpaceOnUse" id="clipPath1">
        <path d="M0 0 L485 0 L485 644 L0 644 L0 0 Z" />
      </clipPath>
      <clipPath clipPathUnits="userSpaceOnUse" id="clipPath2">
        <path d="M20 470 L20 631 L212 631 L212 470 Z" />
      </clipPath>
      <clipPath clipPathUnits="userSpaceOnUse" id="clipPath3">
        <path d="M21 471 L21 494 L212 494 L212 471 Z" />
      </clipPath>
      <clipPath clipPathUnits="userSpaceOnUse" id="clipPath4">
        <path d="M20 529 L20 621 L212 621 L212 529 Z" />
      </clipPath>
      <clipPath clipPathUnits="userSpaceOnUse" id="clipPath5">
        <path d="M22 531 L22 620 L211 620 L211 531 Z" />
      </clipPath>
      <clipPath clipPathUnits="userSpaceOnUse" id="clipPath6">
        <path d="M280 470 L280 631 L472 631 L472 470 Z" />
      </clipPath>
      <clipPath clipPathUnits="userSpaceOnUse" id="clipPath7">
        <path d="M281 471 L281 494 L472 494 L472 471 Z" />
      </clipPath>
      <clipPath clipPathUnits="userSpaceOnUse" id="clipPath8">
        <path d="M280 529 L280 621 L472 621 L472 529 Z" />
      </clipPath>
      <clipPath clipPathUnits="userSpaceOnUse" id="clipPath9">
        <path d="M282 531 L282 620 L471 620 L471 531 Z" />
      </clipPath>
      <clipPath clipPathUnits="userSpaceOnUse" id="clipPath10">
        <path d="M150 240 L150 369 L342 369 L342 240 Z" />
      </clipPath>
      <clipPath clipPathUnits="userSpaceOnUse" id="clipPath11">
        <path d="M151 241 L151 264 L342 264 L342 241 Z" />
      </clipPath>
      <clipPath clipPathUnits="userSpaceOnUse" id="clipPath12">
        <path d="M150 289 L150 359 L342 359 L342 289 Z" />
      </clipPath>
      <clipPath clipPathUnits="userSpaceOnUse" id="clipPath13">
        <path d="M152 291 L152 358 L341 358 L341 291 Z" />
      </clipPath>
      <clipPath clipPathUnits="userSpaceOnUse" id="clipPath14">
        <path d="M160 40 L160 148 L305 148 L305 40 Z" />
      </clipPath>
      <clipPath clipPathUnits="userSpaceOnUse" id="clipPath15">
        <path d="M161 41 L161 86 L305 86 L305 41 Z" />
      </clipPath>
    </defs>
    <g style="fill:teal; stroke:teal;">
      <line x1="233" x2="233" y1="240" style="clip-path:url(#clipPath1); fill:none;" y2="235" />
      <line x1="233" x2="233" y1="230" style="clip-path:url(#clipPath1); fill:none;" y2="220" />
      <line x1="233" x2="233" y1="215" style="clip-path:url(#clipPath1); fill:none;" y2="205" />
      <line x1="233" x2="233" y1="200" style="clip-path:url(#clipPath1); fill:none;" y2="190" />
      <line x1="233" x2="233" y1="185" style="clip-path:url(#clipPath1); fill:none;" y2="175" />
      <line x1="233" x2="233" y1="170" style="clip-path:url(#clipPath1); fill:none;" y2="160" />
      <line x1="233" x2="233" y1="155" style="clip-path:url(#clipPath1); fill:none;" y2="150" />
      <line x1="312" x2="312" y1="470" style="clip-path:url(#clipPath1); fill:none; stroke:rgb(0,64,64);" y2="371" />
      <line x1="182" x2="182" y1="470" style="clip-path:url(#clipPath1); fill:none; stroke:rgb(0,64,64);" y2="371" />
      <polygon style="fill:white; clip-path:url(#clipPath1); stroke:none;" points=" 233 150 239 168 227 168" />
      <polygon style="fill:none; clip-path:url(#clipPath1);" points=" 233 150 239 168 227 168" />
      <line x1="227" x2="233" y1="168" style="clip-path:url(#clipPath1); fill:none;" y2="150" />
      <polygon style="fill:white; clip-path:url(#clipPath1); stroke:none;" points=" 312 371 318 389 306 389" />
      <polygon style="fill:none; clip-path:url(#clipPath1); stroke:rgb(0,64,64);" points=" 312 371 318 389 306 389" />
      <line x1="306" x2="312" y1="389" style="clip-path:url(#clipPath1); fill:none; stroke:rgb(0,64,64);" y2="371" />
      <polygon style="fill:white; clip-path:url(#clipPath1); stroke:none;" points=" 182 371 188 389 176 389" />
      <polygon style="fill:none; clip-path:url(#clipPath1); stroke:rgb(0,64,64);" points=" 182 371 188 389 176 389" />
      <line x1="176" x2="182" y1="389" style="clip-path:url(#clipPath1); fill:none; stroke:rgb(0,64,64);" y2="371" />
      <rect x="23" y="473" width="191" style="clip-path:url(#clipPath1); fill:navy; stroke:none;" height="160" />
      <rect x="20" y="470" width="191" style="clip-path:url(#clipPath1); fill:white; stroke:none;" height="160" />
      <rect x="20" y="470" width="191" style="clip-path:url(#clipPath1); fill:none; stroke:black;" height="160" />
    </g>
    <g style="font-style:italic; font-weight:bold; font-family:sans-serif;">
      <text x="94" y="488" style="clip-path:url(#clipPath3); stroke:none;">ForAll
      </text>
    </g>
    <g>
      <line x1="20" x2="211" y1="499" style="clip-path:url(#clipPath2); fill:none;" y2="499" />
      <line x1="20" x2="211" y1="522" style="clip-path:url(#clipPath2); fill:none;" y2="522" />
    </g>
    <g style="font-family:sans-serif; font-style:italic;">
      <text x="26" y="548" style="clip-path:url(#clipPath5); stroke:none;">+boolean criterion
      </text>
      <text x="26" y="570" style="font-style:normal; clip-path:url(#clipPath5); stroke:none;">+boolean initialAccumulator
      </text>
      <text x="26" y="592" style="font-style:normal; clip-path:url(#clipPath5); stroke:none;">+boolean accumulate
      </text>
      <text x="26" y="614" style="font-style:normal; clip-path:url(#clipPath5); stroke:none;">+boolean in
      </text>
    </g>
    <g style="fill:navy; stroke:navy;">
      <rect x="283" y="473" width="191" style="clip-path:url(#clipPath1); stroke:none;" height="160" />
      <rect x="280" y="470" width="191" style="clip-path:url(#clipPath1); fill:white; stroke:none;" height="160" />
      <rect x="280" y="470" width="191" style="clip-path:url(#clipPath1); fill:none; stroke:black;" height="160" />
    </g>
    <g style="font-style:italic; font-weight:bold; font-family:sans-serif;">
      <text x="354" y="488" style="clip-path:url(#clipPath7); stroke:none;">Exists
      </text>
    </g>
    <g>
      <line x1="280" x2="471" y1="499" style="clip-path:url(#clipPath6); fill:none;" y2="499" />
      <line x1="280" x2="471" y1="522" style="clip-path:url(#clipPath6); fill:none;" y2="522" />
    </g>
    <g style="font-family:sans-serif; font-style:italic;">
      <text x="286" y="548" style="clip-path:url(#clipPath9); stroke:none;">+boolean criterion
      </text>
      <text x="286" y="570" style="font-style:normal; clip-path:url(#clipPath9); stroke:none;">+boolean initialAccumulator
      </text>
      <text x="286" y="592" style="font-style:normal; clip-path:url(#clipPath9); stroke:none;">+boolean accumulate
      </text>
      <text x="286" y="614" style="font-style:normal; clip-path:url(#clipPath9); stroke:none;">+boolean in
      </text>
    </g>
    <g style="fill:navy; stroke:navy;">
      <rect x="153" y="243" width="191" style="clip-path:url(#clipPath1); stroke:none;" height="128" />
      <rect x="150" y="240" width="191" style="clip-path:url(#clipPath1); fill:white; stroke:none;" height="128" />
      <rect x="150" y="240" width="191" style="clip-path:url(#clipPath1); fill:none; stroke:black;" height="128" />
    </g>
    <g style="font-style:italic; font-weight:bold; font-family:sans-serif;">
      <text x="173" y="258" style="clip-path:url(#clipPath11); stroke:none;">BooleanAccumulator
      </text>
    </g>
    <g>
      <line x1="150" x2="341" y1="269" style="clip-path:url(#clipPath10); fill:none;" y2="269" />
      <line x1="150" x2="341" y1="282" style="clip-path:url(#clipPath10); fill:none;" y2="282" />
    </g>
    <g style="font-family:sans-serif; font-style:italic;">
      <text x="156" y="308" style="clip-path:url(#clipPath13); stroke:none;">+boolean initialAccumulator
      </text>
      <text x="156" y="330" style="clip-path:url(#clipPath13); stroke:none;">+boolean accumulate
      </text>
      <text x="156" y="352" style="font-style:normal; clip-path:url(#clipPath13); stroke:none;">+boolean in
      </text>
    </g>
    <g style="fill:navy; stroke:navy;">
      <rect x="163" y="43" width="144" style="clip-path:url(#clipPath1); stroke:none;" height="107" />
      <rect x="160" y="40" width="144" style="clip-path:url(#clipPath1); fill:white; stroke:none;" height="107" />
      <rect x="160" y="40" width="144" style="clip-path:url(#clipPath1); fill:none; stroke:black;" height="107" />
    </g>
    <g style="font-family:sans-serif;">
      <text x="205" y="58" style="clip-path:url(#clipPath15); stroke:none;">interface
      </text>
      <text x="165" y="80" style="clip-path:url(#clipPath15); font-style:italic; stroke:none; font-weight:bold;">CollectionOperator
      </text>
    </g>
    <g>
      <line x1="160" x2="304" y1="91" style="clip-path:url(#clipPath14); fill:none;" y2="91" />
      <line x1="160" x2="304" y1="114" style="clip-path:url(#clipPath14); fill:none;" y2="114" />
    </g>
  </g>
</svg>
