<?xml version="1.0" encoding="UTF-8"?>

<!DOCTYPE svg PUBLIC '-//W3C//DTD SVG 20001102//EN' 'http://www.w3.org/TR/2000/CR-SVG-20001102/DTD/svg-20001102.dtd'>
<svg style="fill-opacity:1; color-rendering:auto; color-interpolation:sRGB; text-rendering:auto; stroke:black; stroke-linecap:square; stroke-miterlimit:10; shape-rendering:auto; stroke-opacity:1; fill:black; stroke-dasharray:none; font-weight:normal; stroke-width:1; font-family:&apos;sansserif&apos;; font-style:normal; stroke-linejoin:miter; font-size:12; stroke-dashoffset:0; image-rendering:auto;" width="306" height="715">
  <!--Generated by the Batik Graphics2D SVG Generator-->
  <defs id="genericDefs" />
  <g>
    <defs id="defs1">
      <clipPath clipPathUnits="userSpaceOnUse" id="clipPath1">
        <path d="M0 0 L306 0 L306 715 L0 715 L0 0 Z" />
      </clipPath>
      <clipPath clipPathUnits="userSpaceOnUse" id="clipPath2">
        <path d="M106 20 L106 237 L208 237 L208 20 Z" />
      </clipPath>
      <clipPath clipPathUnits="userSpaceOnUse" id="clipPath3">
        <path d="M107 21 L107 61 L208 61 L208 21 Z" />
      </clipPath>
      <clipPath clipPathUnits="userSpaceOnUse" id="clipPath4">
        <path d="M106 96 L106 196 L208 196 L208 96 Z" />
      </clipPath>
      <clipPath clipPathUnits="userSpaceOnUse" id="clipPath5">
        <path d="M108 98 L108 195 L207 195 L207 98 Z" />
      </clipPath>
      <clipPath clipPathUnits="userSpaceOnUse" id="clipPath6">
        <path d="M106 208 L106 227 L208 227 L208 208 Z" />
      </clipPath>
      <clipPath clipPathUnits="userSpaceOnUse" id="clipPath7">
        <path d="M108 210 L108 226 L207 226 L207 210 Z" />
      </clipPath>
      <clipPath clipPathUnits="userSpaceOnUse" id="clipPath8">
        <path d="M106 309 L106 489 L208 489 L208 309 Z" />
      </clipPath>
      <clipPath clipPathUnits="userSpaceOnUse" id="clipPath9">
        <path d="M107 310 L107 326 L208 326 L208 310 Z" />
      </clipPath>
      <clipPath clipPathUnits="userSpaceOnUse" id="clipPath10">
        <path d="M106 338 L106 357 L208 357 L208 338 Z" />
      </clipPath>
      <clipPath clipPathUnits="userSpaceOnUse" id="clipPath11">
        <path d="M108 340 L108 356 L207 356 L207 340 Z" />
      </clipPath>
      <clipPath clipPathUnits="userSpaceOnUse" id="clipPath12">
        <path d="M106 369 L106 448 L208 448 L208 369 Z" />
      </clipPath>
      <clipPath clipPathUnits="userSpaceOnUse" id="clipPath13">
        <path d="M108 371 L108 447 L207 447 L207 371 Z" />
      </clipPath>
      <clipPath clipPathUnits="userSpaceOnUse" id="clipPath14">
        <path d="M106 460 L106 479 L208 479 L208 460 Z" />
      </clipPath>
      <clipPath clipPathUnits="userSpaceOnUse" id="clipPath15">
        <path d="M108 462 L108 478 L207 478 L207 462 Z" />
      </clipPath>
      <clipPath clipPathUnits="userSpaceOnUse" id="clipPath16">
        <path d="M20 561 L20 702 L131 702 L131 561 Z" />
      </clipPath>
      <clipPath clipPathUnits="userSpaceOnUse" id="clipPath17">
        <path d="M21 562 L21 578 L131 578 L131 562 Z" />
      </clipPath>
      <clipPath clipPathUnits="userSpaceOnUse" id="clipPath18">
        <path d="M20 613 L20 692 L131 692 L131 613 Z" />
      </clipPath>
      <clipPath clipPathUnits="userSpaceOnUse" id="clipPath19">
        <path d="M22 615 L22 691 L130 691 L130 615 Z" />
      </clipPath>
      <clipPath clipPathUnits="userSpaceOnUse" id="clipPath20">
        <path d="M153 561 L153 657 L293 657 L293 561 Z" />
      </clipPath>
      <clipPath clipPathUnits="userSpaceOnUse" id="clipPath21">
        <path d="M154 562 L154 578 L293 578 L293 562 Z" />
      </clipPath>
      <clipPath clipPathUnits="userSpaceOnUse" id="clipPath22">
        <path d="M153 613 L153 647 L293 647 L293 613 Z" />
      </clipPath>
      <clipPath clipPathUnits="userSpaceOnUse" id="clipPath23">
        <path d="M155 615 L155 646 L292 646 L292 615 Z" />
      </clipPath>
    </defs>
    <g style="fill:rgb(0,64,64); stroke:rgb(0,64,64);">
      <line x1="224" x2="224" y1="561" style="clip-path:url(#clipPath1); fill:none;" y2="526" />
      <line x1="224" x2="150" y1="526" style="clip-path:url(#clipPath1); fill:none;" y2="526" />
      <line x1="150" x2="150" y1="526" style="clip-path:url(#clipPath1); fill:none;" y2="491" />
      <line x1="76" x2="76" y1="561" style="clip-path:url(#clipPath1); fill:none;" y2="526" />
      <line x1="76" x2="150" y1="526" style="clip-path:url(#clipPath1); fill:none;" y2="526" />
      <line x1="150" x2="150" y1="526" style="clip-path:url(#clipPath1); fill:none;" y2="491" />
      <line x1="150" x2="150" y1="309" style="clip-path:url(#clipPath1); fill:none; stroke:teal;" y2="309" />
      <line x1="150" x2="150" y1="305" style="clip-path:url(#clipPath1); fill:none; stroke:teal;" y2="295" />
      <line x1="150" x2="150" y1="290" style="clip-path:url(#clipPath1); fill:none; stroke:teal;" y2="280" />
      <line x1="150" x2="150" y1="275" style="clip-path:url(#clipPath1); fill:none; stroke:teal;" y2="265" />
      <line x1="150" x2="150" y1="260" style="clip-path:url(#clipPath1); fill:none; stroke:teal;" y2="250" />
      <line x1="150" x2="150" y1="245" style="clip-path:url(#clipPath1); fill:none; stroke:teal;" y2="239" />
      <polygon style="fill:white; clip-path:url(#clipPath1); stroke:none;" points=" 150 491 156 509 144 509" />
      <polygon style="fill:none; clip-path:url(#clipPath1);" points=" 150 491 156 509 144 509" />
      <line x1="144" x2="150" y1="509" style="clip-path:url(#clipPath1); fill:none;" y2="491" />
      <polygon style="fill:white; clip-path:url(#clipPath1); stroke:none;" points=" 150 491 156 509 144 509" />
      <polygon style="fill:none; clip-path:url(#clipPath1);" points=" 150 491 156 509 144 509" />
      <line x1="144" x2="150" y1="509" style="clip-path:url(#clipPath1); fill:none;" y2="491" />
      <polygon style="fill:white; clip-path:url(#clipPath1); stroke:none;" points=" 150 239 156 257 144 257" />
      <polygon style="fill:none; clip-path:url(#clipPath1); stroke:teal;" points=" 150 239 156 257 144 257" />
      <line x1="144" x2="150" y1="257" style="clip-path:url(#clipPath1); fill:none; stroke:teal;" y2="239" />
      <polygon style="fill:navy; clip-path:url(#clipPath1); stroke:none;" points=" 101 23 210 23 210 239 101 239 101 37 93 37 93 29 101 29 101 23" />
      <polygon style="fill:white; clip-path:url(#clipPath1); stroke:none;" points=" 98 20 207 20 207 236 98 236 98 34 90 34 90 26 98 26 98 20" />
      <polygon style="fill:none; clip-path:url(#clipPath1); stroke:black;" points=" 98 20 207 20 207 236 98 236 98 34 90 34 90 26 98 26 98 20" />
      <line x1="98" x2="106" y1="34" style="clip-path:url(#clipPath1); fill:none; stroke:black;" y2="34" />
      <line x1="106" x2="106" y1="34" style="clip-path:url(#clipPath1); fill:none; stroke:black;" y2="26" />
      <line x1="106" x2="98" y1="26" style="clip-path:url(#clipPath1); fill:none; stroke:black;" y2="26" />
    </g>
    <g style="font-family:sans-serif;">
      <text x="132" y="33" style="clip-path:url(#clipPath3); stroke:none;">interface
      </text>
      <text x="145" y="50" style="clip-path:url(#clipPath3); font-style:italic; stroke:none; font-weight:bold;">Fifo
      </text>
    </g>
    <g>
      <line x1="106" x2="207" y1="66" style="clip-path:url(#clipPath2); fill:none;" y2="66" />
      <line x1="106" x2="207" y1="89" style="clip-path:url(#clipPath2); fill:none;" y2="89" />
    </g>
    <g style="font-family:sans-serif; font-style:italic;">
      <text x="112" y="113" style="clip-path:url(#clipPath5); stroke:none;">+void push
      </text>
      <text x="112" y="137" style="clip-path:url(#clipPath5); stroke:none;">+Object pop
      </text>
      <text x="112" y="161" style="clip-path:url(#clipPath5); stroke:none;">+void clear
      </text>
      <text x="112" y="185" style="clip-path:url(#clipPath5); stroke:none;">+int size
      </text>
    </g>
    <g>
      <line x1="106" x2="207" y1="201" style="clip-path:url(#clipPath2); fill:none;" y2="201" />
    </g>
    <g style="font-family:sans-serif;">
      <text x="112" y="222" style="clip-path:url(#clipPath7); stroke:none;"> boolean empty
      </text>
    </g>
    <g style="fill:navy; stroke:navy;">
      <polygon style="clip-path:url(#clipPath1); stroke:none;" points=" 101 312 210 312 210 491 101 491 101 326 93 326 93 318 101 318 101 312" />
      <polygon style="fill:white; clip-path:url(#clipPath1); stroke:none;" points=" 98 309 207 309 207 488 98 488 98 323 90 323 90 315 98 315 98 309" />
      <polygon style="fill:none; clip-path:url(#clipPath1); stroke:black;" points=" 98 309 207 309 207 488 98 488 98 323 90 323 90 315 98 315 98 309" />
      <line x1="98" x2="106" y1="323" style="clip-path:url(#clipPath1); fill:none; stroke:black;" y2="323" />
      <line x1="106" x2="106" y1="323" style="clip-path:url(#clipPath1); fill:none; stroke:black;" y2="315" />
      <line x1="106" x2="98" y1="315" style="clip-path:url(#clipPath1); fill:none; stroke:black;" y2="315" />
    </g>
    <g style="font-family:sans-serif; font-weight:bold;">
      <text x="133" y="322" style="clip-path:url(#clipPath9); stroke:none;">FifoList
      </text>
    </g>
    <g>
      <line x1="106" x2="207" y1="331" style="clip-path:url(#clipPath8); fill:none;" y2="331" />
    </g>
    <g style="font-family:sans-serif;">
      <text x="112" y="352" style="clip-path:url(#clipPath11); stroke:none;">-List $queue
      </text>
    </g>
    <g>
      <line x1="106" x2="207" y1="362" style="clip-path:url(#clipPath8); fill:none;" y2="362" />
    </g>
    <g style="font-family:sans-serif;">
      <text x="112" y="383" style="clip-path:url(#clipPath13); stroke:none;">+FifoList
      </text>
      <text x="112" y="398" style="clip-path:url(#clipPath13); stroke:none;">+void push
      </text>
      <text x="112" y="413" style="clip-path:url(#clipPath13); stroke:none;">+Object pop
      </text>
      <text x="112" y="428" style="clip-path:url(#clipPath13); stroke:none;">+void clear
      </text>
      <text x="112" y="443" style="clip-path:url(#clipPath13); stroke:none;">+int size
      </text>
    </g>
    <g>
      <line x1="106" x2="207" y1="453" style="clip-path:url(#clipPath8); fill:none;" y2="453" />
    </g>
    <g style="font-family:sans-serif;">
      <text x="112" y="474" style="clip-path:url(#clipPath15); stroke:none;"> boolean empty
      </text>
    </g>
    <g style="fill:navy; stroke:navy;">
      <rect x="23" y="564" width="110" style="clip-path:url(#clipPath1); stroke:none;" height="140" />
      <rect x="20" y="561" width="110" style="clip-path:url(#clipPath1); fill:white; stroke:none;" height="140" />
      <rect x="20" y="561" width="110" style="clip-path:url(#clipPath1); fill:none; stroke:black;" height="140" />
    </g>
    <g style="font-family:sans-serif; font-weight:bold;">
      <text x="25" y="574" style="clip-path:url(#clipPath17); stroke:none;">BlockingFifoList
      </text>
    </g>
    <g>
      <line x1="20" x2="130" y1="583" style="clip-path:url(#clipPath16); fill:none;" y2="583" />
      <line x1="20" x2="130" y1="606" style="clip-path:url(#clipPath16); fill:none;" y2="606" />
    </g>
    <g style="font-family:sans-serif;">
      <text x="26" y="627" style="clip-path:url(#clipPath19); stroke:none;">+BlockingFifoList
      </text>
      <text x="26" y="642" style="clip-path:url(#clipPath19); stroke:none;">+void push
      </text>
      <text x="26" y="657" style="clip-path:url(#clipPath19); stroke:none;">+Object pop
      </text>
      <text x="26" y="672" style="clip-path:url(#clipPath19); stroke:none;">+void clear
      </text>
      <text x="26" y="687" style="clip-path:url(#clipPath19); stroke:none;">+int size
      </text>
    </g>
    <g style="fill:navy; stroke:navy;">
      <rect x="156" y="564" width="139" style="clip-path:url(#clipPath1); stroke:none;" height="95" />
      <rect x="153" y="561" width="139" style="clip-path:url(#clipPath1); fill:white; stroke:none;" height="95" />
      <rect x="153" y="561" width="139" style="clip-path:url(#clipPath1); fill:none; stroke:black;" height="95" />
    </g>
    <g style="font-family:sans-serif; font-weight:bold;">
      <text x="158" y="574" style="clip-path:url(#clipPath21); stroke:none;">SynchronizedFifoList
      </text>
    </g>
    <g>
      <line x1="153" x2="292" y1="583" style="clip-path:url(#clipPath20); fill:none;" y2="583" />
      <line x1="153" x2="292" y1="606" style="clip-path:url(#clipPath20); fill:none;" y2="606" />
    </g>
    <g style="font-family:sans-serif;">
      <text x="159" y="627" style="clip-path:url(#clipPath23); stroke:none;">+void push
      </text>
      <text x="159" y="642" style="clip-path:url(#clipPath23); stroke:none;">+Object pop
      </text>
    </g>
  </g>
</svg>
