<?xml version="1.0" encoding="UTF-8"?>

<!DOCTYPE svg PUBLIC '-//W3C//DTD SVG 20001102//EN' 'http://www.w3.org/TR/2000/CR-SVG-20001102/DTD/svg-20001102.dtd'>
<svg style="fill-opacity:1; color-interpolation:sRGB; color-rendering:auto; text-rendering:auto; stroke:black; stroke-linecap:square; stroke-miterlimit:10; stroke-opacity:1; shape-rendering:auto; fill:black; stroke-dasharray:none; font-weight:normal; stroke-width:1; font-family:&apos;Lucida Sans&apos;; font-style:normal; stroke-linejoin:miter; font-size:12; image-rendering:auto; stroke-dashoffset:0;" width="355" height="729">
  <!--Generated by the Batik Graphics2D SVG Generator-->
  <defs id="genericDefs" />
  <g>
    <defs id="defs1">
      <clipPath clipPathUnits="userSpaceOnUse" id="clipPath1">
        <path d="M0 0 L355 0 L355 729 L0 729 L0 0 Z" />
      </clipPath>
      <clipPath clipPathUnits="userSpaceOnUse" id="clipPath2">
        <path d="M142 190 L142 461 L278 461 L278 190 Z" />
      </clipPath>
      <clipPath clipPathUnits="userSpaceOnUse" id="clipPath3">
        <path d="M143 191 L143 214 L278 214 L278 191 Z" />
      </clipPath>
      <clipPath clipPathUnits="userSpaceOnUse" id="clipPath4">
        <path d="M142 249 L142 451 L278 451 L278 249 Z" />
      </clipPath>
      <clipPath clipPathUnits="userSpaceOnUse" id="clipPath5">
        <path d="M144 251 L144 450 L277 450 L277 251 Z" />
      </clipPath>
      <clipPath clipPathUnits="userSpaceOnUse" id="clipPath6">
        <path d="M36 539 L36 716 L165 716 L165 539 Z" />
      </clipPath>
      <clipPath clipPathUnits="userSpaceOnUse" id="clipPath7">
        <path d="M37 540 L37 563 L165 563 L165 540 Z" />
      </clipPath>
      <clipPath clipPathUnits="userSpaceOnUse" id="clipPath8">
        <path d="M36 598 L36 668 L165 668 L165 598 Z" />
      </clipPath>
      <clipPath clipPathUnits="userSpaceOnUse" id="clipPath9">
        <path d="M38 600 L38 667 L164 667 L164 600 Z" />
      </clipPath>
      <clipPath clipPathUnits="userSpaceOnUse" id="clipPath10">
        <path d="M36 680 L36 706 L165 706 L165 680 Z" />
      </clipPath>
      <clipPath clipPathUnits="userSpaceOnUse" id="clipPath11">
        <path d="M38 682 L38 705 L164 705 L164 682 Z" />
      </clipPath>
      <clipPath clipPathUnits="userSpaceOnUse" id="clipPath12">
        <path d="M213 539 L213 694 L342 694 L342 539 Z" />
      </clipPath>
      <clipPath clipPathUnits="userSpaceOnUse" id="clipPath13">
        <path d="M214 540 L214 563 L342 563 L342 540 Z" />
      </clipPath>
      <clipPath clipPathUnits="userSpaceOnUse" id="clipPath14">
        <path d="M213 598 L213 646 L342 646 L342 598 Z" />
      </clipPath>
      <clipPath clipPathUnits="userSpaceOnUse" id="clipPath15">
        <path d="M215 600 L215 645 L341 645 L341 600 Z" />
      </clipPath>
      <clipPath clipPathUnits="userSpaceOnUse" id="clipPath16">
        <path d="M213 658 L213 684 L342 684 L342 658 Z" />
      </clipPath>
      <clipPath clipPathUnits="userSpaceOnUse" id="clipPath17">
        <path d="M215 660 L215 683 L341 683 L341 660 Z" />
      </clipPath>
      <clipPath clipPathUnits="userSpaceOnUse" id="clipPath18">
        <path d="M138 20 L138 128 L283 128 L283 20 Z" />
      </clipPath>
      <clipPath clipPathUnits="userSpaceOnUse" id="clipPath19">
        <path d="M139 21 L139 66 L283 66 L283 21 Z" />
      </clipPath>
    </defs>
    <g style="fill:rgb(0,64,64); stroke:rgb(0,64,64);">
      <line x1="254" x2="254" y1="539" style="clip-path:url(#clipPath1); fill:none;" y2="463" />
      <line x1="225" x2="225" y1="539" style="clip-path:url(#clipPath1); fill:none; stroke:blue;" y2="463" />
      <line x1="154" x2="154" y1="539" style="clip-path:url(#clipPath1); fill:none;" y2="463" />
      <line x1="211" x2="211" y1="190" style="clip-path:url(#clipPath1); fill:none; stroke:teal;" y2="190" />
      <line x1="211" x2="211" y1="185" style="clip-path:url(#clipPath1); fill:none; stroke:teal;" y2="175" />
      <line x1="211" x2="211" y1="170" style="clip-path:url(#clipPath1); fill:none; stroke:teal;" y2="160" />
      <line x1="211" x2="211" y1="155" style="clip-path:url(#clipPath1); fill:none; stroke:teal;" y2="145" />
      <line x1="211" x2="211" y1="140" style="clip-path:url(#clipPath1); fill:none; stroke:teal;" y2="130" />
      <polygon style="fill:white; clip-path:url(#clipPath1); stroke:none;" points=" 254 463 260 481 248 481" />
      <polygon style="fill:none; clip-path:url(#clipPath1);" points=" 254 463 260 481 248 481" />
      <line x1="248" x2="254" y1="481" style="clip-path:url(#clipPath1); fill:none;" y2="463" />
      <line x1="225" x2="220" y1="463" style="clip-path:url(#clipPath1); fill:none; stroke:blue;" y2="475" />
      <line x1="225" x2="230" y1="463" style="clip-path:url(#clipPath1); fill:none; stroke:blue;" y2="475" />
      <text x="195" y="480" style="clip-path:url(#clipPath1); fill:blue; font-family:sans-serif; stroke:none;">0..*
      </text>
      <polygon points=" 154 463 160 481 148 481" style="fill:white; clip-path:url(#clipPath1); font-family:sans-serif; stroke:none;" />
      <polygon style="fill:none; clip-path:url(#clipPath1); font-family:sans-serif;" points=" 154 463 160 481 148 481" />
      <line x1="148" x2="154" y1="481" style="clip-path:url(#clipPath1); fill:none; font-family:sans-serif;" y2="463" />
      <polygon points=" 211 130 217 148 205 148" style="fill:white; clip-path:url(#clipPath1); font-family:sans-serif; stroke:none;" />
      <polygon points=" 211 130 217 148 205 148" style="fill:none; clip-path:url(#clipPath1); font-family:sans-serif; stroke:teal;" />
      <line x1="205" x2="211" y1="148" style="clip-path:url(#clipPath1); fill:none; font-family:sans-serif; stroke:teal;" y2="130" />
      <rect x="145" y="193" width="135" style="clip-path:url(#clipPath1); fill:navy; font-family:sans-serif; stroke:none;" height="270" />
      <rect x="142" y="190" width="135" style="clip-path:url(#clipPath1); fill:white; font-family:sans-serif; stroke:none;" height="270" />
      <rect x="142" y="190" width="135" style="clip-path:url(#clipPath1); fill:none; font-family:sans-serif; stroke:black;" height="270" />
    </g>
    <g style="font-style:italic; font-weight:bold; font-family:sans-serif;">
      <text x="191" y="208" style="clip-path:url(#clipPath3); stroke:none;">Filter
      </text>
    </g>
    <g style="font-family:sans-serif;">
      <line x1="142" x2="277" y1="219" style="clip-path:url(#clipPath2); fill:none;" y2="219" />
      <line x1="142" x2="277" y1="242" style="clip-path:url(#clipPath2); fill:none;" y2="242" />
    </g>
    <g style="font-family:sans-serif; font-style:italic;">
      <text x="148" y="268" style="clip-path:url(#clipPath5); stroke:none;">+boolean criterion
      </text>
      <text x="148" y="290" style="font-style:normal; clip-path:url(#clipPath5); stroke:none;">+Collection retain
      </text>
      <text x="148" y="312" style="font-style:normal; clip-path:url(#clipPath5); stroke:none;">+Set retain
      </text>
      <text x="148" y="334" style="font-style:normal; clip-path:url(#clipPath5); stroke:none;">+SortedSet retain
      </text>
      <text x="148" y="356" style="font-style:normal; clip-path:url(#clipPath5); stroke:none;">+List retain
      </text>
      <text x="148" y="378" style="font-style:normal; clip-path:url(#clipPath5); stroke:none;">+Collection discard
      </text>
      <text x="148" y="400" style="font-style:normal; clip-path:url(#clipPath5); stroke:none;">+Set discard
      </text>
      <text x="148" y="422" style="font-style:normal; clip-path:url(#clipPath5); stroke:none;">+SortedSet discard
      </text>
      <text x="148" y="444" style="font-style:normal; clip-path:url(#clipPath5); stroke:none;">+List discard
      </text>
    </g>
    <g style="fill:navy; font-family:sans-serif; stroke:navy;">
      <polygon style="clip-path:url(#clipPath1); stroke:none;" points=" 31 542 167 542 167 718 31 718 31 556 23 556 23 548 31 548 31 542" />
      <polygon style="fill:white; clip-path:url(#clipPath1); stroke:none;" points=" 28 539 164 539 164 715 28 715 28 553 20 553 20 545 28 545 28 539" />
      <polygon style="fill:none; clip-path:url(#clipPath1); stroke:black;" points=" 28 539 164 539 164 715 28 715 28 553 20 553 20 545 28 545 28 539" />
      <line x1="28" x2="36" y1="553" style="clip-path:url(#clipPath1); fill:none; stroke:black;" y2="553" />
      <line x1="36" x2="36" y1="553" style="clip-path:url(#clipPath1); fill:none; stroke:black;" y2="545" />
      <line x1="36" x2="28" y1="545" style="clip-path:url(#clipPath1); fill:none; stroke:black;" y2="545" />
    </g>
    <g style="font-weight:bold; font-family:sans-serif;">
      <text x="64" y="557" style="clip-path:url(#clipPath7); stroke:none;">TypeFilter
      </text>
    </g>
    <g style="font-family:sans-serif;">
      <line x1="36" x2="164" y1="568" style="clip-path:url(#clipPath6); fill:none;" y2="568" />
      <line x1="36" x2="164" y1="591" style="clip-path:url(#clipPath6); fill:none;" y2="591" />
    </g>
    <g style="font-family:sans-serif;">
      <text x="42" y="617" style="clip-path:url(#clipPath9); stroke:none;">+TypeFilter
      </text>
      <text x="42" y="639" style="clip-path:url(#clipPath9); stroke:none;">+TypeFilter
      </text>
      <text x="42" y="661" style="clip-path:url(#clipPath9); stroke:none;">+boolean criterion
      </text>
    </g>
    <g style="font-family:sans-serif;">
      <line x1="36" x2="164" y1="673" style="clip-path:url(#clipPath6); fill:none;" y2="673" />
    </g>
    <g style="font-family:sans-serif;">
      <text x="42" y="699" style="clip-path:url(#clipPath11); stroke:none;"> Class type
      </text>
    </g>
    <g style="fill:navy; font-family:sans-serif; stroke:navy;">
      <polygon style="clip-path:url(#clipPath1); stroke:none;" points=" 208 542 344 542 344 696 208 696 208 556 200 556 200 548 208 548 208 542" />
      <polygon style="fill:white; clip-path:url(#clipPath1); stroke:none;" points=" 205 539 341 539 341 693 205 693 205 553 197 553 197 545 205 545 205 539" />
      <polygon style="fill:none; clip-path:url(#clipPath1); stroke:black;" points=" 205 539 341 539 341 693 205 693 205 553 197 553 197 545 205 545 205 539" />
      <line x1="205" x2="213" y1="553" style="clip-path:url(#clipPath1); fill:none; stroke:black;" y2="553" />
      <line x1="213" x2="213" y1="553" style="clip-path:url(#clipPath1); fill:none; stroke:black;" y2="545" />
      <line x1="213" x2="205" y1="545" style="clip-path:url(#clipPath1); fill:none; stroke:black;" y2="545" />
    </g>
    <g style="font-weight:bold; font-family:sans-serif;">
      <text x="244" y="557" style="clip-path:url(#clipPath13); stroke:none;">AndFilter
      </text>
    </g>
    <g style="font-family:sans-serif;">
      <line x1="213" x2="341" y1="568" style="clip-path:url(#clipPath12); fill:none;" y2="568" />
      <line x1="213" x2="341" y1="591" style="clip-path:url(#clipPath12); fill:none;" y2="591" />
    </g>
    <g style="font-family:sans-serif;">
      <text x="219" y="617" style="clip-path:url(#clipPath15); stroke:none;">+AndFilter
      </text>
      <text x="219" y="639" style="clip-path:url(#clipPath15); stroke:none;">+boolean criterion
      </text>
    </g>
    <g style="font-family:sans-serif;">
      <line x1="213" x2="341" y1="651" style="clip-path:url(#clipPath12); fill:none;" y2="651" />
    </g>
    <g style="font-family:sans-serif;">
      <text x="219" y="677" style="clip-path:url(#clipPath17); stroke:none;"> Filter[] filters
      </text>
    </g>
    <g style="fill:navy; font-family:sans-serif; stroke:navy;">
      <rect x="141" y="23" width="144" style="clip-path:url(#clipPath1); stroke:none;" height="107" />
      <rect x="138" y="20" width="144" style="clip-path:url(#clipPath1); fill:white; stroke:none;" height="107" />
      <rect x="138" y="20" width="144" style="clip-path:url(#clipPath1); fill:none; stroke:black;" height="107" />
    </g>
    <g style="font-family:sans-serif;">
      <text x="183" y="38" style="clip-path:url(#clipPath19); stroke:none;">interface
      </text>
      <text x="143" y="60" style="clip-path:url(#clipPath19); font-style:italic; stroke:none; font-weight:bold;">CollectionOperator
      </text>
    </g>
    <g style="font-family:sans-serif;">
      <line x1="138" x2="282" y1="71" style="clip-path:url(#clipPath18); fill:none;" y2="71" />
      <line x1="138" x2="282" y1="94" style="clip-path:url(#clipPath18); fill:none;" y2="94" />
    </g>
  </g>
</svg>
