<?xml version="1.0" encoding="UTF-8"?>

<!DOCTYPE svg PUBLIC '-//W3C//DTD SVG 20001102//EN' 'http://www.w3.org/TR/2000/CR-SVG-20001102/DTD/svg-20001102.dtd'>
<svg style="fill-opacity:1; color-interpolation:sRGB; color-rendering:auto; text-rendering:auto; stroke:black; stroke-linecap:square; stroke-miterlimit:10; stroke-opacity:1; shape-rendering:auto; fill:black; stroke-dasharray:none; font-weight:normal; stroke-width:1; font-family:&apos;Lucida Sans&apos;; font-style:normal; stroke-linejoin:miter; font-size:12; image-rendering:auto; stroke-dashoffset:0;" width="170" height="342">
  <!--Generated by the Batik Graphics2D SVG Generator-->
  <defs id="genericDefs" />
  <g>
    <defs id="defs1">
      <clipPath clipPathUnits="userSpaceOnUse" id="clipPath1">
        <path d="M0 0 L170 0 L170 342 L0 342 L0 0 Z" />
      </clipPath>
      <clipPath clipPathUnits="userSpaceOnUse" id="clipPath2">
        <path d="M37 20 L37 128 L139 128 L139 20 Z" />
      </clipPath>
      <clipPath clipPathUnits="userSpaceOnUse" id="clipPath3">
        <path d="M38 21 L38 66 L139 66 L139 21 Z" />
      </clipPath>
      <clipPath clipPathUnits="userSpaceOnUse" id="clipPath4">
        <path d="M37 117 L37 128 L139 128 L139 117 Z" />
      </clipPath>
      <clipPath clipPathUnits="userSpaceOnUse" id="clipPath5">
        <path d="M20 190 L20 329 L157 329 L157 190 Z" />
      </clipPath>
      <clipPath clipPathUnits="userSpaceOnUse" id="clipPath6">
        <path d="M21 191 L21 214 L157 214 L157 191 Z" />
      </clipPath>
      <clipPath clipPathUnits="userSpaceOnUse" id="clipPath7">
        <path d="M20 249 L20 319 L157 319 L157 249 Z" />
      </clipPath>
      <clipPath clipPathUnits="userSpaceOnUse" id="clipPath8">
        <path d="M22 251 L22 318 L156 318 L156 251 Z" />
      </clipPath>
      <clipPath clipPathUnits="userSpaceOnUse" id="clipPath9">
        <path d="M20 318 L20 329 L157 329 L157 318 Z" />
      </clipPath>
    </defs>
    <g style="fill:teal; stroke:teal;">
      <line x1="89" x2="89" y1="190" style="clip-path:url(#clipPath1); fill:none;" y2="190" />
      <line x1="89" x2="89" y1="185" style="clip-path:url(#clipPath1); fill:none;" y2="175" />
      <line x1="89" x2="89" y1="170" style="clip-path:url(#clipPath1); fill:none;" y2="160" />
      <line x1="89" x2="89" y1="155" style="clip-path:url(#clipPath1); fill:none;" y2="145" />
      <line x1="89" x2="89" y1="140" style="clip-path:url(#clipPath1); fill:none;" y2="130" />
      <polygon style="fill:white; clip-path:url(#clipPath1); stroke:none;" points=" 89 130 95 148 83 148" />
      <polygon style="fill:none; clip-path:url(#clipPath1);" points=" 89 130 95 148 83 148" />
      <line x1="83" x2="89" y1="148" style="clip-path:url(#clipPath1); fill:none;" y2="130" />
      <rect x="40" y="23" width="101" style="clip-path:url(#clipPath1); fill:navy; stroke:none;" height="107" />
      <rect x="37" y="20" width="101" style="clip-path:url(#clipPath1); fill:white; stroke:none;" height="107" />
      <rect x="37" y="20" width="101" style="clip-path:url(#clipPath1); fill:none; stroke:black;" height="107" />
    </g>
    <g style="font-family:sans-serif;">
      <text x="60" y="38" style="clip-path:url(#clipPath3); stroke:none;">interface
      </text>
      <text x="42" y="60" style="clip-path:url(#clipPath3); font-style:italic; stroke:none; font-weight:bold;">MapOperator
      </text>
    </g>
    <g>
      <line x1="37" x2="138" y1="71" style="clip-path:url(#clipPath2); fill:none;" y2="71" />
      <line x1="37" x2="138" y1="94" style="clip-path:url(#clipPath2); fill:none;" y2="94" />
    </g>
    <g>
      <polygon style="fill:none; clip-path:url(#clipPath4);" points=" 131 122 132 122 132 120 133 119 133 119 134 120 134 122 135 122 135 125 131 125 131 122" />
      <line x1="131" x2="135" y1="122" style="clip-path:url(#clipPath4); fill:none;" y2="122" />
    </g>
    <g style="fill:navy; stroke:navy;">
      <rect x="23" y="193" width="136" style="clip-path:url(#clipPath1); stroke:none;" height="138" />
      <rect x="20" y="190" width="136" style="clip-path:url(#clipPath1); fill:white; stroke:none;" height="138" />
      <rect x="20" y="190" width="136" style="clip-path:url(#clipPath1); fill:none; stroke:black;" height="138" />
    </g>
    <g style="font-style:italic; font-weight:bold; font-family:sans-serif;">
      <text x="25" y="208" style="clip-path:url(#clipPath6); stroke:none;">RobustMapVisitor
      </text>
    </g>
    <g>
      <line x1="20" x2="156" y1="219" style="clip-path:url(#clipPath5); fill:none;" y2="219" />
      <line x1="20" x2="156" y1="242" style="clip-path:url(#clipPath5); fill:none;" y2="242" />
    </g>
    <g style="font-family:sans-serif; font-style:italic;">
      <text x="26" y="268" style="clip-path:url(#clipPath8); stroke:none;">+Object visit
      </text>
      <text x="26" y="290" style="clip-path:url(#clipPath8); stroke:none;">+void unvisit
      </text>
      <text x="26" y="312" style="font-style:normal; clip-path:url(#clipPath8); stroke:none;">+Map applyTo
      </text>
    </g>
    <g>
      <polygon style="fill:none; clip-path:url(#clipPath9);" points=" 149 323 150 323 150 321 151 320 151 320 152 321 152 323 153 323 153 326 149 326 149 323" />
      <line x1="149" x2="153" y1="323" style="clip-path:url(#clipPath9); fill:none;" y2="323" />
    </g>
  </g>
</svg>
