<?xml version="1.0" encoding="UTF-8"?>

<!DOCTYPE svg PUBLIC '-//W3C//DTD SVG 20001102//EN' 'http://www.w3.org/TR/2000/CR-SVG-20001102/DTD/svg-20001102.dtd'>
<svg style="fill-opacity:1; color-rendering:auto; color-interpolation:sRGB; text-rendering:auto; stroke:black; stroke-linecap:square; stroke-miterlimit:10; shape-rendering:auto; stroke-opacity:1; fill:black; stroke-dasharray:none; font-weight:normal; stroke-width:1; font-family:&apos;sansserif&apos;; font-style:normal; stroke-linejoin:miter; font-size:12; stroke-dashoffset:0; image-rendering:auto;" width="123" height="217">
  <!--Generated by the Batik Graphics2D SVG Generator-->
  <defs id="genericDefs" />
  <g>
    <defs id="defs1">
      <clipPath clipPathUnits="userSpaceOnUse" id="clipPath1">
        <path d="M0 0 L123 0 L123 217 L0 217 L0 0 Z" />
      </clipPath>
      <clipPath clipPathUnits="userSpaceOnUse" id="clipPath2">
        <path d="M10 10 L10 204 L110 204 L110 10 Z" />
      </clipPath>
      <clipPath clipPathUnits="userSpaceOnUse" id="clipPath3">
        <path d="M11 11 L11 42 L110 42 L110 11 Z" />
      </clipPath>
      <clipPath clipPathUnits="userSpaceOnUse" id="clipPath4">
        <path d="M10 54 L10 118 L110 118 L110 54 Z" />
      </clipPath>
      <clipPath clipPathUnits="userSpaceOnUse" id="clipPath5">
        <path d="M12 56 L12 117 L109 117 L109 56 Z" />
      </clipPath>
      <clipPath clipPathUnits="userSpaceOnUse" id="clipPath6">
        <path d="M10 130 L10 194 L110 194 L110 130 Z" />
      </clipPath>
      <clipPath clipPathUnits="userSpaceOnUse" id="clipPath7">
        <path d="M12 132 L12 193 L109 193 L109 132 Z" />
      </clipPath>
    </defs>
    <g style="fill:navy; stroke:navy;">
      <rect x="13" y="13" width="99" style="clip-path:url(#clipPath1); stroke:none;" height="193" />
      <rect x="10" y="10" width="99" style="clip-path:url(#clipPath1); fill:white; stroke:none;" height="193" />
      <rect x="10" y="10" width="99" style="clip-path:url(#clipPath1); fill:none; stroke:black;" height="193" />
    </g>
    <g style="font-family:sans-serif;">
      <text x="23" y="23" style="clip-path:url(#clipPath3); stroke:none;">jregex.Pattern
      </text>
      <text x="38" y="38" style="clip-path:url(#clipPath3); font-weight:bold; stroke:none;">Pattern
      </text>
    </g>
    <g>
      <line x1="10" x2="109" y1="47" style="clip-path:url(#clipPath2); fill:none;" y2="47" />
    </g>
    <g style="font-family:sans-serif;">
      <text x="16" y="68" style="clip-path:url(#clipPath5); stroke:none;">+int DEFAULT
      </text>
      <line x1="16" x2="96" y1="70" style="clip-path:url(#clipPath5); fill:none;" y2="70" />
      <text x="16" y="83" style="clip-path:url(#clipPath5); stroke:none;">+int DOTALL
      </text>
      <line x1="16" x2="90" y1="85" style="clip-path:url(#clipPath5); fill:none;" y2="85" />
      <text x="16" y="98" style="clip-path:url(#clipPath5); stroke:none;">+int MULTILINE
      </text>
      <line x1="16" x2="104" y1="100" style="clip-path:url(#clipPath5); fill:none;" y2="100" />
      <text x="16" y="113" style="clip-path:url(#clipPath5); stroke:none;">-int $flags
      </text>
    </g>
    <g>
      <line x1="10" x2="109" y1="123" style="clip-path:url(#clipPath2); fill:none;" y2="123" />
    </g>
    <g style="font-family:sans-serif;">
      <text x="16" y="144" style="clip-path:url(#clipPath7); stroke:none;">+Pattern
      </text>
      <text x="16" y="159" style="clip-path:url(#clipPath7); stroke:none;">+Pattern
      </text>
      <text x="16" y="174" style="clip-path:url(#clipPath7); stroke:none;">+String pattern
      </text>
      <text x="16" y="189" style="clip-path:url(#clipPath7); stroke:none;">+int flags
      </text>
    </g>
  </g>
</svg>
