<?xml version="1.0" encoding="UTF-8"?>

<!DOCTYPE svg PUBLIC '-//W3C//DTD SVG 20001102//EN' 'http://www.w3.org/TR/2000/CR-SVG-20001102/DTD/svg-20001102.dtd'>
<svg style="fill-opacity:1; color-interpolation:sRGB; color-rendering:auto; text-rendering:auto; stroke:black; stroke-linecap:square; stroke-miterlimit:10; stroke-opacity:1; shape-rendering:auto; fill:black; stroke-dasharray:none; font-weight:normal; stroke-width:1; font-family:&apos;Lucida Sans&apos;; font-style:normal; stroke-linejoin:miter; font-size:12; image-rendering:auto; stroke-dashoffset:0;" width="215" height="777">
  <!--Generated by the Batik Graphics2D SVG Generator-->
  <defs id="genericDefs" />
  <g>
    <defs id="defs1">
      <clipPath clipPathUnits="userSpaceOnUse" id="clipPath1">
        <path d="M0 0 L215 0 L215 777 L0 777 L0 0 Z" />
      </clipPath>
      <clipPath clipPathUnits="userSpaceOnUse" id="clipPath2">
        <path d="M36 20 L36 345 L202 345 L202 20 Z" />
      </clipPath>
      <clipPath clipPathUnits="userSpaceOnUse" id="clipPath3">
        <path d="M37 21 L37 44 L202 44 L202 21 Z" />
      </clipPath>
      <clipPath clipPathUnits="userSpaceOnUse" id="clipPath4">
        <path d="M36 69 L36 249 L202 249 L202 69 Z" />
      </clipPath>
      <clipPath clipPathUnits="userSpaceOnUse" id="clipPath5">
        <path d="M38 71 L38 248 L201 248 L201 71 Z" />
      </clipPath>
      <clipPath clipPathUnits="userSpaceOnUse" id="clipPath6">
        <path d="M36 261 L36 331 L202 331 L202 261 Z" />
      </clipPath>
      <clipPath clipPathUnits="userSpaceOnUse" id="clipPath7">
        <path d="M38 263 L38 330 L201 330 L201 263 Z" />
      </clipPath>
      <clipPath clipPathUnits="userSpaceOnUse" id="clipPath8">
        <path d="M36 330 L36 345 L202 345 L202 330 Z" />
      </clipPath>
      <clipPath clipPathUnits="userSpaceOnUse" id="clipPath9">
        <path d="M36 417 L36 764 L202 764 L202 417 Z" />
      </clipPath>
      <clipPath clipPathUnits="userSpaceOnUse" id="clipPath10">
        <path d="M37 418 L37 441 L202 441 L202 418 Z" />
      </clipPath>
      <clipPath clipPathUnits="userSpaceOnUse" id="clipPath11">
        <path d="M36 466 L36 690 L202 690 L202 466 Z" />
      </clipPath>
      <clipPath clipPathUnits="userSpaceOnUse" id="clipPath12">
        <path d="M38 468 L38 689 L201 689 L201 468 Z" />
      </clipPath>
      <clipPath clipPathUnits="userSpaceOnUse" id="clipPath13">
        <path d="M36 702 L36 750 L202 750 L202 702 Z" />
      </clipPath>
      <clipPath clipPathUnits="userSpaceOnUse" id="clipPath14">
        <path d="M38 704 L38 749 L201 749 L201 704 Z" />
      </clipPath>
      <clipPath clipPathUnits="userSpaceOnUse" id="clipPath15">
        <path d="M36 749 L36 764 L202 764 L202 749 Z" />
      </clipPath>
    </defs>
    <g style="fill:rgb(0,64,64); stroke:rgb(0,64,64);">
      <line x1="112" x2="112" y1="417" style="clip-path:url(#clipPath1); fill:none;" y2="347" />
      <polygon style="fill:white; clip-path:url(#clipPath1); stroke:none;" points=" 112 347 118 365 106 365" />
      <polygon style="fill:none; clip-path:url(#clipPath1);" points=" 112 347 118 365 106 365" />
      <line x1="106" x2="112" y1="365" style="clip-path:url(#clipPath1); fill:none;" y2="347" />
      <polygon style="fill:navy; clip-path:url(#clipPath1); stroke:none;" points=" 31 23 204 23 204 347 31 347 31 37 23 37 23 29 31 29 31 23" />
      <polygon style="fill:white; clip-path:url(#clipPath1); stroke:none;" points=" 28 20 201 20 201 344 28 344 28 34 20 34 20 26 28 26 28 20" />
      <polygon style="fill:none; clip-path:url(#clipPath1); stroke:black;" points=" 28 20 201 20 201 344 28 344 28 34 20 34 20 26 28 26 28 20" />
      <line x1="28" x2="36" y1="34" style="clip-path:url(#clipPath1); fill:none; stroke:black;" y2="34" />
      <line x1="36" x2="36" y1="34" style="clip-path:url(#clipPath1); fill:none; stroke:black;" y2="26" />
      <line x1="36" x2="28" y1="26" style="clip-path:url(#clipPath1); fill:none; stroke:black;" y2="26" />
    </g>
    <g style="font-style:italic; font-weight:bold; font-family:sans-serif;">
      <text x="89" y="38" style="clip-path:url(#clipPath3); stroke:none;">Relation
      </text>
    </g>
    <g>
      <line x1="36" x2="201" y1="49" style="clip-path:url(#clipPath2); fill:none;" y2="49" />
      <line x1="36" x2="201" y1="62" style="clip-path:url(#clipPath2); fill:none;" y2="62" />
    </g>
    <g style="font-family:sans-serif;">
      <text x="42" y="88" style="clip-path:url(#clipPath5); stroke:none;">+Relation
      </text>
      <text x="42" y="110" style="clip-path:url(#clipPath5); stroke:none;">+contains:boolean
      </text>
      <text x="42" y="132" style="clip-path:url(#clipPath5); stroke:none;">+equals:boolean
      </text>
      <text x="42" y="154" style="font-style:italic; clip-path:url(#clipPath5); stroke:none;">#register:void
      </text>
      <text x="42" y="176" style="font-style:italic; clip-path:url(#clipPath5); stroke:none;">#unregister:void
      </text>
      <text x="42" y="198" style="font-style:italic; clip-path:url(#clipPath5); stroke:none;">#isValidElement:boolean
      </text>
      <text x="42" y="220" style="font-style:italic; clip-path:url(#clipPath5); stroke:none;">+registered:boolean
      </text>
      <text x="42" y="242" style="font-style:italic; clip-path:url(#clipPath5); stroke:none;">+unregistered:boolean
      </text>
    </g>
    <g>
      <line x1="36" x2="201" y1="254" style="clip-path:url(#clipPath2); fill:none;" y2="254" />
    </g>
    <g style="font-family:sans-serif;">
      <text x="42" y="280" style="clip-path:url(#clipPath7); stroke:none;"> otherEnds:List
      </text>
      <text x="42" y="302" style="clip-path:url(#clipPath7); stroke:none;"> otherRelations:List
      </text>
      <text x="42" y="324" style="clip-path:url(#clipPath7); stroke:none;"> object:Object
      </text>
    </g>
    <g>
      <polygon style="fill:none; clip-path:url(#clipPath8);" points=" 194 335 195 335 195 333 196 332 196 332 197 333 197 335 198 335 198 338 194 338 194 335" />
      <line x1="194" x2="198" y1="335" style="clip-path:url(#clipPath8); fill:none;" y2="335" />
    </g>
    <g style="fill:navy; stroke:navy;">
      <polygon style="clip-path:url(#clipPath1); stroke:none;" points=" 31 420 204 420 204 766 31 766 31 434 23 434 23 426 31 426 31 420" />
      <polygon style="fill:white; clip-path:url(#clipPath1); stroke:none;" points=" 28 417 201 417 201 763 28 763 28 431 20 431 20 423 28 423 28 417" />
      <polygon style="fill:none; clip-path:url(#clipPath1); stroke:black;" points=" 28 417 201 417 201 763 28 763 28 431 20 431 20 423 28 423 28 417" />
      <line x1="28" x2="36" y1="431" style="clip-path:url(#clipPath1); fill:none; stroke:black;" y2="431" />
      <line x1="36" x2="36" y1="431" style="clip-path:url(#clipPath1); fill:none; stroke:black;" y2="423" />
      <line x1="36" x2="28" y1="423" style="clip-path:url(#clipPath1); fill:none; stroke:black;" y2="423" />
    </g>
    <g style="font-weight:bold; font-family:sans-serif;">
      <text x="73" y="435" style="clip-path:url(#clipPath10); stroke:none;">ReferenceSet
      </text>
    </g>
    <g>
      <line x1="36" x2="201" y1="446" style="clip-path:url(#clipPath9); fill:none;" y2="446" />
      <line x1="36" x2="201" y1="459" style="clip-path:url(#clipPath9); fill:none;" y2="459" />
    </g>
    <g style="font-family:sans-serif;">
      <text x="42" y="485" style="clip-path:url(#clipPath12); stroke:none;">+ReferenceSet
      </text>
      <text x="42" y="507" style="clip-path:url(#clipPath12); stroke:none;">+remove:void
      </text>
      <text x="42" y="529" style="clip-path:url(#clipPath12); stroke:none;">+add:void
      </text>
      <text x="42" y="551" style="clip-path:url(#clipPath12); stroke:none;">#unregister:void
      </text>
      <text x="42" y="573" style="clip-path:url(#clipPath12); stroke:none;">#register:void
      </text>
      <text x="42" y="595" style="clip-path:url(#clipPath12); stroke:none;">+registered:boolean
      </text>
      <text x="42" y="617" style="clip-path:url(#clipPath12); stroke:none;">+unregistered:boolean
      </text>
      <text x="42" y="639" style="clip-path:url(#clipPath12); stroke:none;">#isValidElement:boolean
      </text>
      <text x="42" y="661" style="clip-path:url(#clipPath12); stroke:none;">+size:int
      </text>
      <text x="42" y="683" style="clip-path:url(#clipPath12); stroke:none;">+contains:boolean
      </text>
    </g>
    <g>
      <line x1="36" x2="201" y1="695" style="clip-path:url(#clipPath9); fill:none;" y2="695" />
    </g>
    <g style="font-family:sans-serif;">
      <text x="42" y="721" style="clip-path:url(#clipPath14); stroke:none;"> otherEnds:List
      </text>
      <text x="42" y="743" style="clip-path:url(#clipPath14); stroke:none;"> otherRelations:List
      </text>
    </g>
    <g>
      <polygon style="fill:none; clip-path:url(#clipPath15);" points=" 194 754 195 754 195 752 196 751 196 751 197 752 197 754 198 754 198 757 194 757 194 754" />
      <line x1="194" x2="198" y1="754" style="clip-path:url(#clipPath15); fill:none;" y2="754" />
    </g>
  </g>
</svg>
