<?xml version="1.0" encoding="UTF-8"?>

<!DOCTYPE svg PUBLIC '-//W3C//DTD SVG 20001102//EN' 'http://www.w3.org/TR/2000/CR-SVG-20001102/DTD/svg-20001102.dtd'>
<svg style="fill-opacity:1; color-interpolation:sRGB; color-rendering:auto; text-rendering:auto; stroke:black; stroke-linecap:square; stroke-miterlimit:10; stroke-opacity:1; shape-rendering:auto; fill:black; stroke-dasharray:none; font-weight:normal; stroke-width:1; font-family:&apos;Lucida Sans&apos;; font-style:normal; stroke-linejoin:miter; font-size:12; image-rendering:auto; stroke-dashoffset:0;" width="419" height="802">
  <!--Generated by the Batik Graphics2D SVG Generator-->
  <defs id="genericDefs" />
  <g>
    <defs id="defs1">
      <clipPath clipPathUnits="userSpaceOnUse" id="clipPath1">
        <path d="M0 0 L419 0 L419 802 L0 802 L0 0 Z" />
      </clipPath>
      <clipPath clipPathUnits="userSpaceOnUse" id="clipPath2">
        <path d="M240 442 L240 789 L406 789 L406 442 Z" />
      </clipPath>
      <clipPath clipPathUnits="userSpaceOnUse" id="clipPath3">
        <path d="M241 443 L241 466 L406 466 L406 443 Z" />
      </clipPath>
      <clipPath clipPathUnits="userSpaceOnUse" id="clipPath4">
        <path d="M240 491 L240 671 L406 671 L406 491 Z" />
      </clipPath>
      <clipPath clipPathUnits="userSpaceOnUse" id="clipPath5">
        <path d="M242 493 L242 670 L405 670 L405 493 Z" />
      </clipPath>
      <clipPath clipPathUnits="userSpaceOnUse" id="clipPath6">
        <path d="M240 683 L240 775 L406 775 L406 683 Z" />
      </clipPath>
      <clipPath clipPathUnits="userSpaceOnUse" id="clipPath7">
        <path d="M242 685 L242 774 L405 774 L405 685 Z" />
      </clipPath>
      <clipPath clipPathUnits="userSpaceOnUse" id="clipPath8">
        <path d="M240 774 L240 789 L406 789 L406 774 Z" />
      </clipPath>
      <clipPath clipPathUnits="userSpaceOnUse" id="clipPath9">
        <path d="M138 20 L138 345 L304 345 L304 20 Z" />
      </clipPath>
      <clipPath clipPathUnits="userSpaceOnUse" id="clipPath10">
        <path d="M139 21 L139 44 L304 44 L304 21 Z" />
      </clipPath>
      <clipPath clipPathUnits="userSpaceOnUse" id="clipPath11">
        <path d="M138 69 L138 249 L304 249 L304 69 Z" />
      </clipPath>
      <clipPath clipPathUnits="userSpaceOnUse" id="clipPath12">
        <path d="M140 71 L140 248 L303 248 L303 71 Z" />
      </clipPath>
      <clipPath clipPathUnits="userSpaceOnUse" id="clipPath13">
        <path d="M138 261 L138 331 L304 331 L304 261 Z" />
      </clipPath>
      <clipPath clipPathUnits="userSpaceOnUse" id="clipPath14">
        <path d="M140 263 L140 330 L303 330 L303 263 Z" />
      </clipPath>
      <clipPath clipPathUnits="userSpaceOnUse" id="clipPath15">
        <path d="M138 330 L138 345 L304 345 L304 330 Z" />
      </clipPath>
      <clipPath clipPathUnits="userSpaceOnUse" id="clipPath16">
        <path d="M36 442 L36 789 L202 789 L202 442 Z" />
      </clipPath>
      <clipPath clipPathUnits="userSpaceOnUse" id="clipPath17">
        <path d="M37 443 L37 466 L202 466 L202 443 Z" />
      </clipPath>
      <clipPath clipPathUnits="userSpaceOnUse" id="clipPath18">
        <path d="M36 491 L36 715 L202 715 L202 491 Z" />
      </clipPath>
      <clipPath clipPathUnits="userSpaceOnUse" id="clipPath19">
        <path d="M38 493 L38 714 L201 714 L201 493 Z" />
      </clipPath>
      <clipPath clipPathUnits="userSpaceOnUse" id="clipPath20">
        <path d="M36 727 L36 775 L202 775 L202 727 Z" />
      </clipPath>
      <clipPath clipPathUnits="userSpaceOnUse" id="clipPath21">
        <path d="M38 729 L38 774 L201 774 L201 729 Z" />
      </clipPath>
      <clipPath clipPathUnits="userSpaceOnUse" id="clipPath22">
        <path d="M36 774 L36 789 L202 789 L202 774 Z" />
      </clipPath>
    </defs>
    <g style="fill:rgb(0,64,64); stroke:rgb(0,64,64);">
      <line x1="316" x2="316" y1="442" style="clip-path:url(#clipPath1); fill:none;" y2="407" />
      <line x1="316" x2="214" y1="407" style="clip-path:url(#clipPath1); fill:none;" y2="407" />
      <line x1="214" x2="214" y1="407" style="clip-path:url(#clipPath1); fill:none;" y2="347" />
      <line x1="112" x2="112" y1="442" style="clip-path:url(#clipPath1); fill:none;" y2="407" />
      <line x1="112" x2="214" y1="407" style="clip-path:url(#clipPath1); fill:none;" y2="407" />
      <line x1="214" x2="214" y1="407" style="clip-path:url(#clipPath1); fill:none;" y2="347" />
      <polygon style="fill:white; clip-path:url(#clipPath1); stroke:none;" points=" 214 347 220 365 208 365" />
      <polygon style="fill:none; clip-path:url(#clipPath1);" points=" 214 347 220 365 208 365" />
      <line x1="208" x2="214" y1="365" style="clip-path:url(#clipPath1); fill:none;" y2="347" />
      <polygon style="fill:white; clip-path:url(#clipPath1); stroke:none;" points=" 214 347 220 365 208 365" />
      <polygon style="fill:none; clip-path:url(#clipPath1);" points=" 214 347 220 365 208 365" />
      <line x1="208" x2="214" y1="365" style="clip-path:url(#clipPath1); fill:none;" y2="347" />
      <polygon style="fill:navy; clip-path:url(#clipPath1); stroke:none;" points=" 235 445 408 445 408 791 235 791 235 459 227 459 227 451 235 451 235 445" />
      <polygon style="fill:white; clip-path:url(#clipPath1); stroke:none;" points=" 232 442 405 442 405 788 232 788 232 456 224 456 224 448 232 448 232 442" />
      <polygon style="fill:none; clip-path:url(#clipPath1); stroke:black;" points=" 232 442 405 442 405 788 232 788 232 456 224 456 224 448 232 448 232 442" />
      <line x1="232" x2="240" y1="456" style="clip-path:url(#clipPath1); fill:none; stroke:black;" y2="456" />
      <line x1="240" x2="240" y1="456" style="clip-path:url(#clipPath1); fill:none; stroke:black;" y2="448" />
      <line x1="240" x2="232" y1="448" style="clip-path:url(#clipPath1); fill:none; stroke:black;" y2="448" />
    </g>
    <g style="font-weight:bold; font-family:sans-serif;">
      <text x="288" y="460" style="clip-path:url(#clipPath3); stroke:none;">Reference
      </text>
    </g>
    <g>
      <line x1="240" x2="405" y1="471" style="clip-path:url(#clipPath2); fill:none;" y2="471" />
      <line x1="240" x2="405" y1="484" style="clip-path:url(#clipPath2); fill:none;" y2="484" />
    </g>
    <g style="font-family:sans-serif;">
      <text x="246" y="510" style="clip-path:url(#clipPath5); stroke:none;">+Reference
      </text>
      <text x="246" y="532" style="clip-path:url(#clipPath5); stroke:none;">+Reference
      </text>
      <text x="246" y="554" style="clip-path:url(#clipPath5); stroke:none;">+connectTo:void
      </text>
      <text x="246" y="576" style="clip-path:url(#clipPath5); stroke:none;">+registered:boolean
      </text>
      <text x="246" y="598" style="clip-path:url(#clipPath5); stroke:none;">+unregistered:boolean
      </text>
      <text x="246" y="620" style="clip-path:url(#clipPath5); stroke:none;">#isValidElement:boolean
      </text>
      <text x="246" y="642" style="clip-path:url(#clipPath5); stroke:none;">#unregister:void
      </text>
      <text x="246" y="664" style="clip-path:url(#clipPath5); stroke:none;">#register:void
      </text>
    </g>
    <g>
      <line x1="240" x2="405" y1="676" style="clip-path:url(#clipPath2); fill:none;" y2="676" />
    </g>
    <g style="font-family:sans-serif;">
      <text x="246" y="702" style="clip-path:url(#clipPath7); stroke:none;"> otherEnd:Object
      </text>
      <text x="246" y="724" style="clip-path:url(#clipPath7); stroke:none;"> otherEnds:List
      </text>
      <text x="246" y="746" style="clip-path:url(#clipPath7); stroke:none;"> otherRelation:Relation
      </text>
      <text x="246" y="768" style="clip-path:url(#clipPath7); stroke:none;"> otherRelations:List
      </text>
    </g>
    <g>
      <polygon style="fill:none; clip-path:url(#clipPath8);" points=" 398 779 399 779 399 777 400 776 400 776 401 777 401 779 402 779 402 782 398 782 398 779" />
      <line x1="398" x2="402" y1="779" style="clip-path:url(#clipPath8); fill:none;" y2="779" />
    </g>
    <g style="fill:navy; stroke:navy;">
      <polygon style="clip-path:url(#clipPath1); stroke:none;" points=" 133 23 306 23 306 347 133 347 133 37 125 37 125 29 133 29 133 23" />
      <polygon style="fill:white; clip-path:url(#clipPath1); stroke:none;" points=" 130 20 303 20 303 344 130 344 130 34 122 34 122 26 130 26 130 20" />
      <polygon style="fill:none; clip-path:url(#clipPath1); stroke:black;" points=" 130 20 303 20 303 344 130 344 130 34 122 34 122 26 130 26 130 20" />
      <line x1="130" x2="138" y1="34" style="clip-path:url(#clipPath1); fill:none; stroke:black;" y2="34" />
      <line x1="138" x2="138" y1="34" style="clip-path:url(#clipPath1); fill:none; stroke:black;" y2="26" />
      <line x1="138" x2="130" y1="26" style="clip-path:url(#clipPath1); fill:none; stroke:black;" y2="26" />
    </g>
    <g style="font-style:italic; font-weight:bold; font-family:sans-serif;">
      <text x="191" y="38" style="clip-path:url(#clipPath10); stroke:none;">Relation
      </text>
    </g>
    <g>
      <line x1="138" x2="303" y1="49" style="clip-path:url(#clipPath9); fill:none;" y2="49" />
      <line x1="138" x2="303" y1="62" style="clip-path:url(#clipPath9); fill:none;" y2="62" />
    </g>
    <g style="font-family:sans-serif;">
      <text x="144" y="88" style="clip-path:url(#clipPath12); stroke:none;">+Relation
      </text>
      <text x="144" y="110" style="clip-path:url(#clipPath12); stroke:none;">+contains:boolean
      </text>
      <text x="144" y="132" style="clip-path:url(#clipPath12); stroke:none;">+equals:boolean
      </text>
      <text x="144" y="154" style="font-style:italic; clip-path:url(#clipPath12); stroke:none;">#register:void
      </text>
      <text x="144" y="176" style="font-style:italic; clip-path:url(#clipPath12); stroke:none;">#unregister:void
      </text>
      <text x="144" y="198" style="font-style:italic; clip-path:url(#clipPath12); stroke:none;">#isValidElement:boolean
      </text>
      <text x="144" y="220" style="font-style:italic; clip-path:url(#clipPath12); stroke:none;">+registered:boolean
      </text>
      <text x="144" y="242" style="font-style:italic; clip-path:url(#clipPath12); stroke:none;">+unregistered:boolean
      </text>
    </g>
    <g>
      <line x1="138" x2="303" y1="254" style="clip-path:url(#clipPath9); fill:none;" y2="254" />
    </g>
    <g style="font-family:sans-serif;">
      <text x="144" y="280" style="clip-path:url(#clipPath14); stroke:none;"> otherEnds:List
      </text>
      <text x="144" y="302" style="clip-path:url(#clipPath14); stroke:none;"> otherRelations:List
      </text>
      <text x="144" y="324" style="clip-path:url(#clipPath14); stroke:none;"> object:Object
      </text>
    </g>
    <g>
      <polygon style="fill:none; clip-path:url(#clipPath15);" points=" 296 335 297 335 297 333 298 332 298 332 299 333 299 335 300 335 300 338 296 338 296 335" />
      <line x1="296" x2="300" y1="335" style="clip-path:url(#clipPath15); fill:none;" y2="335" />
    </g>
    <g style="fill:navy; stroke:navy;">
      <polygon style="clip-path:url(#clipPath1); stroke:none;" points=" 31 445 204 445 204 791 31 791 31 459 23 459 23 451 31 451 31 445" />
      <polygon style="fill:white; clip-path:url(#clipPath1); stroke:none;" points=" 28 442 201 442 201 788 28 788 28 456 20 456 20 448 28 448 28 442" />
      <polygon style="fill:none; clip-path:url(#clipPath1); stroke:black;" points=" 28 442 201 442 201 788 28 788 28 456 20 456 20 448 28 448 28 442" />
      <line x1="28" x2="36" y1="456" style="clip-path:url(#clipPath1); fill:none; stroke:black;" y2="456" />
      <line x1="36" x2="36" y1="456" style="clip-path:url(#clipPath1); fill:none; stroke:black;" y2="448" />
      <line x1="36" x2="28" y1="448" style="clip-path:url(#clipPath1); fill:none; stroke:black;" y2="448" />
    </g>
    <g style="font-weight:bold; font-family:sans-serif;">
      <text x="73" y="460" style="clip-path:url(#clipPath17); stroke:none;">ReferenceSet
      </text>
    </g>
    <g>
      <line x1="36" x2="201" y1="471" style="clip-path:url(#clipPath16); fill:none;" y2="471" />
      <line x1="36" x2="201" y1="484" style="clip-path:url(#clipPath16); fill:none;" y2="484" />
    </g>
    <g style="font-family:sans-serif;">
      <text x="42" y="510" style="clip-path:url(#clipPath19); stroke:none;">+ReferenceSet
      </text>
      <text x="42" y="532" style="clip-path:url(#clipPath19); stroke:none;">+remove:void
      </text>
      <text x="42" y="554" style="clip-path:url(#clipPath19); stroke:none;">+add:void
      </text>
      <text x="42" y="576" style="clip-path:url(#clipPath19); stroke:none;">#unregister:void
      </text>
      <text x="42" y="598" style="clip-path:url(#clipPath19); stroke:none;">#register:void
      </text>
      <text x="42" y="620" style="clip-path:url(#clipPath19); stroke:none;">+registered:boolean
      </text>
      <text x="42" y="642" style="clip-path:url(#clipPath19); stroke:none;">+unregistered:boolean
      </text>
      <text x="42" y="664" style="clip-path:url(#clipPath19); stroke:none;">#isValidElement:boolean
      </text>
      <text x="42" y="686" style="clip-path:url(#clipPath19); stroke:none;">+size:int
      </text>
      <text x="42" y="708" style="clip-path:url(#clipPath19); stroke:none;">+contains:boolean
      </text>
    </g>
    <g>
      <line x1="36" x2="201" y1="720" style="clip-path:url(#clipPath16); fill:none;" y2="720" />
    </g>
    <g style="font-family:sans-serif;">
      <text x="42" y="746" style="clip-path:url(#clipPath21); stroke:none;"> otherEnds:List
      </text>
      <text x="42" y="768" style="clip-path:url(#clipPath21); stroke:none;"> otherRelations:List
      </text>
    </g>
    <g>
      <polygon style="fill:none; clip-path:url(#clipPath22);" points=" 194 779 195 779 195 777 196 776 196 776 197 777 197 779 198 779 198 782 194 782 194 779" />
      <line x1="194" x2="198" y1="779" style="clip-path:url(#clipPath22); fill:none;" y2="779" />
    </g>
  </g>
</svg>
