<?xml version="1.0" encoding="UTF-8"?>

<!DOCTYPE svg PUBLIC '-//W3C//DTD SVG 20001102//EN' 'http://www.w3.org/TR/2000/CR-SVG-20001102/DTD/svg-20001102.dtd'>
<svg style="fill-opacity:1; color-interpolation:sRGB; color-rendering:auto; text-rendering:auto; stroke:black; stroke-linecap:square; stroke-miterlimit:10; stroke-opacity:1; shape-rendering:auto; fill:black; stroke-dasharray:none; font-weight:normal; stroke-width:1; font-family:&apos;Lucida Sans&apos;; font-style:normal; stroke-linejoin:miter; font-size:12; image-rendering:auto; stroke-dashoffset:0;" width="225" height="565">
  <!--Generated by the Batik Graphics2D SVG Generator-->
  <defs id="genericDefs" />
  <g>
    <defs id="defs1">
      <clipPath clipPathUnits="userSpaceOnUse" id="clipPath1">
        <path d="M0 0 L225 0 L225 565 L0 565 L0 0 Z" />
      </clipPath>
      <clipPath clipPathUnits="userSpaceOnUse" id="clipPath2">
        <path d="M20 190 L20 329 L212 329 L212 190 Z" />
      </clipPath>
      <clipPath clipPathUnits="userSpaceOnUse" id="clipPath3">
        <path d="M21 191 L21 214 L212 214 L212 191 Z" />
      </clipPath>
      <clipPath clipPathUnits="userSpaceOnUse" id="clipPath4">
        <path d="M20 249 L20 319 L212 319 L212 249 Z" />
      </clipPath>
      <clipPath clipPathUnits="userSpaceOnUse" id="clipPath5">
        <path d="M22 251 L22 318 L211 318 L211 251 Z" />
      </clipPath>
      <clipPath clipPathUnits="userSpaceOnUse" id="clipPath6">
        <path d="M43 20 L43 128 L188 128 L188 20 Z" />
      </clipPath>
      <clipPath clipPathUnits="userSpaceOnUse" id="clipPath7">
        <path d="M44 21 L44 66 L188 66 L188 21 Z" />
      </clipPath>
      <clipPath clipPathUnits="userSpaceOnUse" id="clipPath8">
        <path d="M20 391 L20 552 L212 552 L212 391 Z" />
      </clipPath>
      <clipPath clipPathUnits="userSpaceOnUse" id="clipPath9">
        <path d="M21 392 L21 415 L212 415 L212 392 Z" />
      </clipPath>
      <clipPath clipPathUnits="userSpaceOnUse" id="clipPath10">
        <path d="M20 450 L20 542 L212 542 L212 450 Z" />
      </clipPath>
      <clipPath clipPathUnits="userSpaceOnUse" id="clipPath11">
        <path d="M22 452 L22 541 L211 541 L211 452 Z" />
      </clipPath>
    </defs>
    <g style="fill:rgb(0,64,64); stroke:rgb(0,64,64);">
      <line x1="117" x2="117" y1="391" style="clip-path:url(#clipPath1); fill:none;" y2="331" />
      <line x1="116" x2="116" y1="190" style="clip-path:url(#clipPath1); fill:none; stroke:teal;" y2="190" />
      <line x1="116" x2="116" y1="185" style="clip-path:url(#clipPath1); fill:none; stroke:teal;" y2="175" />
      <line x1="116" x2="116" y1="170" style="clip-path:url(#clipPath1); fill:none; stroke:teal;" y2="160" />
      <line x1="116" x2="116" y1="155" style="clip-path:url(#clipPath1); fill:none; stroke:teal;" y2="145" />
      <line x1="116" x2="116" y1="140" style="clip-path:url(#clipPath1); fill:none; stroke:teal;" y2="130" />
      <polygon style="fill:white; clip-path:url(#clipPath1); stroke:none;" points=" 117 331 123 349 111 349" />
      <polygon style="fill:none; clip-path:url(#clipPath1);" points=" 117 331 123 349 111 349" />
      <line x1="111" x2="117" y1="349" style="clip-path:url(#clipPath1); fill:none;" y2="331" />
      <polygon style="fill:white; clip-path:url(#clipPath1); stroke:none;" points=" 116 130 122 148 110 148" />
      <polygon style="fill:none; clip-path:url(#clipPath1); stroke:teal;" points=" 116 130 122 148 110 148" />
      <line x1="110" x2="116" y1="148" style="clip-path:url(#clipPath1); fill:none; stroke:teal;" y2="130" />
      <rect x="23" y="193" width="191" style="clip-path:url(#clipPath1); fill:navy; stroke:none;" height="138" />
      <rect x="20" y="190" width="191" style="clip-path:url(#clipPath1); fill:white; stroke:none;" height="138" />
      <rect x="20" y="190" width="191" style="clip-path:url(#clipPath1); fill:none; stroke:black;" height="138" />
    </g>
    <g style="font-style:italic; font-weight:bold; font-family:sans-serif;">
      <text x="43" y="208" style="clip-path:url(#clipPath3); stroke:none;">BooleanAccumulator
      </text>
    </g>
    <g>
      <line x1="20" x2="211" y1="219" style="clip-path:url(#clipPath2); fill:none;" y2="219" />
      <line x1="20" x2="211" y1="242" style="clip-path:url(#clipPath2); fill:none;" y2="242" />
    </g>
    <g style="font-family:sans-serif; font-style:italic;">
      <text x="26" y="268" style="clip-path:url(#clipPath5); stroke:none;">+boolean initialAccumulator
      </text>
      <text x="26" y="290" style="clip-path:url(#clipPath5); stroke:none;">+boolean accumulate
      </text>
      <text x="26" y="312" style="font-style:normal; clip-path:url(#clipPath5); stroke:none;">+boolean in
      </text>
    </g>
    <g style="fill:navy; stroke:navy;">
      <rect x="46" y="23" width="144" style="clip-path:url(#clipPath1); stroke:none;" height="107" />
      <rect x="43" y="20" width="144" style="clip-path:url(#clipPath1); fill:white; stroke:none;" height="107" />
      <rect x="43" y="20" width="144" style="clip-path:url(#clipPath1); fill:none; stroke:black;" height="107" />
    </g>
    <g style="font-family:sans-serif;">
      <text x="88" y="38" style="clip-path:url(#clipPath7); stroke:none;">interface
      </text>
      <text x="48" y="60" style="clip-path:url(#clipPath7); font-style:italic; stroke:none; font-weight:bold;">CollectionOperator
      </text>
    </g>
    <g>
      <line x1="43" x2="187" y1="71" style="clip-path:url(#clipPath6); fill:none;" y2="71" />
      <line x1="43" x2="187" y1="94" style="clip-path:url(#clipPath6); fill:none;" y2="94" />
    </g>
    <g style="fill:navy; stroke:navy;">
      <rect x="23" y="394" width="191" style="clip-path:url(#clipPath1); stroke:none;" height="160" />
      <rect x="20" y="391" width="191" style="clip-path:url(#clipPath1); fill:white; stroke:none;" height="160" />
      <rect x="20" y="391" width="191" style="clip-path:url(#clipPath1); fill:none; stroke:black;" height="160" />
    </g>
    <g style="font-style:italic; font-weight:bold; font-family:sans-serif;">
      <text x="94" y="409" style="clip-path:url(#clipPath9); stroke:none;">Exists
      </text>
    </g>
    <g>
      <line x1="20" x2="211" y1="420" style="clip-path:url(#clipPath8); fill:none;" y2="420" />
      <line x1="20" x2="211" y1="443" style="clip-path:url(#clipPath8); fill:none;" y2="443" />
    </g>
    <g style="font-family:sans-serif; font-style:italic;">
      <text x="26" y="469" style="clip-path:url(#clipPath11); stroke:none;">+boolean criterion
      </text>
      <text x="26" y="491" style="font-style:normal; clip-path:url(#clipPath11); stroke:none;">+boolean initialAccumulator
      </text>
      <text x="26" y="513" style="font-style:normal; clip-path:url(#clipPath11); stroke:none;">+boolean accumulate
      </text>
      <text x="26" y="535" style="font-style:normal; clip-path:url(#clipPath11); stroke:none;">+boolean in
      </text>
    </g>
  </g>
</svg>
