<?xml version="1.0" encoding="UTF-8"?>

<!DOCTYPE svg PUBLIC '-//W3C//DTD SVG 20001102//EN' 'http://www.w3.org/TR/2000/CR-SVG-20001102/DTD/svg-20001102.dtd'>
<svg style="fill-opacity:1; color-rendering:auto; color-interpolation:sRGB; text-rendering:auto; stroke:black; stroke-linecap:square; stroke-miterlimit:10; shape-rendering:auto; stroke-opacity:1; fill:black; stroke-dasharray:none; font-weight:normal; stroke-width:1; font-family:&apos;sansserif&apos;; font-style:normal; stroke-linejoin:miter; font-size:12; stroke-dashoffset:0; image-rendering:auto;" width="141" height="240">
  <!--Generated by the Batik Graphics2D SVG Generator-->
  <defs id="genericDefs" />
  <g>
    <defs id="defs1">
      <clipPath clipPathUnits="userSpaceOnUse" id="clipPath1">
        <path d="M0 0 L141 0 L141 240 L0 240 L0 0 Z" />
      </clipPath>
      <clipPath clipPathUnits="userSpaceOnUse" id="clipPath2">
        <path d="M26 10 L26 227 L128 227 L128 10 Z" />
      </clipPath>
      <clipPath clipPathUnits="userSpaceOnUse" id="clipPath3">
        <path d="M27 11 L27 51 L128 51 L128 11 Z" />
      </clipPath>
      <clipPath clipPathUnits="userSpaceOnUse" id="clipPath4">
        <path d="M26 86 L26 186 L128 186 L128 86 Z" />
      </clipPath>
      <clipPath clipPathUnits="userSpaceOnUse" id="clipPath5">
        <path d="M28 88 L28 185 L127 185 L127 88 Z" />
      </clipPath>
      <clipPath clipPathUnits="userSpaceOnUse" id="clipPath6">
        <path d="M26 198 L26 217 L128 217 L128 198 Z" />
      </clipPath>
      <clipPath clipPathUnits="userSpaceOnUse" id="clipPath7">
        <path d="M28 200 L28 216 L127 216 L127 200 Z" />
      </clipPath>
    </defs>
    <g style="fill:navy; stroke:navy;">
      <polygon style="clip-path:url(#clipPath1); stroke:none;" points=" 21 13 130 13 130 229 21 229 21 27 13 27 13 19 21 19 21 13" />
      <polygon style="fill:white; clip-path:url(#clipPath1); stroke:none;" points=" 18 10 127 10 127 226 18 226 18 24 10 24 10 16 18 16 18 10" />
      <polygon style="fill:none; clip-path:url(#clipPath1); stroke:black;" points=" 18 10 127 10 127 226 18 226 18 24 10 24 10 16 18 16 18 10" />
      <line x1="18" x2="26" y1="24" style="clip-path:url(#clipPath1); fill:none; stroke:black;" y2="24" />
      <line x1="26" x2="26" y1="24" style="clip-path:url(#clipPath1); fill:none; stroke:black;" y2="16" />
      <line x1="26" x2="18" y1="16" style="clip-path:url(#clipPath1); fill:none; stroke:black;" y2="16" />
    </g>
    <g style="font-family:sans-serif;">
      <text x="52" y="23" style="clip-path:url(#clipPath3); stroke:none;">interface
      </text>
      <text x="65" y="40" style="clip-path:url(#clipPath3); font-style:italic; stroke:none; font-weight:bold;">Fifo
      </text>
    </g>
    <g>
      <line x1="26" x2="127" y1="56" style="clip-path:url(#clipPath2); fill:none;" y2="56" />
      <line x1="26" x2="127" y1="79" style="clip-path:url(#clipPath2); fill:none;" y2="79" />
    </g>
    <g style="font-family:sans-serif; font-style:italic;">
      <text x="32" y="103" style="clip-path:url(#clipPath5); stroke:none;">+void push
      </text>
      <text x="32" y="127" style="clip-path:url(#clipPath5); stroke:none;">+Object pop
      </text>
      <text x="32" y="151" style="clip-path:url(#clipPath5); stroke:none;">+void clear
      </text>
      <text x="32" y="175" style="clip-path:url(#clipPath5); stroke:none;">+int size
      </text>
    </g>
    <g>
      <line x1="26" x2="127" y1="191" style="clip-path:url(#clipPath2); fill:none;" y2="191" />
    </g>
    <g style="font-family:sans-serif;">
      <text x="32" y="212" style="clip-path:url(#clipPath7); stroke:none;"> boolean empty
      </text>
    </g>
  </g>
</svg>
