<?xml version="1.0" encoding="UTF-8"?>

<!DOCTYPE svg PUBLIC '-//W3C//DTD SVG 20001102//EN' 'http://www.w3.org/TR/2000/CR-SVG-20001102/DTD/svg-20001102.dtd'>
<svg style="fill-opacity:1; color-interpolation:sRGB; color-rendering:auto; text-rendering:auto; stroke:black; stroke-linecap:square; stroke-miterlimit:10; stroke-opacity:1; shape-rendering:auto; fill:black; stroke-dasharray:none; font-weight:normal; stroke-width:1; font-family:&apos;Lucida Sans&apos;; font-style:normal; stroke-linejoin:miter; font-size:12; image-rendering:auto; stroke-dashoffset:0;" width="178" height="446">
  <!--Generated by the Batik Graphics2D SVG Generator-->
  <defs id="genericDefs" />
  <g>
    <defs id="defs1">
      <clipPath clipPathUnits="userSpaceOnUse" id="clipPath1">
        <path d="M0 0 L178 0 L178 446 L0 446 L0 0 Z" />
      </clipPath>
      <clipPath clipPathUnits="userSpaceOnUse" id="clipPath2">
        <path d="M22 190 L22 433 L162 433 L162 190 Z" />
      </clipPath>
      <clipPath clipPathUnits="userSpaceOnUse" id="clipPath3">
        <path d="M23 191 L23 214 L162 214 L162 191 Z" />
      </clipPath>
      <clipPath clipPathUnits="userSpaceOnUse" id="clipPath4">
        <path d="M22 249 L22 385 L162 385 L162 249 Z" />
      </clipPath>
      <clipPath clipPathUnits="userSpaceOnUse" id="clipPath5">
        <path d="M24 251 L24 384 L161 384 L161 251 Z" />
      </clipPath>
      <clipPath clipPathUnits="userSpaceOnUse" id="clipPath6">
        <path d="M22 397 L22 423 L162 423 L162 397 Z" />
      </clipPath>
      <clipPath clipPathUnits="userSpaceOnUse" id="clipPath7">
        <path d="M24 399 L24 422 L161 422 L161 399 Z" />
      </clipPath>
      <clipPath clipPathUnits="userSpaceOnUse" id="clipPath8">
        <path d="M22 422 L22 433 L162 433 L162 422 Z" />
      </clipPath>
      <clipPath clipPathUnits="userSpaceOnUse" id="clipPath9">
        <path d="M20 20 L20 128 L165 128 L165 20 Z" />
      </clipPath>
      <clipPath clipPathUnits="userSpaceOnUse" id="clipPath10">
        <path d="M21 21 L21 66 L165 66 L165 21 Z" />
      </clipPath>
      <clipPath clipPathUnits="userSpaceOnUse" id="clipPath11">
        <path d="M20 117 L20 128 L165 128 L165 117 Z" />
      </clipPath>
    </defs>
    <g style="fill:teal; stroke:teal;">
      <line x1="93" x2="93" y1="190" style="clip-path:url(#clipPath1); fill:none;" y2="190" />
      <line x1="93" x2="93" y1="185" style="clip-path:url(#clipPath1); fill:none;" y2="175" />
      <line x1="93" x2="93" y1="170" style="clip-path:url(#clipPath1); fill:none;" y2="160" />
      <line x1="93" x2="93" y1="155" style="clip-path:url(#clipPath1); fill:none;" y2="145" />
      <line x1="93" x2="93" y1="140" style="clip-path:url(#clipPath1); fill:none;" y2="130" />
      <polygon style="fill:white; clip-path:url(#clipPath1); stroke:none;" points=" 93 130 99 148 87 148" />
      <polygon style="fill:none; clip-path:url(#clipPath1);" points=" 93 130 99 148 87 148" />
      <line x1="87" x2="93" y1="148" style="clip-path:url(#clipPath1); fill:none;" y2="130" />
      <rect x="25" y="193" width="139" style="clip-path:url(#clipPath1); fill:navy; stroke:none;" height="242" />
      <rect x="22" y="190" width="139" style="clip-path:url(#clipPath1); fill:white; stroke:none;" height="242" />
      <rect x="22" y="190" width="139" style="clip-path:url(#clipPath1); fill:none; stroke:black;" height="242" />
    </g>
    <g style="font-style:italic; font-weight:bold; font-family:sans-serif;">
      <text x="43" y="208" style="clip-path:url(#clipPath3); stroke:none;">RobustVisitor
      </text>
    </g>
    <g>
      <line x1="22" x2="161" y1="219" style="clip-path:url(#clipPath2); fill:none;" y2="219" />
      <line x1="22" x2="161" y1="242" style="clip-path:url(#clipPath2); fill:none;" y2="242" />
    </g>
    <g style="font-family:sans-serif; font-style:italic;">
      <text x="28" y="268" style="clip-path:url(#clipPath5); stroke:none;">+Object visit
      </text>
      <text x="28" y="290" style="clip-path:url(#clipPath5); stroke:none;">+void unvisit
      </text>
      <text x="28" y="312" style="font-style:normal; clip-path:url(#clipPath5); stroke:none;">+Collection applyTo
      </text>
      <text x="28" y="334" style="font-style:normal; clip-path:url(#clipPath5); stroke:none;">+Object[] applyTo
      </text>
      <text x="28" y="356" style="font-style:normal; clip-path:url(#clipPath5); stroke:none;">+void applyTo
      </text>
      <text x="28" y="378" style="font-style:normal; clip-path:url(#clipPath5); stroke:none;">+void applyTo
      </text>
    </g>
    <g>
      <line x1="22" x2="161" y1="390" style="clip-path:url(#clipPath2); fill:none;" y2="390" />
    </g>
    <g style="font-family:sans-serif;">
      <text x="28" y="416" style="clip-path:url(#clipPath7); stroke:none;"> Entry
      </text>
    </g>
    <g>
      <polygon style="fill:none; clip-path:url(#clipPath8);" points=" 154 427 155 427 155 425 156 424 156 424 157 425 157 427 158 427 158 430 154 430 154 427" />
      <line x1="154" x2="158" y1="427" style="clip-path:url(#clipPath8); fill:none;" y2="427" />
    </g>
    <g style="fill:navy; stroke:navy;">
      <rect x="23" y="23" width="144" style="clip-path:url(#clipPath1); stroke:none;" height="107" />
      <rect x="20" y="20" width="144" style="clip-path:url(#clipPath1); fill:white; stroke:none;" height="107" />
      <rect x="20" y="20" width="144" style="clip-path:url(#clipPath1); fill:none; stroke:black;" height="107" />
    </g>
    <g style="font-family:sans-serif;">
      <text x="65" y="38" style="clip-path:url(#clipPath10); stroke:none;">interface
      </text>
      <text x="25" y="60" style="clip-path:url(#clipPath10); font-style:italic; stroke:none; font-weight:bold;">CollectionOperator
      </text>
    </g>
    <g>
      <line x1="20" x2="164" y1="71" style="clip-path:url(#clipPath9); fill:none;" y2="71" />
      <line x1="20" x2="164" y1="94" style="clip-path:url(#clipPath9); fill:none;" y2="94" />
    </g>
    <g>
      <polygon style="fill:none; clip-path:url(#clipPath11);" points=" 157 122 158 122 158 120 159 119 159 119 160 120 160 122 161 122 161 125 157 125 157 122" />
      <line x1="157" x2="161" y1="122" style="clip-path:url(#clipPath11); fill:none;" y2="122" />
    </g>
  </g>
</svg>
