<?xml version="1.0" encoding="UTF-8"?>

<!DOCTYPE svg PUBLIC '-//W3C//DTD SVG 20001102//EN' 'http://www.w3.org/TR/2000/CR-SVG-20001102/DTD/svg-20001102.dtd'>
<svg style="fill-opacity:1; color-interpolation:sRGB; color-rendering:auto; text-rendering:auto; stroke:black; stroke-linecap:square; stroke-miterlimit:10; stroke-opacity:1; shape-rendering:auto; fill:black; stroke-dasharray:none; font-weight:normal; stroke-width:1; font-family:&apos;Lucida Sans&apos;; font-style:normal; stroke-linejoin:miter; font-size:12; image-rendering:auto; stroke-dashoffset:0;" width="194" height="184">
  <!--Generated by the Batik Graphics2D SVG Generator-->
  <defs id="genericDefs" />
  <g>
    <defs id="defs1">
      <clipPath clipPathUnits="userSpaceOnUse" id="clipPath1">
        <path d="M0 0 L194 0 L194 184 L0 184 L0 0 Z" />
      </clipPath>
      <clipPath clipPathUnits="userSpaceOnUse" id="clipPath2">
        <path d="M10 10 L10 171 L181 171 L181 10 Z" />
      </clipPath>
      <clipPath clipPathUnits="userSpaceOnUse" id="clipPath3">
        <path d="M11 11 L11 34 L181 34 L181 11 Z" />
      </clipPath>
      <clipPath clipPathUnits="userSpaceOnUse" id="clipPath4">
        <path d="M10 69 L10 161 L181 161 L181 69 Z" />
      </clipPath>
      <clipPath clipPathUnits="userSpaceOnUse" id="clipPath5">
        <path d="M12 71 L12 160 L180 160 L180 71 Z" />
      </clipPath>
    </defs>
    <g style="fill:navy; stroke:navy;">
      <rect x="13" y="13" width="170" style="clip-path:url(#clipPath1); stroke:none;" height="160" />
      <rect x="10" y="10" width="170" style="clip-path:url(#clipPath1); fill:white; stroke:none;" height="160" />
      <rect x="10" y="10" width="170" style="clip-path:url(#clipPath1); fill:none; stroke:black;" height="160" />
    </g>
    <g style="font-style:italic; font-weight:bold; font-family:sans-serif;">
      <text x="32" y="28" style="clip-path:url(#clipPath3); stroke:none;">TransitiveClosure
      </text>
    </g>
    <g>
      <line x1="10" x2="180" y1="39" style="clip-path:url(#clipPath2); fill:none;" y2="39" />
      <line x1="10" x2="180" y1="62" style="clip-path:url(#clipPath2); fill:none;" y2="62" />
    </g>
    <g style="font-family:sans-serif; font-style:italic;">
      <text x="16" y="88" style="clip-path:url(#clipPath5); stroke:none;">+Set getConnectedNodes
      </text>
      <text x="16" y="110" style="font-style:normal; clip-path:url(#clipPath5); stroke:none;">+boolean isNaiveClosure
      </text>
      <text x="16" y="132" style="font-style:normal; clip-path:url(#clipPath5); stroke:none;">+Set closureFromAll
      </text>
      <text x="16" y="154" style="font-style:normal; clip-path:url(#clipPath5); stroke:none;">+Set closure
      </text>
    </g>
  </g>
</svg>
