<?xml version="1.0" encoding="UTF-8"?>

<!DOCTYPE svg PUBLIC '-//W3C//DTD SVG 20001102//EN' 'http://www.w3.org/TR/2000/CR-SVG-20001102/DTD/svg-20001102.dtd'>
<svg style="fill-opacity:1; color-interpolation:sRGB; color-rendering:auto; text-rendering:auto; stroke:black; stroke-linecap:square; stroke-miterlimit:10; stroke-opacity:1; shape-rendering:auto; fill:black; stroke-dasharray:none; font-weight:normal; stroke-width:1; font-family:&apos;Lucida Sans&apos;; font-style:normal; stroke-linejoin:miter; font-size:12; image-rendering:auto; stroke-dashoffset:0;" width="618" height="446">
  <!--Generated by the Batik Graphics2D SVG Generator-->
  <defs id="genericDefs" />
  <g>
    <defs id="defs1">
      <clipPath clipPathUnits="userSpaceOnUse" id="clipPath1">
        <path d="M0 0 L618 0 L618 446 L0 446 L0 0 Z" />
      </clipPath>
      <clipPath clipPathUnits="userSpaceOnUse" id="clipPath2">
        <path d="M20 190 L20 351 L157 351 L157 190 Z" />
      </clipPath>
      <clipPath clipPathUnits="userSpaceOnUse" id="clipPath3">
        <path d="M21 191 L21 236 L157 236 L157 191 Z" />
      </clipPath>
      <clipPath clipPathUnits="userSpaceOnUse" id="clipPath4">
        <path d="M20 271 L20 341 L157 341 L157 271 Z" />
      </clipPath>
      <clipPath clipPathUnits="userSpaceOnUse" id="clipPath5">
        <path d="M22 273 L22 340 L156 340 L156 273 Z" />
      </clipPath>
      <clipPath clipPathUnits="userSpaceOnUse" id="clipPath6">
        <path d="M20 340 L20 351 L157 351 L157 340 Z" />
      </clipPath>
      <clipPath clipPathUnits="userSpaceOnUse" id="clipPath7">
        <path d="M303 190 L303 373 L443 373 L443 190 Z" />
      </clipPath>
      <clipPath clipPathUnits="userSpaceOnUse" id="clipPath8">
        <path d="M304 191 L304 214 L443 214 L443 191 Z" />
      </clipPath>
      <clipPath clipPathUnits="userSpaceOnUse" id="clipPath9">
        <path d="M303 249 L303 363 L443 363 L443 249 Z" />
      </clipPath>
      <clipPath clipPathUnits="userSpaceOnUse" id="clipPath10">
        <path d="M305 251 L305 362 L442 362 L442 251 Z" />
      </clipPath>
      <clipPath clipPathUnits="userSpaceOnUse" id="clipPath11">
        <path d="M303 362 L303 373 L443 373 L443 362 Z" />
      </clipPath>
      <clipPath clipPathUnits="userSpaceOnUse" id="clipPath12">
        <path d="M465 190 L465 433 L605 433 L605 190 Z" />
      </clipPath>
      <clipPath clipPathUnits="userSpaceOnUse" id="clipPath13">
        <path d="M466 191 L466 214 L605 214 L605 191 Z" />
      </clipPath>
      <clipPath clipPathUnits="userSpaceOnUse" id="clipPath14">
        <path d="M465 249 L465 385 L605 385 L605 249 Z" />
      </clipPath>
      <clipPath clipPathUnits="userSpaceOnUse" id="clipPath15">
        <path d="M467 251 L467 384 L604 384 L604 251 Z" />
      </clipPath>
      <clipPath clipPathUnits="userSpaceOnUse" id="clipPath16">
        <path d="M465 397 L465 423 L605 423 L605 397 Z" />
      </clipPath>
      <clipPath clipPathUnits="userSpaceOnUse" id="clipPath17">
        <path d="M467 399 L467 422 L604 422 L604 399 Z" />
      </clipPath>
      <clipPath clipPathUnits="userSpaceOnUse" id="clipPath18">
        <path d="M465 422 L465 433 L605 433 L605 422 Z" />
      </clipPath>
      <clipPath clipPathUnits="userSpaceOnUse" id="clipPath19">
        <path d="M179 190 L179 329 L281 329 L281 190 Z" />
      </clipPath>
      <clipPath clipPathUnits="userSpaceOnUse" id="clipPath20">
        <path d="M180 191 L180 236 L281 236 L281 191 Z" />
      </clipPath>
      <clipPath clipPathUnits="userSpaceOnUse" id="clipPath21">
        <path d="M179 271 L179 319 L281 319 L281 271 Z" />
      </clipPath>
      <clipPath clipPathUnits="userSpaceOnUse" id="clipPath22">
        <path d="M181 273 L181 318 L280 318 L280 273 Z" />
      </clipPath>
      <clipPath clipPathUnits="userSpaceOnUse" id="clipPath23">
        <path d="M179 318 L179 329 L281 329 L281 318 Z" />
      </clipPath>
      <clipPath clipPathUnits="userSpaceOnUse" id="clipPath24">
        <path d="M381 20 L381 128 L526 128 L526 20 Z" />
      </clipPath>
      <clipPath clipPathUnits="userSpaceOnUse" id="clipPath25">
        <path d="M382 21 L382 66 L526 66 L526 21 Z" />
      </clipPath>
      <clipPath clipPathUnits="userSpaceOnUse" id="clipPath26">
        <path d="M381 117 L381 128 L526 128 L526 117 Z" />
      </clipPath>
      <clipPath clipPathUnits="userSpaceOnUse" id="clipPath27">
        <path d="M108 20 L108 128 L210 128 L210 20 Z" />
      </clipPath>
      <clipPath clipPathUnits="userSpaceOnUse" id="clipPath28">
        <path d="M109 21 L109 66 L210 66 L210 21 Z" />
      </clipPath>
      <clipPath clipPathUnits="userSpaceOnUse" id="clipPath29">
        <path d="M108 117 L108 128 L210 128 L210 117 Z" />
      </clipPath>
    </defs>
    <g style="fill:teal; stroke:teal;">
      <line x1="496" x2="496" y1="190" style="clip-path:url(#clipPath1); fill:none;" y2="190" />
      <line x1="496" x2="496" y1="185" style="clip-path:url(#clipPath1); fill:none;" y2="175" />
      <line x1="496" x2="496" y1="170" style="clip-path:url(#clipPath1); fill:none;" y2="160" />
      <line x1="496" x2="496" y1="155" style="clip-path:url(#clipPath1); fill:none;" y2="145" />
      <line x1="496" x2="496" y1="140" style="clip-path:url(#clipPath1); fill:none;" y2="130" />
      <line x1="413" x2="413" y1="190" style="clip-path:url(#clipPath1); fill:none;" y2="190" />
      <line x1="413" x2="413" y1="185" style="clip-path:url(#clipPath1); fill:none;" y2="175" />
      <line x1="413" x2="413" y1="170" style="clip-path:url(#clipPath1); fill:none;" y2="160" />
      <line x1="413" x2="413" y1="155" style="clip-path:url(#clipPath1); fill:none;" y2="145" />
      <line x1="413" x2="413" y1="140" style="clip-path:url(#clipPath1); fill:none;" y2="130" />
      <line x1="195" x2="195" y1="190" style="clip-path:url(#clipPath1); fill:none;" y2="190" />
      <line x1="195" x2="195" y1="185" style="clip-path:url(#clipPath1); fill:none;" y2="175" />
      <line x1="195" x2="195" y1="170" style="clip-path:url(#clipPath1); fill:none;" y2="160" />
      <line x1="195" x2="195" y1="155" style="clip-path:url(#clipPath1); fill:none;" y2="145" />
      <line x1="195" x2="195" y1="140" style="clip-path:url(#clipPath1); fill:none;" y2="130" />
      <line x1="133" x2="133" y1="190" style="clip-path:url(#clipPath1); fill:none;" y2="190" />
      <line x1="133" x2="133" y1="185" style="clip-path:url(#clipPath1); fill:none;" y2="175" />
      <line x1="133" x2="133" y1="170" style="clip-path:url(#clipPath1); fill:none;" y2="160" />
      <line x1="133" x2="133" y1="155" style="clip-path:url(#clipPath1); fill:none;" y2="145" />
      <line x1="133" x2="133" y1="140" style="clip-path:url(#clipPath1); fill:none;" y2="130" />
      <polygon style="fill:white; clip-path:url(#clipPath1); stroke:none;" points=" 496 130 502 148 490 148" />
      <polygon style="fill:none; clip-path:url(#clipPath1);" points=" 496 130 502 148 490 148" />
      <line x1="490" x2="496" y1="148" style="clip-path:url(#clipPath1); fill:none;" y2="130" />
      <polygon style="fill:white; clip-path:url(#clipPath1); stroke:none;" points=" 413 130 419 148 407 148" />
      <polygon style="fill:none; clip-path:url(#clipPath1);" points=" 413 130 419 148 407 148" />
      <line x1="407" x2="413" y1="148" style="clip-path:url(#clipPath1); fill:none;" y2="130" />
      <polygon style="fill:white; clip-path:url(#clipPath1); stroke:none;" points=" 195 130 201 148 189 148" />
      <polygon style="fill:none; clip-path:url(#clipPath1);" points=" 195 130 201 148 189 148" />
      <line x1="189" x2="195" y1="148" style="clip-path:url(#clipPath1); fill:none;" y2="130" />
      <polygon style="fill:white; clip-path:url(#clipPath1); stroke:none;" points=" 133 130 139 148 127 148" />
      <polygon style="fill:none; clip-path:url(#clipPath1);" points=" 133 130 139 148 127 148" />
      <line x1="127" x2="133" y1="148" style="clip-path:url(#clipPath1); fill:none;" y2="130" />
      <rect x="23" y="193" width="136" style="clip-path:url(#clipPath1); fill:navy; stroke:none;" height="160" />
      <rect x="20" y="190" width="136" style="clip-path:url(#clipPath1); fill:white; stroke:none;" height="160" />
      <rect x="20" y="190" width="136" style="clip-path:url(#clipPath1); fill:none; stroke:black;" height="160" />
    </g>
    <g style="font-family:sans-serif; font-style:italic;">
      <text x="71" y="208" style="clip-path:url(#clipPath3); stroke:none;">MapOperator
      </text>
      <text x="25" y="230" style="font-weight:bold; clip-path:url(#clipPath3); stroke:none;">RobustMapVisitor
      </text>
    </g>
    <g>
      <line x1="20" x2="156" y1="241" style="clip-path:url(#clipPath2); fill:none;" y2="241" />
      <line x1="20" x2="156" y1="264" style="clip-path:url(#clipPath2); fill:none;" y2="264" />
    </g>
    <g style="font-family:sans-serif; font-style:italic;">
      <text x="26" y="290" style="clip-path:url(#clipPath5); stroke:none;">+Object visit
      </text>
      <text x="26" y="312" style="clip-path:url(#clipPath5); stroke:none;">+void unvisit
      </text>
      <text x="26" y="334" style="font-style:normal; clip-path:url(#clipPath5); stroke:none;">+Map applyTo
      </text>
    </g>
    <g>
      <polygon style="fill:none; clip-path:url(#clipPath6);" points=" 149 345 150 345 150 343 151 342 151 342 152 343 152 345 153 345 153 348 149 348 149 345" />
      <line x1="149" x2="153" y1="345" style="clip-path:url(#clipPath6); fill:none;" y2="345" />
    </g>
    <g style="fill:navy; stroke:navy;">
      <rect x="306" y="193" width="139" style="clip-path:url(#clipPath1); stroke:none;" height="182" />
      <rect x="303" y="190" width="139" style="clip-path:url(#clipPath1); fill:white; stroke:none;" height="182" />
      <rect x="303" y="190" width="139" style="clip-path:url(#clipPath1); fill:none; stroke:black;" height="182" />
    </g>
    <g style="font-style:italic; font-weight:bold; font-family:sans-serif;">
      <text x="349" y="208" style="clip-path:url(#clipPath8); stroke:none;">Visitor
      </text>
    </g>
    <g>
      <line x1="303" x2="442" y1="219" style="clip-path:url(#clipPath7); fill:none;" y2="219" />
      <line x1="303" x2="442" y1="242" style="clip-path:url(#clipPath7); fill:none;" y2="242" />
    </g>
    <g style="font-family:sans-serif; font-style:italic;">
      <text x="309" y="268" style="clip-path:url(#clipPath10); stroke:none;">+void visit
      </text>
      <text x="309" y="290" style="font-style:normal; clip-path:url(#clipPath10); stroke:none;">+Collection applyTo
      </text>
      <text x="309" y="312" style="font-style:normal; clip-path:url(#clipPath10); stroke:none;">+Object[] applyTo
      </text>
      <text x="309" y="334" style="font-style:normal; clip-path:url(#clipPath10); stroke:none;">+void applyTo
      </text>
      <text x="309" y="356" style="font-style:normal; clip-path:url(#clipPath10); stroke:none;">+void applyTo
      </text>
    </g>
    <g>
      <polygon style="fill:none; clip-path:url(#clipPath11);" points=" 435 367 436 367 436 365 437 364 437 364 438 365 438 367 439 367 439 370 435 370 435 367" />
      <line x1="435" x2="439" y1="367" style="clip-path:url(#clipPath11); fill:none;" y2="367" />
    </g>
    <g style="fill:navy; stroke:navy;">
      <rect x="468" y="193" width="139" style="clip-path:url(#clipPath1); stroke:none;" height="242" />
      <rect x="465" y="190" width="139" style="clip-path:url(#clipPath1); fill:white; stroke:none;" height="242" />
      <rect x="465" y="190" width="139" style="clip-path:url(#clipPath1); fill:none; stroke:black;" height="242" />
    </g>
    <g style="font-style:italic; font-weight:bold; font-family:sans-serif;">
      <text x="486" y="208" style="clip-path:url(#clipPath13); stroke:none;">RobustVisitor
      </text>
    </g>
    <g>
      <line x1="465" x2="604" y1="219" style="clip-path:url(#clipPath12); fill:none;" y2="219" />
      <line x1="465" x2="604" y1="242" style="clip-path:url(#clipPath12); fill:none;" y2="242" />
    </g>
    <g style="font-family:sans-serif; font-style:italic;">
      <text x="471" y="268" style="clip-path:url(#clipPath15); stroke:none;">+Object visit
      </text>
      <text x="471" y="290" style="clip-path:url(#clipPath15); stroke:none;">+void unvisit
      </text>
      <text x="471" y="312" style="font-style:normal; clip-path:url(#clipPath15); stroke:none;">+Collection applyTo
      </text>
      <text x="471" y="334" style="font-style:normal; clip-path:url(#clipPath15); stroke:none;">+Object[] applyTo
      </text>
      <text x="471" y="356" style="font-style:normal; clip-path:url(#clipPath15); stroke:none;">+void applyTo
      </text>
      <text x="471" y="378" style="font-style:normal; clip-path:url(#clipPath15); stroke:none;">+void applyTo
      </text>
    </g>
    <g>
      <line x1="465" x2="604" y1="390" style="clip-path:url(#clipPath12); fill:none;" y2="390" />
    </g>
    <g style="font-family:sans-serif;">
      <text x="471" y="416" style="clip-path:url(#clipPath17); stroke:none;"> Entry
      </text>
    </g>
    <g>
      <polygon style="fill:none; clip-path:url(#clipPath18);" points=" 597 427 598 427 598 425 599 424 599 424 600 425 600 427 601 427 601 430 597 430 597 427" />
      <line x1="597" x2="601" y1="427" style="clip-path:url(#clipPath18); fill:none;" y2="427" />
    </g>
    <g style="fill:navy; stroke:navy;">
      <rect x="182" y="193" width="101" style="clip-path:url(#clipPath1); stroke:none;" height="138" />
      <rect x="179" y="190" width="101" style="clip-path:url(#clipPath1); fill:white; stroke:none;" height="138" />
      <rect x="179" y="190" width="101" style="clip-path:url(#clipPath1); fill:none; stroke:black;" height="138" />
    </g>
    <g style="font-family:sans-serif; font-style:italic;">
      <text x="195" y="208" style="clip-path:url(#clipPath20); stroke:none;">MapOperator
      </text>
      <text x="191" y="230" style="font-weight:bold; clip-path:url(#clipPath20); stroke:none;">MapVisitor
      </text>
    </g>
    <g>
      <line x1="179" x2="280" y1="241" style="clip-path:url(#clipPath19); fill:none;" y2="241" />
      <line x1="179" x2="280" y1="264" style="clip-path:url(#clipPath19); fill:none;" y2="264" />
    </g>
    <g style="font-family:sans-serif; font-style:italic;">
      <text x="185" y="290" style="clip-path:url(#clipPath22); stroke:none;">+void visit
      </text>
      <text x="185" y="312" style="font-style:normal; clip-path:url(#clipPath22); stroke:none;">+Map applyTo
      </text>
    </g>
    <g>
      <polygon style="fill:none; clip-path:url(#clipPath23);" points=" 273 323 274 323 274 321 275 320 275 320 276 321 276 323 277 323 277 326 273 326 273 323" />
      <line x1="273" x2="277" y1="323" style="clip-path:url(#clipPath23); fill:none;" y2="323" />
    </g>
    <g style="fill:navy; stroke:navy;">
      <rect x="384" y="23" width="144" style="clip-path:url(#clipPath1); stroke:none;" height="107" />
      <rect x="381" y="20" width="144" style="clip-path:url(#clipPath1); fill:white; stroke:none;" height="107" />
      <rect x="381" y="20" width="144" style="clip-path:url(#clipPath1); fill:none; stroke:black;" height="107" />
    </g>
    <g style="font-family:sans-serif;">
      <text x="426" y="38" style="clip-path:url(#clipPath25); stroke:none;">interface
      </text>
      <text x="386" y="60" style="clip-path:url(#clipPath25); font-style:italic; stroke:none; font-weight:bold;">CollectionOperator
      </text>
    </g>
    <g>
      <line x1="381" x2="525" y1="71" style="clip-path:url(#clipPath24); fill:none;" y2="71" />
      <line x1="381" x2="525" y1="94" style="clip-path:url(#clipPath24); fill:none;" y2="94" />
    </g>
    <g>
      <polygon style="fill:none; clip-path:url(#clipPath26);" points=" 518 122 519 122 519 120 520 119 520 119 521 120 521 122 522 122 522 125 518 125 518 122" />
      <line x1="518" x2="522" y1="122" style="clip-path:url(#clipPath26); fill:none;" y2="122" />
    </g>
    <g style="fill:navy; stroke:navy;">
      <rect x="111" y="23" width="101" style="clip-path:url(#clipPath1); stroke:none;" height="107" />
      <rect x="108" y="20" width="101" style="clip-path:url(#clipPath1); fill:white; stroke:none;" height="107" />
      <rect x="108" y="20" width="101" style="clip-path:url(#clipPath1); fill:none; stroke:black;" height="107" />
    </g>
    <g style="font-family:sans-serif;">
      <text x="131" y="38" style="clip-path:url(#clipPath28); stroke:none;">interface
      </text>
      <text x="113" y="60" style="clip-path:url(#clipPath28); font-style:italic; stroke:none; font-weight:bold;">MapOperator
      </text>
    </g>
    <g>
      <line x1="108" x2="209" y1="71" style="clip-path:url(#clipPath27); fill:none;" y2="71" />
      <line x1="108" x2="209" y1="94" style="clip-path:url(#clipPath27); fill:none;" y2="94" />
    </g>
    <g>
      <polygon style="fill:none; clip-path:url(#clipPath29);" points=" 202 122 203 122 203 120 204 119 204 119 205 120 205 122 206 122 206 125 202 125 202 122" />
      <line x1="202" x2="206" y1="122" style="clip-path:url(#clipPath29); fill:none;" y2="122" />
    </g>
  </g>
</svg>
