<?xml version="1.0" encoding="UTF-8"?>

<!DOCTYPE svg PUBLIC '-//W3C//DTD SVG 20001102//EN' 'http://www.w3.org/TR/2000/CR-SVG-20001102/DTD/svg-20001102.dtd'>
<svg style="fill-opacity:1; color-interpolation:sRGB; color-rendering:auto; text-rendering:auto; stroke:black; stroke-linecap:square; stroke-miterlimit:10; stroke-opacity:1; shape-rendering:auto; fill:black; stroke-dasharray:none; font-weight:normal; stroke-width:1; font-family:&apos;Lucida Sans&apos;; font-style:normal; stroke-linejoin:miter; font-size:12; image-rendering:auto; stroke-dashoffset:0;" width="223" height="707">
  <!--Generated by the Batik Graphics2D SVG Generator-->
  <defs id="genericDefs" />
  <g>
    <defs id="defs1">
      <clipPath clipPathUnits="userSpaceOnUse" id="clipPath1">
        <path d="M0 0 L223 0 L223 707 L0 707 L0 0 Z" />
      </clipPath>
      <clipPath clipPathUnits="userSpaceOnUse" id="clipPath2">
        <path d="M42 20 L42 128 L187 128 L187 20 Z" />
      </clipPath>
      <clipPath clipPathUnits="userSpaceOnUse" id="clipPath3">
        <path d="M43 21 L43 66 L187 66 L187 21 Z" />
      </clipPath>
      <clipPath clipPathUnits="userSpaceOnUse" id="clipPath4">
        <path d="M58 539 L58 694 L187 694 L187 539 Z" />
      </clipPath>
      <clipPath clipPathUnits="userSpaceOnUse" id="clipPath5">
        <path d="M59 540 L59 563 L187 563 L187 540 Z" />
      </clipPath>
      <clipPath clipPathUnits="userSpaceOnUse" id="clipPath6">
        <path d="M58 598 L58 646 L187 646 L187 598 Z" />
      </clipPath>
      <clipPath clipPathUnits="userSpaceOnUse" id="clipPath7">
        <path d="M60 600 L60 645 L186 645 L186 600 Z" />
      </clipPath>
      <clipPath clipPathUnits="userSpaceOnUse" id="clipPath8">
        <path d="M58 658 L58 684 L187 684 L187 658 Z" />
      </clipPath>
      <clipPath clipPathUnits="userSpaceOnUse" id="clipPath9">
        <path d="M60 660 L60 683 L186 683 L186 660 Z" />
      </clipPath>
      <clipPath clipPathUnits="userSpaceOnUse" id="clipPath10">
        <path d="M20 190 L20 461 L210 461 L210 190 Z" />
      </clipPath>
      <clipPath clipPathUnits="userSpaceOnUse" id="clipPath11">
        <path d="M21 191 L21 214 L210 214 L210 191 Z" />
      </clipPath>
      <clipPath clipPathUnits="userSpaceOnUse" id="clipPath12">
        <path d="M20 249 L20 451 L210 451 L210 249 Z" />
      </clipPath>
      <clipPath clipPathUnits="userSpaceOnUse" id="clipPath13">
        <path d="M22 251 L22 450 L209 450 L209 251 Z" />
      </clipPath>
    </defs>
    <g style="fill:teal; stroke:teal;">
      <line x1="115" x2="115" y1="190" style="clip-path:url(#clipPath1); fill:none;" y2="190" />
      <line x1="115" x2="115" y1="185" style="clip-path:url(#clipPath1); fill:none;" y2="175" />
      <line x1="115" x2="115" y1="170" style="clip-path:url(#clipPath1); fill:none;" y2="160" />
      <line x1="115" x2="115" y1="155" style="clip-path:url(#clipPath1); fill:none;" y2="145" />
      <line x1="115" x2="115" y1="140" style="clip-path:url(#clipPath1); fill:none;" y2="130" />
      <line x1="91" x2="91" y1="539" style="clip-path:url(#clipPath1); fill:none; stroke:rgb(0,64,64);" y2="463" />
      <line x1="140" x2="140" y1="539" style="clip-path:url(#clipPath1); fill:none; stroke:blue;" y2="463" />
      <polygon style="fill:white; clip-path:url(#clipPath1); stroke:none;" points=" 115 130 121 148 109 148" />
      <polygon style="fill:none; clip-path:url(#clipPath1);" points=" 115 130 121 148 109 148" />
      <line x1="109" x2="115" y1="148" style="clip-path:url(#clipPath1); fill:none;" y2="130" />
      <polygon style="fill:white; clip-path:url(#clipPath1); stroke:none;" points=" 91 463 97 481 85 481" />
      <polygon style="fill:none; clip-path:url(#clipPath1); stroke:rgb(0,64,64);" points=" 91 463 97 481 85 481" />
      <line x1="85" x2="91" y1="481" style="clip-path:url(#clipPath1); fill:none; stroke:rgb(0,64,64);" y2="463" />
      <line x1="140" x2="135" y1="463" style="clip-path:url(#clipPath1); fill:none; stroke:blue;" y2="475" />
      <line x1="140" x2="145" y1="463" style="clip-path:url(#clipPath1); fill:none; stroke:blue;" y2="475" />
      <text x="110" y="480" style="clip-path:url(#clipPath1); fill:blue; font-family:sans-serif; stroke:none;">0..*
      </text>
      <rect x="45" y="23" width="144" style="clip-path:url(#clipPath1); fill:navy; font-family:sans-serif; stroke:none;" height="107" />
      <rect x="42" y="20" width="144" style="clip-path:url(#clipPath1); fill:white; font-family:sans-serif; stroke:none;" height="107" />
      <rect x="42" y="20" width="144" style="clip-path:url(#clipPath1); fill:none; font-family:sans-serif; stroke:black;" height="107" />
    </g>
    <g style="font-family:sans-serif;">
      <text x="87" y="38" style="clip-path:url(#clipPath3); stroke:none;">interface
      </text>
      <text x="47" y="60" style="clip-path:url(#clipPath3); font-style:italic; stroke:none; font-weight:bold;">CollectionOperator
      </text>
    </g>
    <g style="font-family:sans-serif;">
      <line x1="42" x2="186" y1="71" style="clip-path:url(#clipPath2); fill:none;" y2="71" />
      <line x1="42" x2="186" y1="94" style="clip-path:url(#clipPath2); fill:none;" y2="94" />
    </g>
    <g style="fill:navy; font-family:sans-serif; stroke:navy;">
      <polygon style="clip-path:url(#clipPath1); stroke:none;" points=" 53 542 189 542 189 696 53 696 53 556 45 556 45 548 53 548 53 542" />
      <polygon style="fill:white; clip-path:url(#clipPath1); stroke:none;" points=" 50 539 186 539 186 693 50 693 50 553 42 553 42 545 50 545 50 539" />
      <polygon style="fill:none; clip-path:url(#clipPath1); stroke:black;" points=" 50 539 186 539 186 693 50 693 50 553 42 553 42 545 50 545 50 539" />
      <line x1="50" x2="58" y1="553" style="clip-path:url(#clipPath1); fill:none; stroke:black;" y2="553" />
      <line x1="58" x2="58" y1="553" style="clip-path:url(#clipPath1); fill:none; stroke:black;" y2="545" />
      <line x1="58" x2="50" y1="545" style="clip-path:url(#clipPath1); fill:none; stroke:black;" y2="545" />
    </g>
    <g style="font-weight:bold; font-family:sans-serif;">
      <text x="89" y="557" style="clip-path:url(#clipPath5); stroke:none;">AndFilter
      </text>
    </g>
    <g style="font-family:sans-serif;">
      <line x1="58" x2="186" y1="568" style="clip-path:url(#clipPath4); fill:none;" y2="568" />
      <line x1="58" x2="186" y1="591" style="clip-path:url(#clipPath4); fill:none;" y2="591" />
    </g>
    <g style="font-family:sans-serif;">
      <text x="64" y="617" style="clip-path:url(#clipPath7); stroke:none;">+AndFilter
      </text>
      <text x="64" y="639" style="clip-path:url(#clipPath7); stroke:none;">+boolean criterion
      </text>
    </g>
    <g style="font-family:sans-serif;">
      <line x1="58" x2="186" y1="651" style="clip-path:url(#clipPath4); fill:none;" y2="651" />
    </g>
    <g style="font-family:sans-serif;">
      <text x="64" y="677" style="clip-path:url(#clipPath9); stroke:none;"> Filter[] filters
      </text>
    </g>
    <g style="fill:navy; font-family:sans-serif; stroke:navy;">
      <rect x="23" y="193" width="189" style="clip-path:url(#clipPath1); stroke:none;" height="270" />
      <rect x="20" y="190" width="189" style="clip-path:url(#clipPath1); fill:white; stroke:none;" height="270" />
      <rect x="20" y="190" width="189" style="clip-path:url(#clipPath1); fill:none; stroke:black;" height="270" />
    </g>
    <g style="font-style:italic; font-weight:bold; font-family:sans-serif;">
      <text x="96" y="208" style="clip-path:url(#clipPath11); stroke:none;">Filter
      </text>
    </g>
    <g style="font-family:sans-serif;">
      <line x1="20" x2="209" y1="219" style="clip-path:url(#clipPath10); fill:none;" y2="219" />
      <line x1="20" x2="209" y1="242" style="clip-path:url(#clipPath10); fill:none;" y2="242" />
    </g>
    <g style="font-family:sans-serif; font-style:italic;">
      <text x="26" y="268" style="clip-path:url(#clipPath13); stroke:none;">+boolean criterion
      </text>
      <text x="26" y="290" style="font-style:normal; clip-path:url(#clipPath13); stroke:none;">+Collection retain
      </text>
      <text x="26" y="312" style="font-style:normal; clip-path:url(#clipPath13); stroke:none;">+Set retainSet
      </text>
      <text x="26" y="334" style="font-style:normal; clip-path:url(#clipPath13); stroke:none;">+SortedSet retainSortedSet
      </text>
      <text x="26" y="356" style="font-style:normal; clip-path:url(#clipPath13); stroke:none;">+List retainList
      </text>
      <text x="26" y="378" style="font-style:normal; clip-path:url(#clipPath13); stroke:none;">+Collection discard
      </text>
      <text x="26" y="400" style="font-style:normal; clip-path:url(#clipPath13); stroke:none;">+Set discardSet
      </text>
      <text x="26" y="422" style="font-style:normal; clip-path:url(#clipPath13); stroke:none;">+SortedSet discardSortedSet
      </text>
      <text x="26" y="444" style="font-style:normal; clip-path:url(#clipPath13); stroke:none;">+List discardList
      </text>
    </g>
  </g>
</svg>
