<?xml version="1.0" encoding="UTF-8"?>

<!DOCTYPE svg PUBLIC '-//W3C//DTD SVG 20001102//EN' 'http://www.w3.org/TR/2000/CR-SVG-20001102/DTD/svg-20001102.dtd'>
<svg style="fill-opacity:1; color-rendering:auto; color-interpolation:sRGB; text-rendering:auto; stroke:black; stroke-linecap:square; stroke-miterlimit:10; shape-rendering:auto; stroke-opacity:1; fill:black; stroke-dasharray:none; font-weight:normal; stroke-width:1; font-family:&apos;sansserif&apos;; font-style:normal; stroke-linejoin:miter; font-size:12; stroke-dashoffset:0; image-rendering:auto;" width="151" height="502">
  <!--Generated by the Batik Graphics2D SVG Generator-->
  <defs id="genericDefs" />
  <g>
    <defs id="defs1">
      <clipPath clipPathUnits="userSpaceOnUse" id="clipPath1">
        <path d="M0 0 L151 0 L151 502 L0 502 L0 0 Z" />
      </clipPath>
      <clipPath clipPathUnits="userSpaceOnUse" id="clipPath2">
        <path d="M36 20 L36 237 L138 237 L138 20 Z" />
      </clipPath>
      <clipPath clipPathUnits="userSpaceOnUse" id="clipPath3">
        <path d="M37 21 L37 61 L138 61 L138 21 Z" />
      </clipPath>
      <clipPath clipPathUnits="userSpaceOnUse" id="clipPath4">
        <path d="M36 96 L36 196 L138 196 L138 96 Z" />
      </clipPath>
      <clipPath clipPathUnits="userSpaceOnUse" id="clipPath5">
        <path d="M38 98 L38 195 L137 195 L137 98 Z" />
      </clipPath>
      <clipPath clipPathUnits="userSpaceOnUse" id="clipPath6">
        <path d="M36 208 L36 227 L138 227 L138 208 Z" />
      </clipPath>
      <clipPath clipPathUnits="userSpaceOnUse" id="clipPath7">
        <path d="M38 210 L38 226 L137 226 L137 210 Z" />
      </clipPath>
      <clipPath clipPathUnits="userSpaceOnUse" id="clipPath8">
        <path d="M36 309 L36 489 L138 489 L138 309 Z" />
      </clipPath>
      <clipPath clipPathUnits="userSpaceOnUse" id="clipPath9">
        <path d="M37 310 L37 326 L138 326 L138 310 Z" />
      </clipPath>
      <clipPath clipPathUnits="userSpaceOnUse" id="clipPath10">
        <path d="M36 338 L36 357 L138 357 L138 338 Z" />
      </clipPath>
      <clipPath clipPathUnits="userSpaceOnUse" id="clipPath11">
        <path d="M38 340 L38 356 L137 356 L137 340 Z" />
      </clipPath>
      <clipPath clipPathUnits="userSpaceOnUse" id="clipPath12">
        <path d="M36 369 L36 448 L138 448 L138 369 Z" />
      </clipPath>
      <clipPath clipPathUnits="userSpaceOnUse" id="clipPath13">
        <path d="M38 371 L38 447 L137 447 L137 371 Z" />
      </clipPath>
      <clipPath clipPathUnits="userSpaceOnUse" id="clipPath14">
        <path d="M36 460 L36 479 L138 479 L138 460 Z" />
      </clipPath>
      <clipPath clipPathUnits="userSpaceOnUse" id="clipPath15">
        <path d="M38 462 L38 478 L137 478 L137 462 Z" />
      </clipPath>
    </defs>
    <g style="fill:teal; stroke:teal;">
      <line x1="80" x2="80" y1="309" style="clip-path:url(#clipPath1); fill:none;" y2="309" />
      <line x1="80" x2="80" y1="305" style="clip-path:url(#clipPath1); fill:none;" y2="295" />
      <line x1="80" x2="80" y1="290" style="clip-path:url(#clipPath1); fill:none;" y2="280" />
      <line x1="80" x2="80" y1="275" style="clip-path:url(#clipPath1); fill:none;" y2="265" />
      <line x1="80" x2="80" y1="260" style="clip-path:url(#clipPath1); fill:none;" y2="250" />
      <line x1="80" x2="80" y1="245" style="clip-path:url(#clipPath1); fill:none;" y2="239" />
      <polygon style="fill:white; clip-path:url(#clipPath1); stroke:none;" points=" 80 239 86 257 74 257" />
      <polygon style="fill:none; clip-path:url(#clipPath1);" points=" 80 239 86 257 74 257" />
      <line x1="74" x2="80" y1="257" style="clip-path:url(#clipPath1); fill:none;" y2="239" />
      <polygon style="fill:navy; clip-path:url(#clipPath1); stroke:none;" points=" 31 23 140 23 140 239 31 239 31 37 23 37 23 29 31 29 31 23" />
      <polygon style="fill:white; clip-path:url(#clipPath1); stroke:none;" points=" 28 20 137 20 137 236 28 236 28 34 20 34 20 26 28 26 28 20" />
      <polygon style="fill:none; clip-path:url(#clipPath1); stroke:black;" points=" 28 20 137 20 137 236 28 236 28 34 20 34 20 26 28 26 28 20" />
      <line x1="28" x2="36" y1="34" style="clip-path:url(#clipPath1); fill:none; stroke:black;" y2="34" />
      <line x1="36" x2="36" y1="34" style="clip-path:url(#clipPath1); fill:none; stroke:black;" y2="26" />
      <line x1="36" x2="28" y1="26" style="clip-path:url(#clipPath1); fill:none; stroke:black;" y2="26" />
    </g>
    <g style="font-family:sans-serif;">
      <text x="62" y="33" style="clip-path:url(#clipPath3); stroke:none;">interface
      </text>
      <text x="75" y="50" style="clip-path:url(#clipPath3); font-style:italic; stroke:none; font-weight:bold;">Fifo
      </text>
    </g>
    <g>
      <line x1="36" x2="137" y1="66" style="clip-path:url(#clipPath2); fill:none;" y2="66" />
      <line x1="36" x2="137" y1="89" style="clip-path:url(#clipPath2); fill:none;" y2="89" />
    </g>
    <g style="font-family:sans-serif; font-style:italic;">
      <text x="42" y="113" style="clip-path:url(#clipPath5); stroke:none;">+void push
      </text>
      <text x="42" y="137" style="clip-path:url(#clipPath5); stroke:none;">+Object pop
      </text>
      <text x="42" y="161" style="clip-path:url(#clipPath5); stroke:none;">+void clear
      </text>
      <text x="42" y="185" style="clip-path:url(#clipPath5); stroke:none;">+int size
      </text>
    </g>
    <g>
      <line x1="36" x2="137" y1="201" style="clip-path:url(#clipPath2); fill:none;" y2="201" />
    </g>
    <g style="font-family:sans-serif;">
      <text x="42" y="222" style="clip-path:url(#clipPath7); stroke:none;"> boolean empty
      </text>
    </g>
    <g style="fill:navy; stroke:navy;">
      <polygon style="clip-path:url(#clipPath1); stroke:none;" points=" 31 312 140 312 140 491 31 491 31 326 23 326 23 318 31 318 31 312" />
      <polygon style="fill:white; clip-path:url(#clipPath1); stroke:none;" points=" 28 309 137 309 137 488 28 488 28 323 20 323 20 315 28 315 28 309" />
      <polygon style="fill:none; clip-path:url(#clipPath1); stroke:black;" points=" 28 309 137 309 137 488 28 488 28 323 20 323 20 315 28 315 28 309" />
      <line x1="28" x2="36" y1="323" style="clip-path:url(#clipPath1); fill:none; stroke:black;" y2="323" />
      <line x1="36" x2="36" y1="323" style="clip-path:url(#clipPath1); fill:none; stroke:black;" y2="315" />
      <line x1="36" x2="28" y1="315" style="clip-path:url(#clipPath1); fill:none; stroke:black;" y2="315" />
    </g>
    <g style="font-family:sans-serif; font-weight:bold;">
      <text x="63" y="322" style="clip-path:url(#clipPath9); stroke:none;">FifoList
      </text>
    </g>
    <g>
      <line x1="36" x2="137" y1="331" style="clip-path:url(#clipPath8); fill:none;" y2="331" />
    </g>
    <g style="font-family:sans-serif;">
      <text x="42" y="352" style="clip-path:url(#clipPath11); stroke:none;">-List $queue
      </text>
    </g>
    <g>
      <line x1="36" x2="137" y1="362" style="clip-path:url(#clipPath8); fill:none;" y2="362" />
    </g>
    <g style="font-family:sans-serif;">
      <text x="42" y="383" style="clip-path:url(#clipPath13); stroke:none;">+FifoList
      </text>
      <text x="42" y="398" style="clip-path:url(#clipPath13); stroke:none;">+void push
      </text>
      <text x="42" y="413" style="clip-path:url(#clipPath13); stroke:none;">+Object pop
      </text>
      <text x="42" y="428" style="clip-path:url(#clipPath13); stroke:none;">+void clear
      </text>
      <text x="42" y="443" style="clip-path:url(#clipPath13); stroke:none;">+int size
      </text>
    </g>
    <g>
      <line x1="36" x2="137" y1="453" style="clip-path:url(#clipPath8); fill:none;" y2="453" />
    </g>
    <g style="font-family:sans-serif;">
      <text x="42" y="474" style="clip-path:url(#clipPath15); stroke:none;"> boolean empty
      </text>
    </g>
  </g>
</svg>
