<?xml version="1.0" encoding="UTF-8"?>

<!DOCTYPE svg PUBLIC '-//W3C//DTD SVG 20001102//EN' 'http://www.w3.org/TR/2000/CR-SVG-20001102/DTD/svg-20001102.dtd'>
<svg style="fill-opacity:1; color-interpolation:sRGB; color-rendering:auto; text-rendering:auto; stroke:black; stroke-linecap:square; stroke-miterlimit:10; stroke-opacity:1; shape-rendering:auto; fill:black; stroke-dasharray:none; font-weight:normal; stroke-width:1; font-family:&apos;Lucida Sans&apos;; font-style:normal; stroke-linejoin:miter; font-size:12; image-rendering:auto; stroke-dashoffset:0;" width="223" height="474">
  <!--Generated by the Batik Graphics2D SVG Generator-->
  <defs id="genericDefs" />
  <g>
    <defs id="defs1">
      <clipPath clipPathUnits="userSpaceOnUse" id="clipPath1">
        <path d="M0 0 L223 0 L223 474 L0 474 L0 0 Z" />
      </clipPath>
      <clipPath clipPathUnits="userSpaceOnUse" id="clipPath2">
        <path d="M20 190 L20 461 L210 461 L210 190 Z" />
      </clipPath>
      <clipPath clipPathUnits="userSpaceOnUse" id="clipPath3">
        <path d="M21 191 L21 214 L210 214 L210 191 Z" />
      </clipPath>
      <clipPath clipPathUnits="userSpaceOnUse" id="clipPath4">
        <path d="M20 249 L20 451 L210 451 L210 249 Z" />
      </clipPath>
      <clipPath clipPathUnits="userSpaceOnUse" id="clipPath5">
        <path d="M22 251 L22 450 L209 450 L209 251 Z" />
      </clipPath>
      <clipPath clipPathUnits="userSpaceOnUse" id="clipPath6">
        <path d="M42 20 L42 128 L187 128 L187 20 Z" />
      </clipPath>
      <clipPath clipPathUnits="userSpaceOnUse" id="clipPath7">
        <path d="M43 21 L43 66 L187 66 L187 21 Z" />
      </clipPath>
    </defs>
    <g style="fill:teal; stroke:teal;">
      <line x1="115" x2="115" y1="190" style="clip-path:url(#clipPath1); fill:none;" y2="190" />
      <line x1="115" x2="115" y1="185" style="clip-path:url(#clipPath1); fill:none;" y2="175" />
      <line x1="115" x2="115" y1="170" style="clip-path:url(#clipPath1); fill:none;" y2="160" />
      <line x1="115" x2="115" y1="155" style="clip-path:url(#clipPath1); fill:none;" y2="145" />
      <line x1="115" x2="115" y1="140" style="clip-path:url(#clipPath1); fill:none;" y2="130" />
      <polygon style="fill:white; clip-path:url(#clipPath1); stroke:none;" points=" 115 130 121 148 109 148" />
      <polygon style="fill:none; clip-path:url(#clipPath1);" points=" 115 130 121 148 109 148" />
      <line x1="109" x2="115" y1="148" style="clip-path:url(#clipPath1); fill:none;" y2="130" />
      <rect x="23" y="193" width="189" style="clip-path:url(#clipPath1); fill:navy; stroke:none;" height="270" />
      <rect x="20" y="190" width="189" style="clip-path:url(#clipPath1); fill:white; stroke:none;" height="270" />
      <rect x="20" y="190" width="189" style="clip-path:url(#clipPath1); fill:none; stroke:black;" height="270" />
    </g>
    <g style="font-style:italic; font-weight:bold; font-family:sans-serif;">
      <text x="96" y="208" style="clip-path:url(#clipPath3); stroke:none;">Filter
      </text>
    </g>
    <g>
      <line x1="20" x2="209" y1="219" style="clip-path:url(#clipPath2); fill:none;" y2="219" />
      <line x1="20" x2="209" y1="242" style="clip-path:url(#clipPath2); fill:none;" y2="242" />
    </g>
    <g style="font-family:sans-serif; font-style:italic;">
      <text x="26" y="268" style="clip-path:url(#clipPath5); stroke:none;">+boolean criterion
      </text>
      <text x="26" y="290" style="font-style:normal; clip-path:url(#clipPath5); stroke:none;">+Collection retain
      </text>
      <text x="26" y="312" style="font-style:normal; clip-path:url(#clipPath5); stroke:none;">+Set retainSet
      </text>
      <text x="26" y="334" style="font-style:normal; clip-path:url(#clipPath5); stroke:none;">+SortedSet retainSortedSet
      </text>
      <text x="26" y="356" style="font-style:normal; clip-path:url(#clipPath5); stroke:none;">+List retainList
      </text>
      <text x="26" y="378" style="font-style:normal; clip-path:url(#clipPath5); stroke:none;">+Collection discard
      </text>
      <text x="26" y="400" style="font-style:normal; clip-path:url(#clipPath5); stroke:none;">+Set discardSet
      </text>
      <text x="26" y="422" style="font-style:normal; clip-path:url(#clipPath5); stroke:none;">+SortedSet discardSortedSet
      </text>
      <text x="26" y="444" style="font-style:normal; clip-path:url(#clipPath5); stroke:none;">+List discardList
      </text>
    </g>
    <g style="fill:navy; stroke:navy;">
      <rect x="45" y="23" width="144" style="clip-path:url(#clipPath1); stroke:none;" height="107" />
      <rect x="42" y="20" width="144" style="clip-path:url(#clipPath1); fill:white; stroke:none;" height="107" />
      <rect x="42" y="20" width="144" style="clip-path:url(#clipPath1); fill:none; stroke:black;" height="107" />
    </g>
    <g style="font-family:sans-serif;">
      <text x="87" y="38" style="clip-path:url(#clipPath7); stroke:none;">interface
      </text>
      <text x="47" y="60" style="clip-path:url(#clipPath7); font-style:italic; stroke:none; font-weight:bold;">CollectionOperator
      </text>
    </g>
    <g>
      <line x1="42" x2="186" y1="71" style="clip-path:url(#clipPath6); fill:none;" y2="71" />
      <line x1="42" x2="186" y1="94" style="clip-path:url(#clipPath6); fill:none;" y2="94" />
    </g>
  </g>
</svg>
