<?xml version="1.0" encoding="UTF-8"?>

<!DOCTYPE svg PUBLIC '-//W3C//DTD SVG 20001102//EN' 'http://www.w3.org/TR/2000/CR-SVG-20001102/DTD/svg-20001102.dtd'>
<svg style="fill-opacity:1; color-interpolation:sRGB; color-rendering:auto; text-rendering:auto; stroke:black; stroke-linecap:square; stroke-miterlimit:10; stroke-opacity:1; shape-rendering:auto; fill:black; stroke-dasharray:none; font-weight:normal; stroke-width:1; font-family:&apos;Lucida Sans&apos;; font-style:normal; stroke-linejoin:miter; font-size:12; image-rendering:auto; stroke-dashoffset:0;" width="205" height="342">
  <!--Generated by the Batik Graphics2D SVG Generator-->
  <defs id="genericDefs" />
  <g>
    <defs id="defs1">
      <clipPath clipPathUnits="userSpaceOnUse" id="clipPath1">
        <path d="M0 0 L205 0 L205 342 L0 342 L0 0 Z" />
      </clipPath>
      <clipPath clipPathUnits="userSpaceOnUse" id="clipPath2">
        <path d="M33 20 L33 128 L178 128 L178 20 Z" />
      </clipPath>
      <clipPath clipPathUnits="userSpaceOnUse" id="clipPath3">
        <path d="M34 21 L34 66 L178 66 L178 21 Z" />
      </clipPath>
      <clipPath clipPathUnits="userSpaceOnUse" id="clipPath4">
        <path d="M20 190 L20 329 L192 329 L192 190 Z" />
      </clipPath>
      <clipPath clipPathUnits="userSpaceOnUse" id="clipPath5">
        <path d="M21 191 L21 214 L192 214 L192 191 Z" />
      </clipPath>
      <clipPath clipPathUnits="userSpaceOnUse" id="clipPath6">
        <path d="M20 249 L20 319 L192 319 L192 249 Z" />
      </clipPath>
      <clipPath clipPathUnits="userSpaceOnUse" id="clipPath7">
        <path d="M22 251 L22 318 L191 318 L191 251 Z" />
      </clipPath>
    </defs>
    <g style="fill:teal; stroke:teal;">
      <line x1="106" x2="106" y1="190" style="clip-path:url(#clipPath1); fill:none;" y2="190" />
      <line x1="106" x2="106" y1="185" style="clip-path:url(#clipPath1); fill:none;" y2="175" />
      <line x1="106" x2="106" y1="170" style="clip-path:url(#clipPath1); fill:none;" y2="160" />
      <line x1="106" x2="106" y1="155" style="clip-path:url(#clipPath1); fill:none;" y2="145" />
      <line x1="106" x2="106" y1="140" style="clip-path:url(#clipPath1); fill:none;" y2="130" />
      <polygon style="fill:white; clip-path:url(#clipPath1); stroke:none;" points=" 106 130 112 148 100 148" />
      <polygon style="fill:none; clip-path:url(#clipPath1);" points=" 106 130 112 148 100 148" />
      <line x1="100" x2="106" y1="148" style="clip-path:url(#clipPath1); fill:none;" y2="130" />
      <rect x="36" y="23" width="144" style="clip-path:url(#clipPath1); fill:navy; stroke:none;" height="107" />
      <rect x="33" y="20" width="144" style="clip-path:url(#clipPath1); fill:white; stroke:none;" height="107" />
      <rect x="33" y="20" width="144" style="clip-path:url(#clipPath1); fill:none; stroke:black;" height="107" />
    </g>
    <g style="font-family:sans-serif;">
      <text x="78" y="38" style="clip-path:url(#clipPath3); stroke:none;">interface
      </text>
      <text x="38" y="60" style="clip-path:url(#clipPath3); font-style:italic; stroke:none; font-weight:bold;">CollectionOperator
      </text>
    </g>
    <g>
      <line x1="33" x2="177" y1="71" style="clip-path:url(#clipPath2); fill:none;" y2="71" />
      <line x1="33" x2="177" y1="94" style="clip-path:url(#clipPath2); fill:none;" y2="94" />
    </g>
    <g style="fill:navy; stroke:navy;">
      <rect x="23" y="193" width="171" style="clip-path:url(#clipPath1); stroke:none;" height="138" />
      <rect x="20" y="190" width="171" style="clip-path:url(#clipPath1); fill:white; stroke:none;" height="138" />
      <rect x="20" y="190" width="171" style="clip-path:url(#clipPath1); fill:none; stroke:black;" height="138" />
    </g>
    <g style="font-style:italic; font-weight:bold; font-family:sans-serif;">
      <text x="75" y="208" style="clip-path:url(#clipPath5); stroke:none;">Mapping
      </text>
    </g>
    <g>
      <line x1="20" x2="191" y1="219" style="clip-path:url(#clipPath4); fill:none;" y2="219" />
      <line x1="20" x2="191" y1="242" style="clip-path:url(#clipPath4); fill:none;" y2="242" />
    </g>
    <g style="font-family:sans-serif; font-style:italic;">
      <text x="26" y="268" style="clip-path:url(#clipPath7); stroke:none;">+Object mapping
      </text>
      <text x="26" y="290" style="font-style:normal; clip-path:url(#clipPath7); stroke:none;">+Collection applyTo
      </text>
      <text x="26" y="312" style="font-style:normal; clip-path:url(#clipPath7); stroke:none;">+Collection applyFromTo
      </text>
    </g>
  </g>
</svg>
