<?xml version="1.0" encoding="UTF-8"?>

<!DOCTYPE svg PUBLIC '-//W3C//DTD SVG 20001102//EN' 'http://www.w3.org/TR/2000/CR-SVG-20001102/DTD/svg-20001102.dtd'>
<svg style="fill-opacity:1; color-rendering:auto; color-interpolation:sRGB; text-rendering:auto; stroke:black; stroke-linecap:square; stroke-miterlimit:10; shape-rendering:auto; stroke-opacity:1; fill:black; stroke-dasharray:none; font-weight:normal; stroke-width:1; font-family:&apos;sansserif&apos;; font-style:normal; stroke-linejoin:miter; font-size:12; stroke-dashoffset:0; image-rendering:auto;" width="173" height="670">
  <!--Generated by the Batik Graphics2D SVG Generator-->
  <defs id="genericDefs" />
  <g>
    <defs id="defs1">
      <clipPath clipPathUnits="userSpaceOnUse" id="clipPath1">
        <path d="M0 0 L173 0 L173 670 L0 670 L0 0 Z" />
      </clipPath>
      <clipPath clipPathUnits="userSpaceOnUse" id="clipPath2">
        <path d="M47 309 L47 489 L149 489 L149 309 Z" />
      </clipPath>
      <clipPath clipPathUnits="userSpaceOnUse" id="clipPath3">
        <path d="M48 310 L48 326 L149 326 L149 310 Z" />
      </clipPath>
      <clipPath clipPathUnits="userSpaceOnUse" id="clipPath4">
        <path d="M47 338 L47 357 L149 357 L149 338 Z" />
      </clipPath>
      <clipPath clipPathUnits="userSpaceOnUse" id="clipPath5">
        <path d="M49 340 L49 356 L148 356 L148 340 Z" />
      </clipPath>
      <clipPath clipPathUnits="userSpaceOnUse" id="clipPath6">
        <path d="M47 369 L47 448 L149 448 L149 369 Z" />
      </clipPath>
      <clipPath clipPathUnits="userSpaceOnUse" id="clipPath7">
        <path d="M49 371 L49 447 L148 447 L148 371 Z" />
      </clipPath>
      <clipPath clipPathUnits="userSpaceOnUse" id="clipPath8">
        <path d="M47 460 L47 479 L149 479 L149 460 Z" />
      </clipPath>
      <clipPath clipPathUnits="userSpaceOnUse" id="clipPath9">
        <path d="M49 462 L49 478 L148 478 L148 462 Z" />
      </clipPath>
      <clipPath clipPathUnits="userSpaceOnUse" id="clipPath10">
        <path d="M20 561 L20 657 L160 657 L160 561 Z" />
      </clipPath>
      <clipPath clipPathUnits="userSpaceOnUse" id="clipPath11">
        <path d="M21 562 L21 578 L160 578 L160 562 Z" />
      </clipPath>
      <clipPath clipPathUnits="userSpaceOnUse" id="clipPath12">
        <path d="M20 613 L20 647 L160 647 L160 613 Z" />
      </clipPath>
      <clipPath clipPathUnits="userSpaceOnUse" id="clipPath13">
        <path d="M22 615 L22 646 L159 646 L159 615 Z" />
      </clipPath>
      <clipPath clipPathUnits="userSpaceOnUse" id="clipPath14">
        <path d="M47 20 L47 237 L149 237 L149 20 Z" />
      </clipPath>
      <clipPath clipPathUnits="userSpaceOnUse" id="clipPath15">
        <path d="M48 21 L48 61 L149 61 L149 21 Z" />
      </clipPath>
      <clipPath clipPathUnits="userSpaceOnUse" id="clipPath16">
        <path d="M47 96 L47 196 L149 196 L149 96 Z" />
      </clipPath>
      <clipPath clipPathUnits="userSpaceOnUse" id="clipPath17">
        <path d="M49 98 L49 195 L148 195 L148 98 Z" />
      </clipPath>
      <clipPath clipPathUnits="userSpaceOnUse" id="clipPath18">
        <path d="M47 208 L47 227 L149 227 L149 208 Z" />
      </clipPath>
      <clipPath clipPathUnits="userSpaceOnUse" id="clipPath19">
        <path d="M49 210 L49 226 L148 226 L148 210 Z" />
      </clipPath>
    </defs>
    <g style="fill:rgb(0,64,64); stroke:rgb(0,64,64);">
      <line x1="91" x2="91" y1="561" style="clip-path:url(#clipPath1); fill:none;" y2="491" />
      <line x1="91" x2="91" y1="309" style="clip-path:url(#clipPath1); fill:none; stroke:teal;" y2="309" />
      <line x1="91" x2="91" y1="305" style="clip-path:url(#clipPath1); fill:none; stroke:teal;" y2="295" />
      <line x1="91" x2="91" y1="290" style="clip-path:url(#clipPath1); fill:none; stroke:teal;" y2="280" />
      <line x1="91" x2="91" y1="275" style="clip-path:url(#clipPath1); fill:none; stroke:teal;" y2="265" />
      <line x1="91" x2="91" y1="260" style="clip-path:url(#clipPath1); fill:none; stroke:teal;" y2="250" />
      <line x1="91" x2="91" y1="245" style="clip-path:url(#clipPath1); fill:none; stroke:teal;" y2="239" />
      <polygon style="fill:white; clip-path:url(#clipPath1); stroke:none;" points=" 91 491 97 509 85 509" />
      <polygon style="fill:none; clip-path:url(#clipPath1);" points=" 91 491 97 509 85 509" />
      <line x1="85" x2="91" y1="509" style="clip-path:url(#clipPath1); fill:none;" y2="491" />
      <polygon style="fill:white; clip-path:url(#clipPath1); stroke:none;" points=" 91 239 97 257 85 257" />
      <polygon style="fill:none; clip-path:url(#clipPath1); stroke:teal;" points=" 91 239 97 257 85 257" />
      <line x1="85" x2="91" y1="257" style="clip-path:url(#clipPath1); fill:none; stroke:teal;" y2="239" />
      <polygon style="fill:navy; clip-path:url(#clipPath1); stroke:none;" points=" 42 312 151 312 151 491 42 491 42 326 34 326 34 318 42 318 42 312" />
      <polygon style="fill:white; clip-path:url(#clipPath1); stroke:none;" points=" 39 309 148 309 148 488 39 488 39 323 31 323 31 315 39 315 39 309" />
      <polygon style="fill:none; clip-path:url(#clipPath1); stroke:black;" points=" 39 309 148 309 148 488 39 488 39 323 31 323 31 315 39 315 39 309" />
      <line x1="39" x2="47" y1="323" style="clip-path:url(#clipPath1); fill:none; stroke:black;" y2="323" />
      <line x1="47" x2="47" y1="323" style="clip-path:url(#clipPath1); fill:none; stroke:black;" y2="315" />
      <line x1="47" x2="39" y1="315" style="clip-path:url(#clipPath1); fill:none; stroke:black;" y2="315" />
    </g>
    <g style="font-family:sans-serif; font-weight:bold;">
      <text x="74" y="322" style="clip-path:url(#clipPath3); stroke:none;">FifoList
      </text>
    </g>
    <g>
      <line x1="47" x2="148" y1="331" style="clip-path:url(#clipPath2); fill:none;" y2="331" />
    </g>
    <g style="font-family:sans-serif;">
      <text x="53" y="352" style="clip-path:url(#clipPath5); stroke:none;">-List $queue
      </text>
    </g>
    <g>
      <line x1="47" x2="148" y1="362" style="clip-path:url(#clipPath2); fill:none;" y2="362" />
    </g>
    <g style="font-family:sans-serif;">
      <text x="53" y="383" style="clip-path:url(#clipPath7); stroke:none;">+FifoList
      </text>
      <text x="53" y="398" style="clip-path:url(#clipPath7); stroke:none;">+void push
      </text>
      <text x="53" y="413" style="clip-path:url(#clipPath7); stroke:none;">+Object pop
      </text>
      <text x="53" y="428" style="clip-path:url(#clipPath7); stroke:none;">+void clear
      </text>
      <text x="53" y="443" style="clip-path:url(#clipPath7); stroke:none;">+int size
      </text>
    </g>
    <g>
      <line x1="47" x2="148" y1="453" style="clip-path:url(#clipPath2); fill:none;" y2="453" />
    </g>
    <g style="font-family:sans-serif;">
      <text x="53" y="474" style="clip-path:url(#clipPath9); stroke:none;"> boolean empty
      </text>
    </g>
    <g style="fill:navy; stroke:navy;">
      <rect x="23" y="564" width="139" style="clip-path:url(#clipPath1); stroke:none;" height="95" />
      <rect x="20" y="561" width="139" style="clip-path:url(#clipPath1); fill:white; stroke:none;" height="95" />
      <rect x="20" y="561" width="139" style="clip-path:url(#clipPath1); fill:none; stroke:black;" height="95" />
    </g>
    <g style="font-family:sans-serif; font-weight:bold;">
      <text x="25" y="574" style="clip-path:url(#clipPath11); stroke:none;">SynchronizedFifoList
      </text>
    </g>
    <g>
      <line x1="20" x2="159" y1="583" style="clip-path:url(#clipPath10); fill:none;" y2="583" />
      <line x1="20" x2="159" y1="606" style="clip-path:url(#clipPath10); fill:none;" y2="606" />
    </g>
    <g style="font-family:sans-serif;">
      <text x="26" y="627" style="clip-path:url(#clipPath13); stroke:none;">+void push
      </text>
      <text x="26" y="642" style="clip-path:url(#clipPath13); stroke:none;">+Object pop
      </text>
    </g>
    <g style="fill:navy; stroke:navy;">
      <polygon style="clip-path:url(#clipPath1); stroke:none;" points=" 42 23 151 23 151 239 42 239 42 37 34 37 34 29 42 29 42 23" />
      <polygon style="fill:white; clip-path:url(#clipPath1); stroke:none;" points=" 39 20 148 20 148 236 39 236 39 34 31 34 31 26 39 26 39 20" />
      <polygon style="fill:none; clip-path:url(#clipPath1); stroke:black;" points=" 39 20 148 20 148 236 39 236 39 34 31 34 31 26 39 26 39 20" />
      <line x1="39" x2="47" y1="34" style="clip-path:url(#clipPath1); fill:none; stroke:black;" y2="34" />
      <line x1="47" x2="47" y1="34" style="clip-path:url(#clipPath1); fill:none; stroke:black;" y2="26" />
      <line x1="47" x2="39" y1="26" style="clip-path:url(#clipPath1); fill:none; stroke:black;" y2="26" />
    </g>
    <g style="font-family:sans-serif;">
      <text x="73" y="33" style="clip-path:url(#clipPath15); stroke:none;">interface
      </text>
      <text x="86" y="50" style="clip-path:url(#clipPath15); font-style:italic; stroke:none; font-weight:bold;">Fifo
      </text>
    </g>
    <g>
      <line x1="47" x2="148" y1="66" style="clip-path:url(#clipPath14); fill:none;" y2="66" />
      <line x1="47" x2="148" y1="89" style="clip-path:url(#clipPath14); fill:none;" y2="89" />
    </g>
    <g style="font-family:sans-serif; font-style:italic;">
      <text x="53" y="113" style="clip-path:url(#clipPath17); stroke:none;">+void push
      </text>
      <text x="53" y="137" style="clip-path:url(#clipPath17); stroke:none;">+Object pop
      </text>
      <text x="53" y="161" style="clip-path:url(#clipPath17); stroke:none;">+void clear
      </text>
      <text x="53" y="185" style="clip-path:url(#clipPath17); stroke:none;">+int size
      </text>
    </g>
    <g>
      <line x1="47" x2="148" y1="201" style="clip-path:url(#clipPath14); fill:none;" y2="201" />
    </g>
    <g style="font-family:sans-serif;">
      <text x="53" y="222" style="clip-path:url(#clipPath19); stroke:none;"> boolean empty
      </text>
    </g>
  </g>
</svg>
