<?xml version="1.0" encoding="UTF-8"?>

<!DOCTYPE svg PUBLIC '-//W3C//DTD SVG 20001102//EN' 'http://www.w3.org/TR/2000/CR-SVG-20001102/DTD/svg-20001102.dtd'>
<svg style="fill-opacity:1; color-interpolation:sRGB; color-rendering:auto; text-rendering:auto; stroke:black; stroke-linecap:square; stroke-miterlimit:10; stroke-opacity:1; shape-rendering:auto; fill:black; stroke-dasharray:none; font-weight:normal; stroke-width:1; font-family:&apos;Lucida Sans&apos;; font-style:normal; stroke-linejoin:miter; font-size:12; image-rendering:auto; stroke-dashoffset:0;" width="231" height="1009">
  <!--Generated by the Batik Graphics2D SVG Generator-->
  <defs id="genericDefs" />
  <g>
    <defs id="defs1">
      <clipPath clipPathUnits="userSpaceOnUse" id="clipPath1">
        <path d="M0 0 L231 0 L231 1009 L0 1009 L0 0 Z" />
      </clipPath>
      <clipPath clipPathUnits="userSpaceOnUse" id="clipPath2">
        <path d="M62 869 L62 996 L190 996 L190 869 Z" />
      </clipPath>
      <clipPath clipPathUnits="userSpaceOnUse" id="clipPath3">
        <path d="M63 870 L63 893 L190 893 L190 870 Z" />
      </clipPath>
      <clipPath clipPathUnits="userSpaceOnUse" id="clipPath4">
        <path d="M62 918 L62 944 L190 944 L190 918 Z" />
      </clipPath>
      <clipPath clipPathUnits="userSpaceOnUse" id="clipPath5">
        <path d="M64 920 L64 943 L189 943 L189 920 Z" />
      </clipPath>
      <clipPath clipPathUnits="userSpaceOnUse" id="clipPath6">
        <path d="M62 956 L62 982 L190 982 L190 956 Z" />
      </clipPath>
      <clipPath clipPathUnits="userSpaceOnUse" id="clipPath7">
        <path d="M64 958 L64 981 L189 981 L189 958 Z" />
      </clipPath>
      <clipPath clipPathUnits="userSpaceOnUse" id="clipPath8">
        <path d="M62 981 L62 996 L190 996 L190 981 Z" />
      </clipPath>
      <clipPath clipPathUnits="userSpaceOnUse" id="clipPath9">
        <path d="M20 395 L20 604 L218 604 L218 395 Z" />
      </clipPath>
      <clipPath clipPathUnits="userSpaceOnUse" id="clipPath10">
        <path d="M21 396 L21 419 L218 419 L218 396 Z" />
      </clipPath>
      <clipPath clipPathUnits="userSpaceOnUse" id="clipPath11">
        <path d="M20 454 L20 590 L218 590 L218 454 Z" />
      </clipPath>
      <clipPath clipPathUnits="userSpaceOnUse" id="clipPath12">
        <path d="M22 456 L22 589 L217 589 L217 456 Z" />
      </clipPath>
      <clipPath clipPathUnits="userSpaceOnUse" id="clipPath13">
        <path d="M20 589 L20 604 L218 604 L218 589 Z" />
      </clipPath>
      <clipPath clipPathUnits="userSpaceOnUse" id="clipPath14">
        <path d="M36 20 L36 323 L218 323 L218 20 Z" />
      </clipPath>
      <clipPath clipPathUnits="userSpaceOnUse" id="clipPath15">
        <path d="M37 21 L37 88 L218 88 L218 21 Z" />
      </clipPath>
      <clipPath clipPathUnits="userSpaceOnUse" id="clipPath16">
        <path d="M36 113 L36 271 L218 271 L218 113 Z" />
      </clipPath>
      <clipPath clipPathUnits="userSpaceOnUse" id="clipPath17">
        <path d="M38 115 L38 270 L217 270 L217 115 Z" />
      </clipPath>
      <clipPath clipPathUnits="userSpaceOnUse" id="clipPath18">
        <path d="M36 283 L36 309 L218 309 L218 283 Z" />
      </clipPath>
      <clipPath clipPathUnits="userSpaceOnUse" id="clipPath19">
        <path d="M38 285 L38 308 L217 308 L217 285 Z" />
      </clipPath>
      <clipPath clipPathUnits="userSpaceOnUse" id="clipPath20">
        <path d="M36 308 L36 323 L218 323 L218 308 Z" />
      </clipPath>
      <clipPath clipPathUnits="userSpaceOnUse" id="clipPath21">
        <path d="M57 676 L57 797 L180 797 L180 676 Z" />
      </clipPath>
      <clipPath clipPathUnits="userSpaceOnUse" id="clipPath22">
        <path d="M58 677 L58 700 L180 700 L180 677 Z" />
      </clipPath>
      <clipPath clipPathUnits="userSpaceOnUse" id="clipPath23">
        <path d="M57 735 L57 783 L180 783 L180 735 Z" />
      </clipPath>
      <clipPath clipPathUnits="userSpaceOnUse" id="clipPath24">
        <path d="M59 737 L59 782 L179 782 L179 737 Z" />
      </clipPath>
      <clipPath clipPathUnits="userSpaceOnUse" id="clipPath25">
        <path d="M57 782 L57 797 L180 797 L180 782 Z" />
      </clipPath>
    </defs>
    <g style="fill:teal; stroke:teal;">
      <line x1="120" x2="120" y1="395" style="clip-path:url(#clipPath1); fill:none;" y2="395" />
      <line x1="120" x2="120" y1="395" style="clip-path:url(#clipPath1); fill:none;" y2="385" />
      <line x1="120" x2="120" y1="380" style="clip-path:url(#clipPath1); fill:none;" y2="370" />
      <line x1="120" x2="120" y1="365" style="clip-path:url(#clipPath1); fill:none;" y2="355" />
      <line x1="120" x2="120" y1="350" style="clip-path:url(#clipPath1); fill:none;" y2="340" />
      <line x1="120" x2="120" y1="335" style="clip-path:url(#clipPath1); fill:none;" y2="325" />
      <line x1="119" x2="119" y1="676" style="clip-path:url(#clipPath1); fill:none; stroke:rgb(0,64,64);" y2="606" />
      <line x1="119" x2="119" y1="869" style="clip-path:url(#clipPath1); fill:none; stroke:rgb(0,64,64);" y2="799" />
      <polygon style="fill:white; clip-path:url(#clipPath1); stroke:none;" points=" 120 325 126 343 114 343" />
      <polygon style="fill:none; clip-path:url(#clipPath1);" points=" 120 325 126 343 114 343" />
      <line x1="114" x2="120" y1="343" style="clip-path:url(#clipPath1); fill:none;" y2="325" />
      <polygon style="fill:white; clip-path:url(#clipPath1); stroke:none;" points=" 119 606 125 624 113 624" />
      <polygon style="fill:none; clip-path:url(#clipPath1); stroke:rgb(0,64,64);" points=" 119 606 125 624 113 624" />
      <line x1="113" x2="119" y1="624" style="clip-path:url(#clipPath1); fill:none; stroke:rgb(0,64,64);" y2="606" />
      <polygon style="fill:white; clip-path:url(#clipPath1); stroke:none;" points=" 119 799 125 817 113 817" />
      <polygon style="fill:none; clip-path:url(#clipPath1); stroke:rgb(0,64,64);" points=" 119 799 125 817 113 817" />
      <line x1="113" x2="119" y1="817" style="clip-path:url(#clipPath1); fill:none; stroke:rgb(0,64,64);" y2="799" />
      <polygon style="fill:navy; clip-path:url(#clipPath1); stroke:none;" points=" 57 872 192 872 192 998 57 998 57 886 49 886 49 878 57 878 57 872" />
      <polygon style="fill:white; clip-path:url(#clipPath1); stroke:none;" points=" 54 869 189 869 189 995 54 995 54 883 46 883 46 875 54 875 54 869" />
      <polygon style="fill:none; clip-path:url(#clipPath1); stroke:black;" points=" 54 869 189 869 189 995 54 995 54 883 46 883 46 875 54 875 54 869" />
      <line x1="54" x2="62" y1="883" style="clip-path:url(#clipPath1); fill:none; stroke:black;" y2="883" />
      <line x1="62" x2="62" y1="883" style="clip-path:url(#clipPath1); fill:none; stroke:black;" y2="875" />
      <line x1="62" x2="54" y1="875" style="clip-path:url(#clipPath1); fill:none; stroke:black;" y2="875" />
    </g>
    <g style="font-style:italic; font-weight:bold; font-family:sans-serif;">
      <text x="67" y="887" style="clip-path:url(#clipPath3); stroke:none;">BaseDirPredicate
      </text>
    </g>
    <g>
      <line x1="62" x2="189" y1="898" style="clip-path:url(#clipPath2); fill:none;" y2="898" />
      <line x1="62" x2="189" y1="911" style="clip-path:url(#clipPath2); fill:none;" y2="911" />
    </g>
    <g style="font-family:sans-serif;">
      <text x="68" y="937" style="clip-path:url(#clipPath5); stroke:none;">+BaseDirPredicate
      </text>
    </g>
    <g>
      <line x1="62" x2="189" y1="949" style="clip-path:url(#clipPath2); fill:none;" y2="949" />
    </g>
    <g style="font-family:sans-serif;">
      <text x="68" y="975" style="clip-path:url(#clipPath7); stroke:none;"> baseDir:File
      </text>
    </g>
    <g>
      <polygon style="fill:none; clip-path:url(#clipPath8);" points=" 182 986 183 986 183 984 184 983 184 983 185 984 185 986 186 986 186 989 182 989 182 986" />
      <line x1="182" x2="186" y1="986" style="clip-path:url(#clipPath8); fill:none;" y2="986" />
    </g>
    <g style="fill:navy; stroke:navy;">
      <rect x="23" y="398" width="197" style="clip-path:url(#clipPath1); stroke:none;" height="208" />
      <rect x="20" y="395" width="197" style="clip-path:url(#clipPath1); fill:white; stroke:none;" height="208" />
      <rect x="20" y="395" width="197" style="clip-path:url(#clipPath1); fill:none; stroke:black;" height="208" />
    </g>
    <g style="font-style:italic; font-weight:bold; font-family:sans-serif;">
      <text x="25" y="413" style="clip-path:url(#clipPath10); stroke:none;">...AbstractPredicate
      </text>
    </g>
    <g>
      <line x1="20" x2="217" y1="424" style="clip-path:url(#clipPath9); fill:none;" y2="424" />
      <line x1="20" x2="217" y1="447" style="clip-path:url(#clipPath9); fill:none;" y2="447" />
    </g>
    <g style="font-family:sans-serif;">
      <text x="26" y="473" style="clip-path:url(#clipPath12); stroke:none;">+exists:boolean
      </text>
      <text x="26" y="495" style="clip-path:url(#clipPath12); stroke:none;">+forall:boolean
      </text>
      <text x="26" y="517" style="clip-path:url(#clipPath12); stroke:none;">+count:int
      </text>
      <text x="26" y="539" style="clip-path:url(#clipPath12); stroke:none;">+filter:void
      </text>
      <text x="26" y="561" style="clip-path:url(#clipPath12); stroke:none;">+equals:boolean
      </text>
      <text x="26" y="583" style="clip-path:url(#clipPath12); stroke:none;">+nbSubPredicates:int
      </text>
    </g>
    <g>
      <polygon style="fill:none; clip-path:url(#clipPath13);" points=" 210 594 211 594 211 592 212 591 212 591 213 592 213 594 214 594 214 597 210 597 210 594" />
      <line x1="210" x2="214" y1="594" style="clip-path:url(#clipPath13); fill:none;" y2="594" />
    </g>
    <g style="fill:navy; stroke:navy;">
      <polygon style="clip-path:url(#clipPath1); stroke:none;" points=" 31 23 220 23 220 325 31 325 31 37 23 37 23 29 31 29 31 23" />
      <polygon style="fill:white; clip-path:url(#clipPath1); stroke:none;" points=" 28 20 217 20 217 322 28 322 28 34 20 34 20 26 28 26 28 20" />
      <polygon style="fill:none; clip-path:url(#clipPath1); stroke:black;" points=" 28 20 217 20 217 322 28 322 28 34 20 34 20 26 28 26 28 20" />
      <line x1="28" x2="36" y1="34" style="clip-path:url(#clipPath1); fill:none; stroke:black;" y2="34" />
      <line x1="36" x2="36" y1="34" style="clip-path:url(#clipPath1); fill:none; stroke:black;" y2="26" />
      <line x1="36" x2="28" y1="26" style="clip-path:url(#clipPath1); fill:none; stroke:black;" y2="26" />
    </g>
    <g style="font-family:sans-serif;">
      <text x="94" y="38" style="clip-path:url(#clipPath15); stroke:none;">CollectionOperator
      </text>
      <text x="99" y="60" style="clip-path:url(#clipPath15); stroke:none;">interface
      </text>
      <text x="41" y="82" style="clip-path:url(#clipPath15); font-style:italic; stroke:none; font-weight:bold;">...predicate.Predicate
      </text>
    </g>
    <g>
      <line x1="36" x2="217" y1="93" style="clip-path:url(#clipPath14); fill:none;" y2="93" />
      <line x1="36" x2="217" y1="106" style="clip-path:url(#clipPath14); fill:none;" y2="106" />
    </g>
    <g style="font-family:sans-serif; font-style:italic;">
      <text x="42" y="132" style="clip-path:url(#clipPath17); stroke:none;">+eval:boolean
      </text>
      <text x="42" y="154" style="clip-path:url(#clipPath17); stroke:none;">+exists:boolean
      </text>
      <text x="42" y="176" style="clip-path:url(#clipPath17); stroke:none;">+forall:boolean
      </text>
      <text x="42" y="198" style="clip-path:url(#clipPath17); stroke:none;">+count:int
      </text>
      <text x="42" y="220" style="clip-path:url(#clipPath17); stroke:none;">+filter:void
      </text>
      <text x="42" y="242" style="clip-path:url(#clipPath17); stroke:none;">+equals:boolean
      </text>
      <text x="42" y="264" style="clip-path:url(#clipPath17); stroke:none;">+nbSubPredicates:int
      </text>
    </g>
    <g>
      <line x1="36" x2="217" y1="276" style="clip-path:url(#clipPath14); fill:none;" y2="276" />
    </g>
    <g style="font-family:sans-serif;">
      <text x="42" y="302" style="clip-path:url(#clipPath19); stroke:none;"> subPredicates:List
      </text>
    </g>
    <g>
      <polygon style="fill:none; clip-path:url(#clipPath20);" points=" 210 313 211 313 211 311 212 310 212 310 213 311 213 313 214 313 214 316 210 316 210 313" />
      <line x1="210" x2="214" y1="313" style="clip-path:url(#clipPath20); fill:none;" y2="313" />
    </g>
    <g style="fill:navy; stroke:navy;">
      <rect x="60" y="679" width="122" style="clip-path:url(#clipPath1); stroke:none;" height="120" />
      <rect x="57" y="676" width="122" style="clip-path:url(#clipPath1); fill:white; stroke:none;" height="120" />
      <rect x="57" y="676" width="122" style="clip-path:url(#clipPath1); fill:none; stroke:black;" height="120" />
    </g>
    <g style="font-style:italic; font-weight:bold; font-family:sans-serif;">
      <text x="73" y="694" style="clip-path:url(#clipPath22); stroke:none;">FilePredicate
      </text>
    </g>
    <g>
      <line x1="57" x2="179" y1="705" style="clip-path:url(#clipPath21); fill:none;" y2="705" />
      <line x1="57" x2="179" y1="728" style="clip-path:url(#clipPath21); fill:none;" y2="728" />
    </g>
    <g style="font-family:sans-serif;">
      <text x="63" y="754" style="clip-path:url(#clipPath24); stroke:none;">+eval:boolean
      </text>
      <text x="63" y="776" style="font-style:italic; clip-path:url(#clipPath24); stroke:none;">+evalFile:boolean
      </text>
    </g>
    <g>
      <polygon style="fill:none; clip-path:url(#clipPath25);" points=" 172 787 173 787 173 785 174 784 174 784 175 785 175 787 176 787 176 790 172 790 172 787" />
      <line x1="172" x2="176" y1="787" style="clip-path:url(#clipPath25); fill:none;" y2="787" />
    </g>
  </g>
</svg>
