<?xml version="1.0" encoding="UTF-8"?>

<!DOCTYPE svg PUBLIC '-//W3C//DTD SVG 20001102//EN' 'http://www.w3.org/TR/2000/CR-SVG-20001102/DTD/svg-20001102.dtd'>
<svg style="fill-opacity:1; color-interpolation:sRGB; color-rendering:auto; text-rendering:auto; stroke:black; stroke-linecap:square; stroke-miterlimit:10; stroke-opacity:1; shape-rendering:auto; fill:black; stroke-dasharray:none; font-weight:normal; stroke-width:1; font-family:&apos;sansserif&apos;; font-style:normal; stroke-linejoin:miter; font-size:12; image-rendering:auto; stroke-dashoffset:0;" width="877" height="1344">
  <!--Generated by the Batik Graphics2D SVG Generator-->
  <defs id="genericDefs" />
  <g>
    <defs id="defs1">
      <clipPath clipPathUnits="userSpaceOnUse" id="clipPath1">
        <path d="M0 0 L877 0 L877 1344 L0 1344 L0 0 Z" />
      </clipPath>
      <clipPath clipPathUnits="userSpaceOnUse" id="clipPath2">
        <path d="M36 747 L36 893 L193 893 L193 747 Z" />
      </clipPath>
      <clipPath clipPathUnits="userSpaceOnUse" id="clipPath3">
        <path d="M37 748 L37 764 L193 764 L193 748 Z" />
      </clipPath>
      <clipPath clipPathUnits="userSpaceOnUse" id="clipPath4">
        <path d="M36 799 L36 833 L193 833 L193 799 Z" />
      </clipPath>
      <clipPath clipPathUnits="userSpaceOnUse" id="clipPath5">
        <path d="M38 801 L38 832 L192 832 L192 801 Z" />
      </clipPath>
      <clipPath clipPathUnits="userSpaceOnUse" id="clipPath6">
        <path d="M36 845 L36 879 L193 879 L193 845 Z" />
      </clipPath>
      <clipPath clipPathUnits="userSpaceOnUse" id="clipPath7">
        <path d="M38 847 L38 878 L192 878 L192 847 Z" />
      </clipPath>
      <clipPath clipPathUnits="userSpaceOnUse" id="clipPath8">
        <path d="M36 878 L36 893 L193 893 L193 878 Z" />
      </clipPath>
      <clipPath clipPathUnits="userSpaceOnUse" id="clipPath9">
        <path d="M202 560 L202 675 L356 675 L356 560 Z" />
      </clipPath>
      <clipPath clipPathUnits="userSpaceOnUse" id="clipPath10">
        <path d="M203 561 L203 592 L356 592 L356 561 Z" />
      </clipPath>
      <clipPath clipPathUnits="userSpaceOnUse" id="clipPath11">
        <path d="M202 627 L202 661 L356 661 L356 627 Z" />
      </clipPath>
      <clipPath clipPathUnits="userSpaceOnUse" id="clipPath12">
        <path d="M204 629 L204 660 L355 660 L355 629 Z" />
      </clipPath>
      <clipPath clipPathUnits="userSpaceOnUse" id="clipPath13">
        <path d="M202 660 L202 675 L356 675 L356 660 Z" />
      </clipPath>
      <clipPath clipPathUnits="userSpaceOnUse" id="clipPath14">
        <path d="M378 560 L378 660 L492 660 L492 560 Z" />
      </clipPath>
      <clipPath clipPathUnits="userSpaceOnUse" id="clipPath15">
        <path d="M379 561 L379 577 L492 577 L492 561 Z" />
      </clipPath>
      <clipPath clipPathUnits="userSpaceOnUse" id="clipPath16">
        <path d="M378 612 L378 646 L492 646 L492 612 Z" />
      </clipPath>
      <clipPath clipPathUnits="userSpaceOnUse" id="clipPath17">
        <path d="M380 614 L380 645 L491 645 L491 614 Z" />
      </clipPath>
      <clipPath clipPathUnits="userSpaceOnUse" id="clipPath18">
        <path d="M378 645 L378 660 L492 660 L492 645 Z" />
      </clipPath>
      <clipPath clipPathUnits="userSpaceOnUse" id="clipPath19">
        <path d="M483 747 L483 863 L603 863 L603 747 Z" />
      </clipPath>
      <clipPath clipPathUnits="userSpaceOnUse" id="clipPath20">
        <path d="M484 748 L484 764 L603 764 L603 748 Z" />
      </clipPath>
      <clipPath clipPathUnits="userSpaceOnUse" id="clipPath21">
        <path d="M483 799 L483 818 L603 818 L603 799 Z" />
      </clipPath>
      <clipPath clipPathUnits="userSpaceOnUse" id="clipPath22">
        <path d="M485 801 L485 817 L602 817 L602 801 Z" />
      </clipPath>
      <clipPath clipPathUnits="userSpaceOnUse" id="clipPath23">
        <path d="M483 830 L483 849 L603 849 L603 830 Z" />
      </clipPath>
      <clipPath clipPathUnits="userSpaceOnUse" id="clipPath24">
        <path d="M485 832 L485 848 L602 848 L602 832 Z" />
      </clipPath>
      <clipPath clipPathUnits="userSpaceOnUse" id="clipPath25">
        <path d="M483 848 L483 863 L603 863 L603 848 Z" />
      </clipPath>
      <clipPath clipPathUnits="userSpaceOnUse" id="clipPath26">
        <path d="M515 20 L515 302 L654 302 L654 20 Z" />
      </clipPath>
      <clipPath clipPathUnits="userSpaceOnUse" id="clipPath27">
        <path d="M516 21 L516 37 L654 37 L654 21 Z" />
      </clipPath>
      <clipPath clipPathUnits="userSpaceOnUse" id="clipPath28">
        <path d="M515 72 L515 226 L654 226 L654 72 Z" />
      </clipPath>
      <clipPath clipPathUnits="userSpaceOnUse" id="clipPath29">
        <path d="M517 74 L517 225 L653 225 L653 74 Z" />
      </clipPath>
      <clipPath clipPathUnits="userSpaceOnUse" id="clipPath30">
        <path d="M515 238 L515 257 L654 257 L654 238 Z" />
      </clipPath>
      <clipPath clipPathUnits="userSpaceOnUse" id="clipPath31">
        <path d="M517 240 L517 256 L653 256 L653 240 Z" />
      </clipPath>
      <clipPath clipPathUnits="userSpaceOnUse" id="clipPath32">
        <path d="M515 269 L515 288 L654 288 L654 269 Z" />
      </clipPath>
      <clipPath clipPathUnits="userSpaceOnUse" id="clipPath33">
        <path d="M517 271 L517 287 L653 287 L653 271 Z" />
      </clipPath>
      <clipPath clipPathUnits="userSpaceOnUse" id="clipPath34">
        <path d="M515 287 L515 302 L654 302 L654 287 Z" />
      </clipPath>
      <clipPath clipPathUnits="userSpaceOnUse" id="clipPath35">
        <path d="M209 20 L209 256 L387 256 L387 20 Z" />
      </clipPath>
      <clipPath clipPathUnits="userSpaceOnUse" id="clipPath36">
        <path d="M210 21 L210 67 L387 67 L387 21 Z" />
      </clipPath>
      <clipPath clipPathUnits="userSpaceOnUse" id="clipPath37">
        <path d="M209 102 L209 211 L387 211 L387 102 Z" />
      </clipPath>
      <clipPath clipPathUnits="userSpaceOnUse" id="clipPath38">
        <path d="M211 104 L211 210 L386 210 L386 104 Z" />
      </clipPath>
      <clipPath clipPathUnits="userSpaceOnUse" id="clipPath39">
        <path d="M209 223 L209 242 L387 242 L387 223 Z" />
      </clipPath>
      <clipPath clipPathUnits="userSpaceOnUse" id="clipPath40">
        <path d="M211 225 L211 241 L386 241 L386 225 Z" />
      </clipPath>
      <clipPath clipPathUnits="userSpaceOnUse" id="clipPath41">
        <path d="M209 241 L209 256 L387 256 L387 241 Z" />
      </clipPath>
      <clipPath clipPathUnits="userSpaceOnUse" id="clipPath42">
        <path d="M226 1020 L226 1226 L380 1226 L380 1020 Z" />
      </clipPath>
      <clipPath clipPathUnits="userSpaceOnUse" id="clipPath43">
        <path d="M227 1021 L227 1037 L380 1037 L380 1021 Z" />
      </clipPath>
      <clipPath clipPathUnits="userSpaceOnUse" id="clipPath44">
        <path d="M226 1072 L226 1166 L380 1166 L380 1072 Z" />
      </clipPath>
      <clipPath clipPathUnits="userSpaceOnUse" id="clipPath45">
        <path d="M228 1074 L228 1165 L379 1165 L379 1074 Z" />
      </clipPath>
      <clipPath clipPathUnits="userSpaceOnUse" id="clipPath46">
        <path d="M226 1178 L226 1212 L380 1212 L380 1178 Z" />
      </clipPath>
      <clipPath clipPathUnits="userSpaceOnUse" id="clipPath47">
        <path d="M228 1180 L228 1211 L379 1211 L379 1180 Z" />
      </clipPath>
      <clipPath clipPathUnits="userSpaceOnUse" id="clipPath48">
        <path d="M226 1211 L226 1226 L380 1226 L380 1211 Z" />
      </clipPath>
      <clipPath clipPathUnits="userSpaceOnUse" id="clipPath49">
        <path d="M456 1020 L456 1331 L638 1331 L638 1020 Z" />
      </clipPath>
      <clipPath clipPathUnits="userSpaceOnUse" id="clipPath50">
        <path d="M457 1021 L457 1037 L638 1037 L638 1021 Z" />
      </clipPath>
      <clipPath clipPathUnits="userSpaceOnUse" id="clipPath51">
        <path d="M456 1072 L456 1211 L638 1211 L638 1072 Z" />
      </clipPath>
      <clipPath clipPathUnits="userSpaceOnUse" id="clipPath52">
        <path d="M458 1074 L458 1210 L637 1210 L637 1074 Z" />
      </clipPath>
      <clipPath clipPathUnits="userSpaceOnUse" id="clipPath53">
        <path d="M456 1223 L456 1317 L638 1317 L638 1223 Z" />
      </clipPath>
      <clipPath clipPathUnits="userSpaceOnUse" id="clipPath54">
        <path d="M458 1225 L458 1316 L637 1316 L637 1225 Z" />
      </clipPath>
      <clipPath clipPathUnits="userSpaceOnUse" id="clipPath55">
        <path d="M456 1316 L456 1331 L638 1331 L638 1316 Z" />
      </clipPath>
      <clipPath clipPathUnits="userSpaceOnUse" id="clipPath56">
        <path d="M716 1020 L716 1181 L864 1181 L864 1020 Z" />
      </clipPath>
      <clipPath clipPathUnits="userSpaceOnUse" id="clipPath57">
        <path d="M717 1021 L717 1037 L864 1037 L864 1021 Z" />
      </clipPath>
      <clipPath clipPathUnits="userSpaceOnUse" id="clipPath58">
        <path d="M716 1072 L716 1106 L864 1106 L864 1072 Z" />
      </clipPath>
      <clipPath clipPathUnits="userSpaceOnUse" id="clipPath59">
        <path d="M718 1074 L718 1105 L863 1105 L863 1074 Z" />
      </clipPath>
      <clipPath clipPathUnits="userSpaceOnUse" id="clipPath60">
        <path d="M716 1118 L716 1167 L864 1167 L864 1118 Z" />
      </clipPath>
      <clipPath clipPathUnits="userSpaceOnUse" id="clipPath61">
        <path d="M718 1120 L718 1166 L863 1166 L863 1120 Z" />
      </clipPath>
      <clipPath clipPathUnits="userSpaceOnUse" id="clipPath62">
        <path d="M716 1166 L716 1181 L864 1181 L864 1166 Z" />
      </clipPath>
      <clipPath clipPathUnits="userSpaceOnUse" id="clipPath63">
        <path d="M330 330 L330 490 L528 490 L528 330 Z" />
      </clipPath>
      <clipPath clipPathUnits="userSpaceOnUse" id="clipPath64">
        <path d="M331 331 L331 347 L528 347 L528 331 Z" />
      </clipPath>
      <clipPath clipPathUnits="userSpaceOnUse" id="clipPath65">
        <path d="M330 382 L330 476 L528 476 L528 382 Z" />
      </clipPath>
      <clipPath clipPathUnits="userSpaceOnUse" id="clipPath66">
        <path d="M332 384 L332 475 L527 475 L527 384 Z" />
      </clipPath>
      <clipPath clipPathUnits="userSpaceOnUse" id="clipPath67">
        <path d="M330 475 L330 490 L528 490 L528 475 Z" />
      </clipPath>
    </defs>
    <g style="fill:teal; stroke:teal;">
      <line x1="253" x2="253" y1="1020" style="clip-path:url(#clipPath1); fill:none;" y2="1015" />
      <line x1="253" x2="253" y1="1010" style="clip-path:url(#clipPath1); fill:none;" y2="1000" />
      <line x1="253" x2="253" y1="995" style="clip-path:url(#clipPath1); fill:none;" y2="985" />
      <line x1="253" x2="253" y1="980" style="clip-path:url(#clipPath1); fill:none;" y2="970" />
      <line x1="253" x2="253" y1="965" style="clip-path:url(#clipPath1); fill:none;" y2="955" />
      <line x1="253" x2="253" y1="950" style="clip-path:url(#clipPath1); fill:none;" y2="940" />
      <line x1="253" x2="253" y1="935" style="clip-path:url(#clipPath1); fill:none;" y2="925" />
      <line x1="253" x2="253" y1="920" style="clip-path:url(#clipPath1); fill:none;" y2="910" />
      <line x1="253" x2="253" y1="905" style="clip-path:url(#clipPath1); fill:none;" y2="895" />
      <line x1="253" x2="253" y1="890" style="clip-path:url(#clipPath1); fill:none;" y2="880" />
      <line x1="253" x2="253" y1="875" style="clip-path:url(#clipPath1); fill:none;" y2="865" />
      <line x1="253" x2="253" y1="860" style="clip-path:url(#clipPath1); fill:none;" y2="850" />
      <line x1="253" x2="253" y1="845" style="clip-path:url(#clipPath1); fill:none;" y2="835" />
      <line x1="253" x2="253" y1="830" style="clip-path:url(#clipPath1); fill:none;" y2="820" />
      <line x1="253" x2="253" y1="815" style="clip-path:url(#clipPath1); fill:none;" y2="805" />
      <line x1="253" x2="253" y1="800" style="clip-path:url(#clipPath1); fill:none;" y2="790" />
      <line x1="253" x2="253" y1="785" style="clip-path:url(#clipPath1); fill:none;" y2="775" />
      <line x1="253" x2="253" y1="770" style="clip-path:url(#clipPath1); fill:none;" y2="760" />
      <line x1="253" x2="253" y1="755" style="clip-path:url(#clipPath1); fill:none;" y2="745" />
      <line x1="253" x2="253" y1="740" style="clip-path:url(#clipPath1); fill:none;" y2="730" />
      <line x1="253" x2="253" y1="725" style="clip-path:url(#clipPath1); fill:none;" y2="720" />
      <line x1="253" x2="255" y1="720" style="clip-path:url(#clipPath1); fill:none;" y2="720" />
      <line x1="260" x2="270" y1="720" style="clip-path:url(#clipPath1); fill:none;" y2="720" />
      <line x1="275" x2="280" y1="720" style="clip-path:url(#clipPath1); fill:none;" y2="720" />
      <line x1="280" x2="280" y1="720" style="clip-path:url(#clipPath1); fill:none;" y2="715" />
      <line x1="280" x2="280" y1="710" style="clip-path:url(#clipPath1); fill:none;" y2="700" />
      <line x1="280" x2="280" y1="695" style="clip-path:url(#clipPath1); fill:none;" y2="685" />
      <line x1="280" x2="280" y1="680" style="clip-path:url(#clipPath1); fill:none;" y2="677" />
      <line x1="296" x2="296" y1="1020" style="clip-path:url(#clipPath1); fill:none; stroke:rgb(0,64,64);" y2="704" />
      <line x1="296" x2="441" y1="704" style="clip-path:url(#clipPath1); fill:none; stroke:rgb(0,64,64);" y2="704" />
      <line x1="441" x2="441" y1="704" style="clip-path:url(#clipPath1); fill:none; stroke:rgb(0,64,64);" y2="662" />
      <line x1="230" x2="230" y1="1020" style="clip-path:url(#clipPath1); fill:none; stroke:blue;" y2="990" />
      <line x1="230" x2="63" y1="990" style="clip-path:url(#clipPath1); fill:none; stroke:blue;" y2="990" />
      <line x1="63" x2="63" y1="990" style="clip-path:url(#clipPath1); fill:none; stroke:blue;" y2="895" />
      <line x1="410" x2="410" y1="330" style="clip-path:url(#clipPath1); fill:none;" y2="325" />
      <line x1="410" x2="410" y1="320" style="clip-path:url(#clipPath1); fill:none;" y2="310" />
      <line x1="410" x2="410" y1="305" style="clip-path:url(#clipPath1); fill:none;" y2="295" />
      <line x1="410" x2="410" y1="293" style="clip-path:url(#clipPath1); fill:none;" y2="293" />
      <line x1="410" x2="400" y1="293" style="clip-path:url(#clipPath1); fill:none;" y2="293" />
      <line x1="395" x2="385" y1="293" style="clip-path:url(#clipPath1); fill:none;" y2="293" />
      <line x1="380" x2="370" y1="293" style="clip-path:url(#clipPath1); fill:none;" y2="293" />
      <line x1="365" x2="355" y1="293" style="clip-path:url(#clipPath1); fill:none;" y2="293" />
      <line x1="350" x2="340" y1="293" style="clip-path:url(#clipPath1); fill:none;" y2="293" />
      <line x1="335" x2="325" y1="293" style="clip-path:url(#clipPath1); fill:none;" y2="293" />
      <line x1="324" x2="324" y1="293" style="clip-path:url(#clipPath1); fill:none;" y2="293" />
      <line x1="324" x2="324" y1="290" style="clip-path:url(#clipPath1); fill:none;" y2="280" />
      <line x1="324" x2="324" y1="275" style="clip-path:url(#clipPath1); fill:none;" y2="265" />
      <line x1="324" x2="324" y1="260" style="clip-path:url(#clipPath1); fill:none;" y2="258" />
      <line x1="536" x2="536" y1="747" style="clip-path:url(#clipPath1); fill:none; stroke:rgb(0,64,64);" y2="704" />
      <line x1="536" x2="441" y1="704" style="clip-path:url(#clipPath1); fill:none; stroke:rgb(0,64,64);" y2="704" />
      <line x1="441" x2="441" y1="704" style="clip-path:url(#clipPath1); fill:none; stroke:rgb(0,64,64);" y2="662" />
      <line x1="460" x2="460" y1="1020" style="clip-path:url(#clipPath1); fill:none;" y2="1015" />
      <line x1="460" x2="460" y1="1010" style="clip-path:url(#clipPath1); fill:none;" y2="1000" />
      <line x1="460" x2="460" y1="995" style="clip-path:url(#clipPath1); fill:none;" y2="985" />
      <line x1="460" x2="460" y1="980" style="clip-path:url(#clipPath1); fill:none;" y2="970" />
      <line x1="460" x2="460" y1="965" style="clip-path:url(#clipPath1); fill:none;" y2="955" />
      <line x1="460" x2="460" y1="950" style="clip-path:url(#clipPath1); fill:none;" y2="940" />
      <line x1="460" x2="460" y1="935" style="clip-path:url(#clipPath1); fill:none;" y2="925" />
      <line x1="460" x2="460" y1="920" style="clip-path:url(#clipPath1); fill:none;" y2="910" />
      <line x1="460" x2="460" y1="905" style="clip-path:url(#clipPath1); fill:none;" y2="895" />
      <line x1="460" x2="460" y1="890" style="clip-path:url(#clipPath1); fill:none;" y2="880" />
      <line x1="460" x2="460" y1="875" style="clip-path:url(#clipPath1); fill:none;" y2="865" />
      <line x1="460" x2="460" y1="860" style="clip-path:url(#clipPath1); fill:none;" y2="850" />
      <line x1="460" x2="460" y1="845" style="clip-path:url(#clipPath1); fill:none;" y2="835" />
      <line x1="460" x2="460" y1="830" style="clip-path:url(#clipPath1); fill:none;" y2="820" />
      <line x1="460" x2="460" y1="815" style="clip-path:url(#clipPath1); fill:none;" y2="805" />
      <line x1="460" x2="460" y1="800" style="clip-path:url(#clipPath1); fill:none;" y2="790" />
      <line x1="460" x2="460" y1="785" style="clip-path:url(#clipPath1); fill:none;" y2="775" />
      <line x1="460" x2="460" y1="770" style="clip-path:url(#clipPath1); fill:none;" y2="760" />
      <line x1="460" x2="460" y1="755" style="clip-path:url(#clipPath1); fill:none;" y2="745" />
      <line x1="460" x2="460" y1="740" style="clip-path:url(#clipPath1); fill:none;" y2="730" />
      <line x1="460" x2="460" y1="725" style="clip-path:url(#clipPath1); fill:none;" y2="720" />
      <line x1="460" x2="460" y1="720" style="clip-path:url(#clipPath1); fill:none;" y2="720" />
      <line x1="455" x2="445" y1="720" style="clip-path:url(#clipPath1); fill:none;" y2="720" />
      <line x1="440" x2="430" y1="720" style="clip-path:url(#clipPath1); fill:none;" y2="720" />
      <line x1="425" x2="415" y1="720" style="clip-path:url(#clipPath1); fill:none;" y2="720" />
      <line x1="410" x2="400" y1="720" style="clip-path:url(#clipPath1); fill:none;" y2="720" />
      <line x1="395" x2="385" y1="720" style="clip-path:url(#clipPath1); fill:none;" y2="720" />
      <line x1="380" x2="370" y1="720" style="clip-path:url(#clipPath1); fill:none;" y2="720" />
      <line x1="365" x2="355" y1="720" style="clip-path:url(#clipPath1); fill:none;" y2="720" />
      <line x1="350" x2="340" y1="720" style="clip-path:url(#clipPath1); fill:none;" y2="720" />
      <line x1="335" x2="325" y1="720" style="clip-path:url(#clipPath1); fill:none;" y2="720" />
      <line x1="320" x2="310" y1="720" style="clip-path:url(#clipPath1); fill:none;" y2="720" />
      <line x1="305" x2="295" y1="720" style="clip-path:url(#clipPath1); fill:none;" y2="720" />
      <line x1="290" x2="280" y1="720" style="clip-path:url(#clipPath1); fill:none;" y2="720" />
      <line x1="280" x2="280" y1="720" style="clip-path:url(#clipPath1); fill:none;" y2="715" />
      <line x1="280" x2="280" y1="710" style="clip-path:url(#clipPath1); fill:none;" y2="700" />
      <line x1="280" x2="280" y1="695" style="clip-path:url(#clipPath1); fill:none;" y2="685" />
      <line x1="280" x2="280" y1="680" style="clip-path:url(#clipPath1); fill:none;" y2="677" />
      <line x1="572" x2="572" y1="1020" style="clip-path:url(#clipPath1); fill:none; stroke:rgb(0,64,64);" y2="865" />
      <line x1="465" x2="465" y1="1020" style="clip-path:url(#clipPath1); fill:none; stroke:blue;" y2="957" />
      <line x1="465" x2="129" y1="957" style="clip-path:url(#clipPath1); fill:none; stroke:blue;" y2="957" />
      <line x1="129" x2="129" y1="957" style="clip-path:url(#clipPath1); fill:none; stroke:blue;" y2="895" />
      <line x1="640" x2="700" y1="1101" style="clip-path:url(#clipPath1); fill:none; stroke:blue;" y2="1101" />
      <line x1="436" x2="436" y1="560" style="clip-path:url(#clipPath1); fill:none; stroke:rgb(0,64,64);" y2="492" />
      <line x1="269" x2="269" y1="560" style="clip-path:url(#clipPath1); fill:none; stroke:rgb(0,64,64);" y2="293" />
      <line x1="269" x2="324" y1="293" style="clip-path:url(#clipPath1); fill:none; stroke:rgb(0,64,64);" y2="293" />
      <line x1="324" x2="324" y1="293" style="clip-path:url(#clipPath1); fill:none; stroke:rgb(0,64,64);" y2="258" />
      <line x1="165" x2="165" y1="747" style="clip-path:url(#clipPath1); fill:none; stroke:blue;" y2="484" />
      <line x1="165" x2="227" y1="484" style="clip-path:url(#clipPath1); fill:none; stroke:blue;" y2="484" />
      <line x1="227" x2="227" y1="484" style="clip-path:url(#clipPath1); fill:none; stroke:blue;" y2="258" />
      <polygon style="fill:white; clip-path:url(#clipPath1); stroke:none;" points=" 280 677 286 695 274 695" />
      <polygon style="fill:none; clip-path:url(#clipPath1);" points=" 280 677 286 695 274 695" />
      <line x1="274" x2="280" y1="695" style="clip-path:url(#clipPath1); fill:none;" y2="677" />
      <polygon style="fill:white; clip-path:url(#clipPath1); stroke:none;" points=" 441 662 447 680 435 680" />
      <polygon style="fill:none; clip-path:url(#clipPath1); stroke:rgb(0,64,64);" points=" 441 662 447 680 435 680" />
      <line x1="435" x2="441" y1="680" style="clip-path:url(#clipPath1); fill:none; stroke:rgb(0,64,64);" y2="662" />
      <line x1="63" x2="58" y1="895" style="clip-path:url(#clipPath1); fill:none; stroke:blue;" y2="907" />
      <line x1="63" x2="68" y1="895" style="clip-path:url(#clipPath1); fill:none; stroke:blue;" y2="907" />
      <polygon style="fill:white; clip-path:url(#clipPath1); stroke:none;" points=" 324 258 330 276 318 276" />
      <polygon style="fill:none; clip-path:url(#clipPath1);" points=" 324 258 330 276 318 276" />
      <line x1="318" x2="324" y1="276" style="clip-path:url(#clipPath1); fill:none;" y2="258" />
      <polygon style="fill:white; clip-path:url(#clipPath1); stroke:none;" points=" 441 662 447 680 435 680" />
      <polygon style="fill:none; clip-path:url(#clipPath1); stroke:rgb(0,64,64);" points=" 441 662 447 680 435 680" />
      <line x1="435" x2="441" y1="680" style="clip-path:url(#clipPath1); fill:none; stroke:rgb(0,64,64);" y2="662" />
      <polygon style="fill:white; clip-path:url(#clipPath1); stroke:none;" points=" 280 677 286 695 274 695" />
      <polygon style="fill:none; clip-path:url(#clipPath1);" points=" 280 677 286 695 274 695" />
      <line x1="274" x2="280" y1="695" style="clip-path:url(#clipPath1); fill:none;" y2="677" />
      <polygon style="fill:white; clip-path:url(#clipPath1); stroke:none;" points=" 572 865 578 883 566 883" />
      <polygon style="fill:none; clip-path:url(#clipPath1); stroke:rgb(0,64,64);" points=" 572 865 578 883 566 883" />
      <line x1="566" x2="572" y1="883" style="clip-path:url(#clipPath1); fill:none; stroke:rgb(0,64,64);" y2="865" />
      <line x1="129" x2="124" y1="895" style="clip-path:url(#clipPath1); fill:none; stroke:blue;" y2="907" />
      <line x1="129" x2="134" y1="895" style="clip-path:url(#clipPath1); fill:none; stroke:blue;" y2="907" />
      <line x1="700" x2="688" y1="1101" style="clip-path:url(#clipPath1); fill:none; stroke:blue;" y2="1096" />
      <line x1="700" x2="688" y1="1101" style="clip-path:url(#clipPath1); fill:none; stroke:blue;" y2="1106" />
      <polygon style="fill:white; clip-path:url(#clipPath1); stroke:none;" points=" 436 492 442 510 430 510" />
      <polygon style="fill:none; clip-path:url(#clipPath1); stroke:rgb(0,64,64);" points=" 436 492 442 510 430 510" />
      <line x1="430" x2="436" y1="510" style="clip-path:url(#clipPath1); fill:none; stroke:rgb(0,64,64);" y2="492" />
      <polygon style="fill:white; clip-path:url(#clipPath1); stroke:none;" points=" 324 258 330 276 318 276" />
      <polygon style="fill:none; clip-path:url(#clipPath1); stroke:rgb(0,64,64);" points=" 324 258 330 276 318 276" />
      <line x1="318" x2="324" y1="276" style="clip-path:url(#clipPath1); fill:none; stroke:rgb(0,64,64);" y2="258" />
      <line x1="227" x2="222" y1="258" style="clip-path:url(#clipPath1); fill:none; stroke:blue;" y2="270" />
      <line x1="227" x2="232" y1="258" style="clip-path:url(#clipPath1); fill:none; stroke:blue;" y2="270" />
      <polygon style="fill:navy; clip-path:url(#clipPath1); stroke:none;" points=" 31 750 195 750 195 895 31 895 31 764 23 764 23 756 31 756 31 750" />
      <polygon style="fill:white; clip-path:url(#clipPath1); stroke:none;" points=" 28 747 192 747 192 892 28 892 28 761 20 761 20 753 28 753 28 747" />
      <polygon style="fill:none; clip-path:url(#clipPath1); stroke:black;" points=" 28 747 192 747 192 892 28 892 28 761 20 761 20 753 28 753 28 747" />
      <line x1="28" x2="36" y1="761" style="clip-path:url(#clipPath1); fill:none; stroke:black;" y2="761" />
      <line x1="36" x2="36" y1="761" style="clip-path:url(#clipPath1); fill:none; stroke:black;" y2="753" />
      <line x1="36" x2="28" y1="753" style="clip-path:url(#clipPath1); fill:none; stroke:black;" y2="753" />
    </g>
    <g style="font-weight:bold; font-family:sans-serif;">
      <text x="41" y="760" style="clip-path:url(#clipPath3); stroke:none;">FileSetPredicateSupport
      </text>
    </g>
    <g>
      <line x1="36" x2="192" y1="769" style="clip-path:url(#clipPath2); fill:none;" y2="769" />
      <line x1="36" x2="192" y1="792" style="clip-path:url(#clipPath2); fill:none;" y2="792" />
    </g>
    <g style="font-family:sans-serif;">
      <text x="42" y="813" style="clip-path:url(#clipPath5); stroke:none;">+FileSetPredicateSupport
      </text>
      <text x="42" y="828" style="clip-path:url(#clipPath5); stroke:none;">+nbSubPredicates:int
      </text>
    </g>
    <g>
      <line x1="36" x2="192" y1="838" style="clip-path:url(#clipPath2); fill:none;" y2="838" />
    </g>
    <g style="font-family:sans-serif;">
      <text x="42" y="859" style="clip-path:url(#clipPath7); stroke:none;"> predicate:Predicate
      </text>
      <text x="42" y="874" style="clip-path:url(#clipPath7); stroke:none;"> subPredicates:List
      </text>
    </g>
    <g>
      <polygon style="fill:none; clip-path:url(#clipPath8);" points=" 185 883 186 883 186 881 187 880 187 880 188 881 188 883 189 883 189 886 185 886 185 883" />
      <line x1="185" x2="189" y1="883" style="clip-path:url(#clipPath8); fill:none;" y2="883" />
    </g>
    <g style="fill:navy; stroke:navy;">
      <rect x="205" y="563" width="153" style="clip-path:url(#clipPath1); stroke:none;" height="114" />
      <rect x="202" y="560" width="153" style="clip-path:url(#clipPath1); fill:white; stroke:none;" height="114" />
      <rect x="202" y="560" width="153" style="clip-path:url(#clipPath1); fill:none; stroke:black;" height="114" />
    </g>
    <g style="font-family:sans-serif;">
      <text x="254" y="573" style="clip-path:url(#clipPath10); stroke:none;">interface
      </text>
      <text x="230" y="588" style="clip-path:url(#clipPath10); font-style:italic; stroke:none; font-weight:bold;">FileSetPredicate
      </text>
    </g>
    <g>
      <line x1="202" x2="355" y1="597" style="clip-path:url(#clipPath9); fill:none;" y2="597" />
      <line x1="202" x2="355" y1="620" style="clip-path:url(#clipPath9); fill:none;" y2="620" />
    </g>
    <g style="font-family:sans-serif; font-style:italic;">
      <text x="208" y="641" style="clip-path:url(#clipPath12); stroke:none;">+suggestDirectories:List
      </text>
      <text x="208" y="656" style="clip-path:url(#clipPath12); stroke:none;">+enterDirectory:boolean
      </text>
    </g>
    <g>
      <polygon style="fill:none; clip-path:url(#clipPath13);" points=" 348 665 349 665 349 663 350 662 350 662 351 663 351 665 352 665 352 668 348 668 348 665" />
      <line x1="348" x2="352" y1="665" style="clip-path:url(#clipPath13); fill:none;" y2="665" />
    </g>
    <g style="fill:navy; stroke:navy;">
      <rect x="381" y="563" width="113" style="clip-path:url(#clipPath1); stroke:none;" height="99" />
      <rect x="378" y="560" width="113" style="clip-path:url(#clipPath1); fill:white; stroke:none;" height="99" />
      <rect x="378" y="560" width="113" style="clip-path:url(#clipPath1); fill:none; stroke:black;" height="99" />
    </g>
    <g style="font-style:italic; font-weight:bold; font-family:sans-serif;">
      <text x="396" y="573" style="clip-path:url(#clipPath15); stroke:none;">FilePredicate
      </text>
    </g>
    <g>
      <line x1="378" x2="491" y1="582" style="clip-path:url(#clipPath14); fill:none;" y2="582" />
      <line x1="378" x2="491" y1="605" style="clip-path:url(#clipPath14); fill:none;" y2="605" />
    </g>
    <g style="font-family:sans-serif;">
      <text x="384" y="626" style="clip-path:url(#clipPath17); stroke:none;">+eval:boolean
      </text>
      <text x="384" y="641" style="font-style:italic; clip-path:url(#clipPath17); stroke:none;">+evalFile:boolean
      </text>
    </g>
    <g>
      <polygon style="fill:none; clip-path:url(#clipPath18);" points=" 484 650 485 650 485 648 486 647 486 647 487 648 487 650 488 650 488 653 484 653 484 650" />
      <line x1="484" x2="488" y1="650" style="clip-path:url(#clipPath18); fill:none;" y2="650" />
    </g>
    <g style="fill:navy; stroke:navy;">
      <polygon style="clip-path:url(#clipPath1); stroke:none;" points=" 478 750 605 750 605 865 478 865 478 764 470 764 470 756 478 756 478 750" />
      <polygon style="fill:white; clip-path:url(#clipPath1); stroke:none;" points=" 475 747 602 747 602 862 475 862 475 761 467 761 467 753 475 753 475 747" />
      <polygon style="fill:none; clip-path:url(#clipPath1); stroke:black;" points=" 475 747 602 747 602 862 475 862 475 761 467 761 467 753 475 753 475 747" />
      <line x1="475" x2="483" y1="761" style="clip-path:url(#clipPath1); fill:none; stroke:black;" y2="761" />
      <line x1="483" x2="483" y1="761" style="clip-path:url(#clipPath1); fill:none; stroke:black;" y2="753" />
      <line x1="483" x2="475" y1="753" style="clip-path:url(#clipPath1); fill:none; stroke:black;" y2="753" />
    </g>
    <g style="font-style:italic; font-weight:bold; font-family:sans-serif;">
      <text x="491" y="760" style="clip-path:url(#clipPath20); stroke:none;">BaseDirPredicate
      </text>
    </g>
    <g>
      <line x1="483" x2="602" y1="769" style="clip-path:url(#clipPath19); fill:none;" y2="769" />
      <line x1="483" x2="602" y1="792" style="clip-path:url(#clipPath19); fill:none;" y2="792" />
    </g>
    <g style="font-family:sans-serif;">
      <text x="489" y="813" style="clip-path:url(#clipPath22); stroke:none;">+BaseDirPredicate
      </text>
    </g>
    <g>
      <line x1="483" x2="602" y1="823" style="clip-path:url(#clipPath19); fill:none;" y2="823" />
    </g>
    <g style="font-family:sans-serif;">
      <text x="489" y="844" style="clip-path:url(#clipPath24); stroke:none;"> baseDir:File
      </text>
    </g>
    <g>
      <polygon style="fill:none; clip-path:url(#clipPath25);" points=" 595 853 596 853 596 851 597 850 597 850 598 851 598 853 599 853 599 856 595 856 595 853" />
      <line x1="595" x2="599" y1="853" style="clip-path:url(#clipPath25); fill:none;" y2="853" />
    </g>
    <g style="fill:navy; stroke:navy;">
      <polygon style="clip-path:url(#clipPath1); stroke:none;" points=" 510 23 656 23 656 304 510 304 510 37 502 37 502 29 510 29 510 23" />
      <polygon style="fill:white; clip-path:url(#clipPath1); stroke:none;" points=" 507 20 653 20 653 301 507 301 507 34 499 34 499 26 507 26 507 20" />
      <polygon style="fill:none; clip-path:url(#clipPath1); stroke:black;" points=" 507 20 653 20 653 301 507 301 507 34 499 34 499 26 507 26 507 20" />
      <line x1="507" x2="515" y1="34" style="clip-path:url(#clipPath1); fill:none; stroke:black;" y2="34" />
      <line x1="515" x2="515" y1="34" style="clip-path:url(#clipPath1); fill:none; stroke:black;" y2="26" />
      <line x1="515" x2="507" y1="26" style="clip-path:url(#clipPath1); fill:none; stroke:black;" y2="26" />
    </g>
    <g style="font-weight:bold; font-family:sans-serif;">
      <text x="564" y="33" style="clip-path:url(#clipPath27); stroke:none;">FileSet
      </text>
    </g>
    <g>
      <line x1="515" x2="653" y1="42" style="clip-path:url(#clipPath26); fill:none;" y2="42" />
      <line x1="515" x2="653" y1="65" style="clip-path:url(#clipPath26); fill:none;" y2="65" />
    </g>
    <g style="font-family:sans-serif;">
      <text x="521" y="86" style="clip-path:url(#clipPath29); stroke:none;">+FileSet
      </text>
      <text x="521" y="101" style="clip-path:url(#clipPath29); stroke:none;">-getFiles:List
      </text>
      <text x="521" y="116" style="clip-path:url(#clipPath29); stroke:none;">+include:void
      </text>
      <text x="521" y="131" style="clip-path:url(#clipPath29); stroke:none;">+exclude:void
      </text>
      <text x="521" y="146" style="clip-path:url(#clipPath29); stroke:none;">+removeInclude:void
      </text>
      <text x="521" y="161" style="clip-path:url(#clipPath29); stroke:none;">+removeExclude:void
      </text>
      <text x="521" y="176" style="clip-path:url(#clipPath29); stroke:none;">+contains:boolean
      </text>
      <text x="521" y="191" style="clip-path:url(#clipPath29); stroke:none;">+includePredicate:Or
      </text>
      <text x="521" y="206" style="clip-path:url(#clipPath29); stroke:none;">+excludePredicate:Or
      </text>
      <text x="521" y="221" style="clip-path:url(#clipPath29); stroke:none;">+main:void
      </text>
      <line x1="521" x2="587" y1="223" style="clip-path:url(#clipPath29); fill:none;" y2="223" />
    </g>
    <g>
      <line x1="515" x2="653" y1="231" style="clip-path:url(#clipPath26); fill:none;" y2="231" />
    </g>
    <g style="font-family:sans-serif; font-style:italic;">
      <text x="521" y="252" style="clip-path:url(#clipPath31); stroke:none;">+FileVisitor
      </text>
    </g>
    <g>
      <line x1="515" x2="653" y1="262" style="clip-path:url(#clipPath26); fill:none;" y2="262" />
    </g>
    <g style="font-family:sans-serif;">
      <text x="521" y="283" style="clip-path:url(#clipPath33); stroke:none;"> files:Set
      </text>
    </g>
    <g>
      <polygon style="fill:none; clip-path:url(#clipPath34);" points=" 646 292 647 292 647 290 648 289 648 289 649 290 649 292 650 292 650 295 646 295 646 292" />
      <line x1="646" x2="650" y1="292" style="clip-path:url(#clipPath34); fill:none;" y2="292" />
    </g>
    <g style="fill:navy; stroke:navy;">
      <polygon style="clip-path:url(#clipPath1); stroke:none;" points=" 204 23 389 23 389 258 204 258 204 37 196 37 196 29 204 29 204 23" />
      <polygon style="fill:white; clip-path:url(#clipPath1); stroke:none;" points=" 201 20 386 20 386 255 201 255 201 34 193 34 193 26 201 26 201 20" />
      <polygon style="fill:none; clip-path:url(#clipPath1); stroke:black;" points=" 201 20 386 20 386 255 201 255 201 34 193 34 193 26 201 26 201 20" />
      <line x1="201" x2="209" y1="34" style="clip-path:url(#clipPath1); fill:none; stroke:black;" y2="34" />
      <line x1="209" x2="209" y1="34" style="clip-path:url(#clipPath1); fill:none; stroke:black;" y2="26" />
      <line x1="209" x2="201" y1="26" style="clip-path:url(#clipPath1); fill:none; stroke:black;" y2="26" />
    </g>
    <g style="font-family:sans-serif;">
      <text x="275" y="33" style="clip-path:url(#clipPath36); stroke:none;">CollectionOperator
      </text>
      <text x="273" y="48" style="clip-path:url(#clipPath36); stroke:none;">interface
      </text>
      <text x="214" y="63" style="clip-path:url(#clipPath36); font-style:italic; stroke:none; font-weight:bold;">org.jutil.predicate.Predicate
      </text>
    </g>
    <g>
      <line x1="209" x2="386" y1="72" style="clip-path:url(#clipPath35); fill:none;" y2="72" />
      <line x1="209" x2="386" y1="95" style="clip-path:url(#clipPath35); fill:none;" y2="95" />
    </g>
    <g style="font-family:sans-serif; font-style:italic;">
      <text x="215" y="116" style="clip-path:url(#clipPath38); stroke:none;">+eval:boolean
      </text>
      <text x="215" y="131" style="clip-path:url(#clipPath38); stroke:none;">+exists:boolean
      </text>
      <text x="215" y="146" style="clip-path:url(#clipPath38); stroke:none;">+forall:boolean
      </text>
      <text x="215" y="161" style="clip-path:url(#clipPath38); stroke:none;">+count:int
      </text>
      <text x="215" y="176" style="clip-path:url(#clipPath38); stroke:none;">+filter:void
      </text>
      <text x="215" y="191" style="clip-path:url(#clipPath38); stroke:none;">+equals:boolean
      </text>
      <text x="215" y="206" style="clip-path:url(#clipPath38); stroke:none;">+nbSubPredicates:int
      </text>
    </g>
    <g>
      <line x1="209" x2="386" y1="216" style="clip-path:url(#clipPath35); fill:none;" y2="216" />
    </g>
    <g style="font-family:sans-serif;">
      <text x="215" y="237" style="clip-path:url(#clipPath40); stroke:none;"> subPredicates:List
      </text>
    </g>
    <g>
      <polygon style="fill:none; clip-path:url(#clipPath41);" points=" 379 246 380 246 380 244 381 243 381 243 382 244 382 246 383 246 383 249 379 249 379 246" />
      <line x1="379" x2="383" y1="246" style="clip-path:url(#clipPath41); fill:none;" y2="246" />
    </g>
    <g style="fill:navy; stroke:navy;">
      <polygon style="clip-path:url(#clipPath1); stroke:none;" points=" 221 1023 382 1023 382 1228 221 1228 221 1037 213 1037 213 1029 221 1029 221 1023" />
      <polygon style="fill:white; clip-path:url(#clipPath1); stroke:none;" points=" 218 1020 379 1020 379 1225 218 1225 218 1034 210 1034 210 1026 218 1026 218 1020" />
      <polygon style="fill:none; clip-path:url(#clipPath1); stroke:black;" points=" 218 1020 379 1020 379 1225 218 1225 218 1034 210 1034 210 1026 218 1026 218 1020" />
      <line x1="218" x2="226" y1="1034" style="clip-path:url(#clipPath1); fill:none; stroke:black;" y2="1034" />
      <line x1="226" x2="226" y1="1034" style="clip-path:url(#clipPath1); fill:none; stroke:black;" y2="1026" />
      <line x1="226" x2="218" y1="1026" style="clip-path:url(#clipPath1); fill:none; stroke:black;" y2="1026" />
    </g>
    <g style="font-weight:bold; font-family:sans-serif;">
      <text x="272" y="1033" style="clip-path:url(#clipPath43); stroke:none;">LocalDisk
      </text>
    </g>
    <g>
      <line x1="226" x2="379" y1="1042" style="clip-path:url(#clipPath42); fill:none;" y2="1042" />
      <line x1="226" x2="379" y1="1065" style="clip-path:url(#clipPath42); fill:none;" y2="1065" />
    </g>
    <g style="font-family:sans-serif;">
      <text x="232" y="1086" style="clip-path:url(#clipPath45); stroke:none;">+LocalDisk
      </text>
      <text x="232" y="1101" style="clip-path:url(#clipPath45); stroke:none;">+LocalDisk
      </text>
      <text x="232" y="1116" style="clip-path:url(#clipPath45); stroke:none;">+evalFile:boolean
      </text>
      <text x="232" y="1131" style="clip-path:url(#clipPath45); stroke:none;">+suggestDirectories:List
      </text>
      <text x="232" y="1146" style="clip-path:url(#clipPath45); stroke:none;">+enterDirectory:boolean
      </text>
      <text x="232" y="1161" style="clip-path:url(#clipPath45); stroke:none;">+nbSubPredicates:int
      </text>
    </g>
    <g>
      <line x1="226" x2="379" y1="1171" style="clip-path:url(#clipPath42); fill:none;" y2="1171" />
    </g>
    <g style="font-family:sans-serif;">
      <text x="232" y="1192" style="clip-path:url(#clipPath47); stroke:none;"> subPredicates:List
      </text>
      <text x="232" y="1207" style="clip-path:url(#clipPath47); stroke:none;"> predicate:Predicate
      </text>
    </g>
    <g>
      <polygon style="fill:none; clip-path:url(#clipPath48);" points=" 372 1216 373 1216 373 1214 374 1213 374 1213 375 1214 375 1216 376 1216 376 1219 372 1219 372 1216" />
      <line x1="372" x2="376" y1="1216" style="clip-path:url(#clipPath48); fill:none;" y2="1216" />
    </g>
    <g style="fill:navy; stroke:navy;">
      <polygon style="clip-path:url(#clipPath1); stroke:none;" points=" 451 1023 640 1023 640 1333 451 1333 451 1037 443 1037 443 1029 451 1029 451 1023" />
      <polygon style="fill:white; clip-path:url(#clipPath1); stroke:none;" points=" 448 1020 637 1020 637 1330 448 1330 448 1034 440 1034 440 1026 448 1026 448 1020" />
      <polygon style="fill:none; clip-path:url(#clipPath1); stroke:black;" points=" 448 1020 637 1020 637 1330 448 1330 448 1034 440 1034 440 1026 448 1026 448 1020" />
      <line x1="448" x2="456" y1="1034" style="clip-path:url(#clipPath1); fill:none; stroke:black;" y2="1034" />
      <line x1="456" x2="456" y1="1034" style="clip-path:url(#clipPath1); fill:none; stroke:black;" y2="1026" />
      <line x1="456" x2="448" y1="1026" style="clip-path:url(#clipPath1); fill:none; stroke:black;" y2="1026" />
    </g>
    <g style="font-weight:bold; font-family:sans-serif;">
      <text x="497" y="1033" style="clip-path:url(#clipPath50); stroke:none;">PatternPredicate
      </text>
    </g>
    <g>
      <line x1="456" x2="637" y1="1042" style="clip-path:url(#clipPath49); fill:none;" y2="1042" />
      <line x1="456" x2="637" y1="1065" style="clip-path:url(#clipPath49); fill:none;" y2="1065" />
    </g>
    <g style="font-family:sans-serif;">
      <text x="462" y="1086" style="clip-path:url(#clipPath52); stroke:none;">+PatternPredicate
      </text>
      <text x="462" y="1101" style="clip-path:url(#clipPath52); stroke:none;">+PatternPredicate
      </text>
      <text x="462" y="1116" style="clip-path:url(#clipPath52); stroke:none;">+evalFile:boolean
      </text>
      <text x="462" y="1131" style="clip-path:url(#clipPath52); stroke:none;">+nbSubPredicates:int
      </text>
      <text x="462" y="1146" style="clip-path:url(#clipPath52); stroke:none;">+suggestDirectories:List
      </text>
      <text x="462" y="1161" style="clip-path:url(#clipPath52); stroke:none;">+enterDirectory:boolean
      </text>
      <text x="462" y="1176" style="clip-path:url(#clipPath52); stroke:none;">-patternToEnter:String
      </text>
      <text x="462" y="1191" style="clip-path:url(#clipPath52); stroke:none;">-getLongestDeterministicDirName:String
      </text>
      <text x="462" y="1206" style="clip-path:url(#clipPath52); stroke:none;">-stripDotDot:String
      </text>
    </g>
    <g>
      <line x1="456" x2="637" y1="1216" style="clip-path:url(#clipPath49); fill:none;" y2="1216" />
    </g>
    <g style="font-family:sans-serif;">
      <text x="462" y="1237" style="clip-path:url(#clipPath54); stroke:none;"> pattern:FileNamePattern
      </text>
      <text x="462" y="1252" style="clip-path:url(#clipPath54); stroke:none;"> fullRegexPattern:String
      </text>
      <text x="462" y="1267" style="clip-path:url(#clipPath54); stroke:none;"> subPredicates:List
      </text>
      <text x="462" y="1282" style="clip-path:url(#clipPath54); stroke:none;"> predicate:Predicate
      </text>
      <text x="462" y="1297" style="clip-path:url(#clipPath54); stroke:none;"> deterministicPathName:String
      </text>
      <text x="462" y="1312" style="clip-path:url(#clipPath54); stroke:none;"> regexSeparator:String
      </text>
    </g>
    <g>
      <polygon style="fill:none; clip-path:url(#clipPath55);" points=" 630 1321 631 1321 631 1319 632 1318 632 1318 633 1319 633 1321 634 1321 634 1324 630 1324 630 1321" />
      <line x1="630" x2="634" y1="1321" style="clip-path:url(#clipPath55); fill:none;" y2="1321" />
    </g>
    <g style="fill:navy; stroke:navy;">
      <polygon style="clip-path:url(#clipPath1); stroke:none;" points=" 711 1023 866 1023 866 1183 711 1183 711 1037 703 1037 703 1029 711 1029 711 1023" />
      <polygon style="fill:white; clip-path:url(#clipPath1); stroke:none;" points=" 708 1020 863 1020 863 1180 708 1180 708 1034 700 1034 700 1026 708 1026 708 1020" />
      <polygon style="fill:none; clip-path:url(#clipPath1); stroke:black;" points=" 708 1020 863 1020 863 1180 708 1180 708 1034 700 1034 700 1026 708 1026 708 1020" />
      <line x1="708" x2="716" y1="1034" style="clip-path:url(#clipPath1); fill:none; stroke:black;" y2="1034" />
      <line x1="716" x2="716" y1="1034" style="clip-path:url(#clipPath1); fill:none; stroke:black;" y2="1026" />
      <line x1="716" x2="708" y1="1026" style="clip-path:url(#clipPath1); fill:none; stroke:black;" y2="1026" />
    </g>
    <g style="font-weight:bold; font-family:sans-serif;">
      <text x="739" y="1033" style="clip-path:url(#clipPath57); stroke:none;">FileNamePattern
      </text>
    </g>
    <g>
      <line x1="716" x2="863" y1="1042" style="clip-path:url(#clipPath56); fill:none;" y2="1042" />
      <line x1="716" x2="863" y1="1065" style="clip-path:url(#clipPath56); fill:none;" y2="1065" />
    </g>
    <g style="font-family:sans-serif;">
      <text x="722" y="1086" style="clip-path:url(#clipPath59); stroke:none;">+FileNamePattern
      </text>
      <text x="722" y="1101" style="clip-path:url(#clipPath59); stroke:none;">-patternToRegex:String
      </text>
    </g>
    <g>
      <line x1="716" x2="863" y1="1111" style="clip-path:url(#clipPath56); fill:none;" y2="1111" />
    </g>
    <g style="font-family:sans-serif;">
      <text x="722" y="1132" style="clip-path:url(#clipPath61); stroke:none;"> pattern:String
      </text>
      <text x="722" y="1147" style="clip-path:url(#clipPath61); stroke:none;"> regexPattern:String
      </text>
      <text x="722" y="1162" style="clip-path:url(#clipPath61); stroke:none;"> regexSeparator:String
      </text>
    </g>
    <g>
      <polygon style="fill:none; clip-path:url(#clipPath62);" points=" 856 1171 857 1171 857 1169 858 1168 858 1168 859 1169 859 1171 860 1171 860 1174 856 1174 856 1171" />
      <line x1="856" x2="860" y1="1171" style="clip-path:url(#clipPath62); fill:none;" y2="1171" />
    </g>
    <g style="fill:navy; stroke:navy;">
      <rect x="333" y="333" width="197" style="clip-path:url(#clipPath1); stroke:none;" height="159" />
      <rect x="330" y="330" width="197" style="clip-path:url(#clipPath1); fill:white; stroke:none;" height="159" />
      <rect x="330" y="330" width="197" style="clip-path:url(#clipPath1); fill:none; stroke:black;" height="159" />
    </g>
    <g style="font-style:italic; font-weight:bold; font-family:sans-serif;">
      <text x="335" y="343" style="clip-path:url(#clipPath64); stroke:none;">...predicate.AbstractPredicate
      </text>
    </g>
    <g>
      <line x1="330" x2="527" y1="352" style="clip-path:url(#clipPath63); fill:none;" y2="352" />
      <line x1="330" x2="527" y1="375" style="clip-path:url(#clipPath63); fill:none;" y2="375" />
    </g>
    <g style="font-family:sans-serif;">
      <text x="336" y="396" style="clip-path:url(#clipPath66); stroke:none;">+exists:boolean
      </text>
      <text x="336" y="411" style="clip-path:url(#clipPath66); stroke:none;">+forall:boolean
      </text>
      <text x="336" y="426" style="clip-path:url(#clipPath66); stroke:none;">+count:int
      </text>
      <text x="336" y="441" style="clip-path:url(#clipPath66); stroke:none;">+filter:void
      </text>
      <text x="336" y="456" style="clip-path:url(#clipPath66); stroke:none;">+equals:boolean
      </text>
      <text x="336" y="471" style="clip-path:url(#clipPath66); stroke:none;">+nbSubPredicates:int
      </text>
    </g>
    <g>
      <polygon style="fill:none; clip-path:url(#clipPath67);" points=" 520 480 521 480 521 478 522 477 522 477 523 478 523 480 524 480 524 483 520 483 520 480" />
      <line x1="520" x2="524" y1="480" style="clip-path:url(#clipPath67); fill:none;" y2="480" />
    </g>
  </g>
</svg>
