<?xml version="1.0" encoding="UTF-8"?>

<!DOCTYPE svg PUBLIC '-//W3C//DTD SVG 20001102//EN' 'http://www.w3.org/TR/2000/CR-SVG-20001102/DTD/svg-20001102.dtd'>
<svg style="fill-opacity:1; color-rendering:auto; color-interpolation:sRGB; text-rendering:auto; stroke:black; stroke-linecap:square; stroke-miterlimit:10; shape-rendering:auto; stroke-opacity:1; fill:black; stroke-dasharray:none; font-weight:normal; stroke-width:1; font-family:&apos;sansserif&apos;; font-style:normal; stroke-linejoin:miter; font-size:12; stroke-dashoffset:0; image-rendering:auto;" width="188" height="723">
  <!--Generated by the Batik Graphics2D SVG Generator-->
  <defs id="genericDefs" />
  <g>
    <defs id="defs1">
      <clipPath clipPathUnits="userSpaceOnUse" id="clipPath1">
        <path d="M0 0 L188 0 L188 723 L0 723 L0 0 Z" />
      </clipPath>
      <clipPath clipPathUnits="userSpaceOnUse" id="clipPath2">
        <path d="M36 560 L36 710 L175 710 L175 560 Z" />
      </clipPath>
      <clipPath clipPathUnits="userSpaceOnUse" id="clipPath3">
        <path d="M37 561 L37 577 L175 577 L175 561 Z" />
      </clipPath>
      <clipPath clipPathUnits="userSpaceOnUse" id="clipPath4">
        <path d="M36 589 L36 623 L175 623 L175 589 Z" />
      </clipPath>
      <clipPath clipPathUnits="userSpaceOnUse" id="clipPath5">
        <path d="M38 591 L38 622 L174 622 L174 591 Z" />
      </clipPath>
      <clipPath clipPathUnits="userSpaceOnUse" id="clipPath6">
        <path d="M36 635 L36 669 L175 669 L175 635 Z" />
      </clipPath>
      <clipPath clipPathUnits="userSpaceOnUse" id="clipPath7">
        <path d="M38 637 L38 668 L174 668 L174 637 Z" />
      </clipPath>
      <clipPath clipPathUnits="userSpaceOnUse" id="clipPath8">
        <path d="M36 681 L36 700 L175 700 L175 681 Z" />
      </clipPath>
      <clipPath clipPathUnits="userSpaceOnUse" id="clipPath9">
        <path d="M38 683 L38 699 L174 699 L174 683 Z" />
      </clipPath>
      <clipPath clipPathUnits="userSpaceOnUse" id="clipPath10">
        <path d="M36 314 L36 488 L175 488 L175 314 Z" />
      </clipPath>
      <clipPath clipPathUnits="userSpaceOnUse" id="clipPath11">
        <path d="M37 315 L37 340 L175 340 L175 315 Z" />
      </clipPath>
      <clipPath clipPathUnits="userSpaceOnUse" id="clipPath12">
        <path d="M36 352 L36 371 L175 371 L175 352 Z" />
      </clipPath>
      <clipPath clipPathUnits="userSpaceOnUse" id="clipPath13">
        <path d="M38 354 L38 370 L174 370 L174 354 Z" />
      </clipPath>
      <clipPath clipPathUnits="userSpaceOnUse" id="clipPath14">
        <path d="M36 383 L36 417 L175 417 L175 383 Z" />
      </clipPath>
      <clipPath clipPathUnits="userSpaceOnUse" id="clipPath15">
        <path d="M38 385 L38 416 L174 416 L174 385 Z" />
      </clipPath>
      <clipPath clipPathUnits="userSpaceOnUse" id="clipPath16">
        <path d="M36 429 L36 478 L175 478 L175 429 Z" />
      </clipPath>
      <clipPath clipPathUnits="userSpaceOnUse" id="clipPath17">
        <path d="M38 431 L38 477 L174 477 L174 431 Z" />
      </clipPath>
      <clipPath clipPathUnits="userSpaceOnUse" id="clipPath18">
        <path d="M36 20 L36 242 L175 242 L175 20 Z" />
      </clipPath>
      <clipPath clipPathUnits="userSpaceOnUse" id="clipPath19">
        <path d="M37 21 L37 61 L175 61 L175 21 Z" />
      </clipPath>
      <clipPath clipPathUnits="userSpaceOnUse" id="clipPath20">
        <path d="M36 73 L36 92 L175 92 L175 73 Z" />
      </clipPath>
      <clipPath clipPathUnits="userSpaceOnUse" id="clipPath21">
        <path d="M38 75 L38 91 L174 91 L174 75 Z" />
      </clipPath>
      <clipPath clipPathUnits="userSpaceOnUse" id="clipPath22">
        <path d="M36 104 L36 156 L175 156 L175 104 Z" />
      </clipPath>
      <clipPath clipPathUnits="userSpaceOnUse" id="clipPath23">
        <path d="M38 106 L38 155 L174 155 L174 106 Z" />
      </clipPath>
      <clipPath clipPathUnits="userSpaceOnUse" id="clipPath24">
        <path d="M36 168 L36 232 L175 232 L175 168 Z" />
      </clipPath>
      <clipPath clipPathUnits="userSpaceOnUse" id="clipPath25">
        <path d="M38 170 L38 231 L174 231 L174 170 Z" />
      </clipPath>
    </defs>
    <g style="fill:teal; stroke:teal;">
      <line x1="98" x2="98" y1="314" style="clip-path:url(#clipPath1); fill:none;" y2="310" />
      <line x1="98" x2="98" y1="305" style="clip-path:url(#clipPath1); fill:none;" y2="295" />
      <line x1="98" x2="98" y1="290" style="clip-path:url(#clipPath1); fill:none;" y2="280" />
      <line x1="98" x2="98" y1="275" style="clip-path:url(#clipPath1); fill:none;" y2="265" />
      <line x1="98" x2="98" y1="260" style="clip-path:url(#clipPath1); fill:none;" y2="250" />
      <line x1="98" x2="98" y1="245" style="clip-path:url(#clipPath1); fill:none;" y2="244" />
      <line x1="98" x2="98" y1="560" style="clip-path:url(#clipPath1); fill:none; stroke:rgb(0,64,64);" y2="490" />
      <polygon style="fill:white; clip-path:url(#clipPath1); stroke:none;" points=" 98 244 104 262 92 262" />
      <polygon style="fill:none; clip-path:url(#clipPath1);" points=" 98 244 104 262 92 262" />
      <line x1="92" x2="98" y1="262" style="clip-path:url(#clipPath1); fill:none;" y2="244" />
      <polygon style="fill:white; clip-path:url(#clipPath1); stroke:none;" points=" 98 490 104 508 92 508" />
      <polygon style="fill:none; clip-path:url(#clipPath1); stroke:rgb(0,64,64);" points=" 98 490 104 508 92 508" />
      <line x1="92" x2="98" y1="508" style="clip-path:url(#clipPath1); fill:none; stroke:rgb(0,64,64);" y2="490" />
      <polygon style="fill:navy; clip-path:url(#clipPath1); stroke:none;" points=" 31 563 177 563 177 712 31 712 31 577 23 577 23 569 31 569 31 563" />
      <polygon style="fill:white; clip-path:url(#clipPath1); stroke:none;" points=" 28 560 174 560 174 709 28 709 28 574 20 574 20 566 28 566 28 560" />
      <polygon style="fill:none; clip-path:url(#clipPath1); stroke:black;" points=" 28 560 174 560 174 709 28 709 28 574 20 574 20 566 28 566 28 560" />
      <line x1="28" x2="36" y1="574" style="clip-path:url(#clipPath1); fill:none; stroke:black;" y2="574" />
      <line x1="36" x2="36" y1="574" style="clip-path:url(#clipPath1); fill:none; stroke:black;" y2="566" />
      <line x1="36" x2="28" y1="566" style="clip-path:url(#clipPath1); fill:none; stroke:black;" y2="566" />
    </g>
    <g style="font-family:sans-serif; font-weight:bold;">
      <text x="67" y="573" style="clip-path:url(#clipPath3); stroke:none;">CVSRevision
      </text>
    </g>
    <g>
      <line x1="36" x2="174" y1="582" style="clip-path:url(#clipPath2); fill:none;" y2="582" />
    </g>
    <g style="font-family:sans-serif;">
      <text x="42" y="603" style="clip-path:url(#clipPath5); stroke:none;">+String CVS_REVISION
      </text>
      <line x1="42" x2="169" y1="605" style="clip-path:url(#clipPath5); fill:none;" y2="605" />
      <text x="42" y="618" style="clip-path:url(#clipPath5); stroke:none;">-int[] $numbers
      </text>
    </g>
    <g>
      <line x1="36" x2="174" y1="628" style="clip-path:url(#clipPath2); fill:none;" y2="628" />
    </g>
    <g style="font-family:sans-serif;">
      <text x="42" y="649" style="clip-path:url(#clipPath7); stroke:none;">+CVSRevision
      </text>
      <text x="42" y="664" style="clip-path:url(#clipPath7); stroke:none;">+int length
      </text>
    </g>
    <g>
      <line x1="36" x2="174" y1="674" style="clip-path:url(#clipPath2); fill:none;" y2="674" />
    </g>
    <g style="font-family:sans-serif;">
      <text x="42" y="695" style="clip-path:url(#clipPath9); stroke:none;"> int[] number
      </text>
    </g>
    <g style="fill:navy; stroke:navy;">
      <polygon style="clip-path:url(#clipPath1); stroke:none;" points=" 31 317 177 317 177 490 31 490 31 331 23 331 23 323 31 323 31 317" />
      <polygon style="fill:white; clip-path:url(#clipPath1); stroke:none;" points=" 28 314 174 314 174 487 28 487 28 328 20 328 20 320 28 320 28 314" />
      <polygon style="fill:none; clip-path:url(#clipPath1); stroke:black;" points=" 28 314 174 314 174 487 28 487 28 328 20 328 20 320 28 320 28 314" />
      <line x1="28" x2="36" y1="328" style="clip-path:url(#clipPath1); fill:none; stroke:black;" y2="328" />
      <line x1="36" x2="36" y1="328" style="clip-path:url(#clipPath1); fill:none; stroke:black;" y2="320" />
      <line x1="36" x2="28" y1="320" style="clip-path:url(#clipPath1); fill:none; stroke:black;" y2="320" />
    </g>
    <g style="font-style:italic; font-family:sans-serif; font-weight:bold;">
      <text x="53" y="329" style="clip-path:url(#clipPath11); stroke:none;">AbstractRevision
      </text>
    </g>
    <g>
      <line x1="36" x2="174" y1="345" style="clip-path:url(#clipPath10); fill:none;" y2="345" />
    </g>
    <g style="font-family:sans-serif;">
      <text x="42" y="366" style="clip-path:url(#clipPath13); stroke:none;">+String CVS_REVISION
      </text>
      <line x1="42" x2="169" y1="368" style="clip-path:url(#clipPath13); fill:none;" y2="368" />
    </g>
    <g>
      <line x1="36" x2="174" y1="376" style="clip-path:url(#clipPath10); fill:none;" y2="376" />
    </g>
    <g style="font-family:sans-serif;">
      <text x="42" y="397" style="clip-path:url(#clipPath15); stroke:none;">+boolean equals
      </text>
      <text x="42" y="412" style="clip-path:url(#clipPath15); stroke:none;">+String toString
      </text>
    </g>
    <g>
      <line x1="36" x2="174" y1="422" style="clip-path:url(#clipPath10); fill:none;" y2="422" />
    </g>
    <g style="font-family:sans-serif;">
      <text x="42" y="443" style="clip-path:url(#clipPath17); stroke:none;"> int major
      </text>
      <text x="42" y="458" style="clip-path:url(#clipPath17); stroke:none;"> int minor
      </text>
      <text x="42" y="473" style="clip-path:url(#clipPath17); stroke:none;"> int micro
      </text>
    </g>
    <g style="fill:navy; stroke:navy;">
      <polygon style="clip-path:url(#clipPath1); stroke:none;" points=" 31 23 177 23 177 244 31 244 31 37 23 37 23 29 31 29 31 23" />
      <polygon style="fill:white; clip-path:url(#clipPath1); stroke:none;" points=" 28 20 174 20 174 241 28 241 28 34 20 34 20 26 28 26 28 20" />
      <polygon style="fill:none; clip-path:url(#clipPath1); stroke:black;" points=" 28 20 174 20 174 241 28 241 28 34 20 34 20 26 28 26 28 20" />
      <line x1="28" x2="36" y1="34" style="clip-path:url(#clipPath1); fill:none; stroke:black;" y2="34" />
      <line x1="36" x2="36" y1="34" style="clip-path:url(#clipPath1); fill:none; stroke:black;" y2="26" />
      <line x1="36" x2="28" y1="26" style="clip-path:url(#clipPath1); fill:none; stroke:black;" y2="26" />
    </g>
    <g style="font-family:sans-serif;">
      <text x="80" y="33" style="clip-path:url(#clipPath19); stroke:none;">interface
      </text>
      <text x="79" y="50" style="clip-path:url(#clipPath19); font-style:italic; stroke:none; font-weight:bold;">Revision
      </text>
    </g>
    <g>
      <line x1="36" x2="174" y1="66" style="clip-path:url(#clipPath18); fill:none;" y2="66" />
    </g>
    <g style="font-family:sans-serif;">
      <text x="42" y="87" style="clip-path:url(#clipPath21); stroke:none;">+String CVS_REVISION
      </text>
      <line x1="42" x2="169" y1="89" style="clip-path:url(#clipPath21); fill:none;" y2="89" />
    </g>
    <g>
      <line x1="36" x2="174" y1="97" style="clip-path:url(#clipPath18); fill:none;" y2="97" />
    </g>
    <g style="font-family:sans-serif; font-style:italic;">
      <text x="42" y="121" style="clip-path:url(#clipPath23); stroke:none;">+int length
      </text>
      <text x="42" y="145" style="clip-path:url(#clipPath23); stroke:none;">+boolean equals
      </text>
    </g>
    <g>
      <line x1="36" x2="174" y1="161" style="clip-path:url(#clipPath18); fill:none;" y2="161" />
    </g>
    <g style="font-family:sans-serif;">
      <text x="42" y="182" style="clip-path:url(#clipPath25); stroke:none;"> int major
      </text>
      <text x="42" y="197" style="clip-path:url(#clipPath25); stroke:none;"> int minor
      </text>
      <text x="42" y="212" style="clip-path:url(#clipPath25); stroke:none;"> int micro
      </text>
      <text x="42" y="227" style="clip-path:url(#clipPath25); stroke:none;"> int[] number
      </text>
    </g>
  </g>
</svg>
