<?xml version="1.0" encoding="UTF-8"?>

<!DOCTYPE svg PUBLIC '-//W3C//DTD SVG 20001102//EN' 'http://www.w3.org/TR/2000/CR-SVG-20001102/DTD/svg-20001102.dtd'>
<svg style="fill-opacity:1; color-rendering:auto; color-interpolation:sRGB; text-rendering:auto; stroke:black; stroke-linecap:square; stroke-miterlimit:10; shape-rendering:auto; stroke-opacity:1; fill:black; stroke-dasharray:none; font-weight:normal; stroke-width:1; font-family:&apos;sansserif&apos;; font-style:normal; stroke-linejoin:miter; font-size:12; stroke-dashoffset:0; image-rendering:auto;" width="669" height="775">
  <!--Generated by the Batik Graphics2D SVG Generator-->
  <defs id="genericDefs" />
  <g>
    <defs id="defs1">
      <clipPath clipPathUnits="userSpaceOnUse" id="clipPath1">
        <path d="M0 0 L669 0 L669 775 L0 775 L0 0 Z" />
      </clipPath>
      <clipPath clipPathUnits="userSpaceOnUse" id="clipPath2">
        <path d="M356 366 L356 540 L495 540 L495 366 Z" />
      </clipPath>
      <clipPath clipPathUnits="userSpaceOnUse" id="clipPath3">
        <path d="M357 367 L357 392 L495 392 L495 367 Z" />
      </clipPath>
      <clipPath clipPathUnits="userSpaceOnUse" id="clipPath4">
        <path d="M356 404 L356 423 L495 423 L495 404 Z" />
      </clipPath>
      <clipPath clipPathUnits="userSpaceOnUse" id="clipPath5">
        <path d="M358 406 L358 422 L494 422 L494 406 Z" />
      </clipPath>
      <clipPath clipPathUnits="userSpaceOnUse" id="clipPath6">
        <path d="M356 435 L356 469 L495 469 L495 435 Z" />
      </clipPath>
      <clipPath clipPathUnits="userSpaceOnUse" id="clipPath7">
        <path d="M358 437 L358 468 L494 468 L494 437 Z" />
      </clipPath>
      <clipPath clipPathUnits="userSpaceOnUse" id="clipPath8">
        <path d="M356 481 L356 530 L495 530 L495 481 Z" />
      </clipPath>
      <clipPath clipPathUnits="userSpaceOnUse" id="clipPath9">
        <path d="M358 483 L358 529 L494 529 L494 483 Z" />
      </clipPath>
      <clipPath clipPathUnits="userSpaceOnUse" id="clipPath10">
        <path d="M356 612 L356 762 L495 762 L495 612 Z" />
      </clipPath>
      <clipPath clipPathUnits="userSpaceOnUse" id="clipPath11">
        <path d="M357 613 L357 629 L495 629 L495 613 Z" />
      </clipPath>
      <clipPath clipPathUnits="userSpaceOnUse" id="clipPath12">
        <path d="M356 641 L356 675 L495 675 L495 641 Z" />
      </clipPath>
      <clipPath clipPathUnits="userSpaceOnUse" id="clipPath13">
        <path d="M358 643 L358 674 L494 674 L494 643 Z" />
      </clipPath>
      <clipPath clipPathUnits="userSpaceOnUse" id="clipPath14">
        <path d="M356 687 L356 721 L495 721 L495 687 Z" />
      </clipPath>
      <clipPath clipPathUnits="userSpaceOnUse" id="clipPath15">
        <path d="M358 689 L358 720 L494 720 L494 689 Z" />
      </clipPath>
      <clipPath clipPathUnits="userSpaceOnUse" id="clipPath16">
        <path d="M356 733 L356 752 L495 752 L495 733 Z" />
      </clipPath>
      <clipPath clipPathUnits="userSpaceOnUse" id="clipPath17">
        <path d="M358 735 L358 751 L494 751 L494 735 Z" />
      </clipPath>
      <clipPath clipPathUnits="userSpaceOnUse" id="clipPath18">
        <path d="M36 20 L36 284 L218 284 L218 20 Z" />
      </clipPath>
      <clipPath clipPathUnits="userSpaceOnUse" id="clipPath19">
        <path d="M37 21 L37 61 L218 61 L218 21 Z" />
      </clipPath>
      <clipPath clipPathUnits="userSpaceOnUse" id="clipPath20">
        <path d="M36 73 L36 137 L218 137 L218 73 Z" />
      </clipPath>
      <clipPath clipPathUnits="userSpaceOnUse" id="clipPath21">
        <path d="M38 75 L38 136 L217 136 L217 75 Z" />
      </clipPath>
      <clipPath clipPathUnits="userSpaceOnUse" id="clipPath22">
        <path d="M36 149 L36 213 L218 213 L218 149 Z" />
      </clipPath>
      <clipPath clipPathUnits="userSpaceOnUse" id="clipPath23">
        <path d="M38 151 L38 212 L217 212 L217 151 Z" />
      </clipPath>
      <clipPath clipPathUnits="userSpaceOnUse" id="clipPath24">
        <path d="M36 225 L36 274 L218 274 L218 225 Z" />
      </clipPath>
      <clipPath clipPathUnits="userSpaceOnUse" id="clipPath25">
        <path d="M38 227 L38 273 L217 273 L217 227 Z" />
      </clipPath>
      <clipPath clipPathUnits="userSpaceOnUse" id="clipPath26">
        <path d="M356 20 L356 242 L495 242 L495 20 Z" />
      </clipPath>
      <clipPath clipPathUnits="userSpaceOnUse" id="clipPath27">
        <path d="M357 21 L357 61 L495 61 L495 21 Z" />
      </clipPath>
      <clipPath clipPathUnits="userSpaceOnUse" id="clipPath28">
        <path d="M356 73 L356 92 L495 92 L495 73 Z" />
      </clipPath>
      <clipPath clipPathUnits="userSpaceOnUse" id="clipPath29">
        <path d="M358 75 L358 91 L494 91 L494 75 Z" />
      </clipPath>
      <clipPath clipPathUnits="userSpaceOnUse" id="clipPath30">
        <path d="M356 104 L356 156 L495 156 L495 104 Z" />
      </clipPath>
      <clipPath clipPathUnits="userSpaceOnUse" id="clipPath31">
        <path d="M358 106 L358 155 L494 155 L494 106 Z" />
      </clipPath>
      <clipPath clipPathUnits="userSpaceOnUse" id="clipPath32">
        <path d="M356 168 L356 232 L495 232 L495 168 Z" />
      </clipPath>
      <clipPath clipPathUnits="userSpaceOnUse" id="clipPath33">
        <path d="M358 170 L358 231 L494 231 L494 170 Z" />
      </clipPath>
      <clipPath clipPathUnits="userSpaceOnUse" id="clipPath34">
        <path d="M517 20 L517 139 L656 139 L656 20 Z" />
      </clipPath>
      <clipPath clipPathUnits="userSpaceOnUse" id="clipPath35">
        <path d="M518 21 L518 52 L656 52 L656 21 Z" />
      </clipPath>
      <clipPath clipPathUnits="userSpaceOnUse" id="clipPath36">
        <path d="M517 64 L517 83 L656 83 L656 64 Z" />
      </clipPath>
      <clipPath clipPathUnits="userSpaceOnUse" id="clipPath37">
        <path d="M519 66 L519 82 L655 82 L655 66 Z" />
      </clipPath>
      <clipPath clipPathUnits="userSpaceOnUse" id="clipPath38">
        <path d="M517 95 L517 129 L656 129 L656 95 Z" />
      </clipPath>
      <clipPath clipPathUnits="userSpaceOnUse" id="clipPath39">
        <path d="M519 97 L519 128 L655 128 L655 97 Z" />
      </clipPath>
    </defs>
    <g style="fill:blue; stroke:blue;">
      <line x1="220" x2="340" y1="94" style="clip-path:url(#clipPath1); fill:none;" y2="94" />
      <line x1="220" x2="340" y1="169" style="clip-path:url(#clipPath1); fill:none;" y2="169" />
      <line x1="418" x2="418" y1="612" style="clip-path:url(#clipPath1); fill:none; stroke:rgb(0,64,64);" y2="542" />
      <line x1="418" x2="418" y1="366" style="clip-path:url(#clipPath1); fill:none; stroke:teal;" y2="366" />
      <line x1="418" x2="418" y1="365" style="clip-path:url(#clipPath1); fill:none; stroke:teal;" y2="355" />
      <line x1="418" x2="418" y1="350" style="clip-path:url(#clipPath1); fill:none; stroke:teal;" y2="340" />
      <line x1="418" x2="418" y1="335" style="clip-path:url(#clipPath1); fill:none; stroke:teal;" y2="325" />
      <line x1="418" x2="418" y1="320" style="clip-path:url(#clipPath1); fill:none; stroke:teal;" y2="310" />
      <line x1="418" x2="418" y1="305" style="clip-path:url(#clipPath1); fill:none; stroke:teal;" y2="295" />
      <line x1="418" x2="418" y1="290" style="clip-path:url(#clipPath1); fill:none; stroke:teal;" y2="280" />
      <line x1="418" x2="418" y1="275" style="clip-path:url(#clipPath1); fill:none; stroke:teal;" y2="265" />
      <line x1="418" x2="418" y1="260" style="clip-path:url(#clipPath1); fill:none; stroke:teal;" y2="250" />
      <line x1="418" x2="418" y1="245" style="clip-path:url(#clipPath1); fill:none; stroke:teal;" y2="244" />
      <line x1="340" x2="328" y1="94" style="clip-path:url(#clipPath1); fill:none;" y2="89" />
      <line x1="340" x2="328" y1="94" style="clip-path:url(#clipPath1); fill:none;" y2="99" />
      <line x1="340" x2="328" y1="169" style="clip-path:url(#clipPath1); fill:none;" y2="164" />
      <line x1="340" x2="328" y1="169" style="clip-path:url(#clipPath1); fill:none;" y2="174" />
      <polygon style="fill:white; clip-path:url(#clipPath1); stroke:none;" points=" 418 542 424 560 412 560" />
      <polygon style="fill:none; clip-path:url(#clipPath1); stroke:rgb(0,64,64);" points=" 418 542 424 560 412 560" />
      <line x1="412" x2="418" y1="560" style="clip-path:url(#clipPath1); fill:none; stroke:rgb(0,64,64);" y2="542" />
      <polygon style="fill:white; clip-path:url(#clipPath1); stroke:none;" points=" 418 244 424 262 412 262" />
      <polygon style="fill:none; clip-path:url(#clipPath1); stroke:teal;" points=" 418 244 424 262 412 262" />
      <line x1="412" x2="418" y1="262" style="clip-path:url(#clipPath1); fill:none; stroke:teal;" y2="244" />
      <polygon style="fill:navy; clip-path:url(#clipPath1); stroke:none;" points=" 351 369 497 369 497 542 351 542 351 383 343 383 343 375 351 375 351 369" />
      <polygon style="fill:white; clip-path:url(#clipPath1); stroke:none;" points=" 348 366 494 366 494 539 348 539 348 380 340 380 340 372 348 372 348 366" />
      <polygon style="fill:none; clip-path:url(#clipPath1); stroke:black;" points=" 348 366 494 366 494 539 348 539 348 380 340 380 340 372 348 372 348 366" />
      <line x1="348" x2="356" y1="380" style="clip-path:url(#clipPath1); fill:none; stroke:black;" y2="380" />
      <line x1="356" x2="356" y1="380" style="clip-path:url(#clipPath1); fill:none; stroke:black;" y2="372" />
      <line x1="356" x2="348" y1="372" style="clip-path:url(#clipPath1); fill:none; stroke:black;" y2="372" />
    </g>
    <g style="font-style:italic; font-family:sans-serif; font-weight:bold;">
      <text x="373" y="381" style="clip-path:url(#clipPath3); stroke:none;">AbstractRevision
      </text>
    </g>
    <g>
      <line x1="356" x2="494" y1="397" style="clip-path:url(#clipPath2); fill:none;" y2="397" />
    </g>
    <g style="font-family:sans-serif;">
      <text x="362" y="418" style="clip-path:url(#clipPath5); stroke:none;">+String CVS_REVISION
      </text>
      <line x1="362" x2="489" y1="420" style="clip-path:url(#clipPath5); fill:none;" y2="420" />
    </g>
    <g>
      <line x1="356" x2="494" y1="428" style="clip-path:url(#clipPath2); fill:none;" y2="428" />
    </g>
    <g style="font-family:sans-serif;">
      <text x="362" y="449" style="clip-path:url(#clipPath7); stroke:none;">+boolean equals
      </text>
      <text x="362" y="464" style="clip-path:url(#clipPath7); stroke:none;">+String toString
      </text>
    </g>
    <g>
      <line x1="356" x2="494" y1="474" style="clip-path:url(#clipPath2); fill:none;" y2="474" />
    </g>
    <g style="font-family:sans-serif;">
      <text x="362" y="495" style="clip-path:url(#clipPath9); stroke:none;"> int major
      </text>
      <text x="362" y="510" style="clip-path:url(#clipPath9); stroke:none;"> int minor
      </text>
      <text x="362" y="525" style="clip-path:url(#clipPath9); stroke:none;"> int micro
      </text>
    </g>
    <g style="fill:navy; stroke:navy;">
      <polygon style="clip-path:url(#clipPath1); stroke:none;" points=" 351 615 497 615 497 764 351 764 351 629 343 629 343 621 351 621 351 615" />
      <polygon style="fill:white; clip-path:url(#clipPath1); stroke:none;" points=" 348 612 494 612 494 761 348 761 348 626 340 626 340 618 348 618 348 612" />
      <polygon style="fill:none; clip-path:url(#clipPath1); stroke:black;" points=" 348 612 494 612 494 761 348 761 348 626 340 626 340 618 348 618 348 612" />
      <line x1="348" x2="356" y1="626" style="clip-path:url(#clipPath1); fill:none; stroke:black;" y2="626" />
      <line x1="356" x2="356" y1="626" style="clip-path:url(#clipPath1); fill:none; stroke:black;" y2="618" />
      <line x1="356" x2="348" y1="618" style="clip-path:url(#clipPath1); fill:none; stroke:black;" y2="618" />
    </g>
    <g style="font-family:sans-serif; font-weight:bold;">
      <text x="387" y="625" style="clip-path:url(#clipPath11); stroke:none;">CVSRevision
      </text>
    </g>
    <g>
      <line x1="356" x2="494" y1="634" style="clip-path:url(#clipPath10); fill:none;" y2="634" />
    </g>
    <g style="font-family:sans-serif;">
      <text x="362" y="655" style="clip-path:url(#clipPath13); stroke:none;">+String CVS_REVISION
      </text>
      <line x1="362" x2="489" y1="657" style="clip-path:url(#clipPath13); fill:none;" y2="657" />
      <text x="362" y="670" style="clip-path:url(#clipPath13); stroke:none;">-int[] $numbers
      </text>
    </g>
    <g>
      <line x1="356" x2="494" y1="680" style="clip-path:url(#clipPath10); fill:none;" y2="680" />
    </g>
    <g style="font-family:sans-serif;">
      <text x="362" y="701" style="clip-path:url(#clipPath15); stroke:none;">+CVSRevision
      </text>
      <text x="362" y="716" style="clip-path:url(#clipPath15); stroke:none;">+int length
      </text>
    </g>
    <g>
      <line x1="356" x2="494" y1="726" style="clip-path:url(#clipPath10); fill:none;" y2="726" />
    </g>
    <g style="font-family:sans-serif;">
      <text x="362" y="747" style="clip-path:url(#clipPath17); stroke:none;"> int[] number
      </text>
    </g>
    <g style="fill:navy; stroke:navy;">
      <polygon style="clip-path:url(#clipPath1); stroke:none;" points=" 31 23 220 23 220 286 31 286 31 37 23 37 23 29 31 29 31 23" />
      <polygon style="fill:white; clip-path:url(#clipPath1); stroke:none;" points=" 28 20 217 20 217 283 28 283 28 34 20 34 20 26 28 26 28 20" />
      <polygon style="fill:none; clip-path:url(#clipPath1); stroke:black;" points=" 28 20 217 20 217 283 28 283 28 34 20 34 20 26 28 26 28 20" />
      <line x1="28" x2="36" y1="34" style="clip-path:url(#clipPath1); fill:none; stroke:black;" y2="34" />
      <line x1="36" x2="36" y1="34" style="clip-path:url(#clipPath1); fill:none; stroke:black;" y2="26" />
      <line x1="36" x2="28" y1="26" style="clip-path:url(#clipPath1); fill:none; stroke:black;" y2="26" />
    </g>
    <g style="font-family:sans-serif;">
      <text x="160" y="33" style="clip-path:url(#clipPath19); stroke:none;">TestCase
      </text>
      <text x="100" y="50" style="clip-path:url(#clipPath19); font-style:italic; stroke:none; font-weight:bold;">JutilTest
      </text>
    </g>
    <g>
      <line x1="36" x2="217" y1="66" style="clip-path:url(#clipPath18); fill:none;" y2="66" />
    </g>
    <g style="font-family:sans-serif;">
      <text x="42" y="87" style="clip-path:url(#clipPath21); stroke:none;">+String CVS_REVISION
      </text>
      <line x1="42" x2="169" y1="89" style="clip-path:url(#clipPath21); fill:none;" y2="89" />
      <text x="42" y="102" style="clip-path:url(#clipPath21); stroke:none;">-Revision $testedRevision
      </text>
      <text x="42" y="117" style="clip-path:url(#clipPath21); stroke:none;">-Revision $testedClassRevision
      </text>
      <text x="42" y="132" style="clip-path:url(#clipPath21); stroke:none;">-Class $testedClass
      </text>
    </g>
    <g>
      <line x1="36" x2="217" y1="142" style="clip-path:url(#clipPath18); fill:none;" y2="142" />
    </g>
    <g style="font-family:sans-serif;">
      <text x="42" y="163" style="clip-path:url(#clipPath23); stroke:none;">+JutilTest
      </text>
      <text x="42" y="178" style="clip-path:url(#clipPath23); stroke:none;">+JutilTest
      </text>
      <text x="42" y="193" style="clip-path:url(#clipPath23); stroke:none;">+void runTest
      </text>
      <text x="42" y="208" style="clip-path:url(#clipPath23); stroke:none;">-void checkRevision
      </text>
    </g>
    <g>
      <line x1="36" x2="217" y1="218" style="clip-path:url(#clipPath18); fill:none;" y2="218" />
    </g>
    <g style="font-family:sans-serif;">
      <text x="42" y="239" style="clip-path:url(#clipPath25); stroke:none;"> Revision testedRevision
      </text>
      <text x="42" y="254" style="clip-path:url(#clipPath25); stroke:none;"> Revision testedClassRevision
      </text>
      <text x="42" y="269" style="clip-path:url(#clipPath25); stroke:none;"> Class testedClass
      </text>
    </g>
    <g style="fill:navy; stroke:navy;">
      <polygon style="clip-path:url(#clipPath1); stroke:none;" points=" 351 23 497 23 497 244 351 244 351 37 343 37 343 29 351 29 351 23" />
      <polygon style="fill:white; clip-path:url(#clipPath1); stroke:none;" points=" 348 20 494 20 494 241 348 241 348 34 340 34 340 26 348 26 348 20" />
      <polygon style="fill:none; clip-path:url(#clipPath1); stroke:black;" points=" 348 20 494 20 494 241 348 241 348 34 340 34 340 26 348 26 348 20" />
      <line x1="348" x2="356" y1="34" style="clip-path:url(#clipPath1); fill:none; stroke:black;" y2="34" />
      <line x1="356" x2="356" y1="34" style="clip-path:url(#clipPath1); fill:none; stroke:black;" y2="26" />
      <line x1="356" x2="348" y1="26" style="clip-path:url(#clipPath1); fill:none; stroke:black;" y2="26" />
    </g>
    <g style="font-family:sans-serif;">
      <text x="400" y="33" style="clip-path:url(#clipPath27); stroke:none;">interface
      </text>
      <text x="399" y="50" style="clip-path:url(#clipPath27); font-style:italic; stroke:none; font-weight:bold;">Revision
      </text>
    </g>
    <g>
      <line x1="356" x2="494" y1="66" style="clip-path:url(#clipPath26); fill:none;" y2="66" />
    </g>
    <g style="font-family:sans-serif;">
      <text x="362" y="87" style="clip-path:url(#clipPath29); stroke:none;">+String CVS_REVISION
      </text>
      <line x1="362" x2="489" y1="89" style="clip-path:url(#clipPath29); fill:none;" y2="89" />
    </g>
    <g>
      <line x1="356" x2="494" y1="97" style="clip-path:url(#clipPath26); fill:none;" y2="97" />
    </g>
    <g style="font-family:sans-serif; font-style:italic;">
      <text x="362" y="121" style="clip-path:url(#clipPath31); stroke:none;">+int length
      </text>
      <text x="362" y="145" style="clip-path:url(#clipPath31); stroke:none;">+boolean equals
      </text>
    </g>
    <g>
      <line x1="356" x2="494" y1="161" style="clip-path:url(#clipPath26); fill:none;" y2="161" />
    </g>
    <g style="font-family:sans-serif;">
      <text x="362" y="182" style="clip-path:url(#clipPath33); stroke:none;"> int major
      </text>
      <text x="362" y="197" style="clip-path:url(#clipPath33); stroke:none;"> int minor
      </text>
      <text x="362" y="212" style="clip-path:url(#clipPath33); stroke:none;"> int micro
      </text>
      <text x="362" y="227" style="clip-path:url(#clipPath33); stroke:none;"> int[] number
      </text>
    </g>
    <g style="fill:navy; stroke:navy;">
      <rect x="520" y="23" width="138" style="clip-path:url(#clipPath1); stroke:none;" height="118" />
      <rect x="517" y="20" width="138" style="clip-path:url(#clipPath1); fill:white; stroke:none;" height="118" />
      <rect x="517" y="20" width="138" style="clip-path:url(#clipPath1); fill:none; stroke:black;" height="118" />
    </g>
    <g style="font-family:sans-serif;">
      <text x="622" y="33" style="clip-path:url(#clipPath35); stroke:none;">Error
      </text>
      <text x="545" y="48" style="clip-path:url(#clipPath35); font-weight:bold; stroke:none;">RevisionError
      </text>
    </g>
    <g>
      <line x1="517" x2="655" y1="57" style="clip-path:url(#clipPath34); fill:none;" y2="57" />
    </g>
    <g style="font-family:sans-serif;">
      <text x="523" y="78" style="clip-path:url(#clipPath37); stroke:none;">+String CVS_REVISION
      </text>
      <line x1="523" x2="650" y1="80" style="clip-path:url(#clipPath37); fill:none;" y2="80" />
    </g>
    <g>
      <line x1="517" x2="655" y1="88" style="clip-path:url(#clipPath34); fill:none;" y2="88" />
    </g>
    <g style="font-family:sans-serif;">
      <text x="523" y="109" style="clip-path:url(#clipPath39); stroke:none;">+RevisionError
      </text>
      <text x="523" y="124" style="clip-path:url(#clipPath39); stroke:none;">+RevisionError
      </text>
    </g>
  </g>
</svg>
