<?xml version="1.0" encoding="UTF-8"?>

<!DOCTYPE svg PUBLIC '-//W3C//DTD SVG 20001102//EN' 'http://www.w3.org/TR/2000/CR-SVG-20001102/DTD/svg-20001102.dtd'>
<svg style="fill-opacity:1; color-rendering:auto; color-interpolation:sRGB; text-rendering:auto; stroke:black; stroke-linecap:square; stroke-miterlimit:10; shape-rendering:auto; stroke-opacity:1; fill:black; stroke-dasharray:none; font-weight:normal; stroke-width:1; font-family:&apos;sansserif&apos;; font-style:normal; stroke-linejoin:miter; font-size:12; stroke-dashoffset:0; image-rendering:auto;" width="174" height="218">
  <!--Generated by the Batik Graphics2D SVG Generator-->
  <defs id="genericDefs" />
  <g>
    <defs id="defs1">
      <clipPath clipPathUnits="userSpaceOnUse" id="clipPath1">
        <path d="M0 0 L174 0 L174 218 L0 218 L0 0 Z" />
      </clipPath>
      <clipPath clipPathUnits="userSpaceOnUse" id="clipPath2">
        <path d="M26 10 L26 205 L161 205 L161 10 Z" />
      </clipPath>
      <clipPath clipPathUnits="userSpaceOnUse" id="clipPath3">
        <path d="M27 11 L27 27 L161 27 L161 11 Z" />
      </clipPath>
      <clipPath clipPathUnits="userSpaceOnUse" id="clipPath4">
        <path d="M26 39 L26 73 L161 73 L161 39 Z" />
      </clipPath>
      <clipPath clipPathUnits="userSpaceOnUse" id="clipPath5">
        <path d="M28 41 L28 72 L160 72 L160 41 Z" />
      </clipPath>
      <clipPath clipPathUnits="userSpaceOnUse" id="clipPath6">
        <path d="M26 85 L26 149 L161 149 L161 85 Z" />
      </clipPath>
      <clipPath clipPathUnits="userSpaceOnUse" id="clipPath7">
        <path d="M28 87 L28 148 L160 148 L160 87 Z" />
      </clipPath>
      <clipPath clipPathUnits="userSpaceOnUse" id="clipPath8">
        <path d="M26 161 L26 195 L161 195 L161 161 Z" />
      </clipPath>
      <clipPath clipPathUnits="userSpaceOnUse" id="clipPath9">
        <path d="M28 163 L28 194 L160 194 L160 163 Z" />
      </clipPath>
    </defs>
    <g style="fill:navy; stroke:navy;">
      <polygon style="clip-path:url(#clipPath1); stroke:none;" points=" 21 13 163 13 163 207 21 207 21 27 13 27 13 19 21 19 21 13" />
      <polygon style="fill:white; clip-path:url(#clipPath1); stroke:none;" points=" 18 10 160 10 160 204 18 204 18 24 10 24 10 16 18 16 18 10" />
      <polygon style="fill:none; clip-path:url(#clipPath1); stroke:black;" points=" 18 10 160 10 160 204 18 204 18 24 10 24 10 16 18 16 18 10" />
      <line x1="18" x2="26" y1="24" style="clip-path:url(#clipPath1); fill:none; stroke:black;" y2="24" />
      <line x1="26" x2="26" y1="24" style="clip-path:url(#clipPath1); fill:none; stroke:black;" y2="16" />
      <line x1="26" x2="18" y1="16" style="clip-path:url(#clipPath1); fill:none; stroke:black;" y2="16" />
    </g>
    <g style="font-family:sans-serif; font-weight:bold;">
      <text x="49" y="23" style="clip-path:url(#clipPath3); stroke:none;">RegexReplacer
      </text>
    </g>
    <g>
      <line x1="26" x2="160" y1="32" style="clip-path:url(#clipPath2); fill:none;" y2="32" />
    </g>
    <g style="font-family:sans-serif;">
      <text x="32" y="53" style="clip-path:url(#clipPath5); stroke:none;">-Pattern $pattern
      </text>
      <text x="32" y="68" style="clip-path:url(#clipPath5); stroke:none;">-String $replacement
      </text>
    </g>
    <g>
      <line x1="26" x2="160" y1="78" style="clip-path:url(#clipPath2); fill:none;" y2="78" />
    </g>
    <g style="font-family:sans-serif;">
      <text x="32" y="99" style="clip-path:url(#clipPath7); stroke:none;">+RegexReplacer
      </text>
      <text x="32" y="114" style="clip-path:url(#clipPath7); stroke:none;">+RegexReplacer
      </text>
      <text x="32" y="129" style="clip-path:url(#clipPath7); stroke:none;">+void replace
      </text>
      <text x="32" y="144" style="clip-path:url(#clipPath7); stroke:none;">+void main
      </text>
      <line x1="32" x2="98" y1="146" style="clip-path:url(#clipPath7); fill:none;" y2="146" />
    </g>
    <g>
      <line x1="26" x2="160" y1="154" style="clip-path:url(#clipPath2); fill:none;" y2="154" />
    </g>
    <g style="font-family:sans-serif;">
      <text x="32" y="175" style="clip-path:url(#clipPath9); stroke:none;"> Pattern pattern
      </text>
      <text x="32" y="190" style="clip-path:url(#clipPath9); stroke:none;"> String replacement
      </text>
    </g>
  </g>
</svg>
