<?xml version="1.0" encoding="UTF-8"?>

<!DOCTYPE svg PUBLIC '-//W3C//DTD SVG 20001102//EN' 'http://www.w3.org/TR/2000/CR-SVG-20001102/DTD/svg-20001102.dtd'>
<svg style="fill-opacity:1; color-interpolation:sRGB; color-rendering:auto; text-rendering:auto; stroke:black; stroke-linecap:square; stroke-miterlimit:10; stroke-opacity:1; shape-rendering:auto; fill:black; stroke-dasharray:none; font-weight:normal; stroke-width:1; font-family:&apos;Lucida Sans&apos;; font-style:normal; stroke-linejoin:miter; font-size:12; image-rendering:auto; stroke-dashoffset:0;" width="227" height="1219">
  <!--Generated by the Batik Graphics2D SVG Generator-->
  <defs id="genericDefs" />
  <g>
    <defs id="defs1">
      <clipPath clipPathUnits="userSpaceOnUse" id="clipPath1">
        <path d="M0 0 L227 0 L227 1219 L0 1219 L0 0 Z" />
      </clipPath>
      <clipPath clipPathUnits="userSpaceOnUse" id="clipPath2">
        <path d="M36 676 L36 979 L214 979 L214 676 Z" />
      </clipPath>
      <clipPath clipPathUnits="userSpaceOnUse" id="clipPath3">
        <path d="M37 677 L37 722 L214 722 L214 677 Z" />
      </clipPath>
      <clipPath clipPathUnits="userSpaceOnUse" id="clipPath4">
        <path d="M36 747 L36 927 L214 927 L214 747 Z" />
      </clipPath>
      <clipPath clipPathUnits="userSpaceOnUse" id="clipPath5">
        <path d="M38 749 L38 926 L213 926 L213 749 Z" />
      </clipPath>
      <clipPath clipPathUnits="userSpaceOnUse" id="clipPath6">
        <path d="M36 939 L36 965 L214 965 L214 939 Z" />
      </clipPath>
      <clipPath clipPathUnits="userSpaceOnUse" id="clipPath7">
        <path d="M38 941 L38 964 L213 964 L213 941 Z" />
      </clipPath>
      <clipPath clipPathUnits="userSpaceOnUse" id="clipPath8">
        <path d="M36 964 L36 979 L214 979 L214 964 Z" />
      </clipPath>
      <clipPath clipPathUnits="userSpaceOnUse" id="clipPath9">
        <path d="M66 1051 L66 1206 L167 1206 L167 1051 Z" />
      </clipPath>
      <clipPath clipPathUnits="userSpaceOnUse" id="clipPath10">
        <path d="M67 1052 L67 1075 L167 1075 L167 1052 Z" />
      </clipPath>
      <clipPath clipPathUnits="userSpaceOnUse" id="clipPath11">
        <path d="M66 1100 L66 1192 L167 1192 L167 1100 Z" />
      </clipPath>
      <clipPath clipPathUnits="userSpaceOnUse" id="clipPath12">
        <path d="M68 1102 L68 1191 L166 1191 L166 1102 Z" />
      </clipPath>
      <clipPath clipPathUnits="userSpaceOnUse" id="clipPath13">
        <path d="M66 1191 L66 1206 L167 1206 L167 1191 Z" />
      </clipPath>
      <clipPath clipPathUnits="userSpaceOnUse" id="clipPath14">
        <path d="M52 20 L52 323 L198 323 L198 20 Z" />
      </clipPath>
      <clipPath clipPathUnits="userSpaceOnUse" id="clipPath15">
        <path d="M53 21 L53 88 L198 88 L198 21 Z" />
      </clipPath>
      <clipPath clipPathUnits="userSpaceOnUse" id="clipPath16">
        <path d="M52 113 L52 271 L198 271 L198 113 Z" />
      </clipPath>
      <clipPath clipPathUnits="userSpaceOnUse" id="clipPath17">
        <path d="M54 115 L54 270 L197 270 L197 115 Z" />
      </clipPath>
      <clipPath clipPathUnits="userSpaceOnUse" id="clipPath18">
        <path d="M52 283 L52 309 L198 309 L198 283 Z" />
      </clipPath>
      <clipPath clipPathUnits="userSpaceOnUse" id="clipPath19">
        <path d="M54 285 L54 308 L197 308 L197 285 Z" />
      </clipPath>
      <clipPath clipPathUnits="userSpaceOnUse" id="clipPath20">
        <path d="M52 308 L52 323 L198 323 L198 308 Z" />
      </clipPath>
      <clipPath clipPathUnits="userSpaceOnUse" id="clipPath21">
        <path d="M44 395 L44 604 L190 604 L190 395 Z" />
      </clipPath>
      <clipPath clipPathUnits="userSpaceOnUse" id="clipPath22">
        <path d="M45 396 L45 419 L190 419 L190 396 Z" />
      </clipPath>
      <clipPath clipPathUnits="userSpaceOnUse" id="clipPath23">
        <path d="M44 454 L44 590 L190 590 L190 454 Z" />
      </clipPath>
      <clipPath clipPathUnits="userSpaceOnUse" id="clipPath24">
        <path d="M46 456 L46 589 L189 589 L189 456 Z" />
      </clipPath>
      <clipPath clipPathUnits="userSpaceOnUse" id="clipPath25">
        <path d="M44 589 L44 604 L190 604 L190 589 Z" />
      </clipPath>
    </defs>
    <g style="fill:rgb(0,64,64); stroke:rgb(0,64,64);">
      <line x1="117" x2="117" y1="1051" style="clip-path:url(#clipPath1); fill:none;" y2="981" />
      <line x1="118" x2="118" y1="395" style="clip-path:url(#clipPath1); fill:none; stroke:teal;" y2="395" />
      <line x1="118" x2="118" y1="395" style="clip-path:url(#clipPath1); fill:none; stroke:teal;" y2="385" />
      <line x1="118" x2="118" y1="380" style="clip-path:url(#clipPath1); fill:none; stroke:teal;" y2="370" />
      <line x1="118" x2="118" y1="365" style="clip-path:url(#clipPath1); fill:none; stroke:teal;" y2="355" />
      <line x1="118" x2="118" y1="350" style="clip-path:url(#clipPath1); fill:none; stroke:teal;" y2="340" />
      <line x1="118" x2="118" y1="335" style="clip-path:url(#clipPath1); fill:none; stroke:teal;" y2="325" />
      <line x1="118" x2="118" y1="676" style="clip-path:url(#clipPath1); fill:none;" y2="606" />
      <polygon style="fill:white; clip-path:url(#clipPath1); stroke:none;" points=" 117 981 123 999 111 999" />
      <polygon style="fill:none; clip-path:url(#clipPath1);" points=" 117 981 123 999 111 999" />
      <line x1="111" x2="117" y1="999" style="clip-path:url(#clipPath1); fill:none;" y2="981" />
      <polygon style="fill:white; clip-path:url(#clipPath1); stroke:none;" points=" 118 325 124 343 112 343" />
      <polygon style="fill:none; clip-path:url(#clipPath1); stroke:teal;" points=" 118 325 124 343 112 343" />
      <line x1="112" x2="118" y1="343" style="clip-path:url(#clipPath1); fill:none; stroke:teal;" y2="325" />
      <polygon style="fill:white; clip-path:url(#clipPath1); stroke:none;" points=" 118 606 124 624 112 624" />
      <polygon style="fill:none; clip-path:url(#clipPath1);" points=" 118 606 124 624 112 624" />
      <line x1="112" x2="118" y1="624" style="clip-path:url(#clipPath1); fill:none;" y2="606" />
      <polygon style="fill:navy; clip-path:url(#clipPath1); stroke:none;" points=" 31 679 216 679 216 981 31 981 31 693 23 693 23 685 31 685 31 679" />
      <polygon style="fill:white; clip-path:url(#clipPath1); stroke:none;" points=" 28 676 213 676 213 978 28 978 28 690 20 690 20 682 28 682 28 676" />
      <polygon style="fill:none; clip-path:url(#clipPath1); stroke:black;" points=" 28 676 213 676 213 978 28 978 28 690 20 690 20 682 28 682 28 676" />
      <line x1="28" x2="36" y1="690" style="clip-path:url(#clipPath1); fill:none; stroke:black;" y2="690" />
      <line x1="36" x2="36" y1="690" style="clip-path:url(#clipPath1); fill:none; stroke:black;" y2="682" />
      <line x1="36" x2="28" y1="682" style="clip-path:url(#clipPath1); fill:none; stroke:black;" y2="682" />
    </g>
    <g style="font-family:sans-serif;">
      <text x="99" y="694" style="clip-path:url(#clipPath3); stroke:none;">AbstractPredicate
      </text>
      <text x="54" y="716" style="clip-path:url(#clipPath3); font-style:italic; stroke:none; font-weight:bold;">CompositePredicate
      </text>
    </g>
    <g>
      <line x1="36" x2="213" y1="727" style="clip-path:url(#clipPath2); fill:none;" y2="727" />
      <line x1="36" x2="213" y1="740" style="clip-path:url(#clipPath2); fill:none;" y2="740" />
    </g>
    <g style="font-family:sans-serif;">
      <text x="42" y="766" style="clip-path:url(#clipPath5); stroke:none;">+CompositePredicate
      </text>
      <text x="42" y="788" style="clip-path:url(#clipPath5); stroke:none;">+CompositePredicate
      </text>
      <text x="42" y="810" style="clip-path:url(#clipPath5); stroke:none;">+add:void
      </text>
      <text x="42" y="832" style="clip-path:url(#clipPath5); stroke:none;">+clear:void
      </text>
      <text x="42" y="854" style="clip-path:url(#clipPath5); stroke:none;">+removedPredicateAt:void
      </text>
      <text x="42" y="876" style="clip-path:url(#clipPath5); stroke:none;">+removeAll:void
      </text>
      <text x="42" y="898" style="clip-path:url(#clipPath5); stroke:none;">+predicateAt:Predicate
      </text>
      <text x="42" y="920" style="clip-path:url(#clipPath5); stroke:none;">+nbSubPredicates:int
      </text>
    </g>
    <g>
      <line x1="36" x2="213" y1="932" style="clip-path:url(#clipPath2); fill:none;" y2="932" />
    </g>
    <g style="font-family:sans-serif;">
      <text x="42" y="958" style="clip-path:url(#clipPath7); stroke:none;"> subPredicates:List
      </text>
    </g>
    <g>
      <polygon style="fill:none; clip-path:url(#clipPath8);" points=" 206 969 207 969 207 967 208 966 208 966 209 967 209 969 210 969 210 972 206 972 206 969" />
      <line x1="206" x2="210" y1="969" style="clip-path:url(#clipPath8); fill:none;" y2="969" />
    </g>
    <g style="fill:navy; stroke:navy;">
      <rect x="69" y="1054" width="100" style="clip-path:url(#clipPath1); stroke:none;" height="154" />
      <rect x="66" y="1051" width="100" style="clip-path:url(#clipPath1); fill:white; stroke:none;" height="154" />
      <rect x="66" y="1051" width="100" style="clip-path:url(#clipPath1); fill:none; stroke:black;" height="154" />
    </g>
    <g style="font-weight:bold; font-family:sans-serif;">
      <text x="108" y="1069" style="clip-path:url(#clipPath10); stroke:none;">Or
      </text>
    </g>
    <g>
      <line x1="66" x2="166" y1="1080" style="clip-path:url(#clipPath9); fill:none;" y2="1080" />
      <line x1="66" x2="166" y1="1093" style="clip-path:url(#clipPath9); fill:none;" y2="1093" />
    </g>
    <g style="font-family:sans-serif;">
      <text x="72" y="1119" style="clip-path:url(#clipPath12); stroke:none;">+Or
      </text>
      <text x="72" y="1141" style="clip-path:url(#clipPath12); stroke:none;">+Or
      </text>
      <text x="72" y="1163" style="clip-path:url(#clipPath12); stroke:none;">+Or
      </text>
      <text x="72" y="1185" style="clip-path:url(#clipPath12); stroke:none;">+eval:boolean
      </text>
    </g>
    <g>
      <polygon style="fill:none; clip-path:url(#clipPath13);" points=" 159 1196 160 1196 160 1194 161 1193 161 1193 162 1194 162 1196 163 1196 163 1199 159 1199 159 1196" />
      <line x1="159" x2="163" y1="1196" style="clip-path:url(#clipPath13); fill:none;" y2="1196" />
    </g>
    <g style="fill:navy; stroke:navy;">
      <polygon style="clip-path:url(#clipPath1); stroke:none;" points=" 47 23 200 23 200 325 47 325 47 37 39 37 39 29 47 29 47 23" />
      <polygon style="fill:white; clip-path:url(#clipPath1); stroke:none;" points=" 44 20 197 20 197 322 44 322 44 34 36 34 36 26 44 26 44 20" />
      <polygon style="fill:none; clip-path:url(#clipPath1); stroke:black;" points=" 44 20 197 20 197 322 44 322 44 34 36 34 36 26 44 26 44 20" />
      <line x1="44" x2="52" y1="34" style="clip-path:url(#clipPath1); fill:none; stroke:black;" y2="34" />
      <line x1="52" x2="52" y1="34" style="clip-path:url(#clipPath1); fill:none; stroke:black;" y2="26" />
      <line x1="52" x2="44" y1="26" style="clip-path:url(#clipPath1); fill:none; stroke:black;" y2="26" />
    </g>
    <g style="font-family:sans-serif;">
      <text x="74" y="38" style="clip-path:url(#clipPath15); stroke:none;">CollectionOperator
      </text>
      <text x="97" y="60" style="clip-path:url(#clipPath15); stroke:none;">interface
      </text>
      <text x="92" y="82" style="clip-path:url(#clipPath15); font-style:italic; stroke:none; font-weight:bold;">Predicate
      </text>
    </g>
    <g>
      <line x1="52" x2="197" y1="93" style="clip-path:url(#clipPath14); fill:none;" y2="93" />
      <line x1="52" x2="197" y1="106" style="clip-path:url(#clipPath14); fill:none;" y2="106" />
    </g>
    <g style="font-family:sans-serif; font-style:italic;">
      <text x="58" y="132" style="clip-path:url(#clipPath17); stroke:none;">+eval:boolean
      </text>
      <text x="58" y="154" style="clip-path:url(#clipPath17); stroke:none;">+exists:boolean
      </text>
      <text x="58" y="176" style="clip-path:url(#clipPath17); stroke:none;">+forall:boolean
      </text>
      <text x="58" y="198" style="clip-path:url(#clipPath17); stroke:none;">+count:int
      </text>
      <text x="58" y="220" style="clip-path:url(#clipPath17); stroke:none;">+filter:void
      </text>
      <text x="58" y="242" style="clip-path:url(#clipPath17); stroke:none;">+equals:boolean
      </text>
      <text x="58" y="264" style="clip-path:url(#clipPath17); stroke:none;">+nbSubPredicates:int
      </text>
    </g>
    <g>
      <line x1="52" x2="197" y1="276" style="clip-path:url(#clipPath14); fill:none;" y2="276" />
    </g>
    <g style="font-family:sans-serif;">
      <text x="58" y="302" style="clip-path:url(#clipPath19); stroke:none;"> subPredicates:List
      </text>
    </g>
    <g>
      <polygon style="fill:none; clip-path:url(#clipPath20);" points=" 190 313 191 313 191 311 192 310 192 310 193 311 193 313 194 313 194 316 190 316 190 313" />
      <line x1="190" x2="194" y1="313" style="clip-path:url(#clipPath20); fill:none;" y2="313" />
    </g>
    <g style="fill:navy; stroke:navy;">
      <rect x="47" y="398" width="145" style="clip-path:url(#clipPath1); stroke:none;" height="208" />
      <rect x="44" y="395" width="145" style="clip-path:url(#clipPath1); fill:white; stroke:none;" height="208" />
      <rect x="44" y="395" width="145" style="clip-path:url(#clipPath1); fill:none; stroke:black;" height="208" />
    </g>
    <g style="font-style:italic; font-weight:bold; font-family:sans-serif;">
      <text x="54" y="413" style="clip-path:url(#clipPath22); stroke:none;">AbstractPredicate
      </text>
    </g>
    <g>
      <line x1="44" x2="189" y1="424" style="clip-path:url(#clipPath21); fill:none;" y2="424" />
      <line x1="44" x2="189" y1="447" style="clip-path:url(#clipPath21); fill:none;" y2="447" />
    </g>
    <g style="font-family:sans-serif;">
      <text x="50" y="473" style="clip-path:url(#clipPath24); stroke:none;">+exists:boolean
      </text>
      <text x="50" y="495" style="clip-path:url(#clipPath24); stroke:none;">+forall:boolean
      </text>
      <text x="50" y="517" style="clip-path:url(#clipPath24); stroke:none;">+count:int
      </text>
      <text x="50" y="539" style="clip-path:url(#clipPath24); stroke:none;">+filter:void
      </text>
      <text x="50" y="561" style="clip-path:url(#clipPath24); stroke:none;">+equals:boolean
      </text>
      <text x="50" y="583" style="clip-path:url(#clipPath24); stroke:none;">+nbSubPredicates:int
      </text>
    </g>
    <g>
      <polygon style="fill:none; clip-path:url(#clipPath25);" points=" 182 594 183 594 183 592 184 591 184 591 185 592 185 594 186 594 186 597 182 597 182 594" />
      <line x1="182" x2="186" y1="594" style="clip-path:url(#clipPath25); fill:none;" y2="594" />
    </g>
  </g>
</svg>
