<?xml version="1.0" encoding="UTF-8"?>

<!DOCTYPE svg PUBLIC '-//W3C//DTD SVG 20001102//EN' 'http://www.w3.org/TR/2000/CR-SVG-20001102/DTD/svg-20001102.dtd'>
<svg style="fill-opacity:1; color-interpolation:sRGB; color-rendering:auto; text-rendering:auto; stroke:black; stroke-linecap:square; stroke-miterlimit:10; stroke-opacity:1; shape-rendering:auto; fill:black; stroke-dasharray:none; font-weight:normal; stroke-width:1; font-family:&apos;Lucida Sans&apos;; font-style:normal; stroke-linejoin:miter; font-size:12; image-rendering:auto; stroke-dashoffset:0;" width="225" height="1248">
  <!--Generated by the Batik Graphics2D SVG Generator-->
  <defs id="genericDefs" />
  <g>
    <defs id="defs1">
      <clipPath clipPathUnits="userSpaceOnUse" id="clipPath1">
        <path d="M0 0 L225 0 L225 1248 L0 1248 L0 0 Z" />
      </clipPath>
      <clipPath clipPathUnits="userSpaceOnUse" id="clipPath2">
        <path d="M51 20 L51 323 L197 323 L197 20 Z" />
      </clipPath>
      <clipPath clipPathUnits="userSpaceOnUse" id="clipPath3">
        <path d="M52 21 L52 88 L197 88 L197 21 Z" />
      </clipPath>
      <clipPath clipPathUnits="userSpaceOnUse" id="clipPath4">
        <path d="M51 113 L51 271 L197 271 L197 113 Z" />
      </clipPath>
      <clipPath clipPathUnits="userSpaceOnUse" id="clipPath5">
        <path d="M53 115 L53 270 L196 270 L196 115 Z" />
      </clipPath>
      <clipPath clipPathUnits="userSpaceOnUse" id="clipPath6">
        <path d="M51 283 L51 309 L197 309 L197 283 Z" />
      </clipPath>
      <clipPath clipPathUnits="userSpaceOnUse" id="clipPath7">
        <path d="M53 285 L53 308 L196 308 L196 285 Z" />
      </clipPath>
      <clipPath clipPathUnits="userSpaceOnUse" id="clipPath8">
        <path d="M51 308 L51 323 L197 323 L197 308 Z" />
      </clipPath>
      <clipPath clipPathUnits="userSpaceOnUse" id="clipPath9">
        <path d="M56 676 L56 875 L176 875 L176 676 Z" />
      </clipPath>
      <clipPath clipPathUnits="userSpaceOnUse" id="clipPath10">
        <path d="M57 677 L57 722 L176 722 L176 677 Z" />
      </clipPath>
      <clipPath clipPathUnits="userSpaceOnUse" id="clipPath11">
        <path d="M56 747 L56 861 L176 861 L176 747 Z" />
      </clipPath>
      <clipPath clipPathUnits="userSpaceOnUse" id="clipPath12">
        <path d="M58 749 L58 860 L175 860 L175 749 Z" />
      </clipPath>
      <clipPath clipPathUnits="userSpaceOnUse" id="clipPath13">
        <path d="M56 860 L56 875 L176 875 L176 860 Z" />
      </clipPath>
      <clipPath clipPathUnits="userSpaceOnUse" id="clipPath14">
        <path d="M36 947 L36 1074 L212 1074 L212 947 Z" />
      </clipPath>
      <clipPath clipPathUnits="userSpaceOnUse" id="clipPath15">
        <path d="M37 948 L37 971 L212 971 L212 948 Z" />
      </clipPath>
      <clipPath clipPathUnits="userSpaceOnUse" id="clipPath16">
        <path d="M36 996 L36 1022 L212 1022 L212 996 Z" />
      </clipPath>
      <clipPath clipPathUnits="userSpaceOnUse" id="clipPath17">
        <path d="M38 998 L38 1021 L211 1021 L211 998 Z" />
      </clipPath>
      <clipPath clipPathUnits="userSpaceOnUse" id="clipPath18">
        <path d="M36 1034 L36 1060 L212 1060 L212 1034 Z" />
      </clipPath>
      <clipPath clipPathUnits="userSpaceOnUse" id="clipPath19">
        <path d="M38 1036 L38 1059 L211 1059 L211 1036 Z" />
      </clipPath>
      <clipPath clipPathUnits="userSpaceOnUse" id="clipPath20">
        <path d="M36 1059 L36 1074 L212 1074 L212 1059 Z" />
      </clipPath>
      <clipPath clipPathUnits="userSpaceOnUse" id="clipPath21">
        <path d="M65 1146 L65 1235 L166 1235 L166 1146 Z" />
      </clipPath>
      <clipPath clipPathUnits="userSpaceOnUse" id="clipPath22">
        <path d="M66 1147 L66 1170 L166 1170 L166 1147 Z" />
      </clipPath>
      <clipPath clipPathUnits="userSpaceOnUse" id="clipPath23">
        <path d="M65 1195 L65 1221 L166 1221 L166 1195 Z" />
      </clipPath>
      <clipPath clipPathUnits="userSpaceOnUse" id="clipPath24">
        <path d="M67 1197 L67 1220 L165 1220 L165 1197 Z" />
      </clipPath>
      <clipPath clipPathUnits="userSpaceOnUse" id="clipPath25">
        <path d="M65 1220 L65 1235 L166 1235 L166 1220 Z" />
      </clipPath>
      <clipPath clipPathUnits="userSpaceOnUse" id="clipPath26">
        <path d="M43 395 L43 604 L189 604 L189 395 Z" />
      </clipPath>
      <clipPath clipPathUnits="userSpaceOnUse" id="clipPath27">
        <path d="M44 396 L44 419 L189 419 L189 396 Z" />
      </clipPath>
      <clipPath clipPathUnits="userSpaceOnUse" id="clipPath28">
        <path d="M43 454 L43 590 L189 590 L189 454 Z" />
      </clipPath>
      <clipPath clipPathUnits="userSpaceOnUse" id="clipPath29">
        <path d="M45 456 L45 589 L188 589 L188 456 Z" />
      </clipPath>
      <clipPath clipPathUnits="userSpaceOnUse" id="clipPath30">
        <path d="M43 589 L43 604 L189 604 L189 589 Z" />
      </clipPath>
    </defs>
    <g style="fill:rgb(0,64,64); stroke:rgb(0,64,64);">
      <line x1="117" x2="117" y1="947" style="clip-path:url(#clipPath1); fill:none;" y2="877" />
      <line x1="116" x2="116" y1="1146" style="clip-path:url(#clipPath1); fill:none;" y2="1076" />
      <line x1="117" x2="117" y1="395" style="clip-path:url(#clipPath1); fill:none; stroke:teal;" y2="395" />
      <line x1="117" x2="117" y1="395" style="clip-path:url(#clipPath1); fill:none; stroke:teal;" y2="385" />
      <line x1="117" x2="117" y1="380" style="clip-path:url(#clipPath1); fill:none; stroke:teal;" y2="370" />
      <line x1="117" x2="117" y1="365" style="clip-path:url(#clipPath1); fill:none; stroke:teal;" y2="355" />
      <line x1="117" x2="117" y1="350" style="clip-path:url(#clipPath1); fill:none; stroke:teal;" y2="340" />
      <line x1="117" x2="117" y1="335" style="clip-path:url(#clipPath1); fill:none; stroke:teal;" y2="325" />
      <line x1="117" x2="117" y1="676" style="clip-path:url(#clipPath1); fill:none;" y2="606" />
      <polygon style="fill:white; clip-path:url(#clipPath1); stroke:none;" points=" 117 877 123 895 111 895" />
      <polygon style="fill:none; clip-path:url(#clipPath1);" points=" 117 877 123 895 111 895" />
      <line x1="111" x2="117" y1="895" style="clip-path:url(#clipPath1); fill:none;" y2="877" />
      <polygon style="fill:white; clip-path:url(#clipPath1); stroke:none;" points=" 116 1076 122 1094 110 1094" />
      <polygon style="fill:none; clip-path:url(#clipPath1);" points=" 116 1076 122 1094 110 1094" />
      <line x1="110" x2="116" y1="1094" style="clip-path:url(#clipPath1); fill:none;" y2="1076" />
      <polygon style="fill:white; clip-path:url(#clipPath1); stroke:none;" points=" 117 325 123 343 111 343" />
      <polygon style="fill:none; clip-path:url(#clipPath1); stroke:teal;" points=" 117 325 123 343 111 343" />
      <line x1="111" x2="117" y1="343" style="clip-path:url(#clipPath1); fill:none; stroke:teal;" y2="325" />
      <polygon style="fill:white; clip-path:url(#clipPath1); stroke:none;" points=" 117 606 123 624 111 624" />
      <polygon style="fill:none; clip-path:url(#clipPath1);" points=" 117 606 123 624 111 624" />
      <line x1="111" x2="117" y1="624" style="clip-path:url(#clipPath1); fill:none;" y2="606" />
      <polygon style="fill:navy; clip-path:url(#clipPath1); stroke:none;" points=" 46 23 199 23 199 325 46 325 46 37 38 37 38 29 46 29 46 23" />
      <polygon style="fill:white; clip-path:url(#clipPath1); stroke:none;" points=" 43 20 196 20 196 322 43 322 43 34 35 34 35 26 43 26 43 20" />
      <polygon style="fill:none; clip-path:url(#clipPath1); stroke:black;" points=" 43 20 196 20 196 322 43 322 43 34 35 34 35 26 43 26 43 20" />
      <line x1="43" x2="51" y1="34" style="clip-path:url(#clipPath1); fill:none; stroke:black;" y2="34" />
      <line x1="51" x2="51" y1="34" style="clip-path:url(#clipPath1); fill:none; stroke:black;" y2="26" />
      <line x1="51" x2="43" y1="26" style="clip-path:url(#clipPath1); fill:none; stroke:black;" y2="26" />
    </g>
    <g style="font-family:sans-serif;">
      <text x="73" y="38" style="clip-path:url(#clipPath3); stroke:none;">CollectionOperator
      </text>
      <text x="96" y="60" style="clip-path:url(#clipPath3); stroke:none;">interface
      </text>
      <text x="91" y="82" style="clip-path:url(#clipPath3); font-style:italic; stroke:none; font-weight:bold;">Predicate
      </text>
    </g>
    <g>
      <line x1="51" x2="196" y1="93" style="clip-path:url(#clipPath2); fill:none;" y2="93" />
      <line x1="51" x2="196" y1="106" style="clip-path:url(#clipPath2); fill:none;" y2="106" />
    </g>
    <g style="font-family:sans-serif; font-style:italic;">
      <text x="57" y="132" style="clip-path:url(#clipPath5); stroke:none;">+eval:boolean
      </text>
      <text x="57" y="154" style="clip-path:url(#clipPath5); stroke:none;">+exists:boolean
      </text>
      <text x="57" y="176" style="clip-path:url(#clipPath5); stroke:none;">+forall:boolean
      </text>
      <text x="57" y="198" style="clip-path:url(#clipPath5); stroke:none;">+count:int
      </text>
      <text x="57" y="220" style="clip-path:url(#clipPath5); stroke:none;">+filter:void
      </text>
      <text x="57" y="242" style="clip-path:url(#clipPath5); stroke:none;">+equals:boolean
      </text>
      <text x="57" y="264" style="clip-path:url(#clipPath5); stroke:none;">+nbSubPredicates:int
      </text>
    </g>
    <g>
      <line x1="51" x2="196" y1="276" style="clip-path:url(#clipPath2); fill:none;" y2="276" />
    </g>
    <g style="font-family:sans-serif;">
      <text x="57" y="302" style="clip-path:url(#clipPath7); stroke:none;"> subPredicates:List
      </text>
    </g>
    <g>
      <polygon style="fill:none; clip-path:url(#clipPath8);" points=" 189 313 190 313 190 311 191 310 191 310 192 311 192 313 193 313 193 316 189 316 189 313" />
      <line x1="189" x2="193" y1="313" style="clip-path:url(#clipPath8); fill:none;" y2="313" />
    </g>
    <g style="fill:navy; stroke:navy;">
      <rect x="59" y="679" width="119" style="clip-path:url(#clipPath1); stroke:none;" height="198" />
      <rect x="56" y="676" width="119" style="clip-path:url(#clipPath1); fill:white; stroke:none;" height="198" />
      <rect x="56" y="676" width="119" style="clip-path:url(#clipPath1); fill:none; stroke:black;" height="198" />
    </g>
    <g style="font-family:sans-serif;">
      <text x="61" y="694" style="clip-path:url(#clipPath10); stroke:none;">AbstractPredicate
      </text>
      <text x="65" y="716" style="clip-path:url(#clipPath10); font-style:italic; stroke:none; font-weight:bold;">TotalPredicate
      </text>
    </g>
    <g>
      <line x1="56" x2="175" y1="727" style="clip-path:url(#clipPath9); fill:none;" y2="727" />
      <line x1="56" x2="175" y1="740" style="clip-path:url(#clipPath9); fill:none;" y2="740" />
    </g>
    <g style="font-family:sans-serif; font-style:italic;">
      <text x="62" y="766" style="clip-path:url(#clipPath12); stroke:none;">+eval:boolean
      </text>
      <text x="62" y="788" style="font-style:normal; clip-path:url(#clipPath12); stroke:none;">+exists:boolean
      </text>
      <text x="62" y="810" style="font-style:normal; clip-path:url(#clipPath12); stroke:none;">+forall:boolean
      </text>
      <text x="62" y="832" style="font-style:normal; clip-path:url(#clipPath12); stroke:none;">+count:int
      </text>
      <text x="62" y="854" style="font-style:normal; clip-path:url(#clipPath12); stroke:none;">+filter:void
      </text>
    </g>
    <g>
      <polygon style="fill:none; clip-path:url(#clipPath13);" points=" 168 865 169 865 169 863 170 862 170 862 171 863 171 865 172 865 172 868 168 868 168 865" />
      <line x1="168" x2="172" y1="865" style="clip-path:url(#clipPath13); fill:none;" y2="865" />
    </g>
    <g style="fill:navy; stroke:navy;">
      <polygon style="clip-path:url(#clipPath1); stroke:none;" points=" 31 950 214 950 214 1076 31 1076 31 964 23 964 23 956 31 956 31 950" />
      <polygon style="fill:white; clip-path:url(#clipPath1); stroke:none;" points=" 28 947 211 947 211 1073 28 1073 28 961 20 961 20 953 28 953 28 947" />
      <polygon style="fill:none; clip-path:url(#clipPath1); stroke:black;" points=" 28 947 211 947 211 1073 28 1073 28 961 20 961 20 953 28 953 28 947" />
      <line x1="28" x2="36" y1="961" style="clip-path:url(#clipPath1); fill:none; stroke:black;" y2="961" />
      <line x1="36" x2="36" y1="961" style="clip-path:url(#clipPath1); fill:none; stroke:black;" y2="953" />
      <line x1="36" x2="28" y1="953" style="clip-path:url(#clipPath1); fill:none; stroke:black;" y2="953" />
    </g>
    <g style="font-style:italic; font-weight:bold; font-family:sans-serif;">
      <text x="41" y="965" style="clip-path:url(#clipPath15); stroke:none;">PrimitiveTotalPredicate
      </text>
    </g>
    <g>
      <line x1="36" x2="211" y1="976" style="clip-path:url(#clipPath14); fill:none;" y2="976" />
      <line x1="36" x2="211" y1="989" style="clip-path:url(#clipPath14); fill:none;" y2="989" />
    </g>
    <g style="font-family:sans-serif;">
      <text x="42" y="1015" style="clip-path:url(#clipPath17); stroke:none;">+nbSubPredicates:int
      </text>
    </g>
    <g>
      <line x1="36" x2="211" y1="1027" style="clip-path:url(#clipPath14); fill:none;" y2="1027" />
    </g>
    <g style="font-family:sans-serif;">
      <text x="42" y="1053" style="clip-path:url(#clipPath19); stroke:none;"> subPredicates:List
      </text>
    </g>
    <g>
      <polygon style="fill:none; clip-path:url(#clipPath20);" points=" 204 1064 205 1064 205 1062 206 1061 206 1061 207 1062 207 1064 208 1064 208 1067 204 1067 204 1064" />
      <line x1="204" x2="208" y1="1064" style="clip-path:url(#clipPath20); fill:none;" y2="1064" />
    </g>
    <g style="fill:navy; stroke:navy;">
      <rect x="68" y="1149" width="100" style="clip-path:url(#clipPath1); stroke:none;" height="88" />
      <rect x="65" y="1146" width="100" style="clip-path:url(#clipPath1); fill:white; stroke:none;" height="88" />
      <rect x="65" y="1146" width="100" style="clip-path:url(#clipPath1); fill:none; stroke:black;" height="88" />
    </g>
    <g style="font-weight:bold; font-family:sans-serif;">
      <text x="99" y="1164" style="clip-path:url(#clipPath22); stroke:none;">True
      </text>
    </g>
    <g>
      <line x1="65" x2="165" y1="1175" style="clip-path:url(#clipPath21); fill:none;" y2="1175" />
      <line x1="65" x2="165" y1="1188" style="clip-path:url(#clipPath21); fill:none;" y2="1188" />
    </g>
    <g style="font-family:sans-serif;">
      <text x="71" y="1214" style="clip-path:url(#clipPath24); stroke:none;">+eval:boolean
      </text>
    </g>
    <g>
      <polygon style="fill:none; clip-path:url(#clipPath25);" points=" 158 1225 159 1225 159 1223 160 1222 160 1222 161 1223 161 1225 162 1225 162 1228 158 1228 158 1225" />
      <line x1="158" x2="162" y1="1225" style="clip-path:url(#clipPath25); fill:none;" y2="1225" />
    </g>
    <g style="fill:navy; stroke:navy;">
      <rect x="46" y="398" width="145" style="clip-path:url(#clipPath1); stroke:none;" height="208" />
      <rect x="43" y="395" width="145" style="clip-path:url(#clipPath1); fill:white; stroke:none;" height="208" />
      <rect x="43" y="395" width="145" style="clip-path:url(#clipPath1); fill:none; stroke:black;" height="208" />
    </g>
    <g style="font-style:italic; font-weight:bold; font-family:sans-serif;">
      <text x="53" y="413" style="clip-path:url(#clipPath27); stroke:none;">AbstractPredicate
      </text>
    </g>
    <g>
      <line x1="43" x2="188" y1="424" style="clip-path:url(#clipPath26); fill:none;" y2="424" />
      <line x1="43" x2="188" y1="447" style="clip-path:url(#clipPath26); fill:none;" y2="447" />
    </g>
    <g style="font-family:sans-serif;">
      <text x="49" y="473" style="clip-path:url(#clipPath29); stroke:none;">+exists:boolean
      </text>
      <text x="49" y="495" style="clip-path:url(#clipPath29); stroke:none;">+forall:boolean
      </text>
      <text x="49" y="517" style="clip-path:url(#clipPath29); stroke:none;">+count:int
      </text>
      <text x="49" y="539" style="clip-path:url(#clipPath29); stroke:none;">+filter:void
      </text>
      <text x="49" y="561" style="clip-path:url(#clipPath29); stroke:none;">+equals:boolean
      </text>
      <text x="49" y="583" style="clip-path:url(#clipPath29); stroke:none;">+nbSubPredicates:int
      </text>
    </g>
    <g>
      <polygon style="fill:none; clip-path:url(#clipPath30);" points=" 181 594 182 594 182 592 183 591 183 591 184 592 184 594 185 594 185 597 181 597 181 594" />
      <line x1="181" x2="185" y1="594" style="clip-path:url(#clipPath30); fill:none;" y2="594" />
    </g>
  </g>
</svg>
